<?xml version="1.0" encoding="UTF-8" standalone="no"?>
<svg width="650px" height="275px" viewBox="0 0 650 275" version="1.1" xmlns="http://www.w3.org/2000/svg" xmlns:xlink="http://www.w3.org/1999/xlink">
    <!-- Generator: Sketch 40.1 (33804) - http://www.bohemiancoding.com/sketch -->
    <title>responsetek-thumb</title>
    <desc>Created with Sketch.</desc>
    <defs></defs>
    <g id="Page-1" stroke="none" stroke-width="1" fill="none" fill-rule="evenodd">
        <g id="responsetek-thumb" fill="#020302">
            <g id="Page-1" transform="translate(64.000000, 20.000000)">
                <path d="M499.204616,57.1124518 C497.847605,58.5196988 495.50596,58.8449851 493.817018,57.8621459 C494.381858,56.4828204 495.58964,55.3841067 497.014989,54.9513224 C497.731848,55.6535498 498.450101,56.3543812 499.168354,57.0552125 L499.204616,57.1124518 Z" id="Fill-1"></path>
                <path d="M8.76199333,28.6297992 C7.77875333,28.0252973 8.332436,26.1475718 9.48722,26.1740973 C10.4439613,26.8679482 9.859596,28.7247325 8.67831333,28.7442776 L8.76199333,28.6297992 Z" id="Fill-3"></path>
                <path d="M345.239413,56.9038776 C342.547706,58.3404424 343.299431,62.4337443 344.87401,65.0485992 C348.793023,71.5585129 355.56413,76.275862 363.022807,77.6914855 C365.27101,78.1186855 368.077079,78.0153757 369.230469,76.0357365 C370.358754,74.1021678 369.173287,71.6743875 369.251389,69.4364737 C369.316938,67.5643325 370.280653,65.8555325 370.789706,64.0517992 C371.298759,62.249462 371.194159,59.9850227 369.660026,58.9114384 C368.851119,58.3474227 367.819066,58.2413208 366.837221,58.1533678 C360.828997,57.6130855 354.820773,57.0741992 348.812549,56.5339169 C347.601978,56.4250227 346.311911,56.3314855 345.239413,56.9038776 M352.879397,89.5176659 C350.454071,86.3848659 351.105381,81.3198933 354.244775,78.9046776 C350.550303,76.4112816 345.515557,76.062262 341.512863,78.02096 C340.268821,77.2949992 340.628645,75.012411 342.034469,74.7038776 C345.154338,74.0211953 344.847511,68.8682698 342.080493,67.2725522 C339.313474,65.6768345 335.839359,66.5242541 332.779461,67.4386855 C329.719562,68.3545129 326.281709,69.2661522 323.460298,67.7695561 C325.131109,61.2791875 338.339997,65.4339169 340.014991,58.9449443 C338.381837,56.0271404 334.196442,56.2058384 330.903634,56.7782306 C321.447794,58.4242071 311.991954,60.0701835 302.537509,61.71616 C301.173525,61.9534933 299.706335,62.2438776 298.76633,63.2602227 C297.826325,64.2765678 297.872349,66.2659796 299.165205,66.7601914 C295.819399,69.3261835 291.123557,67.1078149 287.129231,65.7578071 C283.134906,64.4077992 277.031845,65.5372267 277.192231,69.7533835 C277.727783,83.7574463 278.263335,97.761509 278.798887,111.765572 C278.839333,112.812631 278.949511,114.002089 279.782127,114.637305 C280.284207,115.019831 280.943885,115.107784 281.57009,115.181776 C301.77881,117.56907 322.082367,119.145242 342.416607,119.904709 C346.010663,120.038733 349.691189,120.136458 353.113701,119.027972 C356.537607,117.918089 359.707685,115.353493 360.545879,111.852129 C362.594645,103.278811 364.644805,94.7040973 366.694965,86.1307796 C367.520607,82.6782776 362.728533,80.1011169 359.45525,81.4678776 C356.181967,82.8346384 354.396794,86.3080816 352.879397,89.5176659 M314.652978,55.3947169 C332.785039,51.783062 351.622802,51.7579325 369.766021,55.3193286 C371.417306,55.6432188 373.182954,56.0648345 374.286135,57.336662 C375.848162,59.1362071 375.472997,61.8515796 375.005783,64.1886149 C371.726922,80.6344188 368.446666,97.0802227 365.16641,113.526027 C364.307295,117.839909 360.478935,121.073227 356.314461,122.476285 C352.148591,123.877948 347.648002,123.771846 343.256197,123.623862 C320.760223,122.867187 298.287959,121.406889 275.884034,119.24576 C273.655357,119.030764 271.112879,118.623109 269.924623,116.723046 C279.111293,102.73434 268.152002,83.6485522 272.393183,67.4540424 C273.451735,63.4082071 276.57021,59.0063718 280.705397,59.6080816 C292.055194,61.2582463 303.404991,57.6340267 314.652978,55.3947169" id="Fill-5"></path>
                <path d="M279.391063,222.247589 C333.084335,220.565315 387.18206,237.959056 429.853282,270.625895 C384.924095,248.738177 333.402319,240.647903 283.936282,247.713456 C281.324071,248.086209 278.593314,248.491071 276.09965,247.626899 C273.60738,246.762726 271.493066,244.160436 272.147164,241.601424 C278.922455,244.488515 286.639146,243.16224 293.948594,242.279918 C326.311834,238.373691 359.004215,244.240013 390.882111,251.06544 C359.80057,234.918397 324.878116,226.243165 289.860826,225.968138 C285.97389,225.937424 281.344991,225.610742 279.391063,222.247589" id="Fill-7"></path>
                <path d="M309.249621,142.285801 C299.678024,141.940969 290.106426,141.594742 280.534829,141.249911 C331.936664,131.612781 384.014912,149.911181 433.118336,167.924781 C436.839306,169.290146 441.338501,173.327605 438.638426,176.232844 C393.367546,152.179809 339.280978,145.231526 289.410488,157.064687 C290.817706,152.795479 295.90545,151.174632 300.315386,150.325816 C317.638541,146.990585 335.448434,146.19482 352.99892,147.973424 C338.971362,143.388703 323.996826,142.817707 309.249621,142.285801" id="Fill-9"></path>
                <g id="Group-13" transform="translate(0.000000, 0.756675)">
                    <path d="M120.060019,279.98702 C120.497945,280.491004 121.278958,279.485827 120.841033,278.983239 C120.403107,278.479255 119.594201,278.597922 118.976363,278.84782 C118.357131,279.097718 117.700243,279.443945 117.060091,279.258267 C117.913627,279.873937 119.067017,280.051239 120.065598,279.721765 L120.060019,279.98702 Z M37.8430248,282.781969 C38.9364435,283.167286 39.9991795,281.465467 39.1763261,280.650157 C38.2307421,280.193639 37.7188995,281.792149 37.8820755,282.829435 L37.8430248,282.781969 Z M259.869774,38.8451843 C260.147313,40.2021725 262.772075,39.3631294 262.212814,38.0954902 C261.627054,37.0917098 259.705203,37.7380941 259.846065,38.892651 L259.869774,38.8451843 Z M34.2141021,190.4956 C34.3633315,189.663537 32.8333821,189.544871 32.4972675,190.319694 C32.1625475,191.095914 32.6283661,191.964275 33.0774488,192.679067 C34.0690568,192.757247 34.8040461,191.377922 34.1876035,190.597514 L34.2141021,190.4956 Z M107.906894,266.798267 C106.950153,266.481357 105.498305,267.050957 105.784211,268.017043 C107.125881,268.948227 109.206723,268.525216 110.076995,267.143098 C109.442422,266.738235 108.644673,266.593043 107.908289,266.7508 L107.906894,266.798267 Z M252.038721,209.653984 C251.697027,210.604714 252.285577,212.034298 253.268817,211.798361 C253.913153,210.456729 253.910363,208.821922 253.260449,207.481686 C252.332995,207.026565 251.839283,208.616698 252.023379,209.634439 L252.038721,209.653984 Z M33.8473048,185.134659 C33.4149581,183.874 32.9812168,182.614737 32.5488701,181.354078 C31.0091581,182.557498 31.5042648,185.458549 33.3549875,186.082596 L33.8473048,185.134659 Z M22.1795235,32.9718824 C21.3092515,33.0039922 21.0735528,34.514549 21.8922221,34.8105176 C23.1571848,35.7472863 25.2756835,34.2506902 24.8168381,32.7429255 C24.0595341,32.1454039 22.8949875,32.1370275 22.1293155,32.7233804 L22.1795235,32.9718824 Z M250.001113,230.331302 C250.991326,229.429435 251.326046,227.881184 250.798862,226.649843 C248.533923,226.440431 247.854721,230.607725 250.069451,231.128463 L250.001113,230.331302 Z M27.5503848,129.04302 L27.3272381,134.722267 C28.0692008,135.135506 28.9492355,135.294659 29.7874301,135.164824 C29.9380541,132.940871 29.3732141,130.675035 28.1961155,128.783349 L27.5503848,129.04302 Z M427.582625,349.130596 C428.051233,350.815663 430.137654,351.833404 431.752678,351.164682 C432.482089,350.152525 432.104134,348.528886 431.002347,347.945325 C429.900561,347.360369 428.346902,347.95789 427.920134,349.130596 L427.582625,349.130596 Z M38.6310115,289.766549 C37.0257501,292.099396 37.6142995,295.663584 39.8848168,297.354235 C40.9573155,294.79662 40.8387688,291.767129 39.5696221,289.301655 L38.6310115,289.766549 Z M238.457457,298.137435 C237.736414,297.918251 236.914955,298.055067 236.302697,298.497624 C236.093497,299.219396 236.258067,300.037498 236.72807,300.622455 C239.299835,301.187867 242.068249,300.805341 244.391763,299.565624 C242.891102,298.080196 240.520169,297.54829 238.529979,298.251914 L238.457457,298.137435 Z M417.044523,337.233216 C415.121278,335.220071 412.930257,333.463804 410.546771,332.024447 C411.291523,335.414125 413.79495,338.364039 417.013841,339.647035 C418.059841,339.72382 417.768355,337.992682 417.044523,337.233216 L417.044523,337.233216 Z M360.539603,310.258188 C362.711099,312.589639 366.143374,313.667412 369.25627,312.994502 C368.180982,309.588071 363.365198,308.076118 360.539603,310.258188 L360.539603,310.258188 Z M36.9113875,268.089639 C38.3478941,264.526847 38.3548675,260.409812 36.9309128,256.841435 C36.7021875,256.269043 35.7468408,256.218784 35.4581448,256.763255 C34.4177235,260.531271 34.9532755,264.708337 36.9113875,268.089639 L36.9113875,268.089639 Z M232.869027,290.344525 C232.92063,291.218471 234.023811,291.556322 234.898267,291.596808 C237.987454,291.737812 241.114297,290.979741 243.797635,289.439867 C241.01667,287.268965 236.864747,287.058157 233.878766,288.934486 C233.364134,289.25698 232.834161,289.737231 232.869027,290.344525 L232.869027,290.344525 Z M392.071622,310.986941 C386.163814,308.264588 380.002177,306.097875 373.692705,304.524494 C380.102593,307.89742 386.632422,311.041388 393.265457,313.94942 C394.56947,313.49709 393.324033,311.563522 392.071622,310.986941 L392.071622,310.986941 Z M369.334371,308.031443 C374.505795,312.655255 381.028651,315.746173 387.879254,316.815569 C382.808246,312.059129 376.225419,308.94029 369.334371,308.031443 L369.334371,308.031443 Z M34.5446381,229.527161 C34.8598328,234.631224 35.1931581,239.820447 36.9727528,244.61458 C38.4022861,238.901827 38.3130275,232.817718 36.7175288,227.149639 C35.8653875,225.962973 34.4553795,228.068259 34.5446381,229.527161 L34.5446381,229.527161 Z M56.5413208,275.463725 C62.8117421,274.313357 68.9231715,272.303004 74.6538568,269.508055 C75.7737741,268.960792 77.0359475,268.144086 77.0443155,266.897388 C69.5730861,267.679192 62.3501075,270.696118 56.5413208,275.463725 L56.5413208,275.463725 Z M17.4474195,49.5517098 C19.1307821,56.8155059 20.8127501,64.079302 22.4947181,71.341702 C24.7373421,61.9139843 22.5267955,51.5243686 16.6426968,43.8277882 C16.5729635,45.7599608 17.0122835,47.6684 17.4474195,49.5517098 L17.4474195,49.5517098 Z M125.271889,261.597875 C116.404598,259.337624 107.067305,260.947302 98.0605475,262.563961 C95.0954861,263.097263 92.1262408,263.630565 89.2072035,264.381655 C88.5377635,265.35891 90.3326995,266.105812 91.5056141,265.953639 C102.760574,264.501718 114.016929,263.049796 125.271889,261.597875 L125.271889,261.597875 Z M209.308923,21.0326196 C199.226878,13.8428157 187.748771,8.62148235 175.708614,5.74556078 C174.518963,5.46076078 172.744947,5.61851765 172.732395,6.84287843 C172.722633,7.69448627 173.672401,8.1845098 174.472939,8.47349804 C186.084934,12.6603373 197.696929,16.8457804 209.308923,21.0326196 L209.308923,21.0326196 Z M185.513121,265.233263 C171.247075,261.396839 156.321353,260.964055 141.554622,260.555004 C137.088899,260.430753 132.521366,260.320463 128.267633,261.690016 C144.49179,262.126988 160.689449,263.569137 176.735089,266.009482 C179.709913,266.461812 182.997142,266.884824 185.513121,265.233263 L185.513121,265.233263 Z M426.270243,341.925435 C427.630043,343.92462 430.437507,346.222565 431.961878,344.346235 C423.04159,330.969012 410.065611,320.342063 395.199859,314.239804 C398.828782,317.040337 402.457705,319.840871 406.088022,322.640008 C413.486729,328.348573 421.015139,334.192557 426.270243,341.925435 L426.270243,341.925435 Z M463.58455,284.126392 C458.332235,290.942047 454.826043,298.913655 451.371454,306.795914 C447.51799,315.591208 443.664526,324.387898 439.809667,333.183192 C438.85711,335.356886 437.883633,337.733012 438.455446,340.037937 C439.727382,340.396729 440.742699,338.992275 441.314513,337.800024 C449.700643,320.329498 457.138401,302.403851 463.58455,284.126392 L463.58455,284.126392 Z M428.093073,36.170298 C427.182355,37.0330745 428.337139,38.465451 429.395691,39.1369647 C444.887649,48.9779216 461.758931,56.6382039 479.361019,61.8218431 C480.133665,61.7366824 480.437702,60.6589098 480.066721,59.9748314 C479.695739,59.2907529 478.937041,58.9291686 478.227155,58.6108627 C461.516259,51.1306745 444.803969,43.6504863 428.093073,36.170298 L428.093073,36.170298 Z M377.118006,20.7520078 C367.895075,17.6890118 357.831161,19.3950196 348.350217,21.5240392 C332.208345,25.1496549 316.324486,29.9242431 300.859027,35.8017333 C303.648361,38.1052627 307.790521,36.9772314 311.208849,35.796149 C332.551433,28.4234588 354.691766,23.3682588 377.118006,20.7520078 L377.118006,20.7520078 Z M202.978531,286.333592 C180.24407,279.953514 156.467793,277.312133 132.890953,278.549059 C129.821291,278.709608 126.70979,278.945545 123.814462,279.978643 C152.218243,281.163914 180.532766,284.501937 208.434467,289.95502 C207.614403,287.838565 205.161185,286.946471 202.978531,286.333592 L202.978531,286.333592 Z M340.319726,304.248071 C316.081814,296.323929 290.106147,293.777482 264.792947,296.843271 C263.023115,297.058267 260.832094,297.696275 260.590817,299.46371 C287.68919,298.715412 314.871243,301.048259 341.446617,306.403616 C342.443803,306.016902 341.337833,304.580337 340.319726,304.248071 L340.319726,304.248071 Z M459.909603,58.6820627 C448.561201,53.7092314 437.127723,48.6917255 426.966182,41.5968549 C407.892721,28.2810588 383.506974,20.150298 361.190913,26.6965098 C383.158307,29.3378902 404.387923,36.5821412 424.381865,46.067098 C435.809763,51.4894667 447.296238,57.7704235 459.909603,58.6820627 L459.909603,58.6820627 Z M362.211809,305.071757 C354.34031,303.438345 346.669643,300.837451 339.425745,297.347255 C346.917894,298.415255 354.410043,299.483255 361.902193,300.551255 C332.689505,289.008478 300.951075,283.921169 269.598969,285.755616 C262.223971,286.187004 254.738795,286.988353 247.515817,285.441498 C247.64831,288.383035 250.319097,290.694941 253.162822,291.444635 C256.006547,292.194329 259.00787,291.746188 261.926907,291.390188 C277.105065,289.536196 292.599811,290.316604 307.515771,293.683945 C308.750051,293.963161 310.07359,294.253545 311.252083,293.792839 C312.431971,293.330737 313.25343,291.767129 312.494731,290.75218 C321.334129,291.446031 329.034083,296.709247 336.837243,300.925404 C344.640403,305.141561 354.015353,308.457247 362.211809,305.071757 L362.211809,305.071757 Z M225.018449,281.265827 C218.086955,272.215051 205.275547,270.729624 193.906225,269.978533 C185.550777,269.428478 177.195329,268.877027 168.839881,268.325576 C169.042107,270.12931 171.291705,271.356463 172.915097,270.550925 C147.130499,271.007443 121.347297,271.463961 95.5626995,271.920478 C82.7861581,272.146643 69.5647181,272.471929 58.0071155,277.926408 C51.1328035,281.17229 44.6964168,286.865498 43.5709208,294.388965 C46.7368141,291.415318 49.9445475,288.409561 53.7352515,286.290314 C58.2944168,283.741075 63.4839715,282.592102 68.6037928,281.5604 C116.824393,271.842298 167.980766,269.984118 214.227913,286.756604 C217.761998,288.0396 223.583337,287.81902 223.185857,284.076133 C206.834785,280.235522 190.458609,276.501012 174.058723,272.872604 C191.384667,271.902329 208.915627,274.78942 225.018449,281.265827 L225.018449,281.265827 Z M260.364881,59.0227059 C262.219787,59.3214667 264.076089,59.6188314 265.930995,59.9161961 C263.276945,55.4054667 263.360625,49.4162902 266.140195,44.9823451 C267.872371,42.2195059 270.494345,38.4542824 268.048099,36.3001333 C267.723142,40.1170118 263.864099,42.8505333 260.058054,43.2456235 C256.250614,43.6407137 252.505934,42.2767451 248.921641,40.9351137 C223.335086,31.3636 197.747137,21.7920863 172.160582,12.2205725 C157.368747,6.68791373 140.797318,8.41067451 125.574531,12.6114745 C110.351745,16.8108784 95.8569741,23.3724471 80.6286088,27.5495137 C65.7809875,31.6232706 50.3057661,33.393498 34.9239875,32.7750353 C30.8278515,32.610298 30.0621795,38.5352549 30.7260408,42.5852784 C34.9644328,68.4657804 35.9671981,94.7553333 36.9629901,120.962518 C38.9559688,173.453671 40.9489475,225.944824 42.9433208,278.435976 C69.6191101,258.338031 105.471806,256.345827 138.846179,257.300745 C172.551089,258.266831 208.152745,262.133969 235.168833,282.331035 C239.179894,274.8676 240.973435,266.228667 240.264945,257.783788 C238.02511,263.034439 235.785275,268.286486 233.545441,273.537137 C240.051561,248.572463 245.531206,223.336949 249.964851,197.919945 C253.355286,178.480949 256.140435,158.803224 255.38871,139.083616 C254.36363,112.2468 265.751083,85.3332 260.364881,59.0227059 L260.364881,59.0227059 Z M504.872262,78.391898 C504.326947,73.1077412 501.294942,66.5782824 496.028681,67.2330431 C467.806206,70.7441804 440.564182,57.5233176 414.557833,46.0014824 C388.552878,34.4810431 359.121227,24.2282431 332.259947,33.5791765 C320.896203,37.5342667 309.028985,40.0388314 297.037641,41.011898 C286.884467,41.8369804 274.699265,42.6871922 269.830483,51.6416392 C267.960235,55.0801804 267.622726,59.1176392 267.324267,63.0210745 C265.402417,88.1058118 263.479171,113.190549 261.557321,138.275286 C260.798622,148.172086 260.041318,158.068886 259.282619,167.965686 C258.095758,183.444008 256.910291,198.93629 256.759667,214.459286 C256.535126,237.797529 251.482249,261.078533 242.013857,282.405027 C294.265043,276.241341 348.293035,286.096259 395.015763,310.312635 C411.153451,318.676541 426.949446,329.230894 436.384366,344.777624 C435.119403,339.655412 433.853046,334.5332 432.588083,329.409592 C439.979817,322.845231 442.339593,312.448635 444.417646,302.778 C457.012881,244.134329 473.635913,186.357624 494.129145,129.990957 C500.187577,113.328761 506.690907,96.0299529 504.872262,78.391898 L504.872262,78.391898 Z M137.815521,7.1039451 C132.323323,5.18573333 126.831126,3.26752157 121.338929,1.35070588 C144.592206,0.257576471 168.636259,-0.714094118 190.355403,7.67214902 C204.413643,13.100102 216.766206,22.2011373 230.539934,28.3173569 C244.312267,34.4335765 260.925537,37.2732 274.084217,29.9256392 C274.685318,31.5827843 275.286419,33.2413255 275.887521,34.8984706 C302.033337,36.5863294 325.995105,20.4769804 351.941483,16.8332157 C402.538595,9.72996863 447.145614,49.9174824 497.264355,59.8575608 C500.876542,60.573749 505.253006,61.7827529 506.099569,65.3692784 C512.909726,94.2597255 501.405121,123.908243 491.247763,151.796306 C477.186734,190.403459 465.352987,229.823129 455.821835,269.794251 C470.57183,225.703302 485.323219,181.613749 500.073214,137.5228 C508.127414,113.448824 516.247163,87.5543608 509.272435,63.1453255 C517.601385,67.1827843 517.885897,78.819098 516.498203,87.9787686 C511.471825,121.166345 500.718945,153.174235 490.014878,184.983882 L454.694945,289.942455 C475.062657,243.016071 492.053881,194.621012 505.491494,145.257075 C498.533502,187.693671 483.567334,228.336306 468.682057,268.677388 C502.022958,207.911678 512.593137,137.638675 522.616606,69.0409647 C522.530137,164.993435 481.853289,255.657561 441.958849,342.905482 C440.299195,346.53389 438.518206,350.318659 435.32163,352.703161 C432.126449,355.087663 427.062414,355.47298 424.466939,352.44349 C393.85819,316.702486 342.968198,306.802894 295.993035,304.546831 C273.668606,303.474643 251.286995,303.621231 229.000222,301.950125 C224.785539,301.633216 219.195715,297.175537 222.641937,294.72542 C190.59947,292.111961 158.974009,285.15949 126.859019,283.6964 C94.7440301,282.234706 61.0307528,286.83618 34.5725315,305.116431 C31.0454195,272.894941 27.5183075,240.673451 23.9911955,208.453357 C23.7262088,206.040933 23.7903635,202.996086 25.9799901,201.953216 C28.1682221,200.910345 29.9840781,205.662596 27.5782781,205.36942 C27.3913928,203.030988 28.9576035,200.666031 31.1807021,199.92611 C31.9826355,206.470925 32.7845688,213.015741 33.5865021,219.560557 C32.4456648,205.838502 31.2992488,192.117843 30.1500435,178.39858 C29.0831235,165.676118 28.0134141,152.955051 26.9646248,140.232588 C25.3788888,157.453216 24.9688568,174.781341 25.7401075,192.057812 C21.5616861,192.704196 20.2939341,186.574016 20.7806728,182.369027 C25.5406701,141.188902 24.2129475,99.3093412 16.8546861,58.5159294 C14.8575235,47.4422353 10.7711501,34.5634118 0.000139466667,31.3440549 C17.2563501,29.5794118 34.5125608,27.8161647 51.7687715,26.0529176 C62.7838488,24.9276784 73.8895795,23.7828941 84.4430221,20.4309098 C102.205497,14.7879608 119.670907,2.84171765 137.815521,7.1039451 L137.815521,7.1039451 Z" id="Fill-11"></path>
                </g>
                <path d="M281.886958,167.619319 C284.612137,162.989923 290.808641,162.071304 296.16974,161.800464 C348.59247,159.142331 401.683246,171.23237 447.7979,196.329672 C443.063006,198.307915 437.757694,195.874551 433.149716,193.618488 C386.569244,170.802378 333.403156,161.665045 281.886958,167.619319" id="Fill-14"></path>
                <path d="M442.561345,218.359231 C396.344881,192.436847 340.90967,183.405616 288.867683,193.321961 C287.576222,193.567671 285.955619,193.697506 285.231787,192.598792 C284.024006,190.764345 286.869126,188.982949 289.033649,188.625553 C335.42863,180.984816 383.999291,187.110808 427.051257,206.031859 C433.240787,208.75142 439.784563,212.189961 442.561345,218.359231" id="Fill-16"></path>
                <path d="M382.658319,82.36416 C384.059959,80.0382933 387.302559,79.8456345 390.012397,79.9810541 C415.299098,81.2445051 440.323602,87.5631561 463.183583,98.4567561 C464.366261,96.9797051 462.515538,95.002858 460.868437,94.075862 C439.89265,82.256662 415.586399,78.0712188 391.75573,74.6773522 C388.481053,74.2096659 384.91489,73.60656 382.719685,71.1299169 C385.435101,69.1488816 389.163045,69.6598463 392.468405,70.2587639 C408.362026,73.1402698 424.304461,76.0343404 439.715527,80.8773365 C447.108655,83.200411 454.45297,86.0163012 460.768021,90.5102776 C467.083071,95.0042541 472.340965,101.350827 474.268394,108.863125 C447.804594,92.7789051 416.819285,84.2404894 385.860474,84.4987639 C384.359813,84.5113286 382.239919,83.8077051 382.658319,82.36416" id="Fill-18"></path>
                <path d="M269.827276,252.249035 C321.414601,246.586541 371.735569,267.538886 419.882252,286.92902 C422.525145,287.994227 425.35074,289.076188 428.152625,288.551263 C430.226494,288.163153 433.794052,288.593145 432.71179,290.406651 C426.512497,294.66469 418.158444,291.294557 411.371996,288.057051 C367.152694,266.96789 318.746604,254.72149 269.827276,252.249035" id="Fill-20"></path>
                <path d="M379.814176,106.972276 C408.47597,107.385515 437.022008,114.424543 462.59601,127.382943 C468.283461,130.264449 473.87189,133.468449 478.619336,137.725092 C479.966584,138.9327 481.295701,140.314817 481.732232,142.071084 C482.168762,143.828747 481.357066,146.015005 479.610944,146.489672 C478.054496,140.747602 472.576245,137.077311 467.376928,134.194409 C439.066589,118.496904 406.55133,110.483413 374.195064,111.230315 C372.939864,108.67968 376.974634,106.93179 379.814176,106.972276 L379.814176,106.972276 Z" id="Fill-22"></path>
                <path d="M466.875266,122.528918 C465.518255,123.345624 464.126378,121.597733 463.28121,120.256102 C460.847517,116.394549 456.674674,114.012839 452.545066,112.069498 C438.029375,105.238486 422.091125,101.943741 406.159847,100.072996 C395.111298,98.7760392 383.984647,98.1366353 372.859391,98.1603686 C374.115986,94.2234275 379.424087,93.7766824 383.542538,94.0866118 C409.921263,96.0676471 437.276255,98.612698 460.140421,111.928494 C464.074775,114.219459 468.361981,118.223412 466.875266,122.528918" id="Fill-24"></path>
                <path d="M80.1885915,169.79064 C74.6210821,167.660224 69.0535728,165.531205 63.4860635,163.400789 C106.190757,152.053464 150.721069,147.623707 194.821823,150.336287 C147.636066,137.651518 97.2356021,140.146311 49.8266981,151.968303 C46.6775408,152.752899 42.7194768,153.322499 40.7432341,150.745338 C103.547863,131.510169 172.893479,134.457291 233.843202,158.951487 C230.125021,159.839393 226.23669,159.098075 222.473879,158.423769 C174.574053,149.829511 124.727271,152.296381 77.9083115,165.581464 C87.9289915,165.372052 97.9482768,165.164036 107.968957,164.954624 C147.895474,164.123958 188.97817,163.481762 226.310607,177.678483 C192.661485,172.320334 158.645565,166.945432 124.665906,169.463958 C161.904901,173.890922 198.58045,183.035236 233.544743,196.606515 C231.667522,198.359989 228.685725,197.797369 226.211586,197.111895 C196.764594,188.965777 167.600719,179.334232 137.403397,174.699252 C107.204679,170.065667 75.4146475,170.693903 47.2563275,182.556381 C56.1668528,174.446562 68.1456448,169.803205 80.1885915,169.79064" id="Fill-26"></path>
                <path d="M220.694843,209.860883 C191.264587,199.430781 159.268144,196.339864 128.387435,200.946922 C159.343456,209.609589 190.298083,218.272256 221.252709,226.936318 C225.061544,228.001526 229.156285,229.259393 231.495141,232.450828 C190.236717,221.720569 146.824928,219.355613 104.644629,225.538844 C92.3227493,227.345369 78.977184,229.710326 68.019288,223.788162 C102.828773,220.367769 137.80004,218.580789 172.776885,218.436993 C146.954632,205.82482 117.315176,201.181464 88.8779227,205.291518 C78.6982507,206.762985 67.0179173,208.936679 59.18268,202.266216 C68.2508027,203.987581 77.7694027,203.265809 86.474912,200.197228 C120.01804,196.821511 153.859627,193.445793 187.366493,197.16355 C199.426176,198.500993 212.21248,201.177275 220.694843,209.860883" id="Fill-28"></path>
                <path d="M116.960791,57.0931859 C116.210461,55.4960722 113.485282,55.4862996 112.722399,57.0764329 C114.073831,57.70048 115.701407,57.6907075 117.044471,57.0499075 L116.960791,57.0931859 Z M179.457199,47.6361506 C200.128949,48.58688 220.152178,55.6622055 238.393023,65.4417349 C233.506111,66.2416878 228.370949,65.4459231 223.955434,63.2024251 C201.335335,51.7085114 174.718122,48.2978918 149.933501,53.7160722 C158.164823,54.6291075 166.397541,55.5421427 174.628863,56.4565741 C174.467082,58.9890604 171.091989,59.7108329 168.560669,59.5642447 C151.35885,58.5702369 133.207263,50.8429427 117.673466,58.3077741 C147.159509,60.8472408 177.040242,64.1852643 204.456599,75.3427231 C212.084031,78.4462055 219.592917,82.175131 227.732191,83.421829 C235.853335,84.6643388 246.310546,84.6573584 249.370445,92.2897192 C244.293858,89.9694369 238.745874,88.6878369 233.165813,88.5454369 C235.754314,91.8248251 238.342815,95.1042133 240.932711,98.3836016 C228.651277,94.600229 216.371237,90.8168565 204.089802,87.0334839 C195.98121,84.5345035 185.735989,94.0780957 179.744501,88.0637898 C184.05681,87.071178 188.369119,86.0785663 192.681429,85.0873506 C153.682365,76.0658918 112.269133,77.7481663 74.1291832,89.901029 C69.8391885,91.2677898 65.1726339,92.765782 60.9523725,91.1951937 C75.1835512,82.2812329 92.1343299,78.8091859 108.82849,77.0403545 C149.668514,72.7153035 191.469463,77.7523545 230.117071,91.6545035 C222.186997,86.412229 213.626533,82.1248722 204.681141,78.9138918 C193.907341,75.0453584 182.644013,72.7529976 171.416946,70.5178761 C137.801295,63.8264722 103.043413,57.5427231 69.5016792,64.5971075 C65.0973219,65.5227075 61.9900045,69.3479624 58.1895379,71.7575937 C54.3876765,74.1672251 48.1214392,74.3850133 46.5357032,70.1702525 C49.7113592,68.9444957 53.0892419,68.2422682 56.4908339,68.1012643 C53.8883859,65.9122133 50.8201192,64.2815937 47.5496259,63.3518055 C68.1711672,59.4511624 89.1204552,57.291429 110.103215,56.9033192 C107.004266,56.6436486 104.153567,54.4336565 103.127093,51.4949114 C128.466791,54.5914133 153.957114,46.4634447 179.457199,47.6361506 L179.457199,47.6361506 Z" id="Fill-30"></path>
                <path d="M152.983915,89.4177067 C141.639697,87.9448439 130.295478,86.4705851 118.951259,84.9977224 C118.804819,82.7388675 121.974897,82.0952753 124.228678,82.2809537 C135.664945,83.2247027 147.102606,84.1684518 158.540267,85.1122008 C159.934934,85.2266792 161.430017,85.3816439 162.494147,86.2918871 C163.558278,87.2021302 163.814897,89.15664 162.62943,89.9007498 C177.928923,91.4113067 193.133579,93.8991184 208.117878,97.34464 C211.41487,98.1027106 215.516585,100.001377 215.095395,103.361738 C169.655761,90.2023027 121.372401,92.556091 74.1336461,95.0201694 C99.4984488,87.4185224 126.527089,88.3846086 152.983915,89.4177067" id="Fill-32"></path>
                <path d="M155.491247,131.171062 C157.323839,131.12918 159.156431,131.088693 160.989023,131.046811 C161.994578,131.024474 163.355773,130.626591 163.244199,129.625603 C143.345095,128.049431 123.289789,128.466858 103.474365,130.873697 C120.786362,131.954262 138.151357,131.56336 155.491247,131.171062 M251.427578,141.525776 C190.744237,133.730074 129.303591,131.852348 68.2576365,135.924709 C60.7041219,136.428693 52.9330392,136.998293 45.7295859,134.673823 C96.8901432,124.485242 149.731274,122.80576 201.434357,129.721933 C218.447895,131.998936 235.455855,135.230858 251.427578,141.525776" id="Fill-34"></path>
                <path d="M84.8262765,235.28026 C82.1164392,235.310974 78.4233619,234.423068 78.5628285,231.71328 C124.084749,230.246002 169.803317,234.989876 214.057485,245.773186 C212.367149,248.776151 208.007421,248.408982 204.644879,247.666268 C165.351541,238.979868 125.063805,234.815366 84.8262765,235.28026" id="Fill-36"></path>
                <path d="M197.499862,112.8305 C166.740489,109.443614 135.672894,108.874014 104.81171,111.132869 C95.9834704,111.777857 87.1747557,112.654595 78.3674357,113.531332 C73.0035477,114.064634 67.6396597,114.597936 62.2757717,115.132634 C62.5017077,111.903504 66.5504251,110.688916 69.7637371,110.32454 C110.619102,105.685371 151.934708,105.104602 192.904436,108.593402 C195.41902,108.807002 198.856873,110.700085 197.499862,112.8305" id="Fill-38"></path>
                <path d="M121.109925,113.375809 C142.215415,112.747573 163.369719,113.755542 184.320402,116.391338 C191.535013,117.297393 198.723125,118.397503 205.909842,119.496216 C212.392253,120.487432 218.873269,121.478648 225.355679,122.469864 C229.786535,123.148358 234.217391,123.825456 238.646853,124.516515 C230.740487,129.286915 220.684941,127.015495 211.682367,124.973032 C184.037285,118.700452 155.586085,116.001832 127.256221,116.962334 C124.533831,117.054475 120.724997,116.074428 121.109925,113.375809" id="Fill-40"></path>
                <path d="M37.6939349,56.4420549 C37.3006389,53.7881098 39.0760496,51.1914039 41.3674869,49.7967216 C43.6575296,48.4034353 46.3827083,47.9594824 49.0311803,47.543451 C56.4633589,46.3763294 63.8969323,45.2078118 71.3291109,44.0406902 C72.2314603,45.0235294 71.7112496,46.7267451 70.6401456,47.5211137 C69.5676469,48.3140863 68.1646123,48.4550902 66.8382843,48.5960941 C56.7938949,49.661302 46.9182603,52.3194353 37.6939349,56.4420549" id="Fill-42"></path>
                <path d="M178.793338,37.219451 C171.673565,37.5112314 164.552397,37.8044078 157.432623,38.0961882 C155.06169,38.1939137 151.911138,37.6759686 151.619653,35.3193882 C160.499495,32.8678745 169.912101,32.3652863 179.003933,33.856298 C180.119666,34.0391843 181.526885,34.6143686 181.423679,35.7410039 C181.321869,36.8411137 179.896519,37.1747765 178.793338,37.219451" id="Fill-44"></path>
                <path d="M125.532552,37.4563655 C127.160128,37.3879576 129.388805,37.8584361 129.365096,39.4890557 C120.559171,41.4756753 111.598437,42.7768204 102.59168,43.3799263 C100.860899,43.4958008 98.436968,42.9192204 98.6154853,41.1922714 C101.396451,38.5969616 105.545584,38.2982008 109.344656,38.1376518 C114.740621,37.910091 120.136587,37.6839263 125.532552,37.4563655" id="Fill-46"></path>
                <path d="M224.503259,41.8593176 C218.884147,40.8066745 213.265035,39.7540314 207.647318,38.7013882 C206.747758,38.5324627 205.811936,38.3481804 205.08392,37.7953333 C204.321038,37.2159608 203.87056,36.2484784 203.917979,35.2921647 C214.382163,34.1697176 225.186646,36.4886039 234.272899,41.8076627 C231.213,43.0571529 227.751438,42.4680078 224.503259,41.8593176" id="Fill-48"></path>
                <path d="M139.628448,70.10352 C132.296685,69.9304063 124.963528,69.7558965 117.631765,69.5827827 C115.898195,69.5409004 113.453344,68.1727435 114.534211,66.8157553 C121.885499,65.7756769 129.387411,65.8231435 136.724752,66.9581553 C138.433219,67.2234102 140.664685,68.7172141 139.628448,70.10352" id="Fill-50"></path>
                <path d="M140.318808,46.0419686 C132.231136,47.0764627 124.144859,48.1109569 116.057187,49.1440549 C113.316667,49.4944706 110.576147,49.8462824 107.834232,50.196698 C99.231928,51.2968078 90.6282293,52.3969176 82.0259253,53.4970275 C81.345328,53.5835843 80.5684987,53.6422196 80.0594453,53.1815137 C78.7359067,51.9780941 81.0454747,50.2106588 82.813912,49.9426118 C104.089552,46.7176706 125.455845,44.0860627 146.87932,42.0547686 C149.158205,41.8383765 152.237629,42.2083373 152.583507,44.4727765 C148.495739,44.9963059 144.406576,45.5184392 140.318808,46.0419686" id="Fill-52"></path>
                <path d="M232.812125,77.0230431 C232.993432,77.786698 232.837229,78.622949 232.39233,79.2693333 C225.974074,79.8179922 219.374512,77.8523137 214.300714,73.8790745 C215.228168,71.9455059 218.046789,72.2959216 220.087186,72.9492863 C224.328368,74.3062745 228.570944,75.6646588 232.812125,77.0230431" id="Fill-54"></path>
                <path d="M98.6124171,67.2133584 C93.3322091,71.1056251 86.2877477,71.3066604 79.7314197,71.352731 C78.1638144,71.3638996 76.6352597,70.3545349 76.0299744,68.9068016 C83.1344064,66.0057506 91.1551344,65.4040408 98.6124171,67.2133584" id="Fill-56"></path>
                <path d="M42.1846221,109.334999 C42.9014808,108.625791 43.6169448,107.91798 44.3338035,107.208772 C46.6391875,108.452678 45.1608408,112.855909 42.5737341,112.453838 C42.1232568,111.494733 42.0019208,110.383454 42.2348301,109.34896 L42.1846221,109.334999 Z" id="Fill-58"></path>
                <path d="M44.2155357,129.426104 C48.9434557,125.760002 54.5416477,123.226119 60.4131944,122.0939 C61.5205597,121.8803 62.7339197,122.475029 63.2457624,123.481602 C58.1454664,128.063531 51.0145357,130.290276 44.2155357,129.426104" id="Fill-60"></path>
                <path d="M318.252194,96.0018918 C319.678938,97.2388173 321.107077,98.4771388 322.533821,99.7140643 C323.14329,100.243178 323.789021,100.789045 324.577008,100.959366 C326.201794,101.308386 327.657826,99.9737349 328.786112,98.7521663 C331.521053,95.7910839 334.458221,91.7843388 332.804146,88.1056722 C332.229544,86.8268643 331.165413,85.8384408 330.055258,84.9840408 C327.165509,82.7614839 323.532402,81.1643702 319.934162,81.7339702 C316.335922,82.3021741 313.055666,85.6234447 313.500565,89.2434761 C313.845048,92.0440094 316.121144,94.15488 318.252194,96.0018918 M356.903986,98.3584722 C357.420013,99.2868643 357.926277,100.31019 357.781232,101.362833 C357.636186,102.415476 356.524637,103.384355 355.544186,102.978096 C351.70188,96.0786761 346.854018,89.7418761 341.201434,84.2301584 C338.717533,86.9762447 337.551592,90.629782 336.297786,94.1143937 C335.043981,97.5990055 333.516821,101.195304 330.5936,103.466723 C327.670378,105.738143 322.952221,106.101123 320.538053,103.293609 C316.581384,98.6921349 311.866016,94.7440251 306.641594,91.6600878 C304.146536,90.185829 300.994589,88.9056251 298.464664,90.3184565 C297.254093,90.9941584 296.42845,92.1780329 295.644648,93.3214212 C291.559669,99.2868643 287.47469,105.250911 283.389712,111.214958 C280.988096,109.735115 282.198666,106.050864 283.664461,103.638441 C285.4064,100.773688 287.148338,97.9075388 288.890277,95.0413898 C290.524826,92.3525427 292.209584,89.6064565 294.664197,87.639382 C297.11881,85.6723075 300.539928,84.6098918 303.468728,85.7546761 C305.88429,86.6984251 308.354245,89.0480251 310.634525,87.8124957 C309.603866,82.3789584 315.077933,77.3070055 320.602208,77.1855467 C326.125088,77.0654839 331.13473,80.6031467 334.64929,84.8695624 C336.38844,82.9499545 338.389786,81.26768 340.580808,79.8855624 C347.265445,84.7704408 352.876189,91.1198055 356.903986,98.3584722" id="Fill-62"></path>
            </g>
        </g>
    </g>
</svg>