<?xml version="1.0" encoding="UTF-8" standalone="no"?>
<svg width="200px" height="100px" viewBox="0 0 200 100" version="1.1" xmlns="http://www.w3.org/2000/svg" xmlns:xlink="http://www.w3.org/1999/xlink">
    <!-- Generator: Sketch 3.8.3 (29802) - http://www.bohemiancoding.com/sketch -->
    <title>Group 12</title>
    <desc>Created with Sketch.</desc>
    <defs>
        <polygon id="path-1" points="37.35948 15.3160472 37.35948 0.218001438 0.284839 0.218001438 0.284839 15.3160472 37.35948 15.3160472"></polygon>
    </defs>
    <g id="Home" stroke="none" stroke-width="1" fill="none" fill-rule="evenodd">
        <g id="Desktop-HD" transform="translate(-867.000000, -136.000000)">
            <g id="Group-12" transform="translate(867.000000, 136.000000)">
                <rect id="Rectangle-79" fill="#303030" x="0" y="0" width="200" height="100"></rect>
                <g id="Group-2" transform="translate(45.000000, 33.000000)">
                    <path d="M51.0260718,16.3507453 L58.811219,16.3507453 C58.2176225,17.1300048 56.878159,18.8874023 55.4638508,20.7467889 L64.9688149,20.7467889 L68.5807206,15.9890031 C69.7001662,14.8830601 69.6169336,13.6942511 69.6169336,13.6942511 L69.6169336,10.9309873 C69.6169336,10.3655859 69.1523798,9.92193386 68.5800754,9.92193386 L51.0260718,9.92193386 C50.4531221,9.92193386 49.9892135,10.3655859 49.9892135,10.9309873 L49.9892135,15.4471867 L49.9969561,15.446868 C50.0572835,15.9558567 50.4944158,16.3507453 51.0260718,16.3507453" id="Fill-1" fill="#FFFFFF"></path>
                    <path d="M68.5800754,26.7083633 L60.4429641,26.7083633 L63.9174393,22.1319267 L54.4105397,22.1319267 C52.763632,24.2995111 51.2386696,26.3102876 50.9034812,26.7689192 C50.1111589,27.8525521 49.9892135,28.8160292 49.9892135,28.8160292 L49.9892135,32.0076468 C49.9892135,32.5727295 50.4531221,32.9453079 51.0260718,32.9453079 L68.5800754,32.9453079 C69.1523798,32.9453079 69.6169336,32.5727295 69.6169336,32.0076468 L69.6169336,27.6721591 L69.6133849,27.6724778 C69.5817695,27.1348047 69.1323782,26.7083633 68.5800754,26.7083633" id="Fill-2" fill="#FFFFFF"></path>
                    <path d="M23.2376901,20.7467889 L21.4314147,11.1407021 C21.1268739,9.84671699 19.7890235,9.92193386 19.7890235,9.92193386 L16.8294287,10.0239228 C13.7059497,10.1278241 11.7090137,13.2614354 11.7090137,13.2614354 L6.88926813,20.7467889 L23.2376901,20.7467889" id="Fill-3" fill="#FFFFFF"></path>
                    <path d="M15.615782,22.1309705 L17.1952648,31.4658303 C17.5078708,33.0147879 19.1457455,32.9453079 19.1457455,32.9453079 L24.6552244,32.9453079 C25.7524101,32.9453079 25.3546359,31.8731488 25.3546359,31.8731488 L23.4999695,22.1309705 L15.615782,22.1309705" id="Fill-4" fill="#FFFFFF"></path>
                    <path d="M6.00919679,22.1309705 L0.615211161,30.6221903 C-0.786837976,32.7900935 1.10299264,32.9453079 1.10299264,32.9453079 L7.07670268,32.9453079 C7.92999766,33.065145 8.90523801,31.5856674 8.90523801,31.5856674 L14.7402271,22.1309705 L6.00919679,22.1309705" id="Fill-5" fill="#FFFFFF"></path>
                    <path d="M41.6988641,22.1319267 L40.8455691,20.7467889 L47.7948421,20.7467889 L47.7948421,10.9309873 C47.7948421,10.3655859 47.3309335,9.92193386 46.7579838,9.92193386 L41.3952911,9.92193386 C40.8223414,9.92193386 40.3587554,10.4255044 40.3587554,10.9912245 L40.3587554,19.7798059 C40.3587554,19.7798059 36.0448574,12.267999 35.7254766,11.6535155 C35.14672,10.5392859 34.1443807,9.92193386 33.1652691,9.92193386 L27.9848492,9.92193386 C27.4122221,9.92193386 26.9479909,10.3655859 26.9479909,10.9309873 L26.9479909,20.7467889 L32.921701,20.7467889 L33.7753185,22.1309705 L26.9479909,22.1309705 L26.9479909,31.8868536 C26.9479909,32.452255 27.4122221,32.9453079 27.9848492,32.9453079 L33.1652691,32.9453079 C33.7375735,32.9453079 34.2021273,32.4532111 34.2021273,31.887491 L34.2021273,22.9758855 L39.1393017,31.4059118 C39.7158001,32.2788737 40.4400523,32.9848287 41.3952911,32.9453079 L46.7579838,32.9453079 C47.3309335,32.9453079 47.7948421,32.452255 47.7948421,31.8868536 L47.7948421,22.1319267 L41.6988641,22.1319267" id="Fill-6" fill="#FFFFFF"></path>
                    <g id="Group-10" transform="translate(71.618709, 18.485502)">
                        <mask id="mask-2" fill="white">
                            <use xlink:href="#path-1"></use>
                        </mask>
                        <g id="Clip-8"></g>
                        <path d="M12.1374355,15.0194704 C13.9843594,13.8883489 14.5211771,11.3408555 14.5211771,9.02474958 C14.5211771,4.16083154 10.5292406,0.218001438 5.60626091,0.218001438 C3.73481888,0.218001438 2.04016538,0.50516415 0.863295787,1.53843997 C-0.0654891796,2.35275821 0.271634922,3.21615864 0.847165447,3.86283249 L9.97145347,14.7246585 C9.97145347,14.7246585 10.8157155,15.8290079 12.1374355,15.0194704" id="Fill-7" fill="#FFFFFF" mask="url(#mask-2)"></path>
                        <path d="M25.5069063,15.0194704 C23.6599824,13.8883489 23.1231647,11.3408555 23.1231647,9.02474958 C23.1231647,4.16083154 27.1151012,0.218001438 32.0387262,0.218001438 C33.909523,0.218001438 35.6041765,0.50516415 36.7813687,1.53843997 C37.709831,2.35275821 37.3730295,3.21615864 36.797499,3.86283249 L27.6728884,14.7246585 C27.6728884,14.7246585 26.828949,15.8290079 25.5069063,15.0194704" id="Fill-9" fill="#FFFFFF" mask="url(#mask-2)"></path>
                    </g>
                    <path d="M90.4408797,10.0889408 C92.431041,10.0889408 93.9995553,11.6828373 93.9995553,13.6493122 C93.9995553,14.4008435 93.7624393,15.0969183 93.3604712,15.6715624 C92.9591484,16.379111 92.4626565,16.868658 92.3084504,17.4041002 C92.0735927,18.21555 92.3219999,18.7599161 92.722355,18.9224611 C93.2391711,19.1328133 94.051495,18.7739396 94.051495,18.7739396 C97.7130821,17.361711 100.306518,13.84341 100.306518,9.72624251 C100.306518,4.36449077 95.8684164,0.0175293554 90.4408797,0.0175293554 C85.013343,0.0175293554 80.5752413,4.36449077 80.5752413,9.72624251 C80.5752413,13.84341 83.1693225,17.361711 86.830587,18.7739396 C86.830587,18.7739396 87.6425884,19.1328133 88.159727,18.9224611 C88.5600821,18.7599161 88.8088119,18.21555 88.5739542,17.4041002 C88.4191029,16.868658 87.9229337,16.379111 87.5216108,15.6715624 C87.1193201,15.0969183 86.8825267,14.4008435 86.8825267,13.6493122 C86.8825267,11.6828373 88.4507184,10.0889408 90.4408797,10.0889408" id="Fill-11" fill="#FFFFFF"></path>
                </g>
            </g>
        </g>
    </g>
</svg>