<?xml version="1.0" encoding="UTF-8" standalone="no"?>
<svg width="200px" height="100px" viewBox="0 0 200 100" version="1.1" xmlns="http://www.w3.org/2000/svg" xmlns:xlink="http://www.w3.org/1999/xlink">
    <!-- Generator: Sketch 3.8.3 (29802) - http://www.bohemiancoding.com/sketch -->
    <title>Group 6</title>
    <desc>Created with Sketch.</desc>
    <defs></defs>
    <g id="Home" stroke="none" stroke-width="1" fill="none" fill-rule="evenodd">
        <g id="Desktop-HD" transform="translate(-867.000000, -374.000000)">
            <g id="Group-6" transform="translate(867.000000, 374.000000)">
                <rect id="Rectangle-79" fill="#303030" x="0" y="0" width="200" height="100"></rect>
                <g id="Desjardins" transform="translate(20.000000, 33.000000)">
                    <g id="Group" transform="translate(0.234157, 0.234242)">
                        <polygon id="Shape" fill="#FFFFFF" points="33.0538303 32.7624122 0.037091869 32.7624122 0.037091869 0.0406580893 33.0538303 0.0406580893 33.0538303 32.7624122"></polygon>
                        <path d="M28.3353654,9.58450305 L28.3353654,23.0946212 L16.5454611,29.9116534 L4.75555677,23.0946212 L4.75555677,9.58450305 L16.5454611,2.89141697 L28.3353654,9.58450305 L28.3353654,9.58450305 Z M16.5454611,4.13087736 L5.80688582,10.2042332 L5.80688582,22.474891 L16.5454611,28.672193 L27.2840364,22.474891 L27.2840364,10.2042332 L16.5454611,4.13087736 L16.5454611,4.13087736 Z M15.0685941,9.95634116 L13.3789581,10.9479095 L13.3789581,12.9310461 L15.0685941,13.7986684 L16.1199232,13.3028842 L15.4941321,12.9310461 L15.4941321,10.9479095 L16.1199232,10.5760714 L15.0685941,9.95634116 L15.0685941,9.95634116 Z M17.5967902,10.4521253 L17.5967902,12.9310461 L21.8021064,15.2860208 L21.8021064,18.1367797 L19.0736572,19.7480782 L17.5967902,18.8804559 L17.5967902,21.9791069 L15.0685941,23.4664594 L17.1712522,23.4664594 L19.6994483,21.9791069 L19.6994483,19.8720242 L20.9635463,19.8720242 L23.9172803,18.1367797 L23.9172803,15.2860208 L19.6994483,12.9310461 L19.6994483,10.4521253 L17.1712522,9.08871889 L15.0685941,9.08871889 L17.5967902,10.4521253 L17.5967902,10.4521253 Z M15.4941321,14.5423446 L15.4941321,16.7733733 L19.0736572,18.7565099 L20.1249862,18.1367797 L17.5967902,16.7733733 L17.5967902,14.5423446 L18.2350971,14.1705065 L17.1712522,13.5507763 L15.4941321,14.5423446 L15.4941321,14.5423446 Z M9.17364194,15.781805 L9.17364194,17.8888876 L10.8507621,18.8804559 L11.914607,18.2607257 L11.2763,17.8888876 L11.2763,15.781805 L14.0172651,14.1705065 L12.965936,13.5507763 L9.17364194,15.781805 L9.17364194,15.781805 Z M13.3789581,18.3846718 L13.3789581,19.3762401 L15.9071542,17.8888876 L15.0685941,17.5170495 L13.3789581,18.3846718 L13.3789581,18.3846718 Z M13.3789581,20.3678084 L13.3789581,21.6072688 L16.7582301,19.6241322 L16.7582301,18.3846718 L13.3789581,20.3678084 L13.3789581,20.3678084 Z M14.230034,21.9791069 L15.0685941,22.474891 L16.7582301,21.6072688 L16.7582301,20.6157005 L14.230034,21.9791069 L14.230034,21.9791069 Z M12.5403981,18.8804559 L10.8507621,19.8720242 L12.5403981,19.8720242 L12.5403981,18.8804559 L12.5403981,18.8804559 Z" id="Shape" fill="#333333"></path>
                        <path d="M46.1954435,23.8382975 C46.1453802,21.4833227 46.1453802,19.3762401 46.1453802,17.2691574 C46.1453802,14.2944525 46.1704118,11.5676397 46.2455067,8.96477286 C47.071551,8.96477286 47.6848263,8.84082682 48.0352693,8.84082682 C52.9289557,8.84082682 55.0441296,10.9479095 55.0441296,16.1536431 C55.0441296,21.3593767 52.6536076,23.9622435 48.0102376,23.9622435 C47.4720573,23.9622435 46.858782,23.8382975 46.1954435,23.8382975 L46.1954435,23.8382975 Z M41.9025165,25.449596 C42.4532127,25.3256499 43.1040354,25.3256499 43.8174373,25.3256499 C45.0439878,25.3256499 46.5458865,25.449596 48.3606807,25.449596 C55.6448891,25.449596 59.3370566,22.226999 59.3370566,15.905751 C59.3370566,12.9310461 58.2356642,10.4521253 56.3457751,8.96477286 C54.5810442,7.60136643 52.415807,7.35347436 49.4245255,7.35347436 C47.5346364,7.35347436 45.7198422,7.4774204 43.980143,7.4774204 C43.3168044,7.4774204 42.64095,7.4774204 41.9025165,7.35347436 C42.1653488,9.70844909 42.1903804,12.1873699 42.1903804,14.9141827 L42.1903804,16.4015352 L42.1903804,18.7565099 C42.1903804,21.2354307 42.1653488,23.4664594 41.9025165,25.449596 L41.9025165,25.449596 Z" id="Shape" fill="#FFFFFF"></path>
                        <path d="M64.6187335,17.8888876 L64.6187335,17.6409955 C64.6187335,15.0381287 65.5449043,13.5507763 67.0593188,13.5507763 C68.4235434,13.5507763 69.1369452,14.7902367 69.1369452,17.2691574 C69.1369452,17.3931035 69.1119136,17.6409955 69.1119136,17.8888876 L64.6187335,17.8888876 L64.6187335,17.8888876 Z M64.6187335,19.128348 L72.7665336,19.128348 C72.7915652,18.8804559 72.7915652,18.5086178 72.7915652,18.2607257 C72.7915652,14.5423446 70.7640021,12.4352619 67.109382,12.4352619 C63.1794139,12.4352619 60.7263128,15.1620748 60.7263128,18.8804559 C60.7263128,23.2185673 63.2044456,25.697488 67.3596985,25.697488 C69.1619769,25.697488 70.6889071,25.3256499 71.752752,24.5819737 L72.3409956,22.9706752 L72.0656476,22.8467292 C71.0018027,23.7143514 69.8878945,24.0861895 68.661344,24.0861895 C66.2332745,24.0861895 64.6187335,22.226999 64.6187335,19.128348 L64.6187335,19.128348 Z" id="Shape" fill="#FFFFFF"></path>
                        <path d="M75.2071189,21.8551609 C75.7953625,23.5904054 77.0719764,24.4580277 78.6489699,24.4580277 C79.9255838,24.4580277 80.6389856,23.8382975 80.6389856,22.7227831 C80.6389856,21.6072688 79.48753,21.2354307 77.522546,20.3678084 C75.3698246,19.5001861 74.3059797,18.6325639 74.3059797,16.7733733 C74.3059797,14.2944525 76.1708372,12.4352619 79.1746345,12.4352619 C80.5138274,12.4352619 81.7654096,12.8071 83.0169918,13.5507763 C82.6415172,14.2944525 82.3912007,15.1620748 82.2660425,16.029697 L82.0157261,16.029697 C81.1396185,14.4183985 80.1383528,13.6747223 78.8367073,13.6747223 C77.6852516,13.6747223 76.9217865,14.2944525 76.9217865,15.2860208 C76.9217865,16.2775891 77.6852516,16.6494272 79.1746345,17.2691574 C82.0157261,18.2607257 83.5176247,18.8804559 83.5176247,21.2354307 C83.5176247,23.9622435 81.5150932,25.697488 78.4612326,25.697488 C76.8967549,25.697488 75.6076252,25.449596 74.4812012,24.7059197 C74.568812,24.2101356 74.6689385,23.2185673 74.8316442,21.8551609 L75.2071189,21.8551609 L75.2071189,21.8551609 Z" id="Shape" fill="#FFFFFF"></path>
                        <path d="M87.647846,12.9310461 C88.2736371,12.9310461 88.8994282,12.9310461 89.5252193,12.8071 L89.5252193,16.1536431 C89.5252193,22.5988371 89.6503775,25.2017039 89.6503775,25.8214341 C89.6503775,29.7877073 87.7730042,31.5229519 83.3924665,31.6468979 L83.14215,30.7792756 C86.0207891,30.6553296 86.1459473,28.672193 86.1459473,24.0861895 C86.1459473,17.5170495 86.0207891,14.4183985 85.7704727,12.8071 C86.3962638,12.9310461 87.0220549,12.9310461 87.647846,12.9310461 L87.647846,12.9310461 Z M87.7730042,7.10558228 C89.0245864,7.10558228 90.0258522,8.09715059 90.0258522,9.33661097 C90.0258522,10.4521253 89.0245864,11.4436936 87.7730042,11.4436936 C86.6465802,11.4436936 85.6453144,10.4521253 85.6453144,9.33661097 C85.6453144,8.09715059 86.6465802,7.10558228 87.7730042,7.10558228 L87.7730042,7.10558228 Z" id="Shape" fill="#FFFFFF"></path>
                        <path d="M98.7869276,18.5086178 L98.7869276,21.4833227 C98.7869276,23.0946212 98.0359782,23.9622435 96.9095543,23.9622435 C95.7831303,23.9622435 95.2824974,23.2185673 95.2824974,21.7312148 C95.2824974,19.8720242 96.2837632,18.8804559 98.7869276,18.5086178 L98.7869276,18.5086178 Z M98.9120858,23.7143514 C99.1624022,24.9538118 100.03851,25.697488 101.290092,25.697488 C102.1662,25.697488 103.167465,25.449596 104.043573,25.0777579 L104.043573,24.4580277 C102.416516,24.4580277 102.291358,23.7143514 102.291358,21.8551609 L102.291358,21.3593767 L102.291358,16.7733733 L102.291358,16.6494272 C102.291358,13.9226144 100.539143,12.4352619 97.4101871,12.4352619 C95.6579721,12.4352619 94.1560734,13.0549921 92.6541748,14.4183985 C92.779333,15.0381287 93.0296494,15.6578589 93.1548077,16.1536431 C94.0309152,14.7902367 95.032181,14.0465604 96.1586049,14.0465604 C97.6605036,14.0465604 98.6617693,15.0381287 98.6617693,16.6494272 L98.6617693,17.1452114 C97.6605036,17.8888876 96.1586049,18.1367797 94.4063899,18.7565099 C92.5290166,19.3762401 91.652909,20.3678084 91.652909,22.1030529 C91.652909,24.3340816 93.0296494,25.697488 95.2824974,25.697488 C96.9095543,25.697488 98.1611365,24.9538118 98.9120858,23.7143514 L98.9120858,23.7143514 Z" id="Shape" fill="#FFFFFF"></path>
                        <path d="M105.545471,19.128348 C105.545471,16.6494272 105.545471,14.5423446 105.295155,12.8071 C105.920946,12.8071 106.546737,12.9310461 107.172528,12.9310461 C107.798319,12.9310461 108.424111,12.8071 109.049902,12.8071 C108.924743,14.1705065 108.924743,15.2860208 108.924743,16.1536431 L109.049902,16.1536431 C109.675693,13.6747223 111.052433,12.4352619 113.180123,12.4352619 L113.305281,12.4352619 C113.180123,13.0549921 113.054965,13.6747223 113.054965,14.4183985 C113.054965,15.0381287 113.180123,15.6578589 113.305281,16.4015352 C112.67949,16.1536431 112.053699,15.905751 111.553066,15.905751 C109.675693,15.905751 109.049902,17.1452114 109.049902,19.7480782 C109.049902,21.9791069 109.17506,23.9622435 109.300218,25.449596 C108.674427,25.3256499 107.923478,25.3256499 107.297687,25.3256499 C106.671895,25.3256499 106.046104,25.3256499 105.295155,25.449596 C105.420313,23.5904054 105.545471,21.4833227 105.545471,19.128348 L105.545471,19.128348 Z" id="Shape" fill="#FFFFFF"></path>
                        <path d="M120.689616,14.1705065 C122.316673,14.1705065 123.19278,15.781805 123.19278,19.252294 C123.19278,22.474891 122.191515,24.0861895 120.564458,24.0861895 C118.687085,24.0861895 118.061293,22.5988371 118.061293,19.3762401 C118.061293,15.781805 118.812243,14.1705065 120.689616,14.1705065 L120.689616,14.1705065 Z M123.19278,25.449596 C123.818572,25.3256499 124.444363,25.2017039 125.070154,25.2017039 C125.695945,25.2017039 126.321736,25.3256499 126.947527,25.449596 C126.822369,22.9706752 126.697211,19.7480782 126.697211,15.6578589 C126.697211,11.9394778 126.697211,10.0802872 126.947527,7.22952832 L124.944996,7.22952832 L122.942464,7.22952832 C123.067622,8.96477286 123.067622,9.08871889 123.067622,10.9479095 L123.067622,14.1705065 C122.191515,13.0549921 121.065091,12.4352619 119.563192,12.4352619 C116.309078,12.4352619 114.181389,14.9141827 114.181389,19.252294 C114.181389,23.5904054 115.933604,25.697488 119.438034,25.697488 C121.190249,25.697488 122.441831,25.0777579 123.19278,23.5904054 L123.19278,25.449596 L123.19278,25.449596 Z" id="Shape" fill="#FFFFFF"></path>
                        <path d="M129.951324,19.128348 C129.951324,16.8973193 129.826166,14.7902367 129.701008,12.8071 C130.326799,12.9310461 131.077748,12.9310461 131.703539,12.9310461 C132.329331,12.9310461 133.08028,12.9310461 133.706071,12.8071 C133.580913,14.7902367 133.455755,16.8973193 133.455755,19.128348 C133.455755,21.2354307 133.580913,23.2185673 133.706071,25.449596 C133.08028,25.3256499 132.329331,25.3256499 131.703539,25.3256499 C131.077748,25.3256499 130.326799,25.3256499 129.701008,25.449596 C129.826166,23.2185673 129.951324,21.2354307 129.951324,19.128348 L129.951324,19.128348 Z M131.828698,7.10558228 C132.955122,7.10558228 133.831229,7.97320455 133.831229,9.08871889 C133.831229,10.2042332 132.829963,11.0718555 131.703539,11.0718555 C130.702274,11.0718555 129.826166,10.2042332 129.826166,9.08871889 C129.826166,7.97320455 130.702274,7.10558228 131.828698,7.10558228 L131.828698,7.10558228 Z" id="Shape" fill="#FFFFFF"></path>
                        <path d="M136.709868,19.128348 C136.709868,16.8973193 136.58471,14.7902367 136.459552,12.8071 C137.085343,12.9310461 137.711134,12.9310461 138.336925,12.9310461 C138.962716,12.9310461 139.588507,12.9310461 140.08914,12.8071 L140.08914,14.6662906 C141.215564,13.1789382 142.592305,12.559208 144.219361,12.559208 C145.596102,12.559208 146.722526,13.0549921 147.348317,13.7986684 C148.224425,14.7902367 148.224425,16.029697 148.224425,17.6409955 L148.224425,20.9875386 C148.224425,22.474891 148.224425,23.9622435 148.349583,25.449596 C147.723792,25.3256499 147.098001,25.3256499 146.347051,25.3256499 C145.72126,25.3256499 145.095469,25.3256499 144.34452,25.449596 C144.469678,23.9622435 144.594836,21.9791069 144.594836,19.252294 C144.594836,16.1536431 144.469678,14.7902367 142.467146,14.7902367 C140.714931,14.7902367 140.214298,16.1536431 140.214298,19.128348 C140.214298,20.6157005 140.214298,22.7227831 140.339457,25.449596 C139.713666,25.3256499 139.087874,25.3256499 138.462083,25.3256499 C137.836292,25.3256499 137.085343,25.3256499 136.459552,25.449596 C136.58471,23.2185673 136.709868,21.1114846 136.709868,19.128348 L136.709868,19.128348 Z" id="Shape" fill="#FFFFFF"></path>
                        <path d="M151.478538,21.8551609 C152.104329,23.5904054 153.355912,24.4580277 154.982968,24.4580277 C156.234551,24.4580277 156.9855,23.8382975 156.9855,22.7227831 C156.9855,21.6072688 155.859076,21.2354307 153.856544,20.3678084 C151.728855,19.5001861 150.602431,18.6325639 150.602431,16.7733733 C150.602431,14.2944525 152.479804,12.4352619 155.483601,12.4352619 C156.860342,12.4352619 158.111924,12.8071 159.363506,13.5507763 C158.988031,14.2944525 158.737715,15.1620748 158.612557,16.029697 L158.36224,16.029697 C157.486133,14.4183985 156.484867,13.6747223 155.108127,13.6747223 C153.981703,13.6747223 153.230753,14.2944525 153.230753,15.2860208 C153.230753,16.2775891 153.981703,16.6494272 155.483601,17.2691574 C158.36224,18.2607257 159.864139,18.8804559 159.864139,21.2354307 C159.864139,23.9622435 157.861607,25.697488 154.732652,25.697488 C153.230753,25.697488 151.979171,25.449596 150.852747,24.7059197 C150.852747,24.2101356 150.977905,23.2185673 151.103064,21.8551609 L151.478538,21.8551609 L151.478538,21.8551609 Z" id="Shape" fill="#FFFFFF"></path>
                    </g>
                </g>
            </g>
        </g>
    </g>
</svg>