<?xml version="1.0" encoding="UTF-8" standalone="no"?>
<svg width="200px" height="100px" viewBox="0 0 200 100" version="1.1" xmlns="http://www.w3.org/2000/svg" xmlns:xlink="http://www.w3.org/1999/xlink">
    <!-- Generator: Sketch 3.8.3 (29802) - http://www.bohemiancoding.com/sketch -->
    <title>Group 7</title>
    <desc>Created with Sketch.</desc>
    <defs></defs>
    <g id="Home" stroke="none" stroke-width="1" fill="none" fill-rule="evenodd">
        <g id="Desktop-HD" transform="translate(-644.000000, -374.000000)">
            <g id="Group-7" transform="translate(644.000000, 374.000000)">
                <rect id="Rectangle-79" fill="#303030" x="0" y="0" width="200" height="100"></rect>
                <g id="Group-4" transform="translate(79.000000, 33.000000)">
                    <rect id="Rectangle-88" fill="#FFFFFF" x="0" y="0" width="43" height="35"></rect>
                    <path d="M18.3484176,28.7166493 L18.3484176,11.066441 L23.29525,11.066441 L23.29525,25.5932639 L28.0531023,25.5932639 C31.3356392,25.5932639 32.7156705,23.3230035 32.7156705,17.5012153 C32.7156705,11.6320313 31.145071,9.92894097 27.814892,9.92894097 L16.9699744,9.92894097 L16.9699744,28.7166493 L12.069196,28.7166493 L12.069196,9.92894097 L4.88636364,9.92894097 L4.88636364,6.80555556 L29.3378494,6.80555556 C35.2359347,6.80555556 38.0436392,9.83414931 38.0436392,17.4569792 C38.0436392,27.4859375 33.8559034,28.7166493 28.1960284,28.7166493 L18.3484176,28.7166493 Z" id="Path" fill="#303030"></path>
                </g>
            </g>
        </g>
    </g>
</svg>