<?xml version="1.0" encoding="UTF-8" standalone="no"?>
<svg width="503px" height="636px" viewBox="0 0 503 636" version="1.1" xmlns="http://www.w3.org/2000/svg" xmlns:xlink="http://www.w3.org/1999/xlink">
    <!-- Generator: Sketch 40.1 (33804) - http://www.bohemiancoding.com/sketch -->
    <title>bridge</title>
    <desc>Created with Sketch.</desc>
    <defs>
        <polygon id="path-1" points="533.728 558.9996 533.728 0.3836 0 0.3836 5.42101086e-20 558.9996"></polygon>
    </defs>
    <g id="Page-1" stroke="none" stroke-width="1" fill="none" fill-rule="evenodd">
        <g id="bridge">
            <g id="Page-1" transform="translate(-7.000000, 24.000000)">
                <path d="M137.5783,558.8769 C138.5223,555.9729 141.1573,553.9839 143.7503,552.3699 C148.3983,549.4779 153.4183,547.1379 157.6833,543.7059 C160.9503,541.0769 163.7053,537.8599 166.9563,535.2119 C170.2073,532.5639 174.1823,530.4479 178.3713,530.6289 C174.6463,533.5579 170.9213,536.4869 167.1963,539.4159 C159.8163,545.2189 152.3773,551.0599 144.0223,555.3419 C142.5703,556.0859 140.8303,557.2969 141.2223,558.8809 C140.0083,558.8799 138.7933,558.8779 137.5783,558.8769" id="Fill-1" fill="#020302"></path>
                <path d="M164.7788,558.9047 C165.0148,556.1657 167.4408,554.2057 169.6758,552.6037 C176.6568,547.5987 183.7468,542.7457 190.9408,538.0517 C192.6658,536.9257 195.2258,535.9107 196.5228,537.5107 C188.3518,543.0907 180.1808,548.6707 172.0098,554.2497 C170.3058,555.4137 168.4348,556.8507 168.2678,558.9067 C167.1048,558.9057 165.9418,558.9057 164.7788,558.9047" id="Fill-3" fill="#020302"></path>
                <path d="M209.9248,545.9649 C208.5088,549.3769 208.7688,553.3589 207.0548,556.6319 C206.3328,558.0119 204.9178,559.3389 203.4078,558.9569 C204.4288,553.0259 205.9088,547.0169 209.2828,542.0349 C212.6568,537.0519 218.2658,533.2299 224.2808,533.4209 C224.3868,534.0079 224.4928,534.5949 224.5978,535.1819 C218.7568,537.4089 212.3218,540.1909 209.9248,545.9649" id="Fill-5" fill="#020302"></path>
                <path d="M423.3663,98.0975 C424.0633,99.3865 425.2943,100.8955 426.6623,100.3695 C429.0233,93.6495 431.3843,86.9285 433.7453,80.2085 C434.4543,78.1915 435.1743,76.0735 434.8563,73.9585 C434.5383,71.8445 432.8103,69.7755 430.6743,69.8605 C431.5963,73.9465 430.8943,78.3755 428.7543,81.9765 C427.4123,81.6515 427.5533,79.7205 427.9083,78.3855 C428.2633,77.0505 427.9703,75.0165 426.5933,75.1245 C427.8273,74.4555 428.1243,72.5385 427.1523,71.5265 C425.1773,75.2745 421.7133,78.2115 417.6923,79.5455 C418.9243,79.9745 419.3913,81.7805 418.5223,82.7535 C415.4143,81.1765 412.3063,79.5995 409.1993,78.0235 C407.6493,77.2365 405.8533,76.4345 404.2383,77.0775 C402.6233,77.7215 402.2363,80.6045 403.9343,80.9765 C408.6233,82.0035 413.1433,83.7925 417.2643,86.2525 C417.9233,86.6445 418.6073,87.0945 418.9193,87.7955 C419.2303,88.4955 418.9653,89.5015 418.2223,89.6905 C415.4663,86.2075 410.6033,84.5425 406.2903,85.6065 C409.9833,86.5375 413.3663,88.6625 415.8073,91.5855 C417.6653,93.8115 421.2373,93.0125 423.8633,91.7835 C423.6163,90.1085 423.3783,88.3455 423.9863,86.7655 C424.5953,85.1845 426.3673,83.9165 427.9643,84.4785 C427.7733,87.4855 427.2733,90.4735 426.4753,93.3795 C424.6653,93.0325 422.7663,93.1645 421.0203,93.7555 C421.8023,95.2035 422.5843,96.6505 423.3663,98.0975 M415.1783,74.8855 C417.5263,75.6575 420.8493,76.0345 421.7753,73.7435 C423.1163,70.4285 425.8533,67.5145 429.3453,66.7425 C432.8363,65.9705 436.9423,67.8575 437.9843,71.2785 C438.6543,73.4795 438.0423,75.8455 437.3773,78.0485 C434.8873,86.3015 431.6633,94.3105 428.4433,102.3065 C428.1123,103.1275 427.5483,104.1005 426.6673,104.0175 C426.2993,103.9825 425.9803,103.7565 425.6813,103.5385 C417.8993,97.8535 410.1173,92.1695 402.3353,86.4855 C400.6913,85.2845 398.9613,83.9735 398.2573,82.0625 C396.9223,78.4455 400.1323,74.4375 403.8653,73.4715 C407.5983,72.5065 411.5153,73.6825 415.1783,74.8855" id="Fill-9" fill="#020302"></path>
                <path d="M450.6943,29.2747 C450.9703,29.1617 451.2603,29.0587 451.5593,29.0667 C453.2223,29.1107 452.8753,31.8287 451.6113,32.9117 C450.3473,33.9937 448.5243,35.1717 448.9503,36.7807 C450.6503,36.7807 451.0323,39.4297 449.9193,40.7147 C448.8063,42.0007 447.0243,42.4527 445.6343,43.4317 C444.2433,44.4107 443.3203,46.6007 444.5863,47.7357 C445.7413,47.5787 446.6523,46.7147 447.6773,46.1597 C448.7023,45.6037 450.2093,45.4677 450.8353,46.4517 C451.6273,47.6997 450.2433,49.1697 449.0183,49.9977 C446.7563,51.5247 444.4953,53.0517 442.2333,54.5787 C440.5553,55.7127 437.6853,56.5107 437.0113,54.6007 C435.5433,50.4437 430.3933,49.1717 426.0333,48.5177 C426.6813,51.9257 427.3303,55.3347 427.9783,58.7427 C428.1383,59.5827 428.2913,60.4887 427.9293,61.2637 C427.5683,62.0387 426.4613,62.5087 425.8293,61.9327 C425.4733,61.6087 425.3903,61.0887 425.3293,60.6107 C424.6443,55.2997 423.9593,49.9897 423.2743,44.6787 C423.0543,42.9777 423.4843,40.5257 425.1953,40.6477 C425.9893,43.7737 428.5253,46.3957 431.6233,47.2927 C430.7723,43.8967 429.9203,40.5007 429.0683,37.1057 C429.5273,36.3107 430.7523,36.2987 431.4913,36.8417 C432.2293,37.3857 432.6003,38.2847 432.9373,39.1377 L436.3673,47.8367 C437.2933,50.1817 438.4943,52.7967 440.8943,53.5687 C440.7533,50.4177 440.9243,47.2537 441.4063,44.1367 C442.3413,38.0937 445.0353,31.5907 450.6943,29.2747" id="Fill-15" fill="#020302"></path>
                <path d="M354.0801,86.7286 C354.4891,89.2416 354.0471,92.6696 351.5341,93.0816 C350.7911,88.5286 350.0411,83.9476 348.5221,79.5916 C347.6191,77.0036 346.4431,74.4846 345.9971,71.7806 C345.5521,69.0766 345.9611,66.0516 347.8621,64.0766 C353.4101,70.0446 358.2751,76.6466 362.3331,83.7126 C364.6091,80.5426 363.4961,76.1676 362.2941,72.4546 C361.0561,68.6296 359.8181,64.8056 358.5801,60.9816 C358.2901,60.0836 357.9981,59.1106 358.2961,58.2156 C358.5931,57.3196 359.7631,56.6726 360.5141,57.2446 C360.8051,57.4666 360.9691,57.8136 361.1191,58.1476 C363.8851,64.3216 365.8391,70.8586 366.9141,77.5376 C367.1721,79.1436 367.3761,80.8176 366.9051,82.3746 C366.4351,83.9316 365.1131,85.3446 363.4881,85.4166 C362.0781,85.4786 360.8141,84.5546 359.8521,83.5216 C355.6631,79.0216 354.5991,71.6436 349.1501,68.7976 C348.4511,71.0226 349.6361,73.3456 350.6191,75.4616 C352.2791,79.0356 353.4471,82.8386 354.0801,86.7286" id="Fill-17" fill="#020302"></path>
                <path d="M374.948,100.6101 C373.543,104.7781 371.566,108.7541 369.09,112.3891 C374.296,110.6351 379.414,108.6221 384.421,106.3621 C384.893,107.2061 385.365,108.0501 385.837,108.8941 C381.947,111.4951 377.519,113.1571 373.137,114.7971 C370.55,115.7651 367.59,116.7181 365.13,115.4641 C366.718,107.6051 372.886,100.8991 372.918,92.8811 C368.892,94.8061 365.042,97.0971 361.429,99.7161 C360.352,98.7681 360.382,96.9951 361.113,95.7601 C361.844,94.5251 363.097,93.7061 364.318,92.9521 C367.293,91.1151 371.338,89.4541 374.021,91.6951 C376.464,93.7361 375.965,97.5931 374.948,100.6101" id="Fill-21" fill="#020302"></path>
                <path d="M377.5376,60.5404 C375.3356,63.4004 373.3066,67.3644 375.2376,70.4134 C376.7496,72.8014 380.2976,73.3234 382.7766,71.9654 C385.2556,70.6074 386.6936,67.8154 387.0736,65.0144 C387.3176,63.2114 387.1576,61.2874 386.2176,59.7294 C385.2776,58.1714 383.4396,57.0794 381.6466,57.3854 C379.9016,57.6834 378.6176,59.1384 377.5376,60.5404 M371.4456,70.9744 C370.6596,68.5374 371.2616,65.8694 372.1756,63.4774 C373.3586,60.3854 375.1676,57.3784 377.9896,55.6464 C380.8116,53.9154 384.8036,53.8034 387.2236,56.0624 C388.9726,57.6944 389.6156,60.2084 389.7106,62.5984 C389.9056,67.4584 387.8346,72.6764 383.5676,75.0124 C379.3016,77.3494 372.9386,75.6034 371.4456,70.9744" id="Fill-28" fill="#020302"></path>
                <g id="Group-34" transform="translate(0.000000, 0.401000)">
                    <mask id="mask-2" fill="white">
                        <use xlink:href="#path-1"></use>
                    </mask>
                    <g id="Clip-33"></g>
                    <path d="M45.0156,157.6286 C44.2916,157.4466 44.2056,158.8666 44.9286,159.0536 C45.6516,159.2406 46.3246,158.6106 46.7156,157.9746 C46.1386,157.8626 45.5606,157.7516 44.9836,157.6396 L45.0156,157.6286 Z M366.2876,164.9326 C367.0176,165.7956 368.6706,165.4806 369.0316,164.4106 C368.2096,163.5826 366.5826,163.8716 366.0956,164.9316 L366.2876,164.9326 Z M142.1726,47.9116 C143.1516,47.4666 143.5536,46.0816 142.9646,45.1816 C141.5516,45.0686 140.8346,47.6436 142.2376,47.8406 L142.1726,47.9116 Z M372.8786,165.9206 C374.0746,166.2616 375.8666,166.2336 375.9916,164.9966 C374.3986,164.4996 372.6606,164.4806 371.0576,164.9416 C371.4436,165.5426 372.1046,165.9586 372.8136,166.0466 L372.8786,165.9206 Z M352.7896,162.3226 C351.3906,161.7906 349.6496,162.4056 348.8946,163.6996 C349.7916,164.3576 350.8296,165.0506 351.9236,164.8516 C353.0186,164.6516 353.6996,162.9716 352.7356,162.4176 L352.7896,162.3226 Z M142.2316,37.5636 C140.5656,38.6316 141.5566,41.8256 143.5336,41.7626 C144.5676,40.3676 143.9076,38.0636 142.2926,37.4276 L142.2316,37.5636 Z M275.1836,191.3736 C274.3266,192.1366 273.1596,192.5396 272.0156,192.4676 C271.8976,193.0476 271.7796,193.6286 271.6616,194.2086 C272.9476,195.0096 274.5726,194.0176 275.7386,193.0506 C276.1616,192.6986 276.6236,192.2536 276.5756,191.7056 C276.5276,191.1566 275.5676,190.9006 275.4686,191.4426 L275.1836,191.3736 Z M47.1316,160.6826 C51.9136,161.6766 56.9676,161.3246 61.5656,159.6776 C56.7746,158.7616 51.7486,159.1126 47.1316,160.6826 L47.1316,160.6826 Z M116.4646,157.7146 C115.6356,157.6806 114.4326,158.1556 114.7926,158.9036 C123.3356,159.6136 131.8926,160.1466 140.4586,160.5016 C141.0996,159.5106 139.4496,158.6576 138.2706,158.6096 C131.0016,158.3116 123.7336,158.0126 116.4646,157.7146 L116.4646,157.7146 Z M332.2876,107.5376 C333.6596,115.8976 336.1696,124.0696 339.7276,131.7576 C340.1706,132.7156 341.1726,133.8406 342.0526,133.2596 C340.1166,124.2596 336.8116,115.5546 332.2876,107.5376 L332.2876,107.5376 Z M64.0296,157.0876 C78.1836,157.3636 92.3376,157.6396 106.4916,157.9156 C107.4776,157.9346 108.8856,157.3956 108.5096,156.4846 C93.3196,154.5386 77.9026,154.3776 62.6756,156.0076 C62.3466,156.6236 63.3316,157.0736 64.0296,157.0876 L64.0296,157.0876 Z M134.9396,120.7496 C136.2406,109.1296 137.5406,97.5106 138.8416,85.8906 C139.2486,82.2476 139.6566,78.6006 139.7736,74.9366 C139.9236,70.2056 139.5856,65.4586 138.7656,60.7966 C137.4386,63.5166 137.2956,66.6416 137.1566,69.6646 C136.3416,87.4346 134.8636,105.1746 132.7276,122.8336 C133.6516,123.7036 134.7986,122.0096 134.9396,120.7496 L134.9396,120.7496 Z M274.0276,189.7776 C275.7796,188.9036 277.3846,187.6006 278.2466,185.8436 C279.5526,183.1796 278.9116,179.8586 277.2256,177.4176 C275.5396,174.9766 272.9606,173.2926 270.2926,171.9956 C268.3006,171.0276 266.1576,170.2266 263.9436,170.2646 C261.7296,170.3026 259.4266,171.3236 258.3556,173.2616 C258.2616,171.8676 257.3126,169.9446 256.0816,170.6066 C255.7136,170.8036 255.4986,171.1976 255.3226,171.5766 C252.9256,176.7336 254.1416,183.3466 258.2176,187.3126 C262.2946,191.2796 268.9376,192.3146 274.0276,189.7776 L274.0276,189.7776 Z M23.9726,63.3156 C23.5146,67.6916 26.5846,71.7816 26.4986,76.1806 C26.4686,77.7486 26.0996,79.5346 27.1326,80.7136 C27.7066,81.3686 28.5836,81.6516 29.4156,81.9066 C62.2666,91.9766 95.1176,102.0476 127.9686,112.1176 C129.1286,112.4736 130.8856,112.4686 131.0096,111.2616 C132.8796,92.9886 134.7496,74.7146 136.6186,56.4416 C136.8146,54.5306 137.3206,52.2176 139.1566,51.6506 C137.1506,47.8656 132.9836,45.8416 129.0816,44.0716 C99.0296,30.4386 68.7746,17.2526 38.3296,4.5196 C36.0846,3.5806 33.6156,2.6286 31.2796,3.3106 C28.9436,3.9936 27.3026,7.1686 28.9616,8.9496 C30.9236,11.0566 28.6566,14.3076 26.6366,16.3586 C24.6166,18.4096 22.9276,22.2376 25.4046,23.7046 C28.6226,25.6116 22.0866,31.3386 24.8526,33.8556 C26.6916,35.5296 26.5756,38.4056 26.3176,40.8796 C25.5356,48.3576 24.7536,55.8366 23.9726,63.3156 L23.9726,63.3156 Z M159.6166,484.6986 C171.3046,480.2156 186.0286,489.2986 187.2656,501.7556 C193.3856,494.4586 199.7326,486.9766 208.1806,482.5796 C216.6286,478.1826 227.8006,477.5956 235.0906,483.7236 C220.9666,486.7606 210.7536,502.1466 213.4376,516.3416 C228.5356,516.5576 243.3726,507.3766 249.9186,493.7696 C256.4636,480.1626 254.3746,462.8396 244.7806,451.1786 C262.0506,457.8256 272.8016,478.1296 268.5926,496.1486 C281.6436,482.1276 301.1036,474.3236 320.2266,475.4426 C312.3386,484.0726 306.2586,498.2466 314.4166,506.6206 C323.2816,515.7216 340.3536,506.2976 342.4036,493.7596 C344.4526,481.2216 336.9416,469.2426 329.1046,459.2436 C349.6396,466.6996 363.3076,489.6336 360.0946,511.2426 C366.2006,504.8546 373.8226,499.9236 382.1516,496.9716 C374.5176,474.3856 366.8836,451.8006 359.2496,429.2146 C356.5306,421.1706 354.1026,411.3886 359.6146,404.9306 C362.7196,401.2926 359.1416,396.0466 356.9546,391.7936 C350.2846,378.8216 357.9516,363.0216 355.8076,348.5936 C354.8286,342.0016 351.8206,335.9146 349.0356,329.8606 C331.2646,291.2316 321.1596,249.0946 319.4746,206.6076 C318.9666,193.7736 318.4576,180.9396 317.9486,168.1066 C324.1256,181.0186 323.5736,195.9596 323.9756,210.2676 C325.0016,246.8306 333.1676,283.1786 347.8766,316.6676 C355.0586,333.0196 364.0116,350.4836 359.7656,367.8306 C357.9106,375.4126 354.3856,385.2846 360.9166,389.5576 C366.7816,393.3936 362.9346,402.2426 361.4906,409.0996 C359.7666,417.2816 362.6116,425.6586 365.4156,433.5356 C376.9976,466.0676 388.5796,498.5986 400.1626,531.1306 C444.2966,537.9096 489.1966,539.6886 533.7286,536.4216 C489.0506,543.0776 443.2436,542.0866 398.8956,533.5036 C402.4786,540.1226 406.0616,546.7416 409.6446,553.3616 C397.1446,537.8806 388.7676,519.1006 385.6016,499.4576 C372.8796,503.5256 361.4876,511.6476 353.4956,522.3486 C362.3216,502.5206 354.8386,476.8356 336.7456,464.8506 C349.2336,480.3106 346.1136,505.9016 330.2776,517.9086 C332.2046,516.5696 331.5706,512.9786 329.3026,512.3796 C327.0336,511.7816 324.7106,514.5936 325.7266,516.7086 C309.3466,512.7036 302.9376,488.1726 315.2666,476.6676 C290.8906,479.9936 268.4986,495.5526 256.8786,517.2366 C262.0226,507.1396 266.1266,496.1316 265.7896,484.8056 C265.4516,473.4786 259.9046,461.7846 249.8176,456.6206 C264.6926,477.5826 261.0116,509.5376 241.7586,526.5676 C249.7276,515.3116 254.8806,502.0786 256.6226,488.3986 C248.3256,505.9446 230.8916,518.8506 211.6876,521.6626 C209.8756,513.6346 210.0376,505.1686 212.1556,497.2156 C205.2856,503.7236 199.5576,511.4336 195.3116,519.8906 C199.6166,502.7656 213.6446,488.4446 230.6766,483.7846 C220.7126,480.3366 209.3886,484.1966 201.2926,490.9496 C193.1956,497.7036 187.6816,506.9746 182.3266,516.0566 C188.4286,503.9056 179.6856,487.0006 166.2426,484.9576 C177.1306,501.4196 165.1366,527.5236 145.5546,529.9846 C125.0136,532.5666 105.5846,543.1466 92.2716,558.9996 C100.9586,549.3636 109.6456,539.7266 118.3326,530.0906 C78.9026,527.7026 39.4686,525.3146 -0.000400000001,523.6796 C39.6806,521.8326 79.5176,523.3536 118.9416,528.2216 C121.2746,521.3176 124.1636,514.6116 126.5116,507.7126 C134.0896,485.4516 135.8776,461.2466 131.6526,438.1136 C130.9746,434.3986 133.1546,430.8506 134.8186,427.4616 C139.7016,417.5156 140.5426,405.6556 137.1126,395.1196 C148.6206,368.5576 156.2106,340.3016 159.5616,311.5486 C165.1146,263.8926 174.7506,216.7126 188.3276,170.6956 C189.6916,166.0746 193.7926,160.2916 197.9086,162.7956 C146.6916,160.7676 95.3846,161.0046 44.1886,163.5046 C42.9006,160.7486 41.6126,157.9936 40.3256,155.2386 C69.2906,151.3696 98.7786,151.4356 127.7256,155.4326 C130.0876,142.5816 130.6386,129.3996 129.3576,116.3966 C94.2036,103.4916 58.3006,92.6266 21.8896,83.8746 C21.1476,57.1456 22.2786,30.3656 25.2686,3.7946 C31.7376,-0.5314 40.3926,2.2996 47.5786,5.2846 C77.7946,17.8336 107.6976,31.1376 137.2486,45.1806 C136.3026,39.4066 139.2876,30.4546 144.4706,33.1676 C147.3166,34.6566 147.3076,38.6666 146.8986,41.8526 C142.0336,79.7686 137.1696,117.6856 132.3046,155.6016 C168.7626,148.6816 207.9736,157.8046 237.6326,180.1076 C247.3996,187.4526 257.5536,196.6386 269.7556,195.9686 C261.1856,193.0956 251.0306,188.2266 250.6916,179.1946 C250.3786,170.8756 260.3786,164.7286 268.3386,167.1626 C276.2996,169.5976 281.1896,178.2516 281.3156,186.5746 C295.4436,165.3726 323.7096,154.7336 348.3116,161.3556 C337.3426,131.7426 326.3736,102.1286 315.4056,72.5156 C320.7636,70.6856 321.8476,62.0506 317.1076,58.9526 C323.1056,59.1486 328.1666,65.3556 327.1516,71.2706 C366.7956,35.0866 416.6716,10.2376 469.4336,0.3836 C476.6946,31.5806 481.4236,63.3656 483.5586,95.3256 C442.2416,118.9556 394.8356,131.8336 347.2416,132.3566 C393.3436,128.4146 438.6886,115.8006 480.2036,95.3706 C480.8216,80.6386 478.3086,65.9756 475.8036,51.4456 C473.0266,35.3326 470.2496,19.2196 467.4726,3.1066 C418.2206,13.3046 371.6236,36.0676 333.3056,68.6476 C330.8286,70.7536 328.2646,73.0846 327.4046,76.2206 C326.5256,79.4236 327.6026,82.8026 328.6696,85.9476 C335.7116,106.7166 342.7546,127.4856 349.7966,148.2536 C352.0236,154.8206 356.0856,162.7056 363.0066,162.2846 C400.8596,159.9836 438.8846,160.5156 476.6596,163.8736 C456.7246,168.0886 435.8976,168.0306 415.9866,163.7046 C421.0306,165.7516 426.0736,167.7986 431.1176,169.8446 C403.6776,168.7166 376.2376,167.5886 348.7976,166.4606 C334.6756,165.8796 320.1396,165.3586 306.8356,170.1276 C288.3516,176.7546 274.0996,193.9786 271.0496,213.3756 C265.4736,248.8356 294.3336,280.2566 300.6056,315.6006 C291.1816,296.4666 281.7566,277.3326 272.3326,258.1986 C264.0686,287.8506 255.8036,317.5026 247.5386,347.1536 C250.8016,322.8776 256.1726,298.8846 263.5706,275.5336 C270.5686,253.4466 272.0376,229.6316 267.8076,206.8526 C267.2896,204.0626 266.3346,200.8556 263.6776,199.8576 C250.8646,195.0476 240.8476,185.0206 229.6346,177.1716 C218.4226,169.3236 203.9866,163.4476 191.2316,168.4096 C183.4916,200.9576 175.7526,233.5056 168.0136,266.0526 C166.0236,274.4206 164.0256,282.8496 163.6366,291.4416 C163.3586,297.5706 163.9046,303.7226 163.4446,309.8406 C163.0356,315.2736 161.8396,320.6126 160.6456,325.9286 C154.8856,351.5946 149.1246,377.2606 143.3646,402.9276 C140.9246,413.7986 138.4836,424.6736 135.6056,435.4376 C139.4676,459.5636 137.3766,484.6206 129.5716,507.7736 C126.8126,515.9576 123.3566,523.8986 120.7346,532.1286 C134.4566,530.8686 149.1946,529.1826 159.4896,520.0236 C169.7836,510.8636 171.6526,491.4076 159.6166,484.6986 L159.6166,484.6986 Z" id="Fill-32" fill="#020302" mask="url(#mask-2)"></path>
                </g>
                <path d="M412.8333,42.4054 C411.3473,45.1454 407.0673,45.2094 405.4363,47.8664 C404.3343,49.6634 404.8503,51.9714 405.4003,54.0054 C406.2913,57.2984 407.1813,60.5914 408.0713,63.8844 C408.6063,65.8604 408.9293,68.4344 407.2003,69.5314 C404.3943,64.2844 402.8793,58.3524 402.8273,52.4024 C402.8163,51.1674 400.9013,51.0954 399.8833,51.7934 C398.8653,52.4914 397.8113,53.5784 396.6263,53.2324 C395.6483,52.9464 395.1983,51.7264 395.4273,50.7334 C395.6553,49.7404 396.3733,48.9404 397.0943,48.2204 C399.6633,45.6524 402.6143,43.4684 405.8203,41.7604 C408.1673,40.5104 411.8253,39.9444 412.8333,42.4054" id="Fill-35" fill="#020302"></path>
                <path d="M266.466,519.8311 C265.303,519.7441 265.664,517.9281 266.369,516.9991 C270.168,511.9961 273.967,506.9931 277.766,501.9901 C279.921,499.1511 282.088,496.3001 284.64,493.8111 C287.719,490.8081 291.341,488.3641 295.278,486.6321 C297.27,485.7561 300.213,485.4041 301.064,487.4071 C295.262,489.0841 289.905,492.2761 285.67,496.5811 C278.591,503.7751 274.645,513.9181 266.466,519.8311" id="Fill-37" fill="#020302"></path>
                <path d="M306.8664,428.7004 C309.1704,436.5044 308.5034,445.1454 305.0304,452.5044 C301.5564,459.8624 295.3084,465.8694 287.8194,469.0504 C286.7474,469.5054 285.2354,469.7734 284.6504,468.7664 C283.8584,467.4034 285.8354,466.1714 287.3364,465.6904 C292.5094,464.0334 297.0734,460.5384 300.0214,455.9754 C305.1494,448.0394 305.0894,437.9804 306.8664,428.7004" id="Fill-41" fill="#020302"></path>
                <path d="M244.0782,436.6482 C255.4782,442.0642 264.9302,451.4762 270.3942,462.8532 C271.2062,464.5452 271.2002,467.4602 269.3252,467.3642 C265.0762,457.1802 257.6942,448.3282 248.4382,442.3202 C246.3242,440.9482 243.8122,439.1542 244.0782,436.6482" id="Fill-49" fill="#020302"></path>
                <path d="M349.81,497.0044 C351.379,497.7774 351.789,499.8054 351.857,501.5534 C352.135,508.7814 349.756,515.9624 345.891,522.0754 C343.153,526.4074 338.998,530.5864 333.873,530.5524 C333.122,529.1074 335.108,527.8664 336.587,527.1844 C340.998,525.1504 343.908,520.8154 345.875,516.3744 C348.565,510.3034 349.917,503.6434 349.81,497.0044" id="Fill-55" fill="#020302"></path>
                <path d="M281.0655,519.953 C282.1485,508.874 289.2085,498.561 299.1445,493.543 C300.5925,492.811 303.0765,492.75 303.1045,494.372 C293.0815,499.092 285.5545,508.787 283.4655,519.667 C282.7575,520.102 281.8565,520.209 281.0655,519.953" id="Fill-61" fill="#020302"></path>
                <path d="M320.9614,432.2008 C321.6954,431.2678 323.1504,432.1958 323.9104,433.1078 C330.6334,441.1808 337.0244,449.5298 343.0604,458.1288 C342.4744,459.6838 340.1254,458.5338 339.0874,457.2358 C332.6514,449.1858 326.6004,440.8278 320.9614,432.2008" id="Fill-63" fill="#020302"></path>
                <path d="M174.8385,507.5724 C174.4475,505.3064 173.9075,502.4014 175.8675,501.1994 C180.0825,511.3884 176.2545,524.2784 167.1615,530.5144 C166.2865,529.7934 166.2835,528.3984 166.8055,527.3924 C167.3275,526.3874 168.2425,525.6564 169.0665,524.8784 C173.6765,520.5334 175.9175,513.8144 174.8385,507.5724" id="Fill-69" fill="#020302"></path>
                <path d="M203.178,481.4032 C202.628,478.8782 205.079,476.8372 207.026,475.1392 C212.48,470.3822 215.838,463.3032 216.072,456.0692 C217.559,455.5852 218.332,457.8282 218.169,459.3832 C217.204,468.5822 211.383,477.1322 203.178,481.4032" id="Fill-73" fill="#020302"></path>
                <path d="M417.2419,40.7648 C419.1019,46.2828 420.5939,51.9238 421.7059,57.6388 C421.8479,58.3708 421.9789,59.1568 421.6779,59.8378 C421.3769,60.5198 420.4579,60.9738 419.8579,60.5318 C419.5579,60.3108 419.4179,59.9378 419.2939,59.5858 C417.1439,53.5058 414.9899,46.8078 417.2419,40.7648" id="Fill-83" fill="#020302"></path>
                <path d="M91.6835,52.7108 C93.1365,53.0908 94.7295,51.6098 94.4555,50.1328 C94.0385,49.7638 93.4295,49.6268 92.8955,49.7818 L91.8515,52.2058 L91.6835,52.7108 Z M98.7835,50.4128 C96.9205,51.6328 95.2745,53.1828 93.9445,54.9688 C93.3925,55.7108 92.9175,56.8228 93.5725,57.4748 C96.4125,56.2988 98.4975,53.4738 98.7835,50.4128 L98.7835,50.4128 Z M87.6705,45.9278 C86.8555,45.1908 85.4305,45.8328 85.0095,46.8488 C84.5895,47.8648 84.8565,49.0218 85.1445,50.0828 C85.8325,52.6178 86.6105,55.1288 87.4765,57.6098 C87.9785,59.0488 89.5075,60.7818 90.6515,59.7748 C90.1945,55.5398 89.4095,51.3408 88.3065,47.2268 C88.1805,46.7538 88.0335,46.2558 87.6705,45.9278 L87.6705,45.9278 Z M80.4645,47.8468 C79.8585,45.4288 79.5855,42.4148 81.5495,40.8798 C83.8875,39.0518 87.2285,40.8358 89.6405,42.5658 C92.0515,44.2958 95.5055,45.9608 97.7215,43.9868 C99.1695,42.6978 101.6845,43.6238 102.5805,45.3428 C103.4775,47.0618 103.1665,49.1578 102.5765,51.0048 C100.4045,57.8118 94.5465,63.3148 87.6175,65.0578 C84.3995,59.7168 81.9805,53.8958 80.4645,47.8468 L80.4645,47.8468 Z" id="Fill-111" fill="#020302"></path>
                <path d="M68.8306,38.921 C67.1376,40.903 63.9786,36.327 61.7286,37.642 C61.1436,37.984 60.8386,38.646 60.5686,39.268 C58.8026,43.333 57.3316,48.798 60.7716,51.592 C61.7636,52.399 63.0346,52.815 63.9946,53.66 C64.9556,54.504 65.4926,56.11 64.6066,57.032 C62.5296,58.008 60.1756,56.569 58.3366,55.197 C55.4846,53.068 52.6336,50.94 49.7816,48.811 C48.8206,48.094 47.8026,47.299 47.4546,46.15 C47.1056,45.002 47.8506,43.473 49.0496,43.52 C49.5416,43.54 49.9846,43.81 50.4016,44.073 C52.0076,45.083 53.6126,46.092 55.2186,47.102 C55.6416,44.749 56.0646,42.396 56.4876,40.044 C56.8476,38.041 57.1316,35.733 55.8066,34.188 C54.7246,32.926 52.9056,32.606 51.5676,31.62 C50.2286,30.633 49.7746,28.085 51.3686,27.611 C51.9116,27.449 52.4916,27.616 53.0306,27.791 C57.8626,29.358 62.4516,31.671 66.5856,34.623 C68.0166,35.645 69.5566,37.319 68.8306,38.921" id="Fill-113" fill="#020302"></path>
                <path d="M105.8553,82.7951 C103.1473,83.6961 100.7663,85.5501 99.2283,87.9541 C96.8433,86.8191 97.0713,83.2911 98.2533,80.9281 C99.4353,78.5661 101.2453,76.1971 100.8073,73.5921 C101.7983,73.5611 102.7883,73.5311 103.7793,73.5001 C102.8103,75.7911 102.9953,78.5371 104.2623,80.6781 C104.7123,81.4391 105.2853,82.1191 105.8553,82.7951" id="Fill-115" fill="#020302"></path>
                <path d="M56.6685,77.5294 C54.1395,77.9584 51.5075,76.6654 49.9365,74.6364 C48.3655,72.6084 47.7585,69.9584 47.8135,67.3934 C47.8615,65.1464 48.4585,62.7874 50.0725,61.2234 C52.8405,58.5414 57.4445,59.1714 60.9045,60.8704 C62.2175,61.5144 63.6475,62.6274 63.4535,64.0774 C61.4695,64.9824 59.2595,63.6734 57.2305,62.8774 C55.2005,62.0814 52.1345,62.3484 51.7815,64.5004 C51.2755,67.5854 50.9255,71.1964 53.1345,73.4084 C54.8445,75.1214 57.8725,75.2814 59.7535,73.7584 C60.3155,75.5144 58.4865,77.2214 56.6685,77.5294" id="Fill-117" fill="#020302"></path>
                <path d="M115.7342,79.1814 C116.2622,79.6014 116.3942,80.4414 116.0192,81.0024 C114.5112,80.0424 112.6702,82.0194 112.6072,83.8064 C112.5452,85.5934 113.3512,87.3734 113.0212,89.1304 C112.6692,91.0024 110.9002,92.5054 108.9962,92.5514 C107.7342,92.5814 106.3602,91.8744 106.0522,90.6504 C105.7442,89.4264 107.0682,87.9964 108.2182,88.5164 C109.0632,88.8974 109.9622,87.8884 109.9652,86.9614 C109.9682,86.0344 109.4602,85.1914 109.2302,84.2934 C108.3662,80.9204 112.6602,77.5454 115.7342,79.1814" id="Fill-119" fill="#020302"></path>
                <path d="M64.5719,79.4988 C62.0019,75.3188 63.8679,69.9328 65.7799,65.4138 C65.9279,65.0648 66.0999,64.6878 66.4369,64.5138 C67.4369,63.9968 68.1349,65.6148 68.0679,66.7388 C67.8039,71.1728 66.6049,75.5488 64.5719,79.4988" id="Fill-121" fill="#020302"></path>
                <path d="M80.7776,75.5215 C82.2506,74.9625 84.3396,75.3155 84.7556,76.8345 C85.1036,78.1045 84.0956,79.2905 83.4216,80.4215 C82.7466,81.5525 82.6316,83.4245 83.8936,83.8035 C81.9166,85.5195 78.3796,84.3115 77.5306,81.8355 C76.6806,79.3595 78.3306,76.4505 80.7776,75.5215" id="Fill-123" fill="#020302"></path>
                <path d="M71.6285,73.8734 C73.7685,75.2104 73.0945,79.1654 70.6315,79.7174 C68.9895,77.9674 69.4995,74.7084 71.5975,73.5434 L71.6285,73.8734 Z" id="Fill-125" fill="#020302"></path>
                <path d="M70.9825,67.4223 C72.6635,66.8823 74.6405,68.4493 74.4985,70.2083 C72.7895,71.4633 69.9525,69.3693 70.6485,67.3663 L70.9825,67.4223 Z" id="Fill-127" fill="#020302"></path>
                <path d="M275.7536,184.842 C272.2746,187.951 267.3016,189.305 262.7266,188.388 C265.8646,184.797 271.2276,183.337 275.7536,184.842" id="Fill-129" fill="#020302"></path>
                <path d="M270.1546,177.8924 C270.7736,176.3164 273.6396,176.8934 273.7676,178.5814 C273.1786,180.0824 270.3896,179.5434 270.4016,177.9314 L270.1546,177.8924 Z" id="Fill-131" fill="#020302"></path>
                <path d="M89.9552,82.2179 C89.0322,82.9769 88.3552,84.0299 88.0492,85.1849 C87.5912,85.5819 86.9092,85.0299 86.6602,84.4779 C85.7622,82.4899 86.6932,79.8569 88.6612,78.9169 C90.6302,77.9769 93.2952,78.9419 94.1642,80.9439 C95.0322,82.9449 93.8792,85.5819 91.8052,86.2599 C91.3982,84.9199 90.9912,83.5799 90.5842,82.2409 L89.9552,82.2179 Z" id="Fill-133" fill="#020302"></path>
                <path d="M264.819,177.2126 C264.864,178.1196 264.075,178.9836 263.168,179.0216 C262.261,179.0596 261.403,178.2646 261.371,177.3576 C262.098,176.2006 264.02,176.0946 264.868,177.1656 L264.819,177.2126 Z" id="Fill-135" fill="#020302"></path>
                <path d="M424.6648,76.5661 C424.7888,75.7201 425.9988,76.8031 425.8438,77.6441 C425.5528,79.2261 424.7208,80.7031 423.5188,81.7721 C422.7818,80.0241 423.2118,77.8481 424.5578,76.5111 L424.6648,76.5661 Z" id="Fill-137" fill="#020302"></path>
            </g>
        </g>
    </g>
</svg>