<?xml version="1.0" encoding="UTF-8" standalone="no"?>
<svg width="125px" height="39px" viewBox="0 0 125 39" version="1.1" xmlns="http://www.w3.org/2000/svg" xmlns:xlink="http://www.w3.org/1999/xlink">
    <!-- Generator: Sketch 3.8.3 (29802) - http://www.bohemiancoding.com/sketch -->
    <title>Group 2</title>
    <desc>Created with Sketch.</desc>
    <defs>
        <polygon id="path-1" points="42.7935862 17.5040539 42.7935862 0.2491445 0.326270127 0.2491445 0.326270127 17.5040539 42.7935862 17.5040539"></polygon>
    </defs>
    <g id="Home" stroke="none" stroke-width="1" fill="none" fill-rule="evenodd">
        <g id="Desktop-HD" transform="translate(-97.000000, -334.000000)">
            <g id="Group-2" transform="translate(97.000000, 334.000000)">
                <path d="M58.4480458,18.686566 L67.3655781,18.686566 C66.6856403,19.5771483 65.1513458,21.5856027 63.5313201,23.7106159 L74.4188243,23.7106159 L78.5560981,18.2731464 C79.8383721,17.0092116 79.743033,15.6505727 79.743033,15.6505727 L79.743033,12.4925569 C79.743033,11.8463839 79.2109078,11.339353 78.5553591,11.339353 L58.4480458,11.339353 C57.791758,11.339353 57.2603718,11.8463839 57.2603718,12.4925569 L57.2603718,17.6539276 L57.2692406,17.6535634 C57.338343,18.2352648 57.839058,18.686566 58.4480458,18.686566" id="Fill-1" fill="#242424"></path>
                <path d="M78.5553591,30.5238438 L69.234668,30.5238438 L73.2145214,25.2936305 L62.3248,25.2936305 C60.4383421,27.7708699 58.691567,30.0689001 58.3076239,30.5930506 C57.4000547,31.8314881 57.2603718,32.9326048 57.2603718,32.9326048 L57.2603718,36.5801677 C57.2603718,37.2259765 57.791758,37.6517805 58.4480458,37.6517805 L78.5553591,37.6517805 C79.2109078,37.6517805 79.743033,37.2259765 79.743033,36.5801677 L79.743033,31.6253247 L79.7389682,31.625689 C79.7027541,31.0112054 79.1879968,30.5238438 78.5553591,30.5238438" id="Fill-2" fill="#242424"></path>
                <path d="M26.6177178,23.7106159 L24.5487114,12.732231 C24.1998737,11.2533908 22.6674269,11.339353 22.6674269,11.339353 L19.2773457,11.4559118 C15.6995424,11.5746561 13.4121429,15.1559262 13.4121429,15.1559262 L7.8913435,23.7106159 L26.6177178,23.7106159" id="Fill-3" fill="#242424"></path>
                <path d="M17.8871684,25.2925377 L19.6963943,35.960949 C20.0544702,37.7311862 21.9305813,37.6517805 21.9305813,37.6517805 L28.2414389,37.6517805 C29.4982152,37.6517805 29.042583,36.4264558 29.042583,36.4264558 L26.9181468,25.2925377 L17.8871684,25.2925377" id="Fill-4" fill="#242424"></path>
                <path d="M6.88326178,25.2925377 L0.70469642,34.9967889 C-0.901287136,37.4743925 1.26342793,37.6517805 1.26342793,37.6517805 L8.10604126,37.6517805 C9.08345186,37.7887371 10.2005454,36.0979056 10.2005454,36.0979056 L16.8842602,25.2925377 L6.88326178,25.2925377" id="Fill-5" fill="#242424"></path>
                <path d="M47.7641534,25.2936305 L46.7867428,23.7106159 L54.7468191,23.7106159 L54.7468191,12.4925569 C54.7468191,11.8463839 54.2154329,11.339353 53.5591451,11.339353 L47.4164243,11.339353 C46.7601365,11.339353 46.2291199,11.9148622 46.2291199,12.5613995 L46.2291199,22.6054925 C46.2291199,22.6054925 41.2877457,14.0205703 40.9219096,13.3183034 C40.2589702,12.0448982 39.1108361,11.339353 37.9893082,11.339353 L32.0553727,11.339353 C31.3994544,11.339353 30.8676987,11.8463839 30.8676987,12.4925569 L30.8676987,23.7106159 L37.710312,23.7106159 L38.6880921,25.2925377 L30.8676987,25.2925377 L30.8676987,36.4421184 C30.8676987,37.0882914 31.3994544,37.6517805 32.0553727,37.6517805 L37.9893082,37.6517805 C38.644857,37.6517805 39.1769822,37.0893841 39.1769822,36.4428469 L39.1769822,26.2581548 L44.8322911,35.8924706 C45.4926437,36.8901414 46.3222418,37.696947 47.4164243,37.6517805 L53.5591451,37.6517805 C54.2154329,37.6517805 54.7468191,37.0882914 54.7468191,36.4421184 L54.7468191,25.2936305 L47.7641534,25.2936305" id="Fill-6" fill="#242424"></path>
                <g id="Group-10" transform="translate(82.035976, 21.126288)">
                    <mask id="mask-2" fill="white">
                        <use xlink:href="#path-1"></use>
                    </mask>
                    <g id="Clip-8"></g>
                    <path d="M13.9028807,17.165109 C16.018448,15.8723988 16.6333483,12.9609777 16.6333483,10.3139995 C16.6333483,4.75523604 12.0607665,0.2491445 6.42171704,0.2491445 C4.27806526,0.2491445 2.33691671,0.577330458 0.988866083,1.75821711 C-0.0750148785,2.68886652 0.311145457,3.67560987 0.970389512,4.41466571 L11.4218467,16.8281812 C11.4218467,16.8281812 12.3889104,18.0902948 13.9028807,17.165109" id="Fill-7" fill="#242424" mask="url(#mask-2)"></path>
                    <path d="M29.2170018,17.165109 C27.1014344,15.8723988 26.4865341,12.9609777 26.4865341,10.3139995 C26.4865341,4.75523604 31.059116,0.2491445 36.6989045,0.2491445 C38.8418172,0.2491445 40.7829658,0.577330458 42.1313859,1.75821711 C43.1948974,2.68886652 42.8091066,3.67560987 42.1498625,4.41466571 L31.6980358,16.8281812 C31.6980358,16.8281812 30.7313416,18.0902948 29.2170018,17.165109" id="Fill-9" fill="#242424" mask="url(#mask-2)"></path>
                </g>
                <path d="M103.595917,11.5302181 C105.875556,11.5302181 107.672218,13.351814 107.672218,15.599214 C107.672218,16.4581069 107.400612,17.2536209 106.940176,17.9103571 C106.480479,18.7189839 105.91177,19.2784663 105.735134,19.8904002 C105.466115,20.8177714 105.750654,21.4399041 106.209243,21.6256698 C106.801232,21.8660724 107.731712,21.455931 107.731712,21.455931 C111.925894,19.8419554 114.896557,15.82104 114.896557,11.1157057 C114.896557,4.98798946 109.812913,0.020033549 103.595917,0.020033549 C97.3789201,0.020033549 92.2952764,4.98798946 92.2952764,11.1157057 C92.2952764,15.82104 95.2666785,19.8419554 99.4604906,21.455931 C99.4604906,21.455931 100.390601,21.8660724 100.98296,21.6256698 C101.441549,21.4399041 101.726457,20.8177714 101.457438,19.8904002 C101.280063,19.2784663 100.711724,18.7189839 100.252027,17.9103571 C99.7912212,17.2536209 99.5199852,16.4581069 99.5199852,15.599214 C99.5199852,13.351814 101.316277,11.5302181 103.595917,11.5302181" id="Fill-11" fill="#242424"></path>
            </g>
        </g>
    </g>
</svg>