<?xml version="1.0" encoding="UTF-8" standalone="no"?>
<svg width="189px" height="39px" viewBox="0 0 189 39" version="1.1" xmlns="http://www.w3.org/2000/svg" xmlns:xlink="http://www.w3.org/1999/xlink">
    <!-- Generator: Sketch 3.8.3 (29802) - http://www.bohemiancoding.com/sketch -->
    <title>Desjardins</title>
    <desc>Created with Sketch.</desc>
    <defs></defs>
    <g id="Home" stroke="none" stroke-width="1" fill="none" fill-rule="evenodd">
        <g id="Desktop-HD" transform="translate(-97.000000, -426.000000)">
            <g id="Desjardins" transform="translate(97.000000, 426.000000)">
                <g id="Group" transform="translate(0.276334, 0.276629)">
                    <polygon id="Shape" fill="#242424" points="39.0076259 38.6908487 0.0437730131 38.6908487 0.0437730131 0.0480152673 39.0076259 0.0480152673 39.0076259 38.6908487"></polygon>
                    <path d="M33.4392511,11.3188417 L33.4392511,27.2736479 L19.5256994,35.3242382 L5.61214774,27.2736479 L5.61214774,11.3188417 L19.5256994,3.41462576 L33.4392511,11.3188417 L33.4392511,11.3188417 Z M19.5256994,4.87836945 L6.85284662,12.0507135 L6.85284662,26.5417761 L19.5256994,33.8604946 L32.1985523,26.5417761 L32.1985523,12.0507135 L19.5256994,4.87836945 L19.5256994,4.87836945 Z M17.7828129,11.7579648 L15.7888326,12.9289598 L15.7888326,15.2709497 L17.7828129,16.2955702 L19.0235118,15.7100728 L18.2850006,15.2709497 L18.2850006,12.9289598 L19.0235118,12.4898366 L17.7828129,11.7579648 L17.7828129,11.7579648 Z M20.7663983,12.3434623 L20.7663983,15.2709497 L25.7291938,18.0520627 L25.7291938,21.4186732 L22.5092848,23.32154 L20.7663983,22.2969194 L20.7663983,25.9562786 L17.7828129,27.712771 L20.2642107,27.712771 L23.2477961,25.9562786 L23.2477961,23.4679143 L24.7395888,23.4679143 L28.2253618,21.4186732 L28.2253618,18.0520627 L23.2477961,15.2709497 L23.2477961,12.3434623 L20.2642107,10.7333442 L17.7828129,10.7333442 L20.7663983,12.3434623 L20.7663983,12.3434623 Z M18.2850006,17.1738165 L18.2850006,19.8085551 L22.5092848,22.150545 L23.7499837,21.4186732 L20.7663983,19.8085551 L20.7663983,17.1738165 L21.5196798,16.7346934 L20.2642107,16.0028215 L18.2850006,17.1738165 L18.2850006,17.1738165 Z M10.8260371,18.6375602 L10.8260371,21.1259244 L12.8052472,22.2969194 L14.0607163,21.5650475 L13.3074348,21.1259244 L13.3074348,18.6375602 L16.542114,16.7346934 L15.3014152,16.0028215 L10.8260371,18.6375602 L10.8260371,18.6375602 Z M15.7888326,21.7114219 L15.7888326,22.8824169 L18.772418,21.1259244 L17.7828129,20.6868013 L15.7888326,21.7114219 L15.7888326,21.7114219 Z M15.7888326,24.0534118 L15.7888326,25.5171555 L19.7767933,23.1751656 L19.7767933,21.7114219 L15.7888326,24.0534118 L15.7888326,24.0534118 Z M16.7932079,25.9562786 L17.7828129,26.5417761 L19.7767933,25.5171555 L19.7767933,24.3461606 L16.7932079,25.9562786 L16.7932079,25.9562786 Z M14.7992275,22.2969194 L12.8052472,23.4679143 L14.7992275,23.4679143 L14.7992275,22.2969194 L14.7992275,22.2969194 Z" id="Shape" fill="#FFFFFF"></path>
                    <path d="M54.5163618,28.1518942 C54.4572809,25.3707811 54.4572809,22.8824169 54.4572809,20.3940526 C54.4572809,16.8810677 54.4868214,13.6608316 54.5754427,10.5869698 C55.5502776,10.5869698 56.2740186,10.4405955 56.6875849,10.4405955 C62.4627428,10.4405955 64.9589107,12.9289598 64.9589107,19.0766833 C64.9589107,25.2244068 62.1377978,28.2982685 56.6580444,28.2982685 C56.0229248,28.2982685 55.2991838,28.1518942 54.5163618,28.1518942 L54.5163618,28.1518942 Z M49.4501748,30.054761 C50.1000646,29.9083866 50.8681163,29.9083866 51.7100191,29.9083866 C53.1575012,29.9083866 54.9299281,30.054761 57.0716107,30.054761 C65.6678815,30.054761 70.0250978,26.2490274 70.0250978,18.7839345 C70.0250978,15.2709497 68.725318,12.3434623 66.4950141,10.5869698 C64.4124124,8.97685179 61.8571635,8.68410305 58.3270798,8.68410305 C56.0967759,8.68410305 53.9550933,8.83047742 51.9020321,8.83047742 C51.1192102,8.83047742 50.321618,8.83047742 49.4501748,8.68410305 C49.7603495,11.4652161 49.7898899,14.3927034 49.7898899,17.6129396 L49.7898899,19.369432 L49.7898899,22.150545 C49.7898899,25.0780324 49.7603495,27.712771 49.4501748,30.054761 L49.4501748,30.054761 Z" id="Shape" fill="#242424"></path>
                    <path d="M76.2581327,21.1259244 L76.2581327,20.8331757 C76.2581327,17.7593139 77.3511293,16.0028215 79.1383265,16.0028215 C80.748281,16.0028215 81.5901838,17.4665652 81.5901838,20.3940526 C81.5901838,20.540427 81.5606433,20.8331757 81.5606433,21.1259244 L76.2581327,21.1259244 L76.2581327,21.1259244 Z M76.2581327,22.5896681 L85.873549,22.5896681 C85.9030894,22.2969194 85.9030894,21.8577963 85.9030894,21.5650475 C85.9030894,17.1738165 83.510313,14.6854522 79.1974074,14.6854522 C74.5595568,14.6854522 71.6645928,17.9056883 71.6645928,22.2969194 C71.6645928,27.4200223 74.5890973,30.3475097 79.4928119,30.3475097 C81.6197242,30.3475097 83.4216917,29.9083866 84.6771608,29.0301404 L85.3713613,27.1272736 L85.0464164,26.9808992 C83.7909473,28.0055198 82.4763973,28.4446429 81.0289152,28.4446429 C78.1634916,28.4446429 76.2581327,26.2490274 76.2581327,22.5896681 L76.2581327,22.5896681 Z" id="Shape" fill="#242424"></path>
                    <path d="M88.7537428,25.8099042 C89.4479433,27.8591454 90.9545063,28.883766 92.8155546,28.883766 C94.3221175,28.883766 95.1640203,28.1518942 95.1640203,26.8345248 C95.1640203,25.5171555 93.8051596,25.0780324 91.4862344,24.0534118 C88.9457557,23.0287912 87.6902866,22.0041706 87.6902866,19.8085551 C87.6902866,16.8810677 89.8910501,14.6854522 93.435904,14.6854522 C95.0163181,14.6854522 96.4933405,15.1245753 97.970363,16.0028215 C97.5272563,16.8810677 97.2318518,17.9056883 97.0841495,18.9303089 L96.788745,18.9303089 C95.7548293,17.0274421 94.5732113,16.1491959 93.037108,16.1491959 C91.6782473,16.1491959 90.7772636,16.8810677 90.7772636,18.0520627 C90.7772636,19.2230576 91.6782473,19.6621807 93.435904,20.3940526 C96.788745,21.5650475 98.561172,22.2969194 98.561172,25.0780324 C98.561172,28.2982685 96.1979361,30.3475097 92.5940012,30.3475097 C90.7477231,30.3475097 89.22639,30.054761 87.8970698,29.1765147 C88.0004613,28.5910173 88.1186231,27.4200223 88.310636,25.8099042 L88.7537428,25.8099042 L88.7537428,25.8099042 Z" id="Shape" fill="#242424"></path>
                    <path d="M103.435346,15.2709497 C104.173857,15.2709497 104.912369,15.2709497 105.65088,15.1245753 L105.65088,19.0766833 C105.65088,26.6881505 105.798582,29.7620122 105.798582,30.4938841 C105.798582,35.1778639 103.583048,37.227105 98.4134698,37.3734794 L98.1180653,36.3488588 C101.515217,36.2024845 101.662919,33.8604946 101.662919,28.4446429 C101.662919,20.6868013 101.515217,17.0274421 101.219812,15.1245753 C101.958324,15.2709497 102.696835,15.2709497 103.435346,15.2709497 L103.435346,15.2709497 Z M103.583048,8.39135431 C105.060071,8.39135431 106.241689,9.56234927 106.241689,11.026093 C106.241689,12.3434623 105.060071,13.5144572 103.583048,13.5144572 C102.253728,13.5144572 101.07211,12.3434623 101.07211,11.026093 C101.07211,9.56234927 102.253728,8.39135431 103.583048,8.39135431 L103.583048,8.39135431 Z" id="Shape" fill="#242424"></path>
                    <path d="M116.580846,21.8577963 L116.580846,25.3707811 C116.580846,27.2736479 115.694633,28.2982685 114.365312,28.2982685 C113.035992,28.2982685 112.445183,27.4200223 112.445183,25.6635299 C112.445183,23.4679143 113.626801,22.2969194 116.580846,21.8577963 L116.580846,21.8577963 Z M116.728548,28.0055198 C117.023953,29.4692635 118.057869,30.3475097 119.534891,30.3475097 C120.568807,30.3475097 121.750425,30.054761 122.784341,29.6156378 L122.784341,28.883766 C120.864211,28.883766 120.716509,28.0055198 120.716509,25.8099042 L120.716509,25.2244068 L120.716509,19.8085551 L120.716509,19.6621807 C120.716509,16.4419446 118.648678,14.6854522 114.956121,14.6854522 C112.88829,14.6854522 111.115863,15.417324 109.343436,17.0274421 C109.491138,17.7593139 109.786543,18.4911858 109.934245,19.0766833 C110.968161,17.4665652 112.149779,16.588319 113.479099,16.588319 C115.251526,16.588319 116.433144,17.7593139 116.433144,19.6621807 L116.433144,20.2476782 C115.251526,21.1259244 113.479099,21.4186732 111.411268,22.150545 C109.195734,22.8824169 108.161818,24.0534118 108.161818,26.102653 C108.161818,28.7373916 109.786543,30.3475097 112.445183,30.3475097 C114.365312,30.3475097 115.842335,29.4692635 116.728548,28.0055198 L116.728548,28.0055198 Z" id="Shape" fill="#242424"></path>
                    <path d="M124.556768,22.5896681 C124.556768,19.6621807 124.556768,17.1738165 124.261363,15.1245753 C124.999874,15.1245753 125.738386,15.2709497 126.476897,15.2709497 C127.215408,15.2709497 127.953919,15.1245753 128.69243,15.1245753 C128.544728,16.7346934 128.544728,18.0520627 128.544728,19.0766833 L128.69243,19.0766833 C129.430942,16.1491959 131.055666,14.6854522 133.566605,14.6854522 L133.714307,14.6854522 C133.566605,15.417324 133.418902,16.1491959 133.418902,17.0274421 C133.418902,17.7593139 133.566605,18.4911858 133.714307,19.369432 C132.975796,19.0766833 132.237284,18.7839345 131.646475,18.7839345 C129.430942,18.7839345 128.69243,20.2476782 128.69243,23.32154 C128.69243,25.9562786 128.840133,28.2982685 128.987835,30.054761 C128.249324,29.9083866 127.36311,29.9083866 126.624599,29.9083866 C125.886088,29.9083866 125.147577,29.9083866 124.261363,30.054761 C124.409065,27.8591454 124.556768,25.3707811 124.556768,22.5896681 L124.556768,22.5896681 Z" id="Shape" fill="#242424"></path>
                    <path d="M142.428739,16.7346934 C144.348869,16.7346934 145.382784,18.6375602 145.382784,22.7360425 C145.382784,26.5417761 144.201166,28.4446429 142.281037,28.4446429 C140.065504,28.4446429 139.326992,26.6881505 139.326992,22.8824169 C139.326992,18.6375602 140.213206,16.7346934 142.428739,16.7346934 L142.428739,16.7346934 Z M145.382784,30.054761 C146.121296,29.9083866 146.859807,29.7620122 147.598318,29.7620122 C148.336829,29.7620122 149.075341,29.9083866 149.813852,30.054761 C149.66615,27.1272736 149.518447,23.32154 149.518447,18.4911858 C149.518447,14.0999547 149.518447,11.9043392 149.813852,8.53772868 L147.450616,8.53772868 L145.08738,8.53772868 C145.235082,10.5869698 145.235082,10.7333442 145.235082,12.9289598 L145.235082,16.7346934 C144.201166,15.417324 142.871846,14.6854522 141.099419,14.6854522 C137.259161,14.6854522 134.748223,17.6129396 134.748223,22.7360425 C134.748223,27.8591454 136.816054,30.3475097 140.951717,30.3475097 C143.019548,30.3475097 144.496571,29.6156378 145.382784,27.8591454 L145.382784,30.054761 L145.382784,30.054761 Z" id="Shape" fill="#242424"></path>
                    <path d="M153.358706,22.5896681 C153.358706,19.9549295 153.211004,17.4665652 153.063301,15.1245753 C153.801813,15.2709497 154.688026,15.2709497 155.426537,15.2709497 C156.165048,15.2709497 157.051262,15.2709497 157.789773,15.1245753 C157.642071,17.4665652 157.494369,19.9549295 157.494369,22.5896681 C157.494369,25.0780324 157.642071,27.4200223 157.789773,30.054761 C157.051262,29.9083866 156.165048,29.9083866 155.426537,29.9083866 C154.688026,29.9083866 153.801813,29.9083866 153.063301,30.054761 C153.211004,27.4200223 153.358706,25.0780324 153.358706,22.5896681 L153.358706,22.5896681 Z M155.574239,8.39135431 C156.90356,8.39135431 157.937475,9.4159749 157.937475,10.7333442 C157.937475,12.0507135 156.755857,13.0753341 155.426537,13.0753341 C154.244919,13.0753341 153.211004,12.0507135 153.211004,10.7333442 C153.211004,9.4159749 154.244919,8.39135431 155.574239,8.39135431 L155.574239,8.39135431 Z" id="Shape" fill="#242424"></path>
                    <path d="M161.334627,22.5896681 C161.334627,19.9549295 161.186925,17.4665652 161.039223,15.1245753 C161.777734,15.2709497 162.516245,15.2709497 163.254756,15.2709497 C163.993268,15.2709497 164.731779,15.2709497 165.322588,15.1245753 L165.322588,17.3201908 C166.651908,15.5636984 168.276633,14.8318266 170.196762,14.8318266 C171.821487,14.8318266 173.150807,15.417324 173.889318,16.2955702 C174.923234,17.4665652 174.923234,18.9303089 174.923234,20.8331757 L174.923234,24.7852837 C174.923234,26.5417761 174.923234,28.2982685 175.070936,30.054761 C174.332425,29.9083866 173.593914,29.9083866 172.7077,29.9083866 C171.969189,29.9083866 171.230678,29.9083866 170.344464,30.054761 C170.492166,28.2982685 170.639869,25.9562786 170.639869,22.7360425 C170.639869,19.0766833 170.492166,17.4665652 168.128931,17.4665652 C166.061099,17.4665652 165.47029,19.0766833 165.47029,22.5896681 C165.47029,24.3461606 165.47029,26.8345248 165.617992,30.054761 C164.879481,29.9083866 164.14097,29.9083866 163.402459,29.9083866 C162.663947,29.9083866 161.777734,29.9083866 161.039223,30.054761 C161.186925,27.4200223 161.334627,24.931658 161.334627,22.5896681 L161.334627,22.5896681 Z" id="Shape" fill="#242424"></path>
                    <path d="M178.763492,25.8099042 C179.502004,27.8591454 180.979026,28.883766 182.899155,28.883766 C184.376178,28.883766 185.262391,28.1518942 185.262391,26.8345248 C185.262391,25.5171555 183.933071,25.0780324 181.569835,24.0534118 C179.058897,23.0287912 177.729577,22.0041706 177.729577,19.8085551 C177.729577,16.8810677 179.94511,14.6854522 183.489964,14.6854522 C185.114689,14.6854522 186.591711,15.1245753 188.068734,16.0028215 C187.625627,16.8810677 187.330223,17.9056883 187.18252,18.9303089 L186.887116,18.9303089 C185.8532,17.0274421 184.671582,16.1491959 183.046858,16.1491959 C181.717537,16.1491959 180.831324,16.8810677 180.831324,18.0520627 C180.831324,19.2230576 181.717537,19.6621807 183.489964,20.3940526 C186.887116,21.5650475 188.659543,22.2969194 188.659543,25.0780324 C188.659543,28.2982685 186.296307,30.3475097 182.603751,30.3475097 C180.831324,30.3475097 179.354301,30.054761 178.024981,29.1765147 C178.024981,28.5910173 178.172683,27.4200223 178.320386,25.8099042 L178.763492,25.8099042 L178.763492,25.8099042 Z" id="Shape" fill="#242424"></path>
                </g>
            </g>
        </g>
    </g>
</svg>