<?xml version="1.0" encoding="UTF-8" standalone="no"?>
<svg width="224px" height="61px" viewBox="0 0 224 61" version="1.1" xmlns="http://www.w3.org/2000/svg" xmlns:xlink="http://www.w3.org/1999/xlink">
    <!-- Generator: Sketch 3.8.3 (29802) - http://www.bohemiancoding.com/sketch -->
    <title>Group 4</title>
    <desc>Created with Sketch.</desc>
    <defs></defs>
    <g id="Logo" stroke="none" stroke-width="1" fill="none" fill-rule="evenodd">
        <g id="Group-4" transform="translate(-2.000000, -1.000000)" fill="#FFFFFF">
            <path d="M182.876699,36.4909191 C183.253427,36.7727037 183.559513,37.1190587 183.794968,37.5299945 C184.030423,37.9409303 184.218783,38.3577304 184.360056,38.7804073 C184.383602,39.6727251 184.395374,40.7411422 184.395374,41.9856907 C184.395374,43.2302392 184.442464,44.5217324 184.536646,45.8602091 C184.630828,47.1986858 184.807417,48.531272 185.066417,49.8580077 C185.325417,51.1847434 185.73157,52.3764394 186.284888,53.4331315 C186.838207,54.4898237 187.579878,55.3410351 188.509923,55.9867914 C189.439969,56.6325477 190.611338,56.955421 192.024066,56.955421 C193.319067,56.955421 194.431573,56.650159 195.361619,56.0396258 C196.291665,55.4290925 197.068653,54.6541966 197.692608,53.7149147 C198.316563,52.7756328 198.775693,51.7248269 199.070011,50.5624656 C199.364329,49.4001043 199.511486,48.2671125 199.511486,47.1634562 C199.511486,45.0265899 199.405533,42.8486627 199.193624,40.6296092 C198.981715,38.4105558 198.593221,36.2678511 198.028129,34.2014309 C198.192948,33.7787541 198.404854,33.5380667 198.663854,33.4793616 C198.922854,33.4206565 199.205395,33.3913043 199.511486,33.3913043 C200.123668,33.3913043 200.606343,33.6378621 200.959525,34.1309851 C201.312707,34.6241081 201.577589,35.2522435 201.75418,36.01541 C201.930771,36.7785766 202.036724,37.6121767 202.072043,38.5162356 C202.107361,39.4202944 202.107361,40.2773762 202.072043,41.0875069 C202.036724,41.8976375 201.989634,42.6138292 201.93077,43.2361035 C201.871907,43.8583777 201.842475,44.2516961 201.842475,44.4160704 C201.842475,45.6371369 201.813044,46.8757963 201.75418,48.1320859 C201.695317,49.3883754 201.554046,50.5918123 201.330364,51.7424326 C201.106682,52.8930529 200.777051,53.9673405 200.34146,54.9653275 C199.905869,55.9633145 199.323127,56.8321372 198.593218,57.5718217 C197.863308,58.3115062 196.956822,58.8926781 195.87373,59.315355 C194.790639,59.7380318 193.495658,59.9493671 191.988748,59.9493671 C190.081566,59.9493671 188.515816,59.5854008 187.291452,58.8574573 C186.067088,58.1295139 185.084079,57.160894 184.342397,55.9515685 C183.600715,54.7422431 183.047405,53.3626935 182.68245,51.8128784 C182.317496,50.2630632 182.058499,48.6780488 181.905454,47.0577876 C181.752408,45.4375263 181.646455,43.840771 181.587592,42.2674739 C181.528728,40.6941767 181.452207,39.2735341 181.358025,38.0055036 L182.876699,36.4909191 Z M208.517581,56.955421 C208.517581,55.969175 208.599989,55.0064255 208.764807,54.0671436 C208.929625,53.1278618 209.106214,52.1885939 209.294577,51.2493121 C209.482941,50.3100302 209.665416,49.3766328 209.842007,48.4490919 C210.018598,47.521551 210.106892,46.564672 210.106892,45.578426 L210.106892,44.8035223 C209.989164,44.7095941 209.753713,44.5041293 209.400531,44.1871216 C209.047349,43.870114 208.652969,43.4885364 208.217378,43.0423775 C207.781787,42.5962186 207.310884,42.0972326 206.804657,41.5454045 C206.29843,40.9935764 205.8393,40.4241453 205.427254,39.8370941 C205.015209,39.2500429 204.673805,38.6747414 204.403032,38.1111723 C204.132259,37.5476031 203.996875,37.0075241 203.996875,36.4909191 C203.996875,36.3969909 204.002761,36.2561007 204.014534,36.0682444 C204.026306,35.880388 204.049851,35.7101457 204.08517,35.5575124 C204.120488,35.4048791 204.197009,35.2698593 204.314737,35.1524491 C204.432464,35.0350389 204.585507,34.9763346 204.773871,34.9763346 C205.338962,34.9763346 205.827523,35.1289656 206.239569,35.4342323 C206.651614,35.7394989 207.02245,36.1210764 207.352086,36.5789763 C207.681723,37.0368763 207.987809,37.5299919 208.270355,38.0583379 C208.5529,38.586684 208.8531,39.0797996 209.170964,39.5376995 C209.488828,39.9955994 209.842005,40.377177 210.230505,40.6824436 C210.619005,40.9877102 211.084021,41.1403412 211.625566,41.1403412 C212.167112,41.1403412 212.661559,40.9642285 213.108923,40.6119978 C213.556287,40.2597671 213.985985,39.8194853 214.398031,39.2911392 C214.810077,38.7627932 215.233889,38.1874916 215.66948,37.5652174 C216.105071,36.9429431 216.581859,36.3676416 217.099859,35.8392955 C217.61786,35.3109495 218.206487,34.8706677 218.86576,34.518437 C219.525033,34.1662063 220.290249,33.9900936 221.161431,33.9900936 C221.161431,34.6241088 221.014275,35.1994104 220.719956,35.7160154 C220.425638,36.2326205 220.066575,36.7198656 219.642757,37.1777655 C219.218938,37.6356655 218.753922,38.0876881 218.247695,38.533847 C217.741467,38.9800059 217.270565,39.4437694 216.834974,39.9251513 C216.399383,40.4065333 216.04032,40.929001 215.757775,41.4925702 C215.475229,42.0561393 215.333958,42.6784042 215.333958,43.3593836 C215.333958,43.6881323 215.56941,44.1460253 216.040319,44.7330765 C216.511228,45.3201277 217.09397,45.9600039 217.788561,46.6527243 C218.483152,47.3454447 219.242482,48.0498955 220.066573,48.766098 C220.890664,49.4823004 221.667653,50.1456583 222.397562,50.7561915 C223.127471,51.3667248 223.751417,51.883322 224.269417,52.3059989 C224.787417,52.7286758 225.105276,52.9869744 225.223004,53.0809026 C225.223004,53.1278667 225.234776,53.2511456 225.258322,53.450743 C225.281867,53.6503404 225.29364,53.7853601 225.29364,53.8558063 C225.29364,54.2550011 225.205345,54.6189674 225.028754,54.947716 C224.852164,55.2764647 224.540191,55.4408365 224.092827,55.4408365 C224.045736,55.4408365 223.980987,55.4290957 223.898578,55.4056136 C223.816169,55.3821316 223.763192,55.3703908 223.739647,55.3703908 C223.551283,55.2060164 223.286401,54.965329 222.944991,54.6483214 C222.603582,54.3313138 222.209202,53.9732179 221.761838,53.5740231 C221.314474,53.1748283 220.843572,52.7580282 220.349117,52.3236103 C219.854662,51.8891925 219.38376,51.4782628 218.936396,51.090809 C218.489033,50.7033552 218.076993,50.3511298 217.700266,50.0341222 C217.323538,49.7171145 217.052769,49.488168 216.887951,49.3472757 C216.676042,49.1594194 216.405273,48.9304728 216.075637,48.6604293 C215.746,48.3903857 215.422255,48.1320871 215.104391,47.8855256 C214.786528,47.6389641 214.509873,47.4334993 214.274418,47.2691249 C214.038963,47.1047506 213.909465,47.0343055 213.88592,47.0577876 L213.108923,47.8326912 C212.92056,48.0440297 212.785175,48.5019227 212.702766,49.2063841 C212.620357,49.9108456 212.543835,50.7385753 212.473199,51.6895982 C212.402563,52.6406212 212.331927,53.6444636 212.261291,54.7011558 C212.190654,55.7578479 212.078815,56.7323382 211.92577,57.624656 C211.772724,58.5169738 211.543159,59.2566472 211.237068,59.8436984 C210.930977,60.4307496 210.53071,60.7242708 210.036256,60.7242708 C209.588892,60.7242708 209.253374,60.5833806 209.029692,60.301596 C208.80601,60.0198115 208.658853,59.6734565 208.588217,59.2625206 C208.517581,58.8515848 208.488149,58.4347847 208.499922,58.0121079 C208.511695,57.589431 208.517581,57.2372056 208.517581,56.955421 L208.517581,56.955421 Z" id="UX"></path>
            <path d="M29.8403704,40.5565217 C29.8403704,43.8956689 29.4288313,46.8869433 28.6057407,49.5304348 C27.7826502,52.1739263 26.5689586,54.4069474 24.9646296,56.2295652 C23.3603006,58.052183 21.386308,59.4504299 19.0425926,60.4243478 C16.6988772,61.3982657 14.006435,61.8852174 10.9651852,61.8852174 C8.2587519,61.8852174 5.44075539,61.4956561 2.51111111,60.7165217 C2.56691386,59.9095612 2.63666625,59.1095692 2.72037037,58.3165217 C2.80407449,57.5234743 2.88777736,56.7373952 2.97148148,55.9582609 C3.02728423,55.485215 3.2016652,55.1026102 3.49462963,54.8104348 C3.78759406,54.5182594 4.22703411,54.3721739 4.81296296,54.3721739 C5.3151877,54.3721739 5.98481063,54.4973901 6.82185185,54.7478261 C7.65889307,54.9982621 8.7749313,55.1234783 10.17,55.1234783 C12.0114907,55.1234783 13.6506718,54.8452202 15.0875926,54.2886957 C16.5245134,53.7321711 17.7382049,52.8695711 18.7287037,51.7008696 C19.7192025,50.5321681 20.4725283,49.0365309 20.9887037,47.213913 C21.5048791,45.3912952 21.762963,43.2278386 21.762963,40.7234783 L21.762963,1.40521739 L29.8403704,1.40521739 L29.8403704,40.5565217 Z M52.5240739,18.2678261 C55.063099,18.2678261 57.4067792,18.6921697 59.5551851,19.5408696 C61.7035909,20.3895695 63.5590044,21.613905 65.1214813,23.213913 C66.6839583,24.813921 67.9046251,26.7895535 68.7835184,29.1408696 C69.6624117,31.4921857 70.1018517,34.1704198 70.1018517,37.1756522 C70.1018517,38.3443537 69.9762974,39.1234763 69.7251851,39.5130435 C69.4740727,39.9026106 68.9997564,40.0973913 68.3022221,40.0973913 L40.0940739,40.0973913 C40.1498767,42.768709 40.5125891,45.092164 41.1822221,47.0678261 C41.8518551,49.0434881 42.7725866,50.6921673 43.9444443,52.013913 C45.116302,53.3356588 46.5113498,54.323475 48.1296295,54.9773913 C49.7479092,55.6313076 51.5614713,55.9582609 53.5703702,55.9582609 C55.4397623,55.9582609 57.0510425,55.7426109 58.4042591,55.3113043 C59.7574758,54.8799978 60.9223407,54.4139155 61.8988888,53.9130435 C62.8754368,53.4121714 63.6915398,52.9460891 64.3472221,52.5147826 C65.0029044,52.0834761 65.5678987,51.8678261 66.0422221,51.8678261 C66.6560523,51.8678261 67.1303686,52.1043455 67.4651851,52.5773913 L69.5577776,55.2904348 C68.6370323,56.4034838 67.5349446,57.3704307 66.2514813,58.1913043 C64.9680181,59.012178 63.5938961,59.6869539 62.1290739,60.2156522 C60.6642518,60.7443505 59.150625,61.1408682 57.588148,61.4052174 C56.0256711,61.6695665 54.477168,61.8017391 52.9425925,61.8017391 C50.0129482,61.8017391 47.3135307,61.307831 44.8442591,60.32 C42.3749875,59.332169 40.2405644,57.8852269 38.4409258,55.9791304 C36.6412872,54.0730339 35.2392641,51.7147967 34.2348147,48.9043478 C33.2303652,46.093899 32.728148,42.8661052 32.728148,39.2208696 C32.728148,36.2712896 33.1815385,33.5165345 34.0883332,30.9565217 C34.9951279,28.3965089 36.2994975,26.1774007 38.0014813,24.2991304 C39.7034652,22.4208602 41.7820864,20.9460923 44.2374073,19.8747826 C46.6927282,18.8034729 49.4549228,18.2678261 52.5240739,18.2678261 L52.5240739,18.2678261 Z M52.6914813,23.7356522 C49.0922041,23.7356522 46.2602571,24.7721635 44.1955554,26.8452174 C42.1308537,28.9182712 40.8474098,31.791286 40.3451851,35.4643478 L63.4055554,35.4643478 C63.4055554,33.7391218 63.1683973,32.1600072 62.6940739,30.7269565 C62.2197506,29.2939059 61.5222267,28.0556574 60.6014813,27.0121739 C59.680736,25.9686904 58.5577225,25.161742 57.2324073,24.5913043 C55.907092,24.0208667 54.3934652,23.7356522 52.6914813,23.7356522 L52.6914813,23.7356522 Z M99.1330862,25.906087 C98.7982697,26.5182639 98.282102,26.8243478 97.5845676,26.8243478 C97.166047,26.8243478 96.6917308,26.6713059 96.1616047,26.3652174 C95.6314786,26.0591289 94.9827813,25.7182627 94.2154936,25.3426087 C93.4482058,24.9669546 92.5344495,24.619132 91.4741973,24.2991304 C90.413945,23.9791288 89.158402,23.8191304 87.7075306,23.8191304 C86.4519688,23.8191304 85.3219801,23.9791288 84.3175306,24.2991304 C83.3130811,24.619132 82.4551267,25.0573885 81.7436417,25.613913 C81.0321567,26.1704376 80.488088,26.8173876 80.1114195,27.5547826 C79.7347509,28.2921776 79.5464195,29.0921696 79.5464195,29.9547826 C79.5464195,31.0400054 79.8603052,31.9443442 80.4880862,32.6678261 C81.1158671,33.391308 81.9459205,34.0173887 82.9782713,34.546087 C84.0106222,35.0747853 85.1824623,35.5408675 86.4938269,35.9443478 C87.8051915,36.3478281 89.1514126,36.7791281 90.5325306,37.2382609 C91.9136486,37.6973936 93.2598697,38.2052146 94.5712343,38.7617391 C95.8825989,39.3182637 97.054439,40.0139089 98.0867899,40.8486957 C99.1191407,41.6834824 99.9491941,42.7060809 100.576975,43.9165217 C101.204756,45.1269626 101.518642,46.5808611 101.518642,48.2782609 C101.518642,50.2260967 101.16988,52.0278178 100.472345,53.6834783 C99.7748111,55.3391387 98.7424757,56.7721679 97.3753084,57.9826087 C96.008141,59.1930495 94.3340837,60.1460835 92.3530862,60.8417391 C90.3720886,61.5373948 88.0842102,61.8852174 85.4893824,61.8852174 C82.5318368,61.8852174 79.8533451,61.4052222 77.4538269,60.4452174 C75.0543087,59.4852126 73.017539,58.2539206 71.3434565,56.7513043 L73.1012343,53.9130435 C73.3244453,53.5513025 73.5895044,53.2730445 73.8964195,53.0782609 C74.2033346,52.8834773 74.6078985,52.786087 75.1101232,52.786087 C75.6123479,52.786087 76.1424661,52.9808676 76.7004936,53.3704348 C77.258521,53.7600019 77.9351192,54.191302 78.7303084,54.6643478 C79.5254975,55.1373937 80.4880805,55.5686937 81.6180862,55.9582609 C82.7480918,56.347828 84.1640653,56.5426087 85.8660491,56.5426087 C87.3169206,56.5426087 88.586414,56.3547845 89.6745676,55.9791304 C90.7627212,55.6034764 91.6695023,55.0956554 92.394938,54.4556522 C93.1203737,53.815649 93.6574671,53.078265 94.0062343,52.2434783 C94.3550015,51.4086915 94.5293824,50.5182656 94.5293824,49.5721739 C94.5293824,48.4034724 94.2154967,47.4365256 93.5877158,46.6713043 C92.9599349,45.9060831 92.1298814,45.2521766 91.0975306,44.7095652 C90.0651798,44.1669538 88.8863644,43.6939151 87.5610491,43.2904348 C86.2357338,42.8869545 84.8825375,42.4626109 83.5014195,42.0173913 C82.1203015,41.5721717 80.7671051,41.0643507 79.4417899,40.493913 C78.1164746,39.9234754 76.9376592,39.2069608 75.9053084,38.3443478 C74.8729575,37.4817348 74.0429041,36.4173976 73.4151232,35.1513043 C72.7873423,33.8852111 72.4734565,32.3478351 72.4734565,30.5391304 C72.4734565,28.9252093 72.808268,27.3739205 73.477901,25.8852174 C74.1475339,24.3965143 75.1240674,23.0887013 76.4075306,21.9617391 C77.6909938,20.834777 79.2673978,19.9373946 81.1367899,19.2695652 C83.0061819,18.6017358 85.140605,18.2678261 87.5401232,18.2678261 C90.3302606,18.2678261 92.8343714,18.7060826 95.0525306,19.5826087 C97.2706898,20.4591348 99.1888805,21.662601 100.80716,23.1930435 L99.1330862,25.906087 Z M130.717284,25.906087 C130.382467,26.5182639 129.866299,26.8243478 129.168765,26.8243478 C128.750244,26.8243478 128.275928,26.6713059 127.745802,26.3652174 C127.215676,26.0591289 126.566979,25.7182627 125.799691,25.3426087 C125.032403,24.9669546 124.118647,24.619132 123.058395,24.2991304 C121.998142,23.9791288 120.742599,23.8191304 119.291728,23.8191304 C118.036166,23.8191304 116.906177,23.9791288 115.901728,24.2991304 C114.897279,24.619132 114.039324,25.0573885 113.327839,25.613913 C112.616354,26.1704376 112.072285,26.8173876 111.695617,27.5547826 C111.318948,28.2921776 111.130617,29.0921696 111.130617,29.9547826 C111.130617,31.0400054 111.444503,31.9443442 112.072284,32.6678261 C112.700064,33.391308 113.530118,34.0173887 114.562469,34.546087 C115.59482,35.0747853 116.76666,35.5408675 118.078024,35.9443478 C119.389389,36.3478281 120.73561,36.7791281 122.116728,37.2382609 C123.497846,37.6973936 124.844067,38.2052146 126.155432,38.7617391 C127.466796,39.3182637 128.638636,40.0139089 129.670987,40.8486957 C130.703338,41.6834824 131.533392,42.7060809 132.161172,43.9165217 C132.788953,45.1269626 133.102839,46.5808611 133.102839,48.2782609 C133.102839,50.2260967 132.754077,52.0278178 132.056543,53.6834783 C131.359008,55.3391387 130.326673,56.7721679 128.959506,57.9826087 C127.592338,59.1930495 125.918281,60.1460835 123.937284,60.8417391 C121.956286,61.5373948 119.668408,61.8852174 117.07358,61.8852174 C114.116034,61.8852174 111.437542,61.4052222 109.038024,60.4452174 C106.638506,59.4852126 104.601736,58.2539206 102.927654,56.7513043 L104.685432,53.9130435 C104.908643,53.5513025 105.173702,53.2730445 105.480617,53.0782609 C105.787532,52.8834773 106.192096,52.786087 106.694321,52.786087 C107.196545,52.786087 107.726663,52.9808676 108.284691,53.3704348 C108.842718,53.7600019 109.519317,54.191302 110.314506,54.6643478 C111.109695,55.1373937 112.072278,55.5686937 113.202284,55.9582609 C114.332289,56.347828 115.748263,56.5426087 117.450247,56.5426087 C118.901118,56.5426087 120.170611,56.3547845 121.258765,55.9791304 C122.346919,55.6034764 123.2537,55.0956554 123.979135,54.4556522 C124.704571,53.815649 125.241665,53.078265 125.590432,52.2434783 C125.939199,51.4086915 126.11358,50.5182656 126.11358,49.5721739 C126.11358,48.4034724 125.799694,47.4365256 125.171913,46.6713043 C124.544132,45.9060831 123.714079,45.2521766 122.681728,44.7095652 C121.649377,44.1669538 120.470562,43.6939151 119.145247,43.2904348 C117.819931,42.8869545 116.466735,42.4626109 115.085617,42.0173913 C113.704499,41.5721717 112.351303,41.0643507 111.025987,40.493913 C109.700672,39.9234754 108.521857,39.2069608 107.489506,38.3443478 C106.457155,37.4817348 105.627102,36.4173976 104.999321,35.1513043 C104.37154,33.8852111 104.057654,32.3478351 104.057654,30.5391304 C104.057654,28.9252093 104.392465,27.3739205 105.062098,25.8852174 C105.731731,24.3965143 106.708265,23.0887013 107.991728,21.9617391 C109.275191,20.834777 110.851595,19.9373946 112.720987,19.2695652 C114.590379,18.6017358 116.724802,18.2678261 119.124321,18.2678261 C121.914458,18.2678261 124.418569,18.7060826 126.636728,19.5826087 C128.854887,20.4591348 130.773078,21.662601 132.391358,23.1930435 L130.717284,25.906087 Z M150.504176,18.2187708 C152.7891,17.8795635 155.008103,18.0121625 157.161252,18.6165716 C159.314401,19.2209807 161.359345,20.3215951 163.296147,21.918448 C165.232949,23.5153008 166.952633,25.6149995 168.455249,28.2176072 C169.0396,29.2297323 169.320428,29.9672495 169.297742,30.4301807 C169.275055,30.893112 168.961676,31.2989551 168.357593,31.6477223 L143.928621,45.7517964 C145.312606,48.037324 146.788452,49.8681388 148.356202,51.2442959 C149.923952,52.6204529 151.545669,53.5878852 153.2214,54.1466217 C154.897131,54.7053583 156.599186,54.8633083 158.327616,54.6204766 C160.056045,54.3776449 161.790113,53.7540136 163.52987,52.7495642 C165.148811,51.8148681 166.436396,50.8224697 167.392663,49.7723389 C168.348929,48.7222082 169.124691,47.7361367 169.71997,46.8140947 C170.31525,45.8920527 170.788974,45.0803621 171.141159,44.3789986 C171.493343,43.6776351 171.874817,43.2083795 172.285593,42.9712178 C172.817186,42.6643027 173.346216,42.6319764 173.872698,42.8742378 L177.041458,44.1775061 C176.800594,45.6018075 176.329631,46.9902519 175.628556,48.342881 C174.927481,49.6955101 174.074845,50.9669441 173.070621,52.1572213 C172.066397,53.3474986 170.953816,54.4477065 169.732846,55.457878 C168.511876,56.4680496 167.236919,57.3567659 165.907938,58.1240537 C163.370792,59.5888758 160.786073,60.5108476 158.153706,60.8899966 C155.521338,61.2691457 152.949403,61.0832686 150.437822,60.33236 C147.926241,59.5814513 145.532935,58.2401694 143.257831,56.3084741 C140.982728,54.3767787 138.933898,51.8325359 137.111281,48.6756692 C135.636491,46.121258 134.651761,43.5088749 134.157062,40.8384415 C133.662362,38.168008 133.682426,35.5940191 134.217252,33.1163974 C134.752078,30.6387757 135.814833,28.3222787 137.405548,26.1668368 C138.996264,24.0113949 141.120571,22.1664139 143.778534,20.6318383 C145.977394,19.3623258 148.219252,18.557978 150.504176,18.2187708 Z M146.913973,25.3762838 C143.796907,27.1759224 141.862625,29.4895411 141.111067,32.3172092 C140.35951,35.1448773 140.684523,38.2747031 142.086114,41.7067803 L162.056981,30.1765951 C161.194368,28.6825056 160.199425,27.4335312 159.072124,26.4296347 C157.944823,25.4257381 156.721625,24.7021454 155.402494,24.2588348 C154.083364,23.8155243 152.707331,23.6781932 151.274356,23.8468373 C149.84138,24.0154815 148.387934,24.5252919 146.913973,25.3762838 L146.913973,25.3762838 Z" id="Jesse"></path>
        </g>
    </g>
</svg>