<?xml version="1.0" encoding="UTF-8" standalone="no"?>
<svg width="146px" height="39px" viewBox="0 0 146 39" version="1.1" xmlns="http://www.w3.org/2000/svg" xmlns:xlink="http://www.w3.org/1999/xlink">
    <!-- Generator: Sketch 3.8.3 (29802) - http://www.bohemiancoding.com/sketch -->
    <title>mbna</title>
    <desc>Created with Sketch.</desc>
    <defs>
        <polygon id="path-1" points="105.954682 28.8265907 0 28.8265907 0 14.4490218 0 0.0714529915 105.954682 0.0714529915"></polygon>
    </defs>
    <g id="Home" stroke="none" stroke-width="1" fill="none" fill-rule="evenodd">
        <g id="Desktop-HD" transform="translate(-97.000000, -597.000000)">
            <g id="mbna" transform="translate(97.000000, 597.000000)">
                <g id="Group-5" transform="translate(-0.000000, 10.104463)">
                    <mask id="mask-2" fill="white">
                        <use xlink:href="#path-1"></use>
                    </mask>
                    <g id="Clip-2"></g>
                    <path d="M100.710465,18.1764862 C100.710465,14.6579677 98.1814625,12.3036277 94.7055271,12.3036277 C91.2779487,12.3036277 88.8030769,14.7590123 88.8030769,18.1923647 C88.8030769,21.6033428 91.2981576,24.1597721 94.728623,24.1597721 C98.2493067,24.1597721 100.710465,21.6957265 100.710465,18.1764862 M100.626743,8.74469136 C100.626743,8.54332384 100.765318,8.35278253 101.035973,8.21132004 C101.503666,7.96015195 102.43905,7.75950617 103.289269,7.75950617 C104.145983,7.75950617 105.076315,7.96015195 105.544729,8.21132004 C105.816828,8.35278253 105.954682,8.54548908 105.954682,8.74469136 L105.954682,28.340133 L100.626743,28.340133 L100.626743,26.2319088 C98.8346439,27.9467806 96.5264957,28.8698955 93.8683001,28.8698955 C87.9636847,28.8698955 83.2968661,24.1150237 83.2968661,18.2674264 C83.2968661,12.3296106 87.7558215,7.59133903 93.8249953,7.59133903 C96.4507123,7.59133903 98.8346439,8.49568851 100.626743,10.3007787 L100.626743,8.74469136" id="Fill-1" fill="#242424" mask="url(#mask-2)"></path>
                    <path d="M5.32505223,8.74469136 L5.32505223,10.428528 C7.31851852,8.38237417 9.43756885,7.59133903 12.0964862,7.59133903 C14.8189174,7.59133903 16.9415764,8.60611586 18.2825831,10.9922127 C20.0912821,8.61910731 23.0605508,7.59133903 26.0197151,7.59133903 C30.7218993,7.59133903 33.5691928,10.4783286 33.5691928,16.1729155 L33.5691928,28.340133 L28.0492688,28.340133 L28.0492688,18.3287749 C28.0492688,14.5908452 27.2120418,12.294245 24.2341121,12.294245 C23.3506933,12.294245 22.4744919,12.4811776 21.7354226,12.9719658 C20.0126116,14.1195442 19.5275973,16.4240836 19.5275973,19.2425071 L19.5275973,28.340133 L14.0249953,28.340133 L14.0249953,18.3381576 C14.0249953,14.6002279 13.1841595,12.3036277 10.2083951,12.3036277 C9.32497626,12.3036277 8.44516619,12.4912821 7.71042735,12.9813485 C5.9840076,14.1296486 5.50332384,16.4298575 5.50332384,19.2504463 L5.50332384,28.340133 L0,28.340133 L0,8.75335233 C0,8.55126306 0.134966762,8.35278253 0.404900285,8.21132004 C0.872592593,7.96015195 1.80869896,7.75950617 2.66252612,7.75950617 C3.51274454,7.75950617 4.44812915,7.96015195 4.91654321,8.21132004 C5.18719848,8.35278253 5.32505223,8.54332384 5.32505223,8.74469136" id="Fill-3" fill="#242424" mask="url(#mask-2)"></path>
                    <path d="M53.8452422,18.1923647 C53.8452422,14.7424122 51.3602659,12.3036277 47.9204179,12.3036277 C44.4502564,12.3036277 41.9385755,14.6810636 41.9385755,18.1764862 C41.9385755,21.6957265 44.4011776,24.1597721 47.9204179,24.1597721 C51.3501614,24.1597721 53.8452422,21.6033428 53.8452422,18.1923647 M42.1998481,1.05735992 L42.1998481,10.29717 C44.1334093,8.53033238 46.3253561,7.59133903 48.9546819,7.59133903 C55.0252991,7.59133903 59.351453,12.3332194 59.351453,18.2674264 C59.351453,24.111415 54.5763723,28.8698955 48.6746439,28.8698955 C46.0186135,28.8698955 44.00566,28.04566 42.0215764,26.2319088 L42.0215764,28.340133 L36.6958025,28.340133 L36.6958025,1.05735992 C36.6958025,0.855992403 36.8444824,0.668338082 37.1245204,0.51965812 C37.6059259,0.271377018 38.5680152,0.0714529915 39.4442165,0.0714529915 C40.3247483,0.0714529915 41.2868376,0.271377018 41.7682431,0.51965812 C42.0482811,0.668338082 42.1998481,0.855992403 42.1998481,1.05735992" id="Fill-4" fill="#242424" mask="url(#mask-2)"></path>
                </g>
                <path d="M66.6793542,18.8491548 L66.6793542,20.5329915 C68.4988794,18.5496296 71.0488129,17.6958025 73.5648243,17.6958025 C78.5448813,17.6958025 81.4015575,20.4478253 81.4015575,26.3712061 L81.4015575,38.4445964 L75.8830769,38.4445964 L75.8830769,28.4332384 C75.8830769,24.6953086 74.8242735,22.3987085 71.8499525,22.3987085 C70.9643685,22.3987085 69.8471035,22.6296676 69.0661728,23.1608737 C67.2964482,24.3647483 66.8583476,26.528547 66.8583476,29.3469706 L66.8583476,38.4445964 L61.351415,38.4445964 L61.351415,18.8578158 C61.351415,18.6557265 61.4935992,18.457246 61.7606458,18.3157835 C62.2283381,18.0646154 63.1644444,17.8639696 64.0175499,17.8639696 C64.871377,17.8639696 65.8038746,18.0646154 66.271567,18.3157835 C66.5407787,18.457246 66.6793542,18.6477873 66.6793542,18.8491548" id="Fill-6" fill="#242424"></path>
                <g id="Group-10" transform="translate(114.757835, 0.000000)">
                    <path d="M21.5578727,22.0587654 C23.640114,21.5304463 26.2434568,21.357227 28.0608167,21.5917949 C28.4404558,21.6704653 28.4765432,22.0652612 28.4281861,22.2644634 C28.3769421,22.4968661 28.0102944,22.6087369 27.6335423,22.6166762 C27.0150047,22.6296676 26.6187654,22.7112251 26.0507502,22.7812346 C23.3961633,23.1081861 20.0544729,24.3163913 18.6557265,26.3394492 C18.1432858,27.074188 17.8322127,27.7901614 17.7311681,28.8049383 C17.5788794,30.3603039 17.5175309,34.8221462 17.5384615,35.9552896 C17.5536182,36.6409497 17.5579487,37.028528 17.6330104,37.6290218 C17.7253941,37.7986325 17.6423932,38.1075404 17.5788794,38.2822032 C17.4374169,38.6401899 16.8953846,38.7239126 16.4832669,38.7470085 C15.4121937,38.8126876 13.8445584,38.7210256 12.8225641,38.6741121 C12.5634568,38.6676163 12.3851852,38.5983286 12.3483761,38.1537322 C12.3223932,37.8549288 12.3794112,37.5337512 12.4544729,37.2031909 C12.4790123,35.6875214 12.6002659,33.5136182 12.6002659,31.9755745 C12.6002659,30.2592593 12.6002659,27.7244824 12.0964862,26.2326306 C11.3819563,25.0807217 10.282735,23.9937702 8.16224122,23.3636847 C7.25283951,23.0937512 5.78697056,22.8534093 4.56793922,22.9688889 C3.64410256,23.1103514 2.87760684,23.2323267 2.11327635,23.1731434 C1.48896486,23.1255081 0.228072175,22.8534093 0.168167142,21.831415 C0.114757835,20.9783096 1.13603039,20.3879202 2.348566,20.2031529 C7.61154796,19.3969611 12.8384425,22.8728965 15.5269516,25.0929915 C17.1083001,23.5751567 19.5239886,22.5726496 21.5578727,22.0587654" id="Fill-7" fill="#242424"></path>
                    <path d="M11.6417854,0.488622982 C11.2325546,0.707312441 10.6869136,0.854548908 10.5194682,1.242849 C10.3274834,1.69105413 10.3664577,2.36300095 10.5165812,2.82131054 C10.5764862,3.01185185 10.628452,3.2608547 10.7323837,3.43046534 C10.9012726,3.70112061 11.2181197,3.77329535 11.4534093,3.96816714 C11.6273504,4.10962963 11.8388224,4.36151947 12.0271985,4.48493827 C12.5612915,4.70579297 12.7778158,4.63650522 13.045584,4.64660969 C13.259943,4.59392213 13.3985185,4.52968661 13.5962773,4.43297246 C13.7240266,4.36801519 14.0805698,3.98765432 14.1231529,3.84907882 C14.1996581,3.57698006 14.2696676,3.34529915 14.3274074,3.07175689 C14.3851472,2.7917189 14.4768091,2.41929725 14.5230009,2.13853751 C14.565584,1.88881292 14.5316619,1.58928775 14.4450522,1.3539981 C14.2689459,0.867540361 13.8402279,0.505944919 13.2931434,0.32334283 C13.0405318,0.237454891 12.788642,0.208584995 12.5223172,0.24034188 C12.3902374,0.25694207 12.2596011,0.291585945 12.1376258,0.346438746 C11.9939981,0.408509022 11.7774739,0.413561254 11.6417854,0.488622982" id="Fill-9" fill="#1A1918"></path>
                </g>
                <path d="M120.845052,6.562849 C120.63358,6.35065527 120.668224,6.25177588 120.66245,5.94792023 C120.655954,5.7205698 120.627085,5.50981956 120.66245,5.25792972 C120.696372,5.10491928 120.785147,4.92015195 120.853713,4.74404558 C120.951871,4.48710351 121.040646,4.33842355 121.311301,4.22510921 C121.54226,4.12262108 121.708262,4.01868946 121.924065,3.88516619 C122.073466,3.78989554 122.237303,3.73359924 122.419183,3.73359924 C122.728813,3.73720798 123.18207,3.7437037 123.377664,3.99487179 C123.454169,4.0908642 123.516239,4.18541311 123.605736,4.28140551 C123.799886,4.49359924 124.079202,4.77508072 124.002697,5.08182336 C123.92114,5.40588794 123.774625,5.66860399 123.625945,5.93998101 C123.486648,6.20197531 122.736752,7.02115859 122.519506,7.12509022 C122.283495,7.23984805 121.903856,7.11787274 121.648357,7.10127255 C121.467198,7.09188984 121.337284,7.07240266 121.219639,6.95547958 C121.088281,6.8248433 120.975689,6.69059829 120.845052,6.562849" id="Fill-11" fill="#242424"></path>
                <path d="M114.417892,8.26472934 C114.500171,7.97386515 114.66906,7.67145299 114.952707,7.53648623 C115.156239,7.43832858 115.408851,7.27665717 115.628984,7.2268566 C115.739411,7.20231719 115.979753,7.20087369 116.094511,7.1842735 C116.373105,7.14818613 116.513124,7.07023742 116.923077,7.11137702 C117.206002,7.2268566 117.479544,7.4888509 117.683799,7.72847104 C117.854853,7.92478632 118.100247,8.21492877 118.164482,8.46898386 C118.240266,8.81903134 118.249649,9.14453941 118.272745,9.45128205 C118.29584,9.79699905 118.179639,10.3209877 118.092308,10.7302184 C117.954454,11.0037607 117.535119,11.5696106 116.803267,11.2339981 C116.434454,11.0665527 115.963153,11.0297436 115.587844,10.8796201 C115.29265,10.7626971 115.077569,10.4862678 114.854549,10.2755176 C114.562241,10.0026971 114.392631,9.76091168 114.269934,9.37838557 C114.153732,9.00957265 114.314682,8.61766382 114.417892,8.26472934" id="Fill-12" fill="#242424"></path>
                <path d="M114.394074,13.6532953 C114.595442,13.5702944 114.713808,13.5739031 114.897132,13.6034948 C115.157683,13.6431909 115.439164,13.554416 115.699715,13.5176068 C116.024501,13.4699715 116.396923,13.5905033 116.62716,13.8358974 C116.803267,14.0221083 116.93246,14.2415195 117.03567,14.4768091 C117.110009,14.6449763 117.386439,15.0801899 117.430465,15.1754606 C117.535119,15.402811 117.640494,15.6460399 117.726382,15.8806078 C117.838253,16.174359 117.703286,16.5294587 117.585641,16.8159924 C117.512023,17.0072555 117.045052,17.3601899 116.923077,17.4424691 C116.586021,17.6698196 116.29227,17.5283571 115.898196,17.468452 C115.564748,17.4193732 115.281823,17.3767901 114.967863,17.2122317 C114.744122,17.0895347 113.982678,16.5525546 113.779145,16.4406838 C113.469516,16.2725166 113.195252,16.0646534 113.028528,15.7586325 C112.918101,15.557265 112.935423,15.4872555 112.910161,15.2512441 C112.892118,15.0614245 112.935423,14.9235708 113.028528,14.7503514 C113.535195,13.8012536 114.266325,13.7074264 114.394074,13.6532953" id="Fill-13" fill="#242424"></path>
                <path d="M119.765318,14.6745679 C119.40661,14.5193922 119.09698,14.2523457 118.883343,13.8864198 C118.728889,13.620095 118.757759,13.0888889 118.774359,12.7850332 C118.803951,12.2653751 118.975726,11.5667236 119.265869,11.1120228 C119.52642,10.7035138 119.881519,10.2488129 120.365812,10.1694207 C120.718746,10.1131244 121.081785,10.0395062 121.438329,10.0958025 C121.588452,10.1203419 121.955821,10.1896296 122.053257,10.3173789 C122.162241,10.4631719 122.251738,10.6544349 122.339791,10.8189934 C122.419183,10.979943 122.494967,11.137284 122.515897,11.3292688 C122.528889,11.471453 122.497854,11.6013675 122.481975,11.739943 C122.453105,11.942754 122.533941,12.1607217 122.527445,12.3642545 C122.52528,12.5851092 122.501462,12.7980247 122.455992,13.0131054 C122.433618,13.1192023 122.390313,13.2173599 122.349896,13.3184046 C122.312365,13.4187274 122.214207,13.5305983 122.18245,13.6366952 C122.142032,13.7716619 122.02944,13.879924 121.931282,13.9751947 C121.802811,14.102944 121.711149,14.2905983 121.555973,14.3750427 C121.462868,14.4277303 120.850104,15.1357645 119.765318,14.6745679" id="Fill-14" fill="#242424"></path>
                <path d="M127.407901,7.45276353 C127.311909,7.39358025 127.150959,7.36687559 127.03981,7.32212726 C126.880304,7.26005698 126.762659,7.20376068 126.600266,7.15251662 C126.474682,7.11426401 126.406116,7.10849003 126.290636,7.048585 C126.148452,6.97280152 125.465679,6.99950617 125.271529,7.0471415 C125.179145,7.07240266 125.088927,7.13158594 124.996543,7.16406458 C124.722279,7.26005698 124.416258,7.51988604 124.398936,7.83312441 C124.393162,7.97458689 124.367901,8.57796771 124.393162,8.76273504 C124.417702,8.94389364 124.471111,9.13154796 124.498538,9.31992403 C124.52452,9.5068566 124.541121,9.7414245 124.620513,9.91969611 C124.728053,10.1499335 124.909934,10.3303704 125.085318,10.5093637 C125.249877,10.6674264 125.282355,10.8695157 125.479392,10.9784995 C125.925432,11.2210066 126.57717,11.3985565 127.043419,11.1019183 C127.373979,10.8911681 127.466363,10.7525926 127.61793,10.4032669 C127.709592,10.1896296 127.750009,9.76091168 127.812802,9.54077873 C127.882811,9.3134283 127.967255,9.08102564 128.001178,8.84357075 C128.11377,7.8071415 127.470693,7.49390313 127.407901,7.45276353" id="Fill-15" fill="#242424"></path>
                <path d="M128.906971,6.52387464 C128.856448,6.78226021 128.775613,6.96630579 128.752517,7.31924027 C128.74963,7.39502374 128.772004,7.46070275 128.805926,7.5299905 C128.909858,7.74146249 129.044824,7.93344729 129.140095,8.151415 C129.22887,8.36216524 129.269288,8.46898386 129.485812,8.5808547 C129.751415,8.7194302 130.062488,8.71509972 130.335309,8.83851852 C130.404596,8.86955366 130.466667,8.90780627 130.541728,8.92079772 C130.754644,8.96338082 131.00076,8.88254511 131.209345,8.8580057 C131.325546,8.84501425 131.481443,8.84790123 131.580323,8.78871795 C131.67415,8.73025641 131.734055,8.66096866 131.822108,8.58807217 C131.994606,8.44660969 132.681709,7.55958215 132.719962,7.12509022 C132.729345,7.0197151 132.675214,6.83350427 132.64057,6.72957265 C132.572004,6.51521368 132.528699,6.37663818 132.444255,6.16877493 C132.351149,5.95008547 132.208965,5.82017094 132.00471,5.68448243 C131.870465,5.5957075 131.712403,5.46434948 131.564444,5.40155745 C131.45113,5.35175689 130.42264,5.10131054 130.197455,5.20668566 C130.014131,5.29546059 129.82359,5.37557455 129.635214,5.45568851 C129.53056,5.50332384 129.415081,5.54662868 129.335689,5.63179487 C129.260627,5.70974359 129.211548,5.79635328 129.153086,5.88945869 C129.027502,6.08 128.953162,6.29796771 128.906971,6.52387464" id="Fill-16" fill="#242424"></path>
                <path d="M135.889877,2.21359924 C135.446002,2.36011396 134.968927,2.08945869 134.540209,2.35650522 C134.396581,2.44528015 134.091282,2.70871795 134.009003,2.87038936 C133.965698,2.96205128 133.973637,3.07464387 133.946211,3.17063628 C133.907958,3.29188984 133.820627,3.39437797 133.778765,3.51490978 C133.725356,3.66503324 133.745565,3.83536562 133.745565,3.99487179 C133.745565,4.21211776 133.794644,4.33986705 133.827123,4.54773029 C133.869706,4.81116809 133.857436,4.94974359 134.01189,5.2102944 C134.575575,6.13413105 135.567255,6.18898386 135.790997,6.23373219 C135.900703,6.2582716 136.591415,6.11680912 136.802887,6.03092118 C137.124065,5.90245014 137.246762,5.70974359 137.420703,5.38495726 C137.484938,5.26081671 137.570826,5.10852802 137.603305,4.97139601 C137.644444,4.78662868 137.570826,3.66503324 137.560722,3.52934473 C137.544843,3.3019943 137.225109,2.8177018 137.059829,2.68273504 C136.931358,2.57735992 136.796391,2.50157645 136.675138,2.39259259 C136.51924,2.25762583 136.381387,2.1688509 136.156201,2.16524217 C136.071035,2.16235518 135.972877,2.18689459 135.889877,2.21359924" id="Fill-17" fill="#1A1918"></path>
                <path d="M130.818879,10.9106553 C130.605964,11.0492308 130.429858,11.2311111 130.339639,11.4151567 C130.212612,11.6757075 130.11301,12.0250332 130.09641,12.3382716 C130.073314,12.722963 130.165698,12.9575309 130.258803,13.3162393 C130.299943,13.4649193 130.37717,13.6280342 130.429858,13.7731054 C130.522241,14.0134473 130.920646,14.0683001 131.171092,14.1072745 C131.533409,14.1664577 131.722507,14.0978917 132.078329,14.0646914 C132.665109,14.0134473 133.050522,13.471415 133.119088,13.3068566 C133.184046,13.1516809 133.230237,12.9676353 133.30169,12.8160684 C133.415726,12.5750047 133.214359,12.3447673 133.204255,12.094321 C133.194872,11.8106743 133.283647,11.4909402 133.13208,11.2311111 C133.025261,11.0391263 132.836885,10.8796201 132.684596,10.7266097 C132.49189,10.5418424 132.110807,10.3303704 131.814169,10.3736752 C131.682089,10.3931624 131.033238,10.771358 130.818879,10.9106553" id="Fill-18" fill="#242424"></path>
                <path d="M136.899601,9.69811966 C136.569763,9.80060779 136.285394,10.1340551 136.110731,10.4451282 C136.019069,10.6031909 135.705109,11.3725736 135.653143,11.5472365 C135.579525,11.8077873 135.725318,12.3606458 135.859563,12.6082051 C136.181462,13.2014815 136.786287,13.3018044 137.036733,13.405736 C137.251092,13.4439886 137.396163,13.3920228 137.567939,13.4353276 C137.629288,13.4504843 137.832821,13.4678063 137.883343,13.4418234 C138.081823,13.3465527 138.344539,13.2469516 138.493941,13.122811 C138.563951,13.0643495 138.599316,13.0102184 138.657778,12.9409307 C138.717683,12.8023552 138.734283,12.6695537 138.779031,12.5259259 C138.849041,12.3166192 139.017208,12.1073124 139.131966,11.9225451 C139.231567,11.7709782 139.337664,11.5732194 139.340551,11.3891738 C139.344881,11.265755 139.295802,11.1221273 139.287142,10.9987085 C139.273428,10.8088889 139.270541,10.6176258 139.141349,10.4747198 C138.967407,10.2849003 138.745109,10.1730294 138.506211,10.020019 C138.160494,9.85690408 137.982944,9.87278253 137.712289,9.77751187 C137.40699,9.66852802 137.214283,9.60140551 136.899601,9.69811966" id="Fill-19" fill="#242424"></path>
                <path d="M139.967028,7.25644824 C139.760608,7.54298196 139.687711,7.73785375 139.673276,8.08717949 C139.666781,8.26472934 139.689877,8.89481481 139.705755,9.08102564 C139.739677,9.45416904 139.854435,9.69811966 140.140969,9.92041785 C140.41812,10.1398291 140.655575,10.4169801 141.007787,10.4790503 C141.215651,10.4689459 141.432896,10.568547 141.650864,10.5786515 C141.891206,10.5966952 142.130104,10.5288509 142.332915,10.5223552 C142.560266,10.4559544 142.973105,10.4646154 143.139829,10.3079962 C143.228604,10.2221083 143.289953,10.1203419 143.349136,10.0214625 C143.473276,9.82009497 143.537512,9.65409307 143.57793,9.40220323 C143.614017,9.16980057 143.645052,8.96698955 143.634226,8.73025641 C143.624843,8.47764482 143.57793,8.1391453 143.531738,7.8894207 C143.41265,7.65557455 143.202621,7.48740741 143.034454,7.28964862 C142.959392,7.20231719 142.322089,6.8551567 142.19434,6.81690408 C141.88471,6.72596391 141.670351,6.68482431 141.267616,6.63358025 C140.704653,6.67977208 140.309136,6.7837037 139.967028,7.25644824" id="Fill-20" fill="#242424"></path>
                <g id="Group-24" transform="translate(137.132004, 12.991453)" fill="#242424">
                    <path d="M2.29732194,2.11111111 C2.09667616,1.98119658 1.90974359,1.94655271 1.67734093,1.91335233 C1.2305793,1.84406458 0.923836657,1.84767331 0.622867996,2.22298196 C0.376030389,2.53694207 0.212193732,3.03350427 0.12702754,3.42469136 C0.0671225071,3.69967711 0.112592593,3.92414055 0.149401709,4.19984805 C0.175384615,4.35574549 0.212193732,4.52679962 0.281481481,4.67547958 C0.345716999,4.80683761 0.408509022,4.89922127 0.465527066,5.03418803 C0.523266857,5.16987654 0.584615385,5.34381766 0.710921178,5.43620133 C0.867540361,5.54879392 1.21975309,5.61447293 1.41245964,5.64911681 C1.6708452,5.6931434 1.90252612,5.74294397 2.1688509,5.79490978 C2.41063628,5.7891358 2.66902184,5.6368471 2.84151947,5.45568851 C2.96926876,5.31566952 3.16269706,5.08687559 3.23415005,4.905717 C3.27095916,4.80683761 3.26590693,4.67547958 3.29477683,4.56577398 C3.36117759,4.32904084 3.50336182,4.09158594 3.53295347,3.84474834 C3.57698006,3.49325736 3.37849953,3.0537132 3.20094967,2.75418803 C3.08980057,2.57230769 2.59107312,2.30165242 2.29732194,2.11111111" id="Fill-21"></path>
                    <path d="M5.44125356,0.559354226 C5.37124406,0.612041785 5.30917379,0.666894587 5.2499905,0.727521368 C5.13234568,0.849496676 4.99304843,1.037151 4.99954416,1.21830959 C5.00676163,1.45576448 5.00964862,1.77838557 5.04212726,2.01944919 C5.08037987,2.30959164 5.06089269,2.69789174 5.16410256,2.97504274 C5.23194682,3.1374359 5.46723647,3.38932574 5.59282051,3.52140551 C5.71118708,3.64338082 5.86564103,3.67297246 6.02153846,3.7451472 C6.18248813,3.82453941 6.29291548,3.94362773 6.41994302,4.07209877 C6.60759734,4.26624881 6.80535613,4.27635328 7.07312441,4.30594492 C7.70537512,4.3817284 8.29792972,3.72277303 8.36360874,3.64049383 C8.44300095,3.5380057 8.5945679,3.39654321 8.64436847,3.27168091 C8.72015195,3.09340931 8.58807217,2.93679012 8.58157645,2.74769231 C8.57508072,2.54271605 8.62560304,2.36660969 8.5671415,2.17390313 C8.50146249,1.9631529 8.31525166,1.45576448 8.24307692,1.37637227 C8.13481481,1.25439696 7.9579867,1.10283001 7.83312441,0.990959164 C7.57040836,0.747008547 7.21097816,0.701538462 6.92155745,0.46985755 C6.69998101,0.288698955 6.4820133,0.180436847 6.19187085,0.236011396 C5.90678063,0.293751187 5.67437797,0.381082621 5.44125356,0.559354226" id="Fill-23"></path>
                </g>
                <path d="M124.6068,14.3974169 C124.380171,14.4407217 124.240152,14.4825831 124.051776,14.6182716 C123.994758,14.6579677 123.680798,14.8095347 123.601406,14.8477873 C123.272289,14.997189 122.830579,15.6005698 122.828414,15.9794872 C122.825527,16.4204748 122.949668,16.791453 123.111339,17.1992403 C123.209497,17.4554606 123.290332,17.7196201 123.379107,17.9830579 C123.467882,18.2551567 123.878557,19.2309592 124.079202,19.2778727 C124.633504,19.408509 125.312669,19.3067426 125.599202,18.9747388 C125.926876,18.6449003 126.592327,18.1858689 126.889687,17.8148908 C127.156011,17.4850522 127.02754,16.991377 126.985679,16.6124596 C126.9532,16.3187085 126.840608,16.0357835 126.735233,15.748528 C126.676771,15.5702564 126.019981,14.7597341 125.711073,14.5641406 C125.345147,14.3346249 125.083153,14.308642 124.6068,14.3974169" id="Fill-25" fill="#242424"></path>
                <path d="M129.177626,18.9617474 C129.241861,19.9895157 129.747806,20.4001899 129.875556,20.4745299 C130.09641,20.597227 131.007255,20.8397341 131.161709,20.868604 C131.278632,20.8953086 131.948414,20.8137512 132.13246,20.7805508 C132.257322,20.7603419 132.265261,20.7668376 132.374245,20.6968281 C132.478177,20.6289839 132.670883,20.4535992 132.747388,20.3648243 C132.841216,20.2558405 133.428718,19.0072175 133.316847,18.0725546 C133.228072,17.8596391 133.091662,17.8184995 132.85132,17.5630009 C132.614587,17.3075024 132.548186,17.1234568 132.276087,17.0339601 C131.964292,16.9300285 131.656106,16.8362013 131.277189,16.7986705 C130.976942,16.7669136 130.94735,16.9610636 130.732991,17.0137512 C130.426971,17.0967521 130.275404,17.1328395 130.032175,17.2779107 C129.747806,17.4439126 129.161026,18.7048053 129.177626,18.9617474" id="Fill-26" fill="#242424"></path>
                <polyline id="Fill-27" fill="#242424" points="134.979753 36.7593162 134.348946 36.7593162 134.348946 36.5319658 135.884103 36.5319658 135.884103 36.7593162 135.25113 36.7593162 135.25113 38.6062678 134.979753 38.6062678 134.979753 36.7593162"></polyline>
                <path d="M137.85736,37.6939791 C137.841481,37.4060019 137.823438,37.0573979 137.823438,36.7982906 L137.816942,36.7982906 C137.742602,37.040076 137.659601,37.302792 137.554226,37.5871605 L137.1883,38.5961633 L136.986211,38.5961633 L136.647711,37.6059259 C136.549554,37.3100095 136.468718,37.0465717 136.410978,36.7982906 L136.404482,36.7982906 C136.397987,37.0595632 136.38283,37.4016714 136.364786,37.717075 L136.309212,38.6062678 L136.052991,38.6062678 L136.198063,36.5319658 L136.539449,36.5319658 L136.893105,37.5337512 C136.980437,37.7906933 137.047559,38.0187654 137.102412,38.2331244 L137.110351,38.2331244 C137.165204,38.0245394 137.237379,37.7979107 137.330484,37.5337512 L137.699297,36.5319658 L138.041406,36.5319658 L138.170598,38.6062678 L137.906439,38.6062678 L137.85736,37.6939791" id="Fill-28" fill="#242424"></path>
            </g>
        </g>
    </g>
</svg>