<?xml version="1.0" encoding="UTF-8" standalone="no"?>
<svg width="232px" height="40px" viewBox="0 0 232 40" version="1.1" xmlns="http://www.w3.org/2000/svg" xmlns:xlink="http://www.w3.org/1999/xlink">
    <!-- Generator: Sketch 3.8.3 (29802) - http://www.bohemiancoding.com/sketch -->
    <title>Rogers_tm_rgb</title>
    <desc>Created with Sketch.</desc>
    <defs>
        <polygon id="path-1" points="40.5813288 39.954717 0.0461439863 39.954717 0.0461439863 0.174339623 20.3137364 0.174339623 40.5813288 0.174339623 40.5813288 39.954717"></polygon>
    </defs>
    <g id="Home" stroke="none" stroke-width="1" fill="none" fill-rule="evenodd">
        <g id="Desktop-HD" transform="translate(-97.000000, -243.000000)">
            <g id="Rogers_tm_rgb" transform="translate(97.000000, 243.000000)">
                <g id="Group-3">
                    <mask id="mask-2" fill="white">
                        <use xlink:href="#path-1"></use>
                    </mask>
                    <g id="Clip-2"></g>
                    <path d="M33.4590045,35.2384906 C31.9777825,35.7132075 29.8697714,36.194717 27.2334117,36.194717 C20.1826106,36.194717 11.9174535,30.7381132 7.91138646,21.4641509 C6.60320444,23.1403774 5.58496048,25.9139623 5.58496048,28.765283 C5.58496048,34.5796226 11.1291604,40 20.3179662,40 C25.9559923,40 30.4334971,37.7743396 33.4590045,35.2384906 M4.85204016,33.0098113 C4.36752831,31.5562264 3.87686392,29.4875472 3.87686392,26.8996226 C3.87686392,19.9818868 9.4387524,11.869434 18.8898099,7.93962264 C17.1801752,6.65509434 14.3530869,5.65584906 11.4475539,5.65584906 C5.5249733,5.65584906 0,11.0973585 0,20.1139623 C0,25.6475472 2.26874599,30.0422642 4.85204016,33.0098113 M7.12155522,4.93660377 C8.60354625,4.46113208 10.7123264,3.98037736 13.3486862,3.98037736 C20.3987182,3.98037736 28.6654134,9.43849057 32.6707114,18.7116981 C33.9788934,17.0354717 34.9971374,14.2611321 34.9971374,11.4098113 C34.9971374,5.59622642 29.4521683,0.174339623 20.2649007,0.174339623 C14.6253365,0.174339623 10.1486007,2.40075472 7.12155522,4.93660377 M35.7300577,7.1645283 C38.3125828,10.1343396 40.5813288,14.5283019 40.5813288,20.0626415 C40.5813288,29.0784906 35.0578936,34.5192453 29.1345439,34.5192453 C26.2282418,34.5192453 23.4011536,33.5184906 21.693057,32.2362264 C31.1441145,28.3064151 36.7044649,20.1939623 36.7044649,13.274717 C36.7044649,10.6867925 36.2138005,8.61735849 35.7300577,7.1645283" id="Fill-1" fill="#242424" mask="url(#mask-2)"></path>
                </g>
                <polyline id="Fill-4" fill="#242424" points="224.858107 9.54037736 224.226704 9.54037736 224.226704 5.64679245 222.777013 5.64679245 222.777013 5.10113208 226.307797 5.10113208 226.307797 5.64679245 224.858107 5.64679245 224.858107 9.54037736"></polyline>
                <polyline id="Fill-5" fill="#242424" points="229.375604 8.51169811 229.387909 8.51169811 230.723777 5.10113208 231.708182 5.10113208 231.708182 9.54037736 231.074471 9.54037736 231.074471 5.82867925 231.060628 5.82867925 229.560179 9.54037736 229.158727 9.54037736 227.662893 5.82867925 227.649818 5.82867925 227.649818 9.54037736 227.036103 9.54037736 227.036103 5.10113208 228.020508 5.10113208 229.375604 8.51169811"></polyline>
                <path d="M103.111814,20.1109434 C103.111814,13.4633962 100.357787,9.32 94.6759239,9.32 C89.1286477,9.32 86.238496,13.2807547 86.238496,20.1109434 C86.238496,26.8935849 89.1286477,30.8550943 94.6759239,30.8550943 C100.177825,30.8550943 103.111814,26.8935849 103.111814,20.1109434 M80.4197394,20.1109434 C80.4197394,11.0045283 85.810126,4.72301887 94.6759239,4.72301887 C103.541722,4.72301887 108.932878,11.0513208 108.932878,20.1109434 C108.932878,29.3056604 103.404059,35.4520755 94.6759239,35.4520755 C85.85627,35.4520755 80.4197394,29.3056604 80.4197394,20.1109434" id="Fill-6" fill="#242424"></path>
                <polygon id="Fill-7" fill="#242424" points="148.516727 35.0739623 167.364238 35.0739623 167.364238 30.6173585 154.076308 30.6173585 154.076308 22.0203774 165.786883 22.0203774 165.786883 17.5622642 154.076308 17.5622642 154.076308 9.55773585 165.835334 9.55773585 167.318863 5.10037736 148.516727 5.10037736"></polygon>
                <path d="M130.998932,18.8981132 L129.55847,23.2286792 L134.21363,23.2286792 L134.21363,29.9441509 C133.031574,30.490566 131.781072,30.8550943 129.7815,30.8550943 C123.324418,30.8550943 120.119718,26.6203774 120.119718,20.1554717 C120.119718,13.7811321 123.369793,9.32 129.974535,9.32 C132.397095,9.32 134.852724,10.085283 136.894595,11.3449057 L138.421961,6.74641509 C136.018628,5.51622642 132.830079,4.72226415 129.565392,4.72226415 C120.235078,4.72226415 114.300192,11.4150943 114.300192,20.5207547 C114.300192,29.1245283 119.551378,35.450566 129.370818,35.450566 C133.553001,35.450566 136.986883,34.4045283 139.715531,33.0392453 L139.715531,18.8981132 L130.998932,18.8981132" id="Fill-8" fill="#242424"></path>
                <path d="M63.7786798,18.9411321 C68.4492203,18.9411321 69.4136296,16.0732075 69.4136296,14.2067925 C69.4136296,12.6120755 68.5768853,9.56226415 63.7786798,9.56226415 L60.1456099,9.56226415 L60.1456099,18.9411321 L63.7786798,18.9411321 L63.7786798,18.9411321 Z M54.7167699,5.10037736 L63.9209571,5.10037736 C72.3522324,5.10037736 74.9824396,10.234717 74.9824396,14.2384906 C74.9824396,19.8498113 70.6510575,21.9969811 69.4005554,22.4566038 L69.4005554,22.6483019 C69.9988891,22.8173585 71.2778466,23.4090566 72.9359539,26.330566 L77.9864132,35.0739623 L71.7346721,35.0739623 L67.3732963,27.5003774 C65.6167486,24.4045283 64.904593,23.4015094 62.0959624,23.4015094 L60.1456099,23.4015094 L60.1456099,35.0739623 L54.7167699,35.0739623 L54.7167699,5.10037736 L54.7167699,5.10037736 Z" id="Fill-9" fill="#242424"></path>
                <path d="M184.262935,18.9411321 C188.934245,18.9411321 189.898654,16.0732075 189.898654,14.2067925 C189.898654,12.6120755 189.059603,9.56226415 184.262935,9.56226415 L180.629865,9.56226415 L180.629865,18.9411321 L184.262935,18.9411321 L184.262935,18.9411321 Z M175.204102,5.10037736 L184.405213,5.10037736 C192.835719,5.10037736 195.467464,10.234717 195.467464,14.2384906 C195.467464,19.8498113 191.134544,21.9969811 189.884811,22.4566038 L189.884811,22.6483019 C190.482376,22.8173585 191.762102,23.4090566 193.420978,26.330566 L198.470669,35.0739623 L192.219697,35.0739623 L187.857552,27.5003774 C186.101004,24.4045283 185.388849,23.4015094 182.579449,23.4015094 L180.629865,23.4015094 L180.629865,35.0739623 L175.204102,35.0739623 L175.204102,5.10037736 L175.204102,5.10037736 Z" id="Fill-10" fill="#242424"></path>
                <path d="M208.291647,12.6943396 C208.291647,10.3245283 210.584234,9.31018868 213.142918,9.31018868 C216.572185,9.31018868 219.223927,10.4279245 219.758428,10.6264151 L219.758428,5.61660377 C219.330058,5.48830189 216.975176,4.71622642 212.621491,4.71622642 C205.946764,4.71622642 202.359838,8.58339623 202.359838,12.9939623 C202.359838,17.3924528 205.997522,19.6596226 209.027644,21.2422642 C209.719034,21.6037736 210.557317,22.0415094 211.216407,22.3864151 C213.72664,23.6973585 215.570861,24.7283019 215.570861,27.0060377 C215.570861,29.5977358 213.020637,30.8256604 210.47272,30.8256604 C206.120573,30.8256604 203.481137,29.2641509 203.032002,29.0241509 L201.55847,33.4535849 C201.990686,33.7071698 205.458406,35.445283 210.575005,35.445283 C216.830592,35.445283 221.504209,31.8483019 221.504209,26.5275472 C221.504209,22.7501887 218.885537,20.3584906 214.580303,18.1086792 C213.826618,17.7154717 213.25674,17.4173585 212.546892,17.0460377 C210.15125,15.794717 208.291647,14.8075472 208.291647,12.6943396" id="Fill-11" fill="#242424"></path>
            </g>
        </g>
    </g>
</svg>