<?xml version="1.0" encoding="UTF-8" standalone="no"?>
<svg width="44px" height="39px" viewBox="0 0 44 39" version="1.1" xmlns="http://www.w3.org/2000/svg" xmlns:xlink="http://www.w3.org/1999/xlink">
    <!-- Generator: Sketch 3.8.3 (29802) - http://www.bohemiancoding.com/sketch -->
    <title>TD_bank</title>
    <desc>Created with Sketch.</desc>
    <defs>
        <polygon id="path-1" points="43.2575 38.9025 0 38.9025 0 19.60725 0 0.312 43.2575 0.312 43.2575 38.9025"></polygon>
    </defs>
    <g id="Home" stroke="none" stroke-width="1" fill="none" fill-rule="evenodd">
        <g id="Desktop-HD" transform="translate(-97.000000, -512.000000)">
            <g id="TD_bank" transform="translate(97.000000, 512.000000)">
                <g id="Group-3">
                    <mask id="mask-2" fill="white">
                        <use xlink:href="#path-1"></use>
                    </mask>
                    <g id="Clip-2"></g>
                    <path d="M28.393625,30.63125 L18.317,30.63125 L18.317,12.47675 L23.378875,12.47675 L23.378875,27.418625 L28.247375,27.418625 C31.60625,27.418625 33.018375,25.0835 33.018375,19.095375 C33.018375,13.0585 31.41125,11.30675 28.003625,11.30675 L16.9065,11.30675 L16.9065,30.63125 L11.89175,30.63125 L11.89175,11.30675 L4.541875,11.30675 L4.541875,8.094125 L29.562,8.094125 C35.59725,8.094125 38.47025,11.20925 38.47025,19.049875 C38.47025,29.365375 34.185125,30.63125 28.393625,30.63125 L28.393625,30.63125 Z M0,39 L43.2575,39 L43.2575,0.312 L0,0.312 L0,39 Z" id="Fill-1" fill="#242424" mask="url(#mask-2)"></path>
                </g>
            </g>
        </g>
    </g>
</svg>