<?xml version="1.0" encoding="UTF-8" standalone="no"?>
<svg width="56px" height="39px" viewBox="0 0 56 39" version="1.1" xmlns="http://www.w3.org/2000/svg" xmlns:xlink="http://www.w3.org/1999/xlink">
    <!-- Generator: Sketch 3.8.3 (29802) - http://www.bohemiancoding.com/sketch -->
    <title>tmo_kurzformpos_1_4c</title>
    <desc>Created with Sketch.</desc>
    <defs></defs>
    <g id="Home" stroke="none" stroke-width="1" fill="none" fill-rule="evenodd">
        <g id="Desktop-HD" transform="translate(-97.000000, -683.000000)" fill="#242424">
            <g id="tmo_kurzformpos_1_4c" transform="translate(97.000000, 683.000000)">
                <polygon id="Fill-5" points="0.683547009 25.8410256 8.44188034 25.8410256 8.44188034 18.0826923 0.683547009 18.0826923"></polygon>
                <path d="M19.1647436,30.5331197 C19.1647436,32.9950855 19.5237179,34.5910256 20.2461538,35.3269231 C20.857906,35.9566239 21.8929487,36.3425214 23.3527778,36.4876068 C23.7850427,36.5235043 24.5209402,36.541453 25.5679487,36.541453 L25.5679487,38.6967949 L6.87136752,38.6967949 L6.87136752,36.541453 C8.37307692,36.541453 9.48141026,36.4681624 10.1978632,36.3245726 C11.6457265,36.0194444 12.5581197,35.1773504 12.933547,33.7923077 C13.1294872,33.074359 13.2282051,31.9869658 13.2282051,30.5331197 L13.2282051,2.34166667 C10.057265,2.43290598 7.5758547,3.48290598 5.78547009,5.49465812 C4.08183761,7.42115385 3.04529915,10.367735 2.66837607,14.3403846 L0.646153846,13.9903846 L1.02307692,0.507905983 L31.4162393,0.507905983 L31.7931624,13.9903846 L29.7709402,14.3403846 C29.3940171,10.367735 28.3514957,7.42115385 26.6418803,5.49465812 C24.8425214,3.48290598 22.3491453,2.43290598 19.1647436,2.34166667 L19.1647436,30.5331197" id="Fill-6"></path>
                <polygon id="Fill-7" points="24.1036325 25.8410256 31.8619658 25.8410256 31.8619658 18.0826923 24.1036325 18.0826923"></polygon>
                <polygon id="Fill-8" points="47.3816239 25.8410256 55.1399573 25.8410256 55.1399573 18.0826923 47.3816239 18.0826923"></polygon>
            </g>
        </g>
    </g>
</svg>