<?xml version="1.0" encoding="UTF-8" standalone="no"?>
<svg width="200px" height="100px" viewBox="0 0 200 100" version="1.1" xmlns="http://www.w3.org/2000/svg" xmlns:xlink="http://www.w3.org/1999/xlink">
    <!-- Generator: Sketch 3.8.3 (29802) - http://www.bohemiancoding.com/sketch -->
    <title>Group 9</title>
    <desc>Created with Sketch.</desc>
    <defs>
        <polygon id="path-1" points="92.9806392 25.1607455 0 25.1607455 0 12.5803727 0 0 92.9806392 0"></polygon>
    </defs>
    <g id="Home" stroke="none" stroke-width="1" fill="none" fill-rule="evenodd">
        <g id="Desktop-HD" transform="translate(-644.000000, -254.000000)">
            <g id="Group-9" transform="translate(644.000000, 254.000000)">
                <rect id="Rectangle-79" fill="#303030" x="0" y="0" width="200" height="100"></rect>
                <g id="mbna" transform="translate(36.000000, 33.000000)">
                    <g id="Group-5" transform="translate(-0.000000, 8.841406)">
                        <mask id="mask-2" fill="white">
                            <use xlink:href="#path-1"></use>
                        </mask>
                        <g id="Clip-2"></g>
                        <path d="M88.1180565,16.2620038 C88.1180565,13.1833001 85.8987274,11.1232526 82.8484168,11.1232526 C79.8405419,11.1232526 77.6687156,13.2717142 77.6687156,16.2758974 C77.6687156,19.2605033 79.8582763,21.4973789 82.8686846,21.4973789 C85.9582642,21.4973789 88.1180565,19.341339 88.1180565,16.2620038 M88.0445855,8.00918329 C88.0445855,7.8329867 88.1661926,7.66626306 88.4037064,7.54248338 C88.8141303,7.3227113 89.634978,7.14714625 90.381088,7.14714625 C91.1328984,7.14714625 91.9493126,7.3227113 92.3603698,7.54248338 C92.5991503,7.66626306 92.720124,7.83488129 92.720124,8.00918329 L92.720124,25.1551947 L88.0445855,25.1551947 L88.0445855,23.3104986 C86.4719274,24.8110114 84.4464097,25.6187369 82.1137074,25.6187369 C76.9321061,25.6187369 72.8367347,21.4582241 72.8367347,16.3415764 C72.8367347,11.1459877 76.7496955,7 82.0757052,7 C84.3799058,7 86.4719274,7.79130579 88.0445855,9.37075973 L88.0445855,8.00918329" id="Fill-1" fill="#FFFFFF" mask="url(#mask-2)"></path>
                        <path d="M4.67300502,8.00918329 L4.67300502,9.48254036 C6.42237339,7.69215575 8.28194818,7 10.6152838,7 C13.0043561,7 14.8670977,7.88792972 16.0438995,9.97576448 C17.6311251,7.89929725 20.2368099,7 22.8336275,7 C26.9600341,7 29.4586794,9.52611586 29.4586794,14.5088794 L29.4586794,25.1551947 L24.6146644,25.1551947 L24.6146644,16.3952564 C24.6146644,13.1245679 23.879955,11.1150427 21.2666698,11.1150427 C20.4914247,11.1150427 19.7225133,11.2786087 19.0739423,11.7080484 C17.5620877,12.7121795 17.136463,14.7286515 17.136463,17.1947721 L17.136463,25.1551947 L12.3076489,25.1551947 L12.3076489,16.4034663 C12.3076489,13.1327778 11.5697727,11.1232526 8.9583875,11.1232526 C8.18314243,11.1232526 7.41106421,11.2874501 6.76629339,11.7162583 C5.25127197,12.7210209 4.82944745,14.7337037 4.82944745,17.2017189 L4.82944745,25.1551947 L0,25.1551947 L0,8.01676163 C0,7.83993352 0.118440219,7.66626306 0.355320658,7.54248338 C0.76574452,7.3227113 1.58722561,7.14714625 2.33650251,7.14714625 C3.08261255,7.14714625 3.90346028,7.3227113 4.31451751,7.54248338 C4.55203132,7.66626306 4.67300502,7.8329867 4.67300502,8.00918329" id="Fill-3" fill="#FFFFFF" mask="url(#mask-2)"></path>
                        <path d="M47.5188961,15.8557977 C47.5188961,12.8370893 45.3382026,10.7031529 42.3195604,10.7031529 C39.2743167,10.7031529 37.0701886,12.7834093 37.0701886,15.8419041 C37.0701886,18.9212393 39.2312476,21.0772792 42.3195604,21.0772792 C45.3293354,21.0772792 47.5188961,18.8404036 47.5188961,15.8557977 M37.2994686,0.862668566 L37.2994686,8.94750237 C38.9962672,7.40151947 40.9198124,6.57990028 43.2271799,6.57990028 C48.5544563,6.57990028 52.350877,10.7290456 52.350877,15.9214767 C52.350877,21.0349668 48.1605,25.1986372 42.9814323,25.1986372 C40.6506301,25.1986372 38.8841607,24.4774311 37.1430261,22.8903989 L37.1430261,24.735095 L32.4693878,24.735095 L32.4693878,0.862668566 C32.4693878,0.686471985 32.599862,0.522274454 32.8456096,0.392179487 C33.2680675,0.174933523 34.1123499,0 34.8812613,0 C35.6539729,0 36.4982553,0.174933523 36.9207132,0.392179487 C37.1664608,0.522274454 37.2994686,0.686471985 37.2994686,0.862668566" id="Fill-4" fill="#FFFFFF" mask="url(#mask-2)"></path>
                    </g>
                    <path d="M58.2061507,16.7591833 L58.2061507,18.2325404 C59.8028769,16.4970988 62.0405737,15.75 64.248502,15.75 C68.6187561,15.75 71.1256352,18.1580199 71.1256352,23.3409782 L71.1256352,33.9051947 L66.282887,33.9051947 L66.282887,25.1452564 C66.282887,21.8745679 65.353733,19.8650427 62.7436146,19.8650427 C61.9664694,19.8650427 60.9860124,20.067132 60.3007059,20.5319373 C58.7476822,21.5853276 58.3632265,23.4786515 58.3632265,25.9447721 L58.3632265,33.9051947 L53.5306122,33.9051947 L53.5306122,16.7667616 C53.5306122,16.5899335 53.6553862,16.4162631 53.8897331,16.2924834 C54.300157,16.0727113 55.1216381,15.8971462 55.8702816,15.8971462 C56.6195585,15.8971462 57.4378727,16.0727113 57.8482966,16.2924834 C58.0845437,16.4162631 58.2061507,16.5829867 58.2061507,16.7591833" id="Fill-6" fill="#FFFFFF"></path>
                    <g id="Group-10" transform="translate(100.705855, 0.000000)" fill="#FFFFFF">
                        <path d="M18.772317,19.2277309 C20.5995899,18.7654517 22.8841561,18.6138847 24.4789822,18.8191316 C24.8121349,18.8879683 24.8438034,19.2334146 24.8013676,19.4077166 C24.7563983,19.611069 24.4346462,19.7089559 24.104027,19.7159028 C23.5612288,19.7272703 23.2135086,19.7986331 22.7150463,19.8598914 C20.3855108,20.145974 17.453007,21.2031535 16.2255356,22.9733292 C15.7758428,23.6162256 15.5028603,24.2427024 15.4141885,25.1306321 C15.2805474,26.491577 15.2267109,30.3956891 15.2450786,31.3871896 C15.2583794,31.9871421 15.2621796,32.3262731 15.3280501,32.8517052 C15.4091215,33.0001145 15.3362839,33.2704089 15.2805474,33.4232389 C15.1564068,33.7364773 14.6807458,33.8097347 14.3190915,33.8299436 C13.3791701,33.8874127 12.0034902,33.8072086 11.106638,33.7661592 C10.8792581,33.7604754 10.7228157,33.6998486 10.6905138,33.3108268 C10.6677125,33.0493738 10.7177487,32.7683434 10.7836192,32.4791031 C10.8051538,31.1528923 10.91156,29.2507271 10.91156,27.9049388 C10.91156,26.403163 10.91156,24.1852332 10.4694676,22.8798629 C9.84243119,21.8719426 8.87780844,20.92086 7.01696692,20.3695352 C6.21892052,20.1333434 4.93254573,19.9230443 3.86278354,20.0240889 C3.05206974,20.1478686 2.37943063,20.254597 1.70869163,20.2028116 C1.16082645,20.1611307 0.0543287826,19.9230443 0.00175905959,19.0287992 C-0.045110332,18.282332 0.85110844,17.7657413 1.9151703,17.6040699 C6.53370549,16.898652 11.1205722,19.9400955 13.479876,21.8826786 C14.86759,20.5545732 16.9874799,19.6773795 18.772317,19.2277309" id="Fill-7"></path>
                        <path d="M9.87456036,0.228219794 C9.51543948,0.419573071 9.03661164,0.54840498 8.88966977,0.888167563 C8.7211933,1.28034705 8.75539529,1.86830052 8.88713628,2.26932141 C8.93970601,2.43604506 8.98530866,2.65392255 9.07651396,2.80233186 C9.22472258,3.03915522 9.50277208,3.10230811 9.70925075,3.27282093 C9.86189296,3.39660061 10.0474704,3.61700422 10.21278,3.72499567 C10.6814739,3.91824354 10.871485,3.85761676 11.1064653,3.86645816 C11.2945763,3.82035655 11.4161833,3.76415047 11.5897267,3.67952559 C11.7018333,3.62268798 12.0147181,3.28987222 12.052087,3.16861865 C12.1192242,2.93053224 12.1806611,2.72781144 12.2313307,2.48846196 C12.2820003,2.24342872 12.3624383,1.91755978 12.402974,1.67189501 C12.4403429,1.45338599 12.4105745,1.19130147 12.3345701,0.985423023 C12.1800277,0.559772501 11.8038059,0.24337649 11.3237113,0.0835996615 C11.1020317,0.00844771467 10.8809855,-0.0168134439 10.647272,0.0109738305 C10.5313652,0.0254989967 10.4167252,0.055812387 10.3096857,0.103808588 C10.183645,0.158120079 9.99363395,0.162540782 9.87456036,0.228219794" id="Fill-9"></path>
                    </g>
                    <path d="M106.359066,5.97559354 C106.173488,5.78992403 106.20389,5.70340456 106.198823,5.43753086 C106.193123,5.23859924 106.167788,5.05419278 106.198823,4.83378917 C106.228592,4.69990503 106.306496,4.53823362 106.366666,4.38414055 C106.452805,4.15931624 106.530709,4.02922127 106.768223,3.93007123 C106.970901,3.84039411 107.116577,3.74945394 107.305954,3.63262108 C107.437062,3.54925926 107.580837,3.5 107.740446,3.5 C108.012162,3.50315764 108.409918,3.50884141 108.581562,3.72861349 C108.648699,3.81260684 108.703169,3.89533713 108.781707,3.97933048 C108.952083,4.165 109.197197,4.4112963 109.13006,4.67969611 C109.058489,4.96325261 108.929915,5.19312915 108.799441,5.43058405 C108.677201,5.65982906 108.019129,6.37661443 107.828485,6.46755461 C107.621373,6.56796771 107.28822,6.46123932 107.064007,6.44671415 C106.905031,6.43850427 106.791024,6.42145299 106.687785,6.3191453 C106.572512,6.20483856 106.473706,6.08737417 106.359066,5.97559354" id="Fill-11" fill="#FFFFFF"></path>
                    <path d="M100.206133,7.14440398 C100.278337,6.8898978 100.426546,6.62528717 100.67546,6.50719125 C100.854071,6.42130331 101.07575,6.27984082 101.268928,6.23626532 C101.365834,6.21479334 101.576746,6.21353028 101.677452,6.19900512 C101.921933,6.16742867 102.044807,6.09922354 102.404561,6.13522069 C102.652842,6.23626532 102.892889,6.46551034 103.072133,6.67517795 C103.222242,6.84695383 103.437588,7.10082848 103.493957,7.32312667 C103.560461,7.62941822 103.568695,7.91423778 103.588963,8.18263759 C103.609231,8.48513997 103.507258,8.94363 103.43062,9.30170692 C103.309647,9.5410564 102.941659,10.0361751 102.299421,9.74251414 C101.975769,9.59599942 101.562179,9.56379144 101.232826,9.43243342 C100.973778,9.33012572 100.785033,9.08825013 100.589322,8.90384367 C100.332807,8.66512572 100.183965,8.45356352 100.076292,8.11885317 C99.9743195,7.79614187 100.115561,7.45322164 100.206133,7.14440398" id="Fill-12" fill="#FFFFFF"></path>
                    <path d="M100.469,12.3776931 C100.64571,12.3050673 100.749583,12.3082249 100.910459,12.3341176 C101.139106,12.3688517 101.38612,12.2911736 101.614767,12.2589657 C101.899783,12.2172848 102.226602,12.3227501 102.428647,12.5374699 C102.58319,12.7004044 102.696563,12.8923892 102.787135,13.0982677 C102.852372,13.2454139 103.094953,13.6262259 103.133588,13.7095877 C103.225427,13.9085193 103.317899,14.1213446 103.39327,14.3265915 C103.491443,14.5836238 103.373002,14.894336 103.269763,15.145053 C103.205159,15.3124082 102.795369,15.6212259 102.688329,15.6932202 C102.392545,15.8921518 102.134764,15.7683721 101.788944,15.7159552 C101.496327,15.6730112 101.248045,15.635751 100.972529,15.4917624 C100.776185,15.3844025 100.107979,14.914545 99.9293687,14.816658 C99.6576529,14.6695117 99.4169723,14.4876314 99.2706638,14.2198631 C99.1737581,14.0436665 99.188959,13.9824082 99.1667911,13.7758982 C99.1509568,13.6098061 99.188959,13.4891841 99.2706638,13.3376171 C99.7152896,12.5071565 100.356894,12.4250578 100.469,12.3776931" id="Fill-13" fill="#FFFFFF"></path>
                    <path d="M105.3101,12.7740652 C104.995315,12.6382864 104.723599,12.4046207 104.536121,12.0844355 C104.40058,11.8514013 104.425915,11.386596 104.440483,11.1207223 C104.466451,10.6660215 104.617193,10.0547014 104.871808,9.65683819 C105.100454,9.2993928 105.412072,8.90152955 105.837064,8.83206136 C106.146782,8.7828021 106.465367,8.71838615 106.778252,8.76764541 C106.909993,8.78911739 107.232378,8.84974417 107.317883,8.9615248 C107.413522,9.08909365 107.49206,9.25644883 107.569331,9.40043743 C107.639002,9.54126839 107.705506,9.67894171 107.723873,9.84692841 C107.735274,9.97133962 107.708039,10.0850148 107.694105,10.2062684 C107.66877,10.383728 107.739708,10.5744498 107.734007,10.7525409 C107.732107,10.9457888 107.711206,11.1320899 107.671304,11.3202855 C107.651669,11.4131202 107.613667,11.4990082 107.578198,11.5874222 C107.545263,11.6752048 107.459125,11.7730918 107.431256,11.8659265 C107.395788,11.9840224 107.296982,12.0787518 107.210844,12.1621136 C107.098104,12.2738942 107.017666,12.4380918 106.881491,12.5119806 C106.799786,12.5580823 106.262055,13.1776122 105.3101,12.7740652" id="Fill-14" fill="#FFFFFF"></path>
                    <path d="M111.471588,6.52019957 C111.38735,6.4684142 111.246109,6.44504763 111.14857,6.40589283 C111.008595,6.35158134 110.905355,6.30232208 110.762847,6.25748352 C110.652641,6.22401249 110.592471,6.21896026 110.491131,6.16654335 C110.366357,6.10023281 109.767189,6.12359938 109.596813,6.16528029 C109.515741,6.18738381 109.43657,6.23916918 109.355499,6.26758799 C109.114818,6.35158134 108.846269,6.57893177 108.831068,6.85301534 C108.826001,6.97679501 108.803833,7.50475323 108.826001,7.66642464 C108.847536,7.82493841 108.894405,7.98913595 108.918473,8.15396501 C108.941275,8.31753101 108.955842,8.52277792 109.025513,8.67876557 C109.119885,8.88022331 109.279494,9.03810556 109.433403,9.19472474 C109.577812,9.33302958 109.606313,9.50985769 109.779223,9.60521857 C110.170646,9.8174123 110.742579,9.97276842 111.151736,9.71321002 C111.44182,9.52880356 111.522891,9.40755 111.655899,9.10188998 C111.736337,8.91495741 111.771806,8.5398292 111.826909,8.34721287 C111.888346,8.14828124 111.96245,7.94492892 111.992219,7.73715589 C112.091024,6.83028029 111.526692,6.55619672 111.471588,6.52019957" id="Fill-15" fill="#FFFFFF"></path>
                    <path d="M113.339842,5.54996326 C113.295506,5.77605063 113.224569,5.93709051 113.204301,6.24590818 C113.201768,6.31221872 113.221402,6.36968786 113.25117,6.43031464 C113.342376,6.61535262 113.460816,6.78333933 113.544421,6.97406107 C113.622325,7.15846753 113.657794,7.25193382 113.847805,7.34982081 C114.080885,7.47107437 114.353868,7.4672852 114.593282,7.57527665 C114.654085,7.60243239 114.708555,7.63590343 114.774426,7.64727095 C114.96127,7.68453116 115.177249,7.61379992 115.360293,7.59232793 C115.462266,7.58096041 115.599074,7.58348653 115.685845,7.53170115 C115.768183,7.4805473 115.820753,7.41992052 115.898024,7.3561361 C116.0494,7.23235642 116.652368,6.45620732 116.685937,6.07602689 C116.694171,5.98382366 116.646668,5.82088918 116.616266,5.72994901 C116.556096,5.54238491 116.518094,5.42113135 116.443989,5.23925101 C116.362285,5.04789773 116.237511,4.93422252 116.058267,4.81549507 C115.94046,4.73781701 115.801752,4.62287874 115.671911,4.56793572 C115.572472,4.52436022 114.66992,4.30521967 114.472308,4.3974229 C114.311432,4.47510096 114.144222,4.54520068 113.978913,4.61530039 C113.887074,4.6569813 113.785735,4.69487304 113.716064,4.76939346 C113.650194,4.83759859 113.607125,4.91338206 113.555822,4.9948493 C113.445615,5.16157295 113.380378,5.35229469 113.339842,5.54996326" id="Fill-16" fill="#FFFFFF"></path>
                    <path d="M119.47687,1.79251522 C119.087348,1.9207156 118.66869,1.68389223 118.292468,1.91755795 C118.166427,1.99523601 117.898512,2.22574409 117.826308,2.36720657 C117.788305,2.44741075 117.795273,2.54592927 117.771204,2.62992262 C117.737636,2.73601949 117.660998,2.8256966 117.624263,2.93116194 C117.577393,3.06251996 117.595128,3.2115608 117.595128,3.3511287 C117.595128,3.54121892 117.638197,3.65299955 117.666698,3.83487989 C117.704067,4.06538796 117.6933,4.18664152 117.828841,4.41462348 C118.323503,5.22298055 119.193754,5.27097676 119.390099,5.31013155 C119.486371,5.33160354 120.092506,5.20782386 120.278084,5.13267191 C120.559933,5.02025976 120.667606,4.85164152 120.820248,4.56745349 C120.876618,4.45883051 120.951989,4.32557789 120.980491,4.20558739 C121.016593,4.04391598 120.951989,3.06251996 120.943122,2.94379252 C120.929188,2.7448609 120.648605,2.32110496 120.503563,2.20300904 C120.390823,2.11080581 120.272383,2.04449527 120.165977,1.9491344 C120.029169,1.83103848 119.908195,1.75336042 119.710584,1.75020278 C119.635846,1.74767666 119.549708,1.76914864 119.47687,1.79251522" id="Fill-17" fill="#FFFFFF"></path>
                    <path d="M114.718785,10.0998509 C114.531941,10.2211045 114.377399,10.3802498 114.298228,10.5412896 C114.186754,10.7692716 114.099349,11.0749316 114.084782,11.3490152 C114.064514,11.6856201 114.145585,11.890867 114.22729,12.2047369 C114.263392,12.3348319 114.331163,12.4775574 114.377399,12.6044948 C114.45847,12.8147939 114.808091,12.8627901 115.02787,12.8968927 C115.345822,12.9486781 115.511765,12.8886828 115.824016,12.8596325 C116.338946,12.8147939 116.677166,12.3405157 116.737336,12.1965271 C116.794339,12.0607483 116.834875,11.8997084 116.897579,11.7670874 C116.997651,11.5561567 116.820941,11.3546989 116.812074,11.1355584 C116.80384,10.8873675 116.881745,10.6076002 116.748737,10.3802498 C116.654998,10.212263 116.489688,10.0726951 116.356047,9.93881101 C116.186937,9.77713959 115.852518,9.59210161 115.592203,9.62999334 C115.476296,9.64704463 114.906896,9.9779658 114.718785,10.0998509" id="Fill-18" fill="#FFFFFF"></path>
                    <path d="M120.458138,8.79079789 C120.168688,8.880475 119.91914,9.17224139 119.765865,9.44443037 C119.685427,9.58273521 119.409911,10.2559451 119.364308,10.4087751 C119.299704,10.6367571 119.427645,11.1205082 119.545452,11.3371227 C119.827935,11.8562395 120.358699,11.944022 120.578479,12.0349622 C120.76659,12.0684332 120.893897,12.0229631 121.044639,12.0608549 C121.098476,12.074117 121.277086,12.0892737 121.321422,12.0665386 C121.495599,11.9831768 121.726145,11.8960258 121.857253,11.7874028 C121.91869,11.736249 121.949725,11.6888843 122.001028,11.6282575 C122.053598,11.507004 122.068165,11.3908026 122.107434,11.2651284 C122.168871,11.081985 122.316446,10.8988416 122.417152,10.7371702 C122.504557,10.6045491 122.597663,10.4315101 122.600196,10.2704703 C122.603996,10.1624788 122.560927,10.0368045 122.553327,9.92881309 C122.541293,9.76272097 122.538759,9.59536579 122.425386,9.47032306 C122.272744,9.30423094 122.077666,9.20634395 121.86802,9.07245981 C121.564636,8.92973426 121.408827,8.9436279 121.171313,8.86026608 C120.903398,8.7649052 120.734288,8.70617301 120.458138,8.79079789" id="Fill-19" fill="#FFFFFF"></path>
                    <path d="M123.115911,6.6700095 C122.934767,6.9207265 122.870797,7.09123932 122.858129,7.39689934 C122.852429,7.55225546 122.872697,8.10358025 122.886631,8.26651472 C122.916399,8.59301519 123.017105,8.80647198 123.268553,9.00098291 C123.511767,9.19296771 123.720146,9.43547483 124.029231,9.48978632 C124.211641,9.48094492 124.402286,9.56809592 124.593563,9.57693732 C124.804476,9.59272555 125.014121,9.53336182 125.192098,9.52767806 C125.39161,9.4695774 125.753897,9.47715575 125.900206,9.34011396 C125.978111,9.26496201 126.031947,9.17591643 126.083883,9.08939696 C126.192823,8.91320038 126.249193,8.76794872 126.284662,8.54754511 C126.31633,8.34419278 126.343565,8.16673314 126.334065,7.95959164 C126.325831,7.73855651 126.284662,7.44236942 126.244126,7.2238604 C126.13962,7.01924501 125.955309,6.87209877 125.807734,6.69905983 C125.741863,6.62264482 125.182598,6.31887939 125.070491,6.28540836 C124.798775,6.20583571 124.610664,6.16983856 124.257244,6.125 C123.763215,6.16541785 123.416128,6.25635802 123.115911,6.6700095" id="Fill-20" fill="#FFFFFF"></path>
                    <g id="Group-24" transform="translate(120.340330, 11.367521)" fill="#FFFFFF">
                        <path d="M1.93004953,1.95332931 C1.75397263,1.83965409 1.58992976,1.8093407 1.38598456,1.78029037 C0.993928437,1.71966359 0.724746121,1.72282124 0.460630765,2.0512163 C0.244018171,2.3259314 0.100243146,2.76042333 0.0255054671,3.10271202 C-0.027064256,3.34332456 0.0128380639,3.53973007 0.045139942,3.78097413 C0.0679412676,3.91738439 0.100243146,4.06705675 0.161046681,4.19715172 C0.217416625,4.31208999 0.272519828,4.3929257 0.322556071,4.51102162 C0.373225683,4.62974906 0.427062147,4.78194754 0.537901924,4.86278325 C0.675343248,4.96130177 0.984427885,5.0187709 1.15353772,5.04908429 C1.38028423,5.08760756 1.58359605,5.13118306 1.81730964,5.17665314 C2.02948864,5.17160091 2.25623516,5.0383483 2.40761063,4.87983453 C2.51971715,4.75731791 2.68946035,4.55712323 2.75216399,4.39860946 C2.78446587,4.31208999 2.78003228,4.19715172 2.80536709,4.10115932 C2.86363714,3.89401782 2.98841106,3.68624479 3.01437924,3.47026188 C3.05301482,3.16270728 2.87883803,2.77810614 2.72302897,2.51602162 C2.62548996,2.35687632 2.18783118,2.12005295 1.93004953,1.95332931" id="Fill-21"></path>
                        <path d="M4.77556978,0.295714653 C4.71413287,0.341816267 4.65966304,0.389812468 4.60772668,0.442860902 C4.50448735,0.549589297 4.38224691,0.713786827 4.38794724,0.872300598 C4.39428094,1.08007363 4.39681442,1.36236707 4.42531608,1.57329775 C4.4588847,1.82717239 4.4417837,2.16693498 4.53235564,2.4094421 C4.59189243,2.55153612 4.7983711,2.77193972 4.90857751,2.88750952 C5.01245021,2.99423792 5.14799143,3.02013061 5.28479938,3.0832835 C5.42604093,3.15275169 5.52294656,3.25695397 5.63441971,3.36936612 C5.79909595,3.53924742 5.97263937,3.54808882 6.2076197,3.57398151 C6.76245196,3.64029205 7.28244886,3.06370611 7.34008554,2.9917118 C7.40975626,2.90203469 7.54276399,2.77825501 7.58646653,2.6690005 C7.6529704,2.51301285 7.53706366,2.37597106 7.53136333,2.21051047 C7.525663,2.03115625 7.56999891,1.87706318 7.51869593,1.70844495 C7.46105924,1.52403849 7.29764974,1.08007363 7.23431273,1.01060544 C7.1393072,0.903877046 6.98413151,0.771255963 6.87455848,0.673368974 C6.64401174,0.459912184 6.3285934,0.420125859 6.07461197,0.217405061 C5.88016733,0.0588912909 5.68888954,-0.0358380538 5.43427474,0.0127896765 C5.18409353,0.0633119937 4.98014834,0.139726998 4.77556978,0.295714653" id="Fill-23"></path>
                    </g>
                    <path d="M109.499443,12.2913563 C109.300565,12.3292481 109.177691,12.3658767 109.012381,12.4846042 C108.962345,12.5193383 108.686829,12.6519594 108.617158,12.6854304 C108.328341,12.8161569 107.940719,13.3441151 107.938819,13.6756678 C107.936285,14.061532 108.045225,14.3861379 108.1871,14.7429518 C108.273238,14.9671446 108.344176,15.1982842 108.42208,15.4287922 C108.499985,15.6668786 108.860372,16.5207058 109.036449,16.5617552 C109.522878,16.6760619 110.118879,16.5870164 110.370327,16.296513 C110.657877,16.0079043 111.241844,15.6062519 111.502793,15.281646 C111.736506,14.9930372 111.623766,14.5610714 111.587031,14.2295187 C111.558529,13.9724864 111.459724,13.7249271 111.367251,13.4735786 C111.315948,13.3175909 110.739582,12.6083839 110.468499,12.4372395 C110.147381,12.2364133 109.917467,12.2136783 109.499443,12.2913563" id="Fill-25" fill="#FFFFFF"></path>
                    <path d="M113.204384,16.7707444 C113.260754,17.6700417 113.704747,18.0293816 113.816853,18.0944291 C114.010665,18.201789 114.809978,18.4139828 114.945519,18.4392439 C115.048125,18.4626105 115.635892,18.3912477 115.797402,18.3621974 C115.906975,18.3445146 115.913942,18.3501984 116.009581,18.28894 C116.100786,18.2295763 116.269896,18.0761148 116.337033,17.9984367 C116.419371,17.9030758 116.934935,16.8105307 116.836762,15.9927007 C116.758858,15.8063997 116.639151,15.7704025 116.428238,15.5468413 C116.220493,15.32328 116.162223,15.1622401 115.923442,15.0839305 C115.649826,14.9929904 115.379377,14.9108916 115.046858,14.8780521 C114.783376,14.8502648 114.757408,15.0201461 114.569297,15.0662477 C114.300748,15.1388736 114.16774,15.17045 113.954295,15.2973873 C113.704747,15.442639 113.189817,16.5459201 113.204384,16.7707444" id="Fill-26" fill="#FFFFFF"></path>
                    <polyline id="Fill-27" fill="#FFFFFF" points="118.145402 32.5739316 117.591837 32.5739316 117.591837 32.375 118.939015 32.375 118.939015 32.5739316 118.383549 32.5739316 118.383549 34.1900142 118.145402 34.1900142 118.145402 32.5739316"></polyline>
                    <path d="M120.930364,33.3917616 C120.91643,33.1397816 120.900596,32.8347531 120.900596,32.6080342 L120.894895,32.6080342 C120.829658,32.8195964 120.756821,33.0494729 120.664349,33.2982953 L120.34323,34.1811728 L120.165886,34.1811728 L119.868836,33.3147151 C119.782697,33.0557882 119.71176,32.8252802 119.66109,32.6080342 L119.65539,32.6080342 C119.64969,32.8366477 119.636389,33.1359924 119.620555,33.4119706 L119.571785,34.1900142 L119.346939,34.1900142 L119.474246,32.375 L119.77383,32.375 L120.084182,33.2515622 C120.160819,33.4763865 120.219723,33.6759497 120.267859,33.8635138 L120.274826,33.8635138 C120.322962,33.6810019 120.386299,33.4827018 120.468004,33.2515622 L120.791656,32.375 L121.091874,32.375 L121.205247,34.1900142 L120.973433,34.1900142 L120.930364,33.3917616" id="Fill-28" fill="#FFFFFF"></path>
                </g>
            </g>
        </g>
    </g>
</svg>