<?xml version="1.0" encoding="UTF-8" standalone="no"?>
<svg width="650px" height="275px" viewBox="0 0 650 275" version="1.1" xmlns="http://www.w3.org/2000/svg" xmlns:xlink="http://www.w3.org/1999/xlink">
    <!-- Generator: Sketch 40.1 (33804) - http://www.bohemiancoding.com/sketch -->
    <title>calm-thumb</title>
    <desc>Created with Sketch.</desc>
    <defs>
        <polygon id="path-1" points="0.28486998 19.4545455 44.3226601 19.4545455 44.3226601 0.456756638 0.28486998 0.456756638 0.28486998 19.4545455"></polygon>
    </defs>
    <g id="Page-1" stroke="none" stroke-width="1" fill="none" fill-rule="evenodd">
        <g id="calm-thumb">
            <g id="Page-1" transform="translate(53.000000, 31.000000)">
                <path d="M543.285554,184.054159 C543.31151,185.359775 543.337466,186.66431 543.364504,187.969926 C528.124934,190.493613 512.550095,185.356532 499.024719,177.898957 C482.315375,168.685068 467.378627,155.480835 458.637856,138.526199 C449.896003,121.572643 447.960099,100.640633 455.958953,83.3250071 C457.747773,84.0113202 457.307598,86.6268758 456.640305,88.4210172 C450.866118,103.924128 453.144862,121.741249 460.701379,136.458613 C468.257896,151.175977 480.689864,162.985967 494.645681,171.882098 C509.100075,181.095987 526.501586,187.551654 543.285554,184.054159" id="Fill-1" fill="#020302"></path>
                <path d="M543.263167,57.8111273 C535.360566,54.0369455 526.145012,53.6165111 517.558896,55.3501273 C508.973862,57.0837434 500.928503,60.8503596 493.302769,65.1584606 C489.379047,67.3741172 485.350419,69.943198 483.317179,73.9627232 C482.63799,75.3029253 482.198896,76.7793091 481.300161,77.9833293 C480.400344,79.1873495 478.834316,80.085501 477.408884,79.6088646 C477.125528,75.3342687 479.319914,71.1882889 482.371938,68.1793192 C485.423962,65.1703495 489.273059,63.1211374 493.094037,61.1800061 C502.402602,56.4493091 512.20758,52.017996 522.637672,51.5121778 C529.603683,51.1749657 536.519946,52.6102788 543.345361,54.0369455 C543.318324,55.2950061 543.290204,56.5530667 543.263167,57.8111273" id="Fill-3" fill="#020302"></path>
                <path d="M539.74512,137.084941 C539.209772,130.436891 538.674424,123.78884 538.139076,117.139709 C537.718368,111.922648 537.676189,105.78582 541.802153,102.560689 C532.349748,101.981376 522.896261,101.402063 513.443855,100.822749 C510.955299,100.670356 507.919497,100.800053 506.720102,102.984366 C506.16745,103.991679 506.176102,105.198941 506.197732,106.34676 L506.875839,141.874002 C506.894225,142.880234 507.39172,144.274477 508.360754,144.002113 C517.680134,141.384396 527.529454,140.671063 537.128945,141.917234 C538.17801,142.053416 539.154615,141.209305 539.532062,140.221446 C539.909509,139.233588 539.829478,138.138729 539.74512,137.084941 M543.924078,99.4576889 C542.684666,105.127608 541.438766,110.84184 541.332778,116.644699 C541.181366,124.933416 543.359529,133.151881 542.992897,141.433032 C542.905295,143.434689 541.918957,146.059972 539.936547,145.76383 C529.804953,144.247457 519.362965,144.834335 509.463895,147.474749 C507.592881,147.974083 505.19409,148.375063 504.067155,146.800325 C503.5264,146.04376 503.487466,145.049416 503.46908,144.11884 C503.197621,130.390416 502.926161,116.663073 502.654702,102.934648 C501.824102,103.01679 500.993501,103.097851 500.162901,103.179992 C499.361501,101.995426 500.497088,100.445547 501.682424,99.6425071 C505.810551,96.8475374 511.129422,96.6832545 516.114106,96.8043051 C525.431322,97.0312747 534.732317,97.9186182 543.924078,99.4576889" id="Fill-5" fill="#020302"></path>
                <path d="M100.26796,104.021077 C105.337002,111.220339 111.942871,117.176673 118.489256,123.065996 C123.568032,127.634572 128.646807,132.203147 133.724501,136.771723 C134.414505,137.392107 135.102346,138.549653 134.356103,139.101945 C123.761622,132.813804 114.141583,124.8904 105.939404,115.699208 C96.2382505,104.82844 88.4989583,92.1927131 77.7552286,82.3497939 C70.3230855,75.540703 60.8003817,68.7921374 60.3115388,58.7276525 C76.2097495,72.0248343 92.1079602,85.3220162 108.005089,98.619198 C106.784064,99.503299 105.091499,99.6902788 103.705002,99.0958343 C108.188946,104.603632 112.399268,110.334077 116.315419,116.259067 C114.596899,117.425259 112.521479,115.433329 111.378322,113.699713 C100.543746,97.2768343 86.7025686,82.8426424 70.7459563,71.3266323 C81.2431014,81.6256525 91.8029742,91.9981677 100.26796,104.021077" id="Fill-7" fill="#020302"></path>
                <path d="M346.162125,108.14544 C345.789004,112.96044 345.455898,118.019703 347.473998,122.407784 C350.337839,128.633238 357.188129,131.946996 363.762634,133.890289 C367.068813,134.867339 370.491795,135.63039 373.936407,135.476915 C380.191866,135.196986 386.214801,131.687602 389.539365,126.386238 C392.865012,121.084875 393.399278,114.13744 390.924781,108.389703 C389.573974,105.254279 387.401218,102.506865 384.817489,100.273915 C375.572733,92.283501 360.745218,91.6760869 350.876431,98.8829152 C351.825998,98.9520869 352.29321,100.175562 352.026077,101.088844 C351.758944,102.002127 351.037576,102.696006 350.471946,103.461218 C349.050841,105.387218 348.582546,107.982238 349.24335,110.282198 C347.868749,110.671289 346.278928,109.568865 346.162125,108.14544 M351.41935,131.744885 C347.355031,128.478683 343.870403,124.204087 342.654785,119.135097 C341.39158,113.861834 342.683986,108.350794 343.974228,103.084016 C344.1689,102.28638 344.410077,101.418491 345.082777,100.946178 C345.755477,100.473865 346.961361,100.786218 346.984073,101.607632 C348.29919,95.2384303 354.952646,91.2826727 361.375739,90.2364505 C372.857059,88.3666525 385.203588,93.8344606 391.530427,103.589834 C394.980447,108.910653 396.689234,115.526279 395.347079,121.722552 C393.44362,130.503036 385.424216,137.276461 376.578538,138.876057 C367.731779,140.475653 358.425377,137.375895 351.41935,131.744885" id="Fill-9" fill="#020302"></path>
                <path d="M418.056213,128.069273 C422.301144,127.16896 426.003155,130.998263 428.287307,134.68598 C429.540778,136.709253 430.688261,138.87303 430.99541,141.233515 C431.301478,143.592919 430.622289,146.20199 428.761008,147.68702 C427.335577,148.825111 425.432118,149.165566 423.60869,149.240141 C413.192658,149.667061 403.398495,142.201919 399.473692,132.550303 C395.548889,122.898687 396.906185,111.647475 401.432309,102.262818 C402.544102,99.9574545 403.880849,97.6877576 405.863259,96.0687071 C407.534193,94.7036465 409.569597,93.8768283 411.571474,93.0694646 C412.93634,92.5193333 414.439641,91.9616364 415.84236,92.4058485 C417.24508,92.8511414 418.16869,94.8268586 417.104483,95.8417374 C416.419887,96.4956263 415.350273,96.4178081 414.403951,96.457798 C409.139155,96.6782828 405.338726,101.604606 403.262225,106.445545 C399.838161,114.427313 399.029191,123.781707 402.401342,131.785091 C405.773493,139.788475 413.7518,146.024737 422.44174,146.059323 C424.356014,146.066889 426.526607,145.630242 427.524841,143.998222 C428.664754,142.134909 427.70978,139.722545 426.585008,137.849505 C425.144436,135.44903 423.217183,133.058283 420.496102,132.392505 C417.776102,131.727808 414.357446,133.781343 414.680817,136.561182 C414.877652,138.245081 411.82671,138.398556 411.178885,136.831384 C410.53106,135.265293 411.516317,133.526273 412.55673,132.188232 C413.994058,130.342212 415.767736,128.554556 418.056213,128.069273" id="Fill-11" fill="#020302"></path>
                <path d="M154.519469,121.512551 C147.443143,111.267571 139.202029,101.827793 130.00486,93.4331566 C126.214165,89.9724091 122.264487,86.6910758 118.342928,83.3794798 C104.256248,71.4830253 90.5188962,59.1747828 77.1525026,46.4763687 C78.1074767,45.1642677 80.1623475,46.1499646 81.3985145,47.2005101 C89.0675085,53.7123788 96.7365026,60.2242475 104.405497,66.737197 C126.313664,85.3400657 148.589544,104.364449 163.723127,128.791793 C159.654483,128.6675 156.831739,124.859813 154.519469,121.512551" id="Fill-13" fill="#020302"></path>
                <path d="M91.2391825,97.6377162 C92.0081368,98.2937667 92.8225145,99.4415848 92.1325105,100.178696 C91.4749519,100.88014 90.3242243,100.254353 89.6006934,99.6220798 C85.9354529,96.4239687 82.2702123,93.2269384 78.6060533,90.0288273 C78.1712859,94.1304939 82.3437551,97.0130091 85.7699817,99.3129687 C94.9520095,105.477898 102.202459,114.053029 109.32529,122.512514 C109.977441,123.287454 110.669608,124.17912 110.583087,125.188595 C110.495485,126.19807 109.092765,127.003272 108.439532,126.227252 C100.581274,115.728282 90.9774569,106.536009 80.1417988,99.1443626 C75.3258306,95.8587061 75.3734171,88.4594939 71.2258227,84.3653929 C69.3699499,82.5334232 66.4541964,80.4896152 67.5194847,78.1096758 C68.5220453,78.2555848 69.3494012,78.9408172 70.119437,79.5979485 C77.1589917,85.6115646 84.1996278,91.6241 91.2391825,97.6377162" id="Fill-15" fill="#020302"></path>
                <path d="M321.908052,53.2432 C323.184235,53.7976545 324.670231,54.6547354 324.656172,56.0446545 C321.452736,56.6261293 318.26985,55.2459374 315.164832,54.2699677 C312.058732,53.2929172 308.359965,52.8043919 305.813007,54.8309071 C303.86845,56.3786242 303.129778,59.1109071 303.528856,61.5632606 C303.929015,64.0156141 305.31443,66.2107354 306.97455,68.059998 C312.193921,73.8758263 320.525882,76.7194323 328.215424,75.3111394 C329.328299,75.1068667 329.875544,76.884796 329.124975,77.7310687 C328.374406,78.5773414 327.104713,78.6616444 325.973452,78.6843414 C322.62942,78.7513515 319.210764,78.8086343 316.030041,77.774301 C314.422915,77.2522707 312.917452,76.4632808 311.446597,75.6321394 C307.353078,73.3202909 303.326613,70.5112707 300.978653,66.4409475 C298.631774,62.3695434 298.399249,56.7644727 301.537794,53.2648162 C303.967949,50.5552303 307.910056,49.6170889 311.535281,49.9715939 C315.159424,50.3250182 318.568347,51.7927556 321.908052,53.2432" id="Fill-17" fill="#020302"></path>
                <path d="M162.92389,48.262296 C162.893608,48.7627101 162.863326,49.2631242 162.833043,49.7635384 C172.304916,56.6104576 177.523206,67.9524576 186.301831,75.6661848 C189.550689,78.520599 191.290841,82.6730636 192.926085,86.675296 C193.911342,89.0844172 194.895517,91.4935384 195.879691,93.9026596 C196.70164,95.9129626 197.526833,98.1891444 196.681091,100.18972 C194.389369,100.546387 193.425743,97.4477101 192.930411,95.1834172 C192.067365,91.2363061 189.938952,87.694498 187.730507,84.3104879 C179.830069,72.2097606 170.452288,61.0752758 159.869703,51.2312758 C158.389115,49.8543263 158.723302,47.0550333 160.478594,46.0520434 C162.234968,45.0501343 164.806801,46.1676899 165.283747,48.1315182 C164.497489,48.1747505 163.710149,48.2190636 162.92389,48.262296" id="Fill-19" fill="#020302"></path>
                <path d="M179.166454,142.425106 C179.000983,141.909561 178.208235,141.749601 177.855663,142.161389 C177.945428,143.118985 178.034112,144.0755 178.122796,145.032015 C178.950152,144.452702 179.432506,143.416207 179.344903,142.409975 L179.166454,142.425106 Z M78.2225495,36.7988131 C77.1702394,37.4062273 76.6900485,38.843702 77.1680763,39.9601768 C78.2549948,37.9552778 82.520474,39.7126717 83.0763706,37.5024192 C83.3391777,36.456197 82.2252215,35.4780657 81.1469551,35.447803 C80.0686887,35.4186212 79.0866767,36.0206313 78.1782076,36.6010253 L78.2225495,36.7988131 Z M176.717913,36.2584091 C178.407233,38.1130758 180.724911,39.3873485 183.197245,39.8207525 C183.992156,39.959096 185.063933,39.8358838 185.236975,39.0479747 C183.174534,36.6874899 179.779671,35.5753384 176.717913,36.2584091 L176.717913,36.2584091 Z M74.7335952,34.558298 C68.8501757,37.8450354 64.2418577,43.3474293 62.0409829,49.7144697 C61.8733487,50.2008333 61.7165296,50.7282677 61.8592891,51.2232778 C62.1740087,52.3159747 63.7897861,52.5040354 64.6993368,51.8198838 C65.607806,51.1357323 65.9733567,49.9641364 66.2869948,48.8714394 L81.3578497,60.8640859 C81.7255634,61.155904 82.1159889,61.4866313 82.2100803,61.9459747 C82.5388596,63.5574596 79.7637026,63.318601 78.4788676,62.2896717 C74.7952414,59.3412273 71.1105336,56.391702 67.4269074,53.4421768 C66.5660247,53.9296212 65.7062235,54.4159848 64.8453408,54.9034293 C73.8683865,62.0410859 81.9050942,70.4216717 88.6558855,79.7360758 C77.4817145,71.8764394 68.1201559,61.7622374 58.8505256,51.729096 C58.5736588,53.451904 58.2978736,55.1747121 58.0210068,56.8975202 C57.5570386,64.4048131 58.4806489,71.9953283 60.7323547,79.1718939 C62.2724262,84.0820051 64.424633,88.7889242 66.9607761,93.2667121 C76.3601877,109.86252 91.2104143,123.316419 108.656267,131.039874 C125.564609,143.83448 141.29086,158.187611 155.570049,173.859328 C152.567774,174.640753 149.760172,172.228389 147.593905,170.008409 C137.210319,159.36353 126.831058,148.573823 114.721381,139.939247 C105.130542,133.099894 94.5468755,127.683965 85.3010386,120.386348 C72.5986926,110.360773 62.6801559,96.8495909 56.9243547,81.7312475 C55.3064143,77.4815101 54.0075197,73.0891061 53.4235038,68.5799747 C52.3452374,60.2501869 53.7858099,51.6123687 57.5105336,44.0834596 C59.6389471,39.7807626 62.6358139,35.7158434 66.8547881,33.4223687 C72.8117503,30.1853485 80.1692692,30.9948737 86.6442751,33.0073384 C105.725373,38.9398939 120.75513,54.2246818 130.69746,71.5478737 C137.704569,53.8528838 151.685261,37.8796212 170.162876,33.2786212 C176.475655,31.7071263 184.254963,32.0129949 188.094327,37.261399 C192.581516,43.3949848 197.825762,48.9741162 203.670247,53.8345101 C201.383933,48.6866212 197.481842,44.2704394 192.655058,41.3641465 C190.663997,40.1655303 188.335504,37.3543485 190.301691,36.1168232 C198.509277,41.8007929 207.149468,48.4866717 209.512569,58.182601 C210.75847,63.2915808 210.076037,68.6556313 209.184872,73.8370253 C204.170987,102.984258 192.637754,130.993399 175.673174,155.225116 C172.906669,159.17547 169.571289,163.309561 164.84076,164.256348 C166.139655,152.490672 158.654518,141.751763 151.542502,132.286045 C160.919202,138.36451 167.25253,148.905631 168.213993,160.032551 C170.915607,155.64447 173.617221,151.256389 176.318836,146.868308 C175.639647,141.834985 172.638454,137.161571 168.341611,134.447662 C167.116259,132.993975 166.95944,130.736167 167.973897,129.127924 C168.938605,131.727268 171.460689,134.905924 173.76647,133.364692 C175.787814,132.014763 174.592744,128.895551 173.29385,126.843096 C171.993874,124.790641 171.078915,121.483369 173.271138,120.433904 C176.757929,124.956005 180.238231,131.568389 176.428068,135.821369 C177.237039,137.564712 179.182677,138.709288 181.100196,138.572025 C183.024204,135.59548 184.948212,132.620015 186.873301,129.64347 C187.951567,127.975783 189.048219,126.265944 189.502454,124.332379 C189.973993,122.322076 189.715512,120.215581 189.346717,118.182581 C185.058526,94.5939444 166.885897,76.1391465 148.249301,61.0413384 C147.481428,60.4187929 148.191981,59.0342778 149.168585,58.880803 C150.14519,58.7273283 151.065555,59.3282576 151.864792,59.9097323 C171.10379,73.9105202 185.780975,94.0708333 193.189325,116.673773 C192.716705,114.758581 193.058462,112.655328 194.11618,110.988722 C186.572641,89.7270657 172.684959,70.757803 154.691862,57.1363788 C153.679567,56.3700859 152.587241,55.5238131 152.275766,54.2938535 C151.96321,53.0638939 153.003623,51.4848333 154.227893,51.8231263 C154.582629,51.920399 154.881126,52.1560152 155.167726,52.3862273 C173.288442,66.9771364 187.604402,86.244702 196.339766,107.799258 C194.927313,104.957813 198.00313,101.992076 198.677993,98.8912374 C199.025158,97.2916414 198.708275,95.6293586 198.331909,94.0373283 C197.221198,89.3336515 195.591361,84.7521061 193.482414,80.4029343 C189.654947,72.5119545 184.260371,65.4218535 177.936776,59.3423081 C174.972355,56.4922172 171.538557,53.2768131 171.681317,49.1686616 C181.355432,57.9848131 189.789054,68.1595404 196.655567,79.3005101 C198.301627,78.3937121 199.103027,76.2029141 198.428164,74.4498434 C201.522367,75.437702 201.113555,79.9068434 200.079631,82.9849848 C199.045707,86.0620455 198.688808,90.5517222 201.800315,91.4833788 C201.094088,87.8270051 201.86845,83.9069141 203.911424,80.7920253 C205.174629,78.8660253 205.127043,76.1694091 203.796784,74.288803 C205.527202,75.0486111 206.611957,72.3271364 206.429182,70.4476111 C205.499082,60.8640859 199.997436,51.8252879 191.909897,46.5920152 C196.987591,52.8282778 202.242653,59.443904 203.611846,67.3651465 C203.678899,67.7499141 203.735138,68.1519747 203.620498,68.5259343 C203.22142,69.8369545 201.101659,69.6445707 200.316482,68.5205303 C199.531305,67.3954091 199.603766,65.9136212 199.455599,64.5507222 C198.508196,55.8577828 188.009969,50.5110253 187.211814,41.8040354 C185.473826,44.1158838 181.435464,44.0726515 179.747225,41.7240556 C179.019369,42.2006919 179.620689,43.3182475 180.246883,43.9213384 C183.57253,47.1194495 186.897094,50.3164798 190.22274,53.5145909 C184.447472,53.7199444 178.714383,50.1565202 176.344792,44.8886616 C176.183647,42.1250354 175.632076,39.3851869 174.711711,36.7750354 C161.196068,40.443298 149.411925,50.0570859 143.109961,62.5566313 C146.331782,62.9403182 149.385969,64.5853081 151.477611,67.063601 C150.176553,67.1338535 148.875496,67.2030253 147.573357,67.272197 C166.567933,81.5907424 181.101277,101.734843 188.695647,124.268611 C186.167074,124.384258 184.671345,121.564429 183.728267,119.217995 C174.778764,96.967399 158.636132,77.6717323 138.310216,64.9257626 C137.388768,69.7418434 136.494359,74.5633283 135.625905,79.3902172 C135.270088,81.368096 134.925086,83.4518939 135.586971,85.3497929 C136.217492,87.156904 137.669961,88.5338535 139.058621,89.8502778 C149.634717,99.879096 159.421309,110.737975 168.299432,122.296136 C169.312808,123.614722 170.18775,125.799035 168.766645,126.664763 C156.04375,112.815288 143.320856,98.9647323 130.597961,85.1152576 C118.098939,71.5078838 104.933707,58.4506414 90.4382155,46.9897525 C91.6257145,45.5836212 93.8936429,46.6341667 95.3515197,47.7592879 C108.261516,57.7275808 120.181929,68.9755505 130.881317,81.2827121 C132.30783,79.0605707 133.179528,76.4850051 133.394748,73.8532374 C131.963909,75.1685808 130.531989,76.4839242 129.10115,77.7992677 C122.001031,61.1721162 109.060752,47.1043182 93.0781837,38.6372677 C90.4133408,37.2257323 86.2971101,36.4118838 85.0771658,39.1690253 C83.8756072,41.8840152 80.3044581,43.258803 77.5909471,42.048298 C74.8774362,40.8388737 73.5147324,37.2657222 74.7335952,34.558298 L74.7335952,34.558298 Z" id="Fill-21" fill="#020302"></path>
                <path d="M92.1485169,66.8236616 C85.2300915,61.1386111 78.3127475,55.4535606 71.3943221,49.7674293 C68.2319841,47.1691667 69.0961113,42.1434091 70.6740358,38.3681465 C70.8243658,38.010399 70.9930815,37.6342778 71.3132087,37.4137929 C72.5666799,36.5556313 73.6265606,38.7529141 73.5843817,40.2703687 C73.5205726,42.5195303 73.4567634,44.7676111 73.3940358,47.0167727 C80.8964771,53.4054293 88.3091531,59.9010859 95.6288191,66.4983384 C104.075419,74.1115505 112.478759,81.9549747 118.803435,91.4023182 C113.361272,90.7224899 110.119984,85.2514394 106.797583,80.8914596 C102.685678,75.493904 97.3916819,71.1328434 92.1485169,66.8236616" id="Fill-23" fill="#020302"></path>
                <path d="M104.351205,84.7674535 C109.002783,87.3862515 113.50295,90.2752515 117.820342,93.414999 C129.077789,101.599959 139.023364,111.425585 148.92027,121.211221 C152.972692,125.217777 157.025113,129.224332 161.077535,133.230888 C158.905861,134.624049 156.172883,132.711019 154.33864,130.897423 C139.408382,116.134666 125.290338,99.8198677 106.611563,90.2212111 C105.500851,89.6494636 104.318759,89.0528576 103.664445,87.9882616 C103.011213,86.9247465 103.197233,85.2451707 104.351205,84.7674535" id="Fill-25" fill="#020302"></path>
                <path d="M336.884059,90.0548747 C339.574858,92.2737737 339.694906,96.2695212 339.701395,99.7562081 C339.731677,116.526026 342.254842,133.179117 344.770437,149.758713 C344.955375,150.975703 343.01947,151.524754 342.103431,150.703339 C341.186309,149.883006 341.084647,148.51038 341.020838,147.281501 C340.085331,129.339006 333.450262,111.619158 335.822015,93.8074404 C335.993975,92.5104707 336.2265,91.1864808 336.884059,90.0548747" id="Fill-27" fill="#020302"></path>
                <path d="M365.663606,163.052112 C364.532345,161.561678 363.148011,160.187971 361.405697,159.5049 C359.663383,158.82291 357.510095,158.959092 356.123598,160.214991 C357.075327,163.561173 357.696115,167.001385 357.974063,170.469698 C359.955391,170.600476 362.016751,170.718284 363.853156,169.964961 C365.68848,169.211637 367.214492,167.305092 366.846779,165.356395 C366.685633,164.499314 366.190301,163.745991 365.663606,163.052112 M358.532122,185.569668 C357.587963,186.140334 356.285824,186.683981 355.483343,185.926334 C354.899327,185.372961 354.963136,184.444546 355.052902,183.645829 C355.894317,176.094223 354.988011,168.354557 352.423749,161.201769 C351.901379,159.742678 352.576242,158.041486 353.765904,157.048223 C354.954484,156.05388 356.554039,155.674516 358.103844,155.634526 C364.741077,155.461597 370.756441,161.921587 370.106452,168.524243 C369.877172,170.845819 367.617896,172.460546 365.374842,173.109031 C363.13287,173.757516 360.729753,173.770486 358.534285,174.563799 C358.533204,178.232062 358.533204,181.901405 358.532122,185.569668" id="Fill-29" fill="#020302"></path>
                <g id="Group-33" transform="translate(0.000000, 0.300465)" fill="#020302">
                    <path d="M20.9707133,2.12119394 C25.5119777,0.497820202 30.5647968,0.343264646 35.1969082,1.68562828 C36.3800811,2.02932525 37.7860453,3.29387071 36.9522004,4.20174949 C29.4302918,2.52649697 21.1534887,4.71297172 15.4431109,9.88355758 C13.2573773,11.8625172 11.4534171,14.2219212 9.72732565,16.6126687 C6.86889225,20.5727495 4.05696382,25.3477596 5.33530974,30.0611636 C5.81117455,31.816396 3.08035944,33.0160929 1.60950457,31.9439313 C0.138649702,30.8717697 -0.114423857,28.7836485 0.0391506958,26.9700525 C0.556112922,20.8818606 4.14564771,15.4626889 8.33542107,11.013002 C11.8989996,7.22801212 16.0747133,3.87102222 20.9707133,2.12119394" id="Fill-31"></path>
                </g>
                <path d="M113.742181,96.072598 C121.590705,101.578234 128.481012,108.336527 134.944121,115.41582 C144.78587,126.193638 153.726721,137.793952 161.643381,150.053558 C161.660685,150.99278 160.423437,151.525618 159.544169,151.197053 C158.663819,150.867406 158.101433,150.025457 157.592041,149.236467 C146.076113,131.360982 132.035938,115.112113 116.018761,101.119972 C114.514379,99.8067899 112.8402,97.8537697 113.742181,96.072598" id="Fill-34" fill="#020302"></path>
                <path d="M400.944223,183.241175 C400.385082,184.106902 399.026704,184.085286 398.19394,183.477872 C397.361177,182.870458 396.916676,181.880437 396.479746,180.946619 C394.184779,176.044074 391.123022,171.500357 387.438314,167.53271 C387.402624,169.474922 387.366934,171.417134 387.330163,173.359346 C387.31394,174.26074 387.031666,175.451791 386.129686,175.479892 C385.614887,175.496104 385.200668,175.082155 384.863237,174.694144 C382.704541,172.207205 380.862728,169.44466 379.396199,166.496215 C378.988469,171.003185 378.58074,175.510155 378.174091,180.017124 C378.049718,181.390831 377.903714,182.830468 377.138004,183.979367 C376.373376,185.128266 374.774903,185.850245 373.566855,185.181225 C374.374744,180.217074 375.182632,175.252922 375.989439,170.289852 C376.34093,168.128235 376.692421,165.966619 377.043913,163.805003 C377.18559,162.938195 377.498147,161.884407 378.361193,161.722286 C379.049034,161.592589 379.666577,162.130831 380.140278,162.644215 C381.934505,164.587508 383.443213,166.793437 384.602592,169.169054 C384.50093,168.04069 384.404676,166.868013 384.797264,165.805579 C385.189853,164.742064 386.220533,163.824458 387.347467,163.949831 C388.160763,164.040619 388.819404,164.627498 389.403419,165.199245 C394.544922,170.241215 398.523801,176.461266 400.944223,183.241175" id="Fill-36" fill="#020302"></path>
                <g id="Group-40" transform="translate(151.411531, 193.765111)">
                    <mask id="mask-2" fill="white">
                        <use xlink:href="#path-1"></use>
                    </mask>
                    <g id="Clip-39"></g>
                    <path d="M33.2504048,11.7035303 C35.3225797,10.6129949 37.3385161,9.26306566 38.6493074,7.32301515 C39.9600986,5.38296465 40.4381264,2.74579293 39.3501264,0.67280303 C40.7679873,0.0794393939 42.5048938,0.767914141 43.406874,2.01084343 C44.3088541,3.25485354 44.4786513,4.91173232 44.200703,6.42162121 C43.2132835,11.7802677 37.5699594,14.8086919 32.436027,16.6406616 C29.0292676,17.8554899 25.5349058,18.8941465 21.9378004,19.2778333 C14.7338561,20.0473687 7.53964533,18.1678434 0.53902505,16.3045303 C0.453585686,15.6074091 0.369227833,14.9092071 0.28486998,14.2120859 C4.42597535,13.7678737 8.53896143,15.0010758 12.6735777,15.4982475 C19.7044803,16.3445202 26.9841304,15.0021566 33.2504048,11.7035303" id="Fill-38" fill="#020302" mask="url(#mask-2)"></path>
                </g>
                <path d="M138.42107,66.4021465 C153.986176,79.2680859 167.780848,94.269702 179.295695,110.853621 C180.057078,111.949561 180.291766,114.096045 178.959345,114.020389 C178.414263,113.989045 178.029245,113.495116 177.716689,113.047662 C167.455313,98.3227323 155.173675,85.0039343 141.322764,73.5830354 C140.213134,72.6675909 139.065651,71.7316111 138.369158,70.4724697 C137.672665,69.2144091 137.530987,67.5326717 138.42107,66.4021465" id="Fill-41" fill="#020302"></path>
                <path d="M171.342912,115.387395 C169.170157,116.354718 166.842745,114.507617 165.202093,112.78589 C157.050745,104.229132 149.465027,95.0703646 140.403047,87.4841727 C139.454562,86.6897788 138.427127,85.8121626 138.198928,84.5962535 C137.971811,83.3814253 139.13119,81.9180111 140.278674,82.3827586 C140.539318,82.4886778 140.758864,82.6756576 140.971922,82.8593949 C152.212065,92.5845061 162.412876,103.508233 171.342912,115.387395" id="Fill-43" fill="#020302"></path>
                <path d="M22.6779865,39.4801899 C21.7132787,36.844099 23.0835531,33.9702303 24.5208811,31.5578667 C27.7848811,26.0781697 31.7313145,20.7930182 37.1583364,17.4392707 C40.3671793,15.4570687 44.640229,14.2660182 47.8166266,16.300099 C48.1151237,16.491402 48.4190282,16.7421495 48.4817559,17.0912505 C48.6169447,17.8553818 47.6122211,18.2455535 46.8497559,18.3936242 C38.4182966,20.0342909 32.7046744,27.7350485 28.2239746,35.058604 C26.9250799,37.1813111 25.1654616,39.6023212 22.6779865,39.4801899" id="Fill-45" fill="#020302"></path>
                <path d="M214.78818,15.1917303 C213.738033,15.6154071 212.925818,16.4800535 211.916768,16.9923566 C210.906637,17.5046596 209.440108,17.5111444 208.877722,16.5286899 C208.322907,13.8558515 210.784426,11.2705586 213.47847,10.8220232 C216.173595,10.3745687 218.881699,11.5202253 221.20154,12.9609424 C228.656394,17.5911242 233.856299,25.6809727 234.970255,34.3825586 C232.958645,35.2558515 231.193619,32.8056596 230.252705,30.8267 C228.170796,26.4483465 225.513524,22.3434374 222.372816,18.6503162 C220.444482,16.3827808 217.550359,14.078498 214.78818,15.1917303" id="Fill-47" fill="#020302"></path>
                <path d="M342.986917,188.018238 C341.883776,188.233319 340.649772,188.099299 339.794297,187.371915 C338.938821,186.643451 338.642487,185.227592 339.363855,184.366188 C340.928802,184.601804 342.611633,183.823622 343.401136,182.454238 C344.190639,181.083774 344.000293,179.204248 342.914456,178.054269 C342.057899,177.147471 340.807672,176.751895 339.713183,176.153127 C338.617613,175.55436 337.557732,174.52543 337.644253,173.28142 C337.769708,171.499168 340.142543,170.406471 340.048452,168.622057 C339.980317,167.352107 338.575434,166.495026 337.303577,166.547986 C336.030639,166.602026 334.888563,167.301309 333.811378,167.978976 C332.900746,168.551804 331.990114,169.125713 331.079482,169.698541 C330.111529,169.264057 329.704881,168.021127 329.959036,166.991117 C330.213191,165.961107 330.979983,165.132127 331.823561,164.489046 C333.902225,162.904582 336.74011,162.198814 339.217851,163.034279 C341.695593,163.870824 343.605541,166.413966 343.336245,169.01439 C343.241072,169.9374 342.893907,170.827986 342.865788,171.7564 C342.76737,174.982612 346.300666,177.083703 347.424356,180.108885 C348.621589,183.330774 346.362313,187.358945 342.986917,188.018238" id="Fill-49" fill="#020302"></path>
                <path d="M138.35618,76.8161646 C137.688887,76.1860535 138.481635,74.9593364 139.398756,74.9236697 C140.315878,74.8890838 141.094565,75.5505384 141.768347,76.1741646 C153.234526,86.7887808 164.209699,97.9967606 173.720506,110.392548 C174.200697,111.019417 174.702518,111.725185 174.65385,112.513094 C174.605182,113.301003 173.665349,114.026225 173.018605,113.572286 C169.206279,108.53572 164.967838,103.837447 160.651528,99.2245586 C153.450828,91.5302859 146.014359,84.0554172 138.35618,76.8161646" id="Fill-51" fill="#020302"></path>
                <path d="M159.386917,172.543553 C158.292428,173.334704 156.674487,172.565169 155.949875,171.424916 C155.225263,170.284664 155.059792,168.887179 154.57203,167.628037 C153.846336,165.757159 152.433883,164.249431 151.054957,162.791421 C147.379983,158.906997 143.703927,155.022573 140.028953,151.138148 C137.952452,148.944108 135.827283,146.674411 134.72306,143.863229 C135.451998,142.916441 136.94232,143.714078 137.803203,144.541977 C145.305645,151.757452 152.300857,159.498199 158.720706,167.689643 C159.853048,169.134684 160.875076,171.467068 159.386917,172.543553" id="Fill-53" fill="#020302"></path>
                <path d="M133.394856,128.884959 C134.977107,130.325676 135.985075,132.277615 137.32723,133.944221 C139.010061,136.034504 141.193632,137.651393 143.265807,139.356908 C150.750944,145.521837 157.02587,153.150181 161.628781,161.68208 C162.218204,162.773696 162.793568,164.05013 162.354475,165.209837 C161.9143,166.369544 159.911342,166.743504 159.533894,165.562181 C156.687357,156.661726 149.947381,149.635393 143.417218,142.949514 C141.852272,141.346676 139.434014,139.638999 137.612749,140.945696 C136.418761,136.638676 133.880455,132.714262 130.442332,129.856605 C129.802077,129.324847 130.344996,128.153252 131.162618,127.990049 C131.979159,127.825767 132.779477,128.324019 133.394856,128.884959" id="Fill-55" fill="#020302"></path>
                <path d="M180.865616,180.942836 C181.637815,181.695079 181.632407,182.992048 181.130586,183.945321 C180.628765,184.898594 179.739763,185.580584 178.85725,186.199887 C171.85663,191.104594 163.000137,194.003321 154.664932,192.10218 C153.935994,191.794149 154.059286,190.614988 154.698459,190.148079 C155.337632,189.682251 156.197433,189.70819 156.989099,189.718998 C163.749624,189.810867 170.509067,187.200715 175.450491,182.588907 C176.984073,181.156836 179.361234,179.479422 180.865616,180.942836" id="Fill-57" fill="#020302"></path>
                <path d="M145.533951,114.958314 C144.496783,115.682456 143.118938,114.799435 142.187757,113.943435 C134.313276,106.706344 127.322389,98.5105768 121.418421,89.5949909 C122.373395,88.6514455 123.941586,89.6241727 124.884663,90.5796071 C132.367637,98.171203 139.277411,106.329142 145.533951,114.958314" id="Fill-59" fill="#020302"></path>
                <path d="M209.488776,26.2065697 C206.166375,23.1619333 200.691766,22.8052667 197.001651,25.3927212 C195.886613,26.1741455 194.613675,27.2473879 193.342899,26.7556202 C192.082939,26.2670949 191.867718,24.4221556 192.626939,23.3056808 C193.385078,22.1881253 194.741293,21.6563677 196.038025,21.2759232 C199.982295,20.1183778 204.28779,19.7919737 208.17474,21.1321758 C212.061691,22.4734586 215.434923,25.6823778 216.256872,29.7083879 C215.048824,30.3536303 213.516323,29.8986101 212.416426,29.0815192 C211.317611,28.2644283 210.498907,27.1317414 209.488776,26.2065697" id="Fill-61" fill="#020302"></path>
                <path d="M92.455666,42.3525455 C92.8882704,41.195 94.6219324,41.6154343 95.6785686,42.2574343 C99.6314911,44.6568283 103.436247,47.299404 107.065797,50.1646263 C111.276119,53.4891919 115.288525,57.1585354 118.292962,61.6006566 C118.419499,61.7887172 118.54928,61.9919091 118.552525,62.2188788 C118.565503,63.1267576 117.104382,62.8587172 116.406807,62.2783232 C108.423093,55.6356768 100.43938,48.9941111 92.455666,42.3525455" id="Fill-63" fill="#020302"></path>
                <path d="M384.147168,68.9112424 C384.207733,69.5089293 384.268297,70.1066162 384.328862,70.704303 C385.831081,70.8458889 386.740631,68.4691919 385.527176,67.573202 C385.084838,68.0174141 384.641419,68.4616263 384.197999,68.9069192 L384.147168,68.9112424 Z M380.660377,67.7958485 C381.553705,64.8020101 385.825673,63.4855859 388.251502,65.4569798 C390.677331,67.4272929 390.258786,71.8748182 387.507423,73.3598485 C389.113466,73.1220707 390.795216,74.3401414 391.068838,75.9397374 C387.675057,77.1632121 383.525299,75.7668081 381.562357,72.7416263 C380.620361,71.2911818 380.166126,69.4527273 380.660377,67.7958485 L380.660377,67.7958485 Z" id="Fill-65" fill="#020302"></path>
                <path d="M342.203579,70.2956495 C343.183427,70.3950838 344.213026,70.4372354 345.109598,70.0319323 C346.007252,69.6266293 346.714561,68.6430939 346.491769,67.6844172 C346.293853,66.8392253 347.165551,66.0080838 348.032922,66.0469929 C348.900294,66.0848212 349.631396,66.7830232 349.952604,67.5893061 C350.77996,69.6568919 349.220421,72.0573667 347.181773,72.9576798 C345.143125,73.8569121 342.810306,73.6612859 340.591046,73.4472859 C338.172787,73.2149121 335.556612,72.8960737 333.805646,71.2121747 C332.199602,69.6687808 331.702107,67.0867303 332.62031,65.0580535 C333.023714,64.1663869 333.72994,63.3503768 334.677344,63.1017909 C335.623666,62.8532051 336.787372,63.3590232 337.019897,64.3101343 C337.413567,65.9248616 335.159698,67.6087606 336.072493,68.9986798 C338.061392,69.6482455 340.12167,70.0848919 342.203579,70.2956495" id="Fill-67" fill="#020302"></path>
                <path d="M414.025638,71.1217111 C414.028883,70.5445596 414.031046,69.9663273 414.03429,69.3891758 C415.434847,69.1546404 416.855952,69.0379131 418.275976,69.0400747 C417.146879,66.5466505 415.641416,64.2239939 413.82664,62.173701 C413.129066,61.3868727 412.369845,60.6130141 411.979419,59.6370444 C411.588994,58.6599939 411.67227,57.4008525 412.483404,56.7318323 C416.549885,59.1258222 419.670044,63.080499 421.050052,67.5907111 C421.422091,68.807701 423.012994,69.0303475 424.283769,69.123297 C425.553463,69.2151657 427.160588,69.7631354 427.163833,71.0363273 C425.375014,73.1309333 422.094791,72.7645394 419.394258,72.2144081 L414.025638,71.1217111 Z" id="Fill-69" fill="#020302"></path>
                <path d="M102.289412,89.243296 C100.560076,88.2208515 99.1724978,86.7217707 97.8108755,85.2453869 C92.5915038,79.5841141 87.372132,73.9228414 82.1538417,68.2615687 C81.8931976,67.9794778 81.6195753,67.6649626 81.6011897,67.2823566 C81.5698258,66.6176596 82.3733885,66.1691242 83.0266211,66.2988212 C83.6787722,66.429599 84.1838378,66.9310939 84.6467245,67.4088111 C89.5394799,72.4594273 94.4333169,77.5111242 99.3260724,82.5628212 C101.110565,84.4045182 103.041062,86.793104 102.289412,89.243296" id="Fill-71" fill="#020302"></path>
                <path d="M371.367386,75.9501131 C369.132984,73.4437192 368.677668,69.5095778 370.282631,66.5611333 C371.887593,63.6126889 375.439275,61.8552949 378.759513,62.3686788 C379.118575,62.4238 379.498185,62.5156687 379.748014,62.7804667 C380.248754,63.3089818 379.935116,64.2363152 379.347855,64.6675576 C378.761676,65.0998808 378.006782,65.2068808 377.312452,65.425204 C375.012078,66.1504263 373.241645,68.3260929 373.001549,70.7244061 C372.760372,73.1227192 374.062511,75.6064162 376.173621,76.7736889 C374.97747,78.1798202 372.595983,77.3281434 371.367386,75.9501131 L371.367386,75.9501131 Z" id="Fill-73" fill="#020302"></path>
                <path d="M405.298494,75.115297 C403.330144,73.3989737 401.360713,71.6826505 399.392363,69.9663273 C398.81051,72.5073071 398.619082,75.1379939 398.827814,77.7362566 C398.220005,78.6171152 396.719949,78.2961152 396.121874,77.4087717 C395.522717,76.5225091 395.558406,75.3682061 395.616808,74.3003677 C395.66872,73.3492566 395.720633,72.3970646 395.772546,71.4448727 C395.840681,70.2041051 395.929365,68.8974081 396.616124,67.8609131 C397.302883,66.825499 398.808347,66.2224081 399.830375,66.9314182 C403.880633,69.7426 407.685388,72.9082869 411.185158,76.3809232 C409.680776,78.0345596 406.984569,76.585196 405.298494,75.115297" id="Fill-75" fill="#020302"></path>
                <path d="M358.544776,68.9047576 C360.148657,69.6126869 361.247472,71.3365758 361.210701,73.0885657 C359.561396,74.1672121 357.566009,72.382798 356.413118,70.7864444 C355.635512,69.7088788 354.843846,68.5978081 354.51074,67.3116465 C353.849937,64.7544545 355.395416,61.8200606 357.879647,60.9186667 C360.363878,60.0161919 363.433206,61.2731717 364.569874,63.6585152 C362.555019,64.1621717 360.540164,64.6658283 358.52639,65.1705657 C358.531798,66.4145758 358.538287,67.6596667 358.544776,68.9047576" id="Fill-77" fill="#020302"></path>
                <path d="M135.036806,126.477134 C136.06316,125.717326 137.449657,126.695458 138.335415,127.615225 C142.561959,131.996821 146.787423,136.378417 151.012886,140.760013 C151.490914,141.256104 151.990572,141.790023 152.13225,142.464447 C152.273928,143.138872 151.883502,143.972175 151.197824,144.039185 C150.67221,144.091064 150.217975,143.699811 149.836202,143.335579 C145.172727,138.876165 140.65093,134.26868 136.281625,129.521771 C135.498612,128.672256 134.662604,127.569831 135.036806,126.477134" id="Fill-79" fill="#020302"></path>
                <path d="M334.680588,189.048789 C333.826195,185.2919 332.971801,181.53393 332.117408,177.777041 C331.960588,177.087486 331.803769,176.396849 331.673988,175.70189 C331.452278,174.517324 331.34629,173.168476 332.101185,172.228173 C332.857161,171.28787 334.759539,171.412163 334.931499,172.604294 L337.257829,188.741839 C336.398028,188.844516 335.539308,188.946112 334.680588,189.048789" id="Fill-81" fill="#020302"></path>
                <path d="M473.942317,61.9948273 C477.67353,59.2268778 481.813554,57.012302 486.187184,55.4429687 C487.628838,54.9252616 489.75617,54.7998879 490.174715,56.2719485 C484.077156,58.9274939 478.246731,62.1915343 472.795916,66.000302 C472.078874,65.5852717 471.933951,64.5520192 472.265975,63.7922111 C472.596918,63.032403 473.276107,62.4887566 473.942317,61.9948273" id="Fill-83" fill="#020302"></path>
                <path d="M120.46615,131.916517 C122.741649,132.42882 124.701347,134.16676 125.482198,136.362962 C125.89858,137.535638 127.302381,137.937699 128.414174,138.499719 C130.25815,139.431376 131.642484,141.227679 132.071844,143.24879 C131.24557,143.573032 130.336019,143.121255 129.564902,142.682446 C125.264814,140.238739 120.395852,136.859053 120.46615,131.916517" id="Fill-85" fill="#020302"></path>
                <path d="M167.480945,148.202241 C167.000754,143.697433 165.148126,139.347181 162.231291,135.877787 C161.949016,135.542736 161.641867,135.175262 161.63646,134.736454 C161.627808,134.012312 162.505994,133.54108 163.214384,133.693474 C163.922774,133.846948 164.462448,134.407888 164.931823,134.960181 C167.90706,138.467403 169.921915,142.779827 170.701684,147.311656 C169.783482,147.983918 168.61545,148.30708 167.480945,148.202241" id="Fill-87" fill="#020302"></path>
                <path d="M176.296124,45.3269293 C176.282064,46.3072222 176.268005,47.288596 176.253945,48.2688889 C173.103504,47.2464444 169.953062,46.2250808 166.802621,45.2026364 C165.448569,44.7454545 165.922271,42.4519798 167.264426,41.9634545 C168.607663,41.4749293 170.068784,42.1407071 171.340641,42.7913535 C172.992108,43.6365455 174.644657,44.4817374 176.296124,45.3269293" id="Fill-89" fill="#020302"></path>
                <path d="M91.5539022,113.317323 C89.6288127,111.69503 87.7037233,110.072737 85.7786338,108.450444 C84.5511189,107.416111 83.1927412,105.985121 83.6534648,104.448212 C84.2829042,103.865657 85.2714052,104.483879 85.8835404,105.08697 C88.7484628,107.91004 91.5614728,110.786071 94.3193256,113.715061 C93.7601845,114.620778 92.3671984,114.002556 91.5539022,113.317323" id="Fill-91" fill="#020302"></path>
                <path d="M91.5740183,115.975463 C96.2948135,118.267857 100.479179,121.654028 103.705326,125.791362 C103.840515,125.964291 103.978949,126.15019 104.004905,126.368513 C104.119545,127.349887 102.479975,127.103463 101.736977,126.451735 C98.9250481,123.987493 96.1131197,121.523251 93.3011913,119.057927 C92.3710918,118.244079 91.3523085,117.190291 91.5740183,115.975463" id="Fill-93" fill="#020302"></path>
                <path d="M178.876501,124.463697 C179.198791,123.632556 180.468485,124.271313 180.948676,125.022475 C181.427785,125.774717 182.381678,126.681515 183.016525,126.055727 C183.584318,125.496949 184.306767,124.931687 185.090863,125.071111 C185.87604,125.209455 186.258895,126.51399 185.506163,126.775545 C184.543618,127.109515 184.338131,128.343798 184.162926,129.347869 C183.988803,130.351939 183.346386,131.567848 182.340581,131.398162 C180.575555,129.465677 179.361018,127.03602 178.876501,124.463697" id="Fill-95" fill="#020302"></path>
                <path d="M111.772749,68.2795101 C112.040964,68.5518737 112.325401,68.8588232 112.35352,69.2403485 C112.400025,69.8650556 111.688391,70.3308838 111.064359,70.2692778 C110.441409,70.2065909 109.916876,69.789399 109.447501,69.3743687 C107.267175,67.4505303 105.373449,65.2056919 103.845274,62.732803 C104.739683,61.7719646 106.302467,62.7230758 107.223914,63.6590556 C108.740192,65.1992071 110.256471,66.7393586 111.772749,68.2795101" id="Fill-97" fill="#020302"></path>
                <path d="M193.880518,70.1963232 C193.583103,69.499202 193.319214,68.5999697 193.853481,68.0617273 C194.583501,67.3267778 195.815342,68.1395455 196.380972,69.0074343 C197.271055,70.3735758 197.798833,71.9742525 197.895087,73.6019495 C197.126133,73.9153838 196.269576,74.0115758 195.449791,73.8775556 C194.92634,72.6508384 194.40397,71.4230404 193.880518,70.1963232" id="Fill-99" fill="#020302"></path>
                <path d="M71.3857781,90.2642273 C71.622629,91.1213081 70.4199889,91.7914091 69.6002036,91.4477121 C68.7793368,91.1029343 68.3424064,90.2253182 67.9736111,89.4157929 C67.1257066,87.5535606 66.277802,85.6924091 65.4298974,83.8301768 C67.018637,83.5805101 68.6030505,84.5381061 69.5569431,85.8329141 C70.5097543,87.1277222 70.9564183,88.7154293 71.3857781,90.2642273" id="Fill-101" fill="#020302"></path>
                <path d="M115.310912,108.418236 C115.038371,107.655186 114.320248,107.149368 113.864932,106.479267 C113.409616,105.808085 113.362029,104.67756 114.116924,104.380337 C114.77989,104.118782 115.447183,104.717549 115.90358,105.265519 C117.226268,106.85863 118.47325,108.515509 119.636956,110.22859 C118.066602,110.842489 116.077703,109.940014 115.505584,108.355549 L115.310912,108.418236 Z" id="Fill-103" fill="#020302"></path>
                <path d="M190.192999,58.1989212 C190.456887,58.6323253 190.720776,59.0657293 190.984665,59.5002141 C190.69482,59.9109212 190.221118,60.1876081 189.720379,60.2394869 C188.188959,59.2073152 187.078247,57.5698909 186.685659,55.7660222 C188.201937,55.1153758 190.168124,56.5215071 190.039424,58.1654162 L190.192999,58.1989212 Z" id="Fill-105" fill="#020302"></path>
                <path d="M126.635089,115.99308 C126.848146,116.745322 127.062285,117.497565 127.276425,118.249807 C125.141522,118.77508 122.909283,116.364878 123.597124,114.278918 C124.805172,114.120039 126.071621,114.89606 126.477188,116.043878 L126.635089,115.99308 Z" id="Fill-107" fill="#020302"></path>
                <path d="M178.968754,119.333101 C179.339712,119.493061 179.732301,119.670313 179.950766,120.009687 C180.567227,120.96404 179.251028,122.117263 178.116523,122.07403 C176.980937,122.029717 175.905915,121.402848 174.772491,121.483909 C173.845637,120.780303 174.498869,119.133152 175.605255,118.77 C176.710559,118.405768 177.900221,118.872677 178.968754,119.333101" id="Fill-109" fill="#020302"></path>
                <path d="M111.992296,103.567245 C109.886594,104.039559 107.75061,101.610983 108.4882,99.5844677 C110.393823,99.7876596 112.017171,101.518033 112.096121,103.432144 L111.992296,103.567245 Z" id="Fill-111" fill="#020302"></path>
                <path d="M121.462222,64.3228879 C120.388282,63.640898 118.718429,64.5131101 118.664353,65.7830596 C118.610278,67.0540899 120.20118,68.0635646 121.329196,67.4745242 C122.45613,66.8865646 122.536162,65.0048778 121.462222,64.3228879" id="Fill-113" fill="#020302"></path>
                <path d="M460.91422,79.6545828 C460.494594,80.6500071 459.609918,81.4379162 458.571668,81.7405424 C458.07958,80.6997242 458.343469,79.3530374 459.192455,78.5759364 C459.691031,77.615098 461.504725,78.7294111 460.872041,79.6081081 L460.91422,79.6545828 Z" id="Fill-115" fill="#020302"></path>
                <path d="M192.622181,65.0931798 C191.541751,64.3387758 190.35966,62.8656343 191.271373,61.9145232 C191.913791,61.2433414 193.143469,61.6335131 193.63123,62.4246646 C194.120073,63.2147354 194.084383,64.207998 194.033552,65.1353313 C193.736137,65.6141293 192.95096,65.6746545 192.583246,65.2466545 L192.622181,65.0931798 Z" id="Fill-117" fill="#020302"></path>
                <path d="M74.7844262,95.7419788 C73.8024143,95.7992616 72.8193209,95.8576253 71.8373089,95.9149081 C71.3776668,95.0221606 72.0471221,93.7673424 73.0453567,93.651696 C74.0435913,93.5371303 74.9823427,94.6060495 74.7379213,95.5809384 L74.7844262,95.7419788 Z" id="Fill-119" fill="#020302"></path>
                <path d="M353.408356,99.4507717 C353.320754,97.4642465 355.647084,95.7987212 357.500794,96.520701 C358.345454,96.8492667 358.992197,97.5355798 359.590273,98.2164889 C357.830654,99.4788727 355.518384,99.9403778 353.408356,99.4507717" id="Fill-121" fill="#020302"></path>
            </g>
        </g>
    </g>
</svg>