<?xml version="1.0" encoding="UTF-8" standalone="no"?>
<svg width="650px" height="275px" viewBox="0 0 650 275" version="1.1" xmlns="http://www.w3.org/2000/svg" xmlns:xlink="http://www.w3.org/1999/xlink">
    <!-- Generator: Sketch 40.1 (33804) - http://www.bohemiancoding.com/sketch -->
    <title>fixingapp-thumb</title>
    <desc>Created with Sketch.</desc>
    <defs>
        <polygon id="path-1" points="73.9030017 51.7552695 73.9030017 0.519735015 0.156977847 0.519735015 0.156977847 51.7552695 73.9030017 51.7552695"></polygon>
    </defs>
    <g id="Page-1" stroke="none" stroke-width="1" fill="none" fill-rule="evenodd">
        <g id="fixingapp-thumb">
            <g id="Page-1" transform="translate(7.000000, 60.000000)">
                <g id="Group-3" transform="translate(313.549223, 121.052801)" fill="#020302">
                    <path d="M0.0716212435,1.00903901 C87.3307197,-1.98762766 173.794393,15.5625496 260.53531,25.517727 C275.536165,27.2392163 290.650338,28.7364504 305.715003,27.7086135 C304.257274,32.6851028 297.537419,33.2930106 292.365507,32.8675851 C197.575727,25.0802092 103.787103,4.39375532 8.67827237,3.95293972 C5.50977496,3.93754965 1.79559188,3.66602482 0.0716212435,1.00903901" id="Fill-1"></path>
                </g>
                <g id="Group-6" transform="translate(562.188256, 24.315213)">
                    <mask id="mask-2" fill="white">
                        <use xlink:href="#path-1"></use>
                    </mask>
                    <g id="Clip-5"></g>
                    <path d="M8.71325786,41.8671489 C9.44157219,42.0826099 10.1709867,42.2991702 10.899301,42.5146312 C10.8222889,40.5117234 10.3558157,38.525305 9.5339867,36.6971844 C7.7319038,36.9423262 6.30607997,38.782539 6.52061364,40.5864752 C7.25552902,41.0086028 7.99044439,41.4307305 8.72535976,41.8539574 L8.71325786,41.8671489 Z M33.3252216,43.5853404 C27.938776,42.9180709 22.5534306,42.2497021 17.166985,41.5824326 C17.3276102,44.9737447 17.4882354,48.3650567 17.6499608,51.7552695 C13.1590558,51.2726809 9.21383644,48.6783546 5.46774836,46.1587801 C2.8779418,44.4186028 -0.0144122625,42.1012979 0.164915889,38.9881064 C0.345344214,35.8628227 3.50944093,33.8939929 6.29947893,32.4671135 C8.30179326,31.4436738 10.3041076,30.420234 12.3064219,29.3967943 C12.9137173,29.0867943 13.5694202,28.768 14.2449263,28.8614397 C15.6531473,29.0560142 16.1977328,30.824773 16.1262216,32.2439574 C16.0558105,33.6620426 15.7202579,35.2230355 16.5145826,36.4003759 C24.8208865,37.2182482 33.1260903,38.0350213 41.4312941,38.8517943 C48.1236447,39.5102695 55.297871,40.075305 61.1705929,36.801617 C67.0433149,33.5268298 70.2690212,24.7852695 65.6394945,19.9121135 C60.9186534,14.9444184 55.9799781,9.82721986 49.590175,7.34502128 C43.1992717,4.86392199 34.9160713,5.83019858 30.9345463,11.4069007 C29.9619936,11.657539 28.9245307,11.907078 27.970681,11.5926809 C27.0168313,11.2782837 26.2610126,10.1570071 26.7087829,9.25888652 C30.0027,2.65434752 38.2892009,-0.336822695 45.596548,0.731687943 C52.902795,1.80129787 59.3179021,6.15339007 64.8165653,11.0793121 C69.923567,15.6545603 74.8270368,21.8567589 73.7543684,28.6250922 C73.3968123,30.8830355 72.375852,33.0013688 71.0292406,34.8481773 C67.031213,40.3281418 60.3245601,43.3259078 53.6080057,44.2899858 C46.8903511,45.2540638 40.0604789,44.4197021 33.3252216,43.5853404 L33.3252216,43.5853404 Z" id="Fill-4" fill="#020302" mask="url(#mask-2)"></path>
                </g>
                <path d="M170.433256,95.3381915 C169.688439,96.6089716 169.37709,98.1281915 169.561919,99.5891489 C168.516755,100.012376 167.362674,100.16078 166.244898,100.012376 C165.738819,97.4587234 165.055611,94.9402482 164.202978,92.4800355 C163.765109,94.8215248 163.344843,97.3356028 164.319596,99.5089007 C165.294349,101.683298 168.280218,103.094787 170.150511,101.61734 C172.226537,99.9760993 174.995672,99.2406738 177.612983,99.6364184 C175.535857,97.7478369 173.079171,96.2780851 170.433256,95.3381915 M125.662827,90.7497518 C136.44672,91.3257801 147.231713,91.9018085 158.015606,92.4778369 C157.111264,90.1176596 159.44253,87.5321277 161.946523,87.1770567 C164.451617,86.8230851 166.897301,87.9707447 169.165857,89.0876241 L177.586579,93.2319504 C179.493178,94.1707447 181.466888,95.162305 182.773893,96.8365248 C184.080898,98.5107447 184.502264,101.079787 183.150152,102.71773 C182.294218,103.753262 180.941005,104.211667 179.651603,104.585426 C175.583164,105.763865 171.406908,106.568546 167.192147,106.986277 C166.159085,107.088511 165.075415,107.161064 164.121565,106.751028 C160.347972,105.129574 161.278718,97.6357092 157.180575,97.3575887 C146.292166,96.6166667 135.402656,95.876844 124.513147,95.135922 C121.09271,94.9028723 117.585359,94.6500355 114.46857,93.2242553 C107.248136,89.9241844 104.091741,79.9217376 108.111772,73.0808511 C109.042518,71.496773 110.363826,70.0413121 112.106499,69.4564894 C113.848073,68.872766 116.042917,69.3971277 116.958261,70.99 C113.665444,74.8551064 110.155893,79.8722695 112.066893,84.5761348 C114.049404,89.4580851 120.398501,90.4683333 125.662827,90.7497518" id="Fill-7" fill="#020302"></path>
                <path d="M25.7191775,74.7324255 C25.4221309,72.3194823 25.1250843,69.9054397 24.8280377,67.4924965 C26.0228252,66.3426383 28.1483589,67.2264681 28.9921914,68.6533475 C29.837124,70.080227 29.894333,71.8215035 30.3564055,73.4143759 C31.4873831,77.3091631 35.3566905,80.2354752 39.4152276,80.2640567 C40.3250705,80.2706525 41.3900377,80.0376028 41.7596957,79.2076383 C41.9698287,78.7349433 41.8906162,78.1874965 41.7706974,77.6851206 C40.6749254,73.108773 36.1191102,69.6130284 31.4114712,69.7361489 C30.9526991,68.7445887 30.8096767,67.6090213 31.0088079,66.5339149 C33.4137855,66.2019291 35.4722086,64.1429574 35.8022604,61.7399078 C38.908048,63.4712908 42.0127354,65.203773 45.118523,66.9362553 C44.8500808,62.8260071 49.908675,59.4280993 53.616257,61.2298369 C54.6570204,61.7355106 55.8760117,60.5614681 55.8782121,59.4050142 C55.8804124,58.2485603 55.1234936,57.2460071 54.4028805,56.3401915 C51.1782743,52.2915035 47.953668,48.2428156 44.7290618,44.1930284 C48.2826197,43.204766 51.6645506,46.0244468 54.2807613,48.6231702 C56.4205972,50.7480993 58.6044401,52.9367872 59.8630377,55.6762199 C61.1205351,58.4167518 61.2756594,61.8696241 59.4625748,64.2792695 C57.64839,66.6889149 53.5667492,67.3100142 51.6106421,65.014695 C50.2156231,66.2250142 49.6028269,68.2652979 50.1012052,70.0428511 C48.5224573,71.5027092 45.8853434,71.6412199 44.1613727,70.3539504 C44.0304522,72.7822837 46.2351983,74.6598723 47.0174211,76.9617872 C48.4817509,81.2666099 43.2064228,86.0837021 39.0477699,84.2401915 C37.6747544,86.9917163 44.6267458,89.4420355 42.5628218,91.7219645 C41.5902691,92.7970709 39.8354936,91.9132411 38.7089168,91.0008298 C31.3355592,85.0250851 24.0810204,78.9009362 16.9530014,72.6349787 C14.3741965,70.3693404 11.5775575,67.5034894 11.9967233,64.0978865 C13.638181,62.7292695 16.0189547,64.379305 17.4810843,65.9391986 C20.2271154,68.8710071 22.9731465,71.8017163 25.7191775,74.7324255" id="Fill-9" fill="#020302"></path>
                <path d="M359.038284,12.1682695 C359.187907,11.3416028 357.663068,11.2206809 357.329716,11.9912837 C356.995263,12.7629858 357.458436,13.6270284 357.907306,14.3371702 C358.894161,14.411922 359.623576,13.0400071 359.009679,12.2639078 L359.038284,12.1682695 Z M369.568037,24.717773 C369.39421,23.5591206 369.548234,22.3531986 370.007006,21.2747943 C372.001619,20.7900071 374.245971,21.5661064 375.51337,23.1798652 C377.239541,24.3879858 379.46079,21.610078 378.63346,19.6720284 C377.80723,17.735078 375.565078,16.8985177 373.556163,16.264227 C370.634104,15.341922 367.712046,14.4185177 364.789987,13.4962128 C364.097978,14.7570993 363.404869,16.0179858 362.711761,17.2788723 C364.860398,19.776461 367.009035,22.2740496 369.157673,24.7716383 C369.698958,25.4015319 370.295251,26.0655035 371.103878,26.2589787 C371.912505,26.4513546 372.938966,25.8907163 372.878457,25.0629504 C371.838793,24.6331277 370.673711,24.5122057 369.568037,24.717773 L369.568037,24.717773 Z M372.780541,31.5597589 C370.012507,32.0599362 367.318184,30.3208582 365.397282,28.267383 C363.47528,26.2139078 361.955942,23.7503972 359.699488,22.0717801 C353.962087,17.8043333 345.838412,19.9776312 338.853415,18.4430213 C337.178952,18.0758582 335.170037,16.4390142 336.195398,15.0670993 C336.680574,14.4185177 337.600318,14.3239787 338.408945,14.2942979 C343.606161,14.1052199 348.81878,14.3349716 353.97859,14.9813546 C353.248075,13.1400426 352.504358,11.1734113 352.877317,9.22876596 C353.250275,7.28302128 355.233887,5.51206383 357.116282,6.12986525 C363.47088,8.21521986 369.824377,10.3005745 376.178975,12.3859291 C378.926106,13.2873475 381.776654,14.2503262 383.848279,16.2675248 C385.919904,18.2836241 386.946365,21.6870284 385.392921,24.1252553 C383.950595,26.3864965 380.993331,27.0064965 378.657664,28.3289433 C376.697156,29.4370284 374.996289,31.1585177 372.780541,31.5597589 L372.780541,31.5597589 Z" id="Fill-11" fill="#020302"></path>
                <path d="M223.991864,97.8364397 C223.513288,96.4722199 221.143516,96.4887092 220.683644,97.8595248 C221.718907,98.4586383 223.084221,98.4388511 224.101881,97.8100567 L223.991864,97.8364397 Z M212.742598,96.6711915 C209.44318,94.5308723 206.090953,92.4719007 202.69142,90.4942766 C202.580302,92.9599858 202.470285,95.4245957 202.359168,97.890305 C205.833513,98.5872553 209.524592,98.1530355 212.742598,96.6711915 L212.742598,96.6711915 Z M217.495344,83.9886738 C220.726551,82.303461 224.201997,86.1333901 225.034827,89.6786028 C225.867658,93.2238156 225.853356,97.398922 228.634592,99.7525035 C230.048314,96.7349504 231.468637,93.1985319 230.005408,90.2040638 C228.994349,88.1351986 226.660883,86.065234 227.748953,84.0359433 C229.369508,82.2803759 232.05833,84.6416525 233.202509,86.7390993 C233.992434,88.1879645 234.782358,89.6379291 235.573382,91.0867943 C236.895789,93.5140284 238.263304,96.1776099 237.807832,98.9027518 C237.352361,101.628993 234.077147,103.948496 231.775585,102.417184 C230.806333,101.773 230.031812,100.536298 228.87443,100.660518 C227.605931,100.79683 226.857813,102.568887 225.590415,102.422681 C217.457938,101.484986 209.195641,101.68066 201.117073,102.999809 C201.03786,105.107149 198.544869,106.728603 196.584361,105.950305 C196.683377,98.9742057 196.782392,91.9981064 196.881408,85.0231064 C204.115043,86.359844 210.961418,89.7291702 216.432577,94.643 C218.630722,95.1530709 220.379997,92.4356241 220.098352,90.1985674 C219.816708,87.9615106 218.355679,86.0729291 217.495344,83.9886738 L217.495344,83.9886738 Z" id="Fill-13" fill="#020302"></path>
                <path d="M252.978774,67.0860887 C254.045942,66.2154504 253.481553,64.459883 252.588213,63.4133582 C251.693772,62.365734 250.484683,61.3796702 250.415372,60.0055567 C250.299854,57.7476135 253.59267,56.6791028 255.497069,57.9004149 C257.402569,59.1206277 258.142985,61.4939965 258.74698,63.6727908 C260.984731,63.0187128 263.596541,63.9794929 264.874942,65.9274362 C261.365391,67.869883 257.85694,69.8123298 254.347389,71.7536773 C254.300082,74.3348121 254.251674,76.9148475 254.204366,79.494883 C252.158045,82.2585 247.238073,82.0111596 245.479997,79.056266 C243.720821,76.1013723 245.852955,71.6646348 249.261291,71.1886418 C250.100722,71.0710177 250.291052,69.8046348 249.736565,69.1626489 C249.183178,68.5206631 248.267835,68.3579681 247.428403,68.2359468 C240.02424,67.1575426 232.620078,66.0791383 225.215916,64.9996348 C224.892465,66.6914433 224.815453,68.429422 224.98818,70.1432163 C223.39293,71.1765496 221.145277,70.4872943 219.837171,69.1087837 C218.530166,67.7291738 217.936073,65.8416915 217.381586,64.0245638 C218.163809,63.3276135 219.564328,63.537578 220.106714,64.4345993 C222.939658,59.5372589 229.879548,57.5541383 234.875432,60.214422 C236.734724,61.2037837 239.873517,62.1788546 240.202468,60.0989965 C240.519318,58.0927908 243.211441,57.2496348 245.074033,58.0620106 C246.936626,58.8754858 248.101708,60.7189965 249.114968,62.4800603 C250.127126,64.2411241 251.193194,66.1154149 252.978774,67.0860887" id="Fill-15" fill="#020302"></path>
                <path d="M412.543864,52.6707589 C411.686829,54.7649078 412.005879,57.2954752 413.355791,59.1115035 C416.02591,57.8945887 415.77287,53.2017163 412.987233,52.2794113 L412.543864,52.6707589 Z M422.160473,57.6219645 C422.115366,61.0011844 420.442003,64.8300142 422.545534,67.4771064 C424.770083,67.3935603 425.012121,64.0550142 426.710788,62.6182411 C428.545876,61.0671418 431.385421,62.243383 433.216109,63.7999787 C434.744249,65.0982411 436.124965,66.7504752 436.426413,68.7313972 C436.72786,70.7134184 435.584781,73.006539 433.617672,73.3978865 C431.387622,73.842 429.309396,71.8335957 427.038639,71.9490213 C425.328971,72.0358652 423.829435,73.3187376 422.117566,73.2956525 C417.420929,73.2318936 417.848896,65.1477092 413.774957,62.8117163 C414.041199,66.0447305 414.30744,69.2766454 414.573682,72.5085603 C414.646294,73.3791986 414.693601,74.3388794 414.162218,75.0325319 C413.331587,76.1175319 411.5031,75.8559007 410.556952,74.8698369 C409.611903,73.8826738 409.314857,72.4612908 409.058516,71.1190567 C408.216884,66.7273901 407.376352,62.3357234 406.53582,57.9440567 C406.002237,55.1606525 405.569869,51.9551206 407.388454,49.7807234 C408.611846,48.3175674 410.622962,47.7063617 412.530661,47.7327447 C417.642064,47.8030993 422.229784,52.5135603 422.160473,57.6219645 L422.160473,57.6219645 Z" id="Fill-17" fill="#020302"></path>
                <path d="M344.017736,69.759234 C343.234413,69.3107234 342.457691,70.889305 343.282821,71.2542695 C344.263074,71.9765035 345.240028,69.6350142 344.036439,69.4481348 L344.017736,69.759234 Z M317.977748,56.2907234 C319.167035,52.4684894 324.473168,51.9705106 328.301769,53.1500496 C334.492441,55.0573191 339.874485,59.4632766 342.96377,65.154305 C344.924278,64.0154397 347.701114,64.5925674 349.044425,66.4184894 C350.387736,68.2433121 350.112693,71.0640922 348.44153,72.5954043 C350.572565,72.447 352.573779,74.5092695 352.362546,76.6330993 C346.604242,77.0948014 340.333258,75.3744113 335.31647,78.2380638 C333.077618,79.5154397 329.851912,81.4479929 328.484397,79.2637021 C327.60866,77.8676028 328.728636,75.9966099 330.15446,75.168844 C331.579183,74.3399787 333.291052,74.0783475 334.667368,73.1703333 C338.302339,70.7716809 337.761054,64.8607943 334.724577,61.7388085 C331.687,58.617922 327.167491,57.5571064 322.907622,56.6424965 C324.461066,63.6867518 325.654753,70.810156 326.483183,77.974234 C324.956144,78.1490213 323.430204,78.3227092 321.903164,78.4974965 C320.654468,72.6129929 319.405772,66.7284894 318.157076,60.8439858 C317.838026,59.3412553 317.522277,57.7582766 317.977748,56.2907234 L317.977748,56.2907234 Z" id="Fill-19" fill="#020302"></path>
                <path d="M7.85600328,92.2469858 C9.88692211,94.3037589 12.1609791,96.1219858 14.6165646,97.65 C15.2766682,93.1934752 15.9367718,88.7369504 16.5968755,84.2804255 C16.727796,83.3965957 16.937929,82.3929433 17.7135508,81.9499291 C19.2229877,81.0902837 20.7192226,83.1558511 21.0822796,84.853156 C22.1032399,89.6196809 21.4618392,94.7236879 19.2933988,99.0900709 C18.4396648,100.809362 20.2351466,102.61 21.8182952,103.697199 C25.7811173,106.420142 29.7450396,109.141986 33.7089618,111.864929 C35.3559204,112.996099 36.9126648,115.764113 35.0632744,116.518227 C34.557195,116.724894 33.9829048,116.618262 33.4526216,116.487447 C28.0045663,115.137518 23.4377494,111.534043 19.059062,108.026206 C15.6177218,105.269184 12.1763815,102.512163 8.73504128,99.7540426 C4.62259568,96.4605674 0.149293437,92.4767376 0.00407063903,87.212234 C-0.137851641,82.1038298 3.86677703,77.9430142 7.58536079,74.434078 C8.48860259,73.5810284 9.4479532,72.6971986 10.6526423,72.3937943 C11.8573314,72.0903901 13.3656682,72.6070567 13.7188237,73.7975887 C14.0532762,74.9243617 13.268853,76.0500355 12.5306371,76.9657447 C10.3313919,79.6941844 8.13214663,82.4237234 5.93400155,85.1521631 C4.24413627,87.2485106 5.96370622,90.330922 7.85600328,92.2469858" id="Fill-21" fill="#020302"></path>
                <path d="M293.01725,21.0128333 C293.243885,18.334961 290.985231,15.6988617 288.301909,15.5086844 C288.969714,17.4797128 290.34383,19.2023014 292.118408,20.2905993 L293.01725,21.0128333 Z M299.488465,19.0868759 C300.705256,21.9615213 297.456446,25.1120887 294.333056,25.0659184 C291.209666,25.0186489 288.520844,22.9673723 286.085061,21.0128333 C286.247887,23.0443227 284.504113,24.8328688 282.555707,25.4341809 C280.607301,26.0343936 278.509272,25.7342872 276.492655,25.4275851 C275.906263,24.4470177 275.802847,23.1916277 276.222013,22.1286135 C278.428959,22.7815922 281.015465,21.0546064 281.255303,18.7669823 C281.496241,16.4793582 279.3256,14.2543936 277.03064,14.4346773 C273.901749,14.6809184 272.242688,18.6196773 273.040313,21.6537199 C273.836839,24.6877624 276.20221,27.0061667 278.270535,29.366344 C280.337759,31.7265213 282.290566,34.6044645 281.961614,37.7242518 C279.180377,38.4684716 276.570768,36.1841454 274.678471,34.016344 C270.903778,29.6939326 267.332617,24.5305638 267.60546,18.799961 C267.878303,13.0704574 273.984262,7.54981915 279.204581,9.93637943 C281.146386,10.8235071 283.126697,12.6714149 285.076203,11.7996773 C289.5187,9.81545745 294.306652,13.4969823 297.779897,16.9025851 C298.444402,17.5544645 299.125408,18.2294291 299.488465,19.0868759 L299.488465,19.0868759 Z" id="Fill-23" fill="#020302"></path>
                <path d="M483.972247,103.768652 C485.313357,105.186738 487.632521,105.560496 489.352091,104.637092 C487.845955,102.969468 485.65001,101.94273 483.403458,101.856986 C482.84897,102.430816 483.151518,103.560887 483.918338,103.781844 L483.972247,103.768652 Z M482.748855,116.025745 C484.293497,114.826418 486.950414,115.720142 487.453193,117.609823 C488.1331,120.165674 492.461179,119.485213 493.438133,117.027199 C494.415086,114.570284 493.2269,111.835248 492.060717,109.461879 C488.489556,109.719113 484.615848,109.711418 481.70149,107.63266 C478.786033,105.553901 477.74747,100.637872 480.596917,98.4711702 C483.724708,96.092305 488.147402,98.7295035 490.887932,101.544787 C491.696559,102.374752 493.067375,101.751454 494.105938,101.238085 C500.654166,98.001773 509.696485,102.340674 511.263131,109.470674 C507.097877,109.404716 503.001934,107.410603 500.384623,104.173191 C496.494413,107.428191 499.552893,113.854645 498.150173,118.726702 C497.088506,122.411525 493.015666,124.954184 489.235473,124.291312 C485.45528,123.62844 482.491414,119.852376 482.748855,116.025745 L482.748855,116.025745 Z" id="Fill-25" fill="#020302"></path>
                <path d="M156.802006,56.4781525 C157.181565,58.1831525 157.562225,59.8881525 157.941785,61.5942518 C158.189323,62.7045355 158.431361,63.8961667 158.007795,64.9525851 C157.583128,66.0079043 156.19471,66.7444291 155.265064,66.0881525 C154.757885,67.0687199 154.610462,68.2306702 154.8569,69.3068759 C153.241847,69.768578 151.528878,69.8840035 149.866517,69.6432589 C150.313187,66.7400319 149.010583,63.636734 146.624308,61.9207411 C144.85083,62.725422 144.40856,65.1504574 145.010355,67.0027624 C145.612149,68.8539681 146.946659,70.362195 147.920311,72.0496064 C148.893964,73.7359184 149.491358,75.8993227 148.527607,77.5911312 C147.564956,79.284039 144.524078,79.5401738 143.882678,77.7021596 C142.81441,74.6406348 141.747242,71.5791099 140.678975,68.5186844 C139.138733,73.0664504 133.184598,75.1627979 128.758603,73.2951028 C124.331508,71.4263085 121.705396,66.4685071 121.719698,61.6679043 C121.722999,60.6587553 121.883624,59.5352801 122.665847,58.8976915 C124.386517,57.497195 126.803596,59.8232943 127.212861,62.0031879 C127.622125,64.1830816 127.420793,66.7851028 129.129361,68.1998901 C131.177883,69.897195 134.392588,68.4428333 136.021944,66.3398901 C137.650199,64.2380461 138.518235,61.5568759 140.464441,59.7441454 C144.163222,56.2978688 151.22523,58.0424433 152.890892,62.8144645 C152.062462,58.9438617 151.232931,55.0732589 150.404501,51.202656 C151.6719,50.0989681 153.77433,50.6321241 154.903108,51.875422 C156.030785,53.1198191 156.436748,54.8391099 156.802006,56.4781525 L156.802006,56.4781525 Z" id="Fill-27" fill="#020302"></path>
                <path d="M64.8547413,35.5062128 C64.7590263,34.509156 64.6633112,33.511 64.5675962,32.5139433 C63.1483734,33.7649362 62.655496,35.956922 63.4025133,37.6938014 C63.8304805,36.9539787 64.2584477,36.214156 64.687515,35.4743333 L64.8547413,35.5062128 Z M53.6549831,35.4160709 C50.3577655,34.8664255 47.5897309,31.987383 47.1727655,28.6730213 C48.6712007,27.6836596 50.7164218,28.4883404 52.1015392,29.6316028 C53.4855565,30.773766 54.6605409,32.2720993 56.3515064,32.8789078 C58.0413717,33.484617 60.4507499,32.512844 60.3594356,30.7220993 C54.7551558,29.2061773 49.4138173,26.725078 44.641268,23.4206099 C50.3258604,20.5151844 56.9621022,24.5385887 62.0559019,28.3861064 C62.7358086,26.8075248 63.4740245,25.1508936 64.8613423,24.1351489 C66.2486601,23.1194043 68.4952128,23.0611418 69.4754667,24.4737305 C70.5129295,25.968766 69.6173889,28.0233404 69.9023337,29.8206809 C70.1168674,31.1695106 70.9981057,32.323766 71.3512611,33.6440142 C71.7033164,34.9642624 71.1697326,36.7572057 69.8099192,36.9001135 C67.7118898,37.1199716 68.4259019,40.5255745 70.146572,41.7435887 C71.8672421,42.9627021 74.3151264,44.1763191 74.0444839,46.2660709 C69.8374235,45.6977376 65.5500504,45.7241206 61.3506912,46.3430213 C61.9579865,44.4225603 62.0537016,42.1459291 60.8039054,40.5651489 C59.553009,38.9843688 56.6320504,38.8062837 55.7189071,40.6025248 C55.0213976,41.9744397 52.648325,41.1730567 52.2808674,39.6780213 C51.9145098,38.1829858 52.7913475,36.6912482 53.6549831,35.4160709 L53.6549831,35.4160709 Z" id="Fill-29" fill="#020302"></path>
                <path d="M500.321583,20.7975922 C502.790371,19.4938333 506.057884,22.8367766 504.69477,25.2717057 C506.878613,25.7279113 508.58168,23.5513156 510.249542,22.0694716 C511.917404,20.5876277 515.380747,20.2809255 515.65359,22.4948972 C513.846007,26.7799326 509.388107,29.8128759 504.735476,29.9206064 C500.933279,30.0085496 497.350017,28.3354291 493.708445,27.2416348 C490.066874,26.1478404 485.798203,25.7235142 482.746324,27.9913511 C479.673542,30.274578 474.839383,29.6699681 472.423404,26.7007837 C472.888777,29.9997553 467.681659,31.7773085 465.337191,29.4083369 C462.991623,27.0393652 463.640725,22.8587624 465.812466,20.3303936 C466.426362,19.6158546 467.171179,18.9705709 468.075521,18.7089397 C471.271523,17.787734 473.684202,21.817734 476.893406,22.6894716 C480.674699,23.7184078 484.394383,20.1303227 488.285694,20.5986206 C491.620317,20.9998617 494.861426,24.2999326 497.81649,22.7037624 C498.741735,22.2035851 499.390837,21.2889752 500.321583,20.7975922" id="Fill-31" fill="#020302"></path>
                <path d="M232.153495,27.0024291 C230.812384,27.0661879 229.470174,27.1288475 228.129063,27.1926064 C223.600752,21.3696631 220.548873,14.4111525 219.332082,7.13824468 C217.460688,8.30569149 215.075514,5.60253546 215.788426,3.51608156 C216.501338,1.42962766 218.877711,0.409485816 221.063754,0.115975177 C229.89044,-1.06906028 238.754531,7.03930851 238.349668,15.9281738 C238.093327,21.5686348 248.245721,22.4260816 249.097255,28.0071809 C244.80108,28.555727 240.718339,26.2373227 237.008557,24.0046631 C235.232878,22.9361525 233.20526,21.3674645 233.52211,19.3205851 C234.48146,13.1282801 230.543942,6.53143617 224.636015,4.43179078 C223.58865,6.1818617 224.359871,8.4123227 225.148695,10.2932092 C227.483262,15.8633156 229.818928,21.4323227 232.153495,27.0024291" id="Fill-33" fill="#020302"></path>
                <path d="M446.242704,68.0928191 C447.481498,67.6728901 448.569569,66.8198404 449.27368,65.7172518 C448.268122,64.7839539 446.579357,64.7026064 445.489085,65.5358688 C444.415317,66.0250532 445.023712,68.0576418 446.189896,67.8784574 L446.242704,68.0928191 Z M455.259719,62.6392376 C458.013452,63.567039 461.046628,64.7344858 462.293123,67.3584929 C463.538519,69.9825 461.099436,73.9949113 458.415015,72.8824291 C455.782301,71.7908333 452.801934,72.4240248 449.954687,72.5625355 C447.10744,72.7021454 443.770616,72.0095922 442.52082,69.449344 C444.24369,73.8959752 445.96656,78.3415071 447.690531,82.787039 C448.487056,84.8427128 448.942528,87.8096986 446.91931,88.6880319 C445.043516,89.5026064 443.196326,87.4985993 442.26668,85.679273 C439.267609,79.8101596 438.044217,73.0495213 438.796735,66.5032447 C439.036573,64.4123936 439.578958,62.1654433 441.230317,60.8605851 C443.598989,58.9873936 447.038129,59.8668262 449.900778,60.8320035 C451.686358,61.4344149 453.473039,62.0368262 455.259719,62.6392376 L455.259719,62.6392376 Z" id="Fill-35" fill="#020302"></path>
                <path d="M129.270734,22.9546206 C126.680927,17.776961 125.305711,11.9979894 125.285908,6.2102234 C125.281507,4.83061348 125.386024,3.35426596 126.228756,2.26157092 C127.070388,1.16887589 128.905476,0.756641844 129.82082,1.78887589 C132.486539,4.79543617 135.153357,7.80309574 137.819076,10.809656 C139.100777,12.2552234 140.429785,13.7370674 142.171359,14.5736277 C144.944894,15.9070674 148.55016,15.2332021 150.654791,12.9884504 C152.759421,10.7425993 153.195089,7.10394681 151.681252,4.42497518 C154.201747,3.28501064 156.974183,5.97827305 157.449457,8.70121631 C158.584836,15.2068191 151.314894,20.9165355 144.757865,20.0887695 C138.199735,19.2599043 133.060829,13.8294078 130.206981,7.87235106 C131.067316,12.7345142 131.927651,17.5977766 132.787986,22.461039 C131.704316,22.9843014 130.45672,23.1590887 129.270734,22.9546206" id="Fill-37" fill="#020302"></path>
                <path d="M460.865429,28.9965426 C459.703647,29.0086348 458.542965,29.020727 457.381182,29.0328191 C456.828896,27.6576064 456.196296,26.1834574 454.916796,25.4348404 C453.637295,24.6851241 451.561269,25.2171809 451.37754,26.6880319 C451.062891,29.2229965 450.013326,31.7887411 447.967004,33.3200532 C445.919583,34.8513652 442.756587,35.0195567 440.919298,33.2431028 C439.08311,31.4655496 439.504476,27.7763298 441.903953,26.8925 C441.964462,28.0181738 443.120744,28.9558688 444.234118,28.7843794 C445.348593,28.6128901 446.168222,27.3695922 445.886578,26.2790957 C442.931514,25.2259752 439.855431,23.9617908 437.970835,21.4554078 C436.08734,18.9490248 436.005927,14.8332801 438.604535,13.0755142 C439.871934,12.2180674 442.221903,12.6533865 442.118486,14.1792021 C441.944659,16.757039 443.081137,19.7075355 445.541124,20.5045213 C448.00221,21.3004078 451.029885,18.3213298 449.572156,16.1876064 C448.375169,14.4353369 449.846099,11.600266 451.968333,11.5683865 C452.786861,14.9465071 455.849742,17.1967553 458.275623,19.6866489 C460.702604,22.1765426 462.678514,26.030656 460.865429,28.9965426" id="Fill-39" fill="#020302"></path>
                <path d="M284.255364,60.2652092 C282.979164,59.6913794 281.355309,60.8643227 281.317903,62.2626206 C282.896651,63.3641099 284.476499,64.4655993 286.056347,65.5681879 C286.685646,63.6543227 285.900122,61.3677979 284.22786,60.2432234 L284.255364,60.2652092 Z M275.646513,58.0963085 C277.918369,56.8123369 280.271639,55.500883 282.865846,55.2106702 C285.460053,54.9193582 288.383212,55.913117 289.574699,58.2337199 C292.051188,63.0574078 298.88106,62.7891809 304.284008,62.2923014 C306.26982,62.1087199 309.129169,62.922195 308.670397,64.861344 C308.550478,65.3703156 308.194022,65.7847482 307.848568,66.177195 C306.731893,67.4490745 305.532704,68.7748191 303.918751,69.2859894 C302.305898,69.7971596 300.184765,69.1090035 299.768899,67.469961 C297.664269,66.5652447 295.298898,65.9155638 293.098552,66.5509539 C290.898207,67.186344 289.07082,69.5234362 289.716621,71.7187199 C284.10354,71.2471241 278.773203,68.1086489 275.639912,63.4300674 C274.523236,61.7635426 273.900539,59.0823723 275.646513,58.0963085 L275.646513,58.0963085 Z" id="Fill-41" fill="#020302"></path>
                <path d="M448.463842,103.572099 C445.19743,101.457064 442.074039,99.1210709 439.123376,96.5850071 C438.099115,99.0331277 438.941848,102.125433 441.068482,103.716106 C443.194015,105.30678 446.402119,105.244121 448.463842,103.572099 M434.727086,108.249582 C434.079084,102.235362 433.429982,96.2211418 432.781981,90.2080213 C439.408321,91.8492624 445.58139,95.2801489 450.472758,100.040078 C452.280342,101.800043 454.032917,104.29873 453.132975,106.654511 C452.123017,109.299404 448.599164,109.763305 445.776121,109.519262 C442.954178,109.276319 439.65916,108.921248 437.725057,110.989014 C436.550072,112.244404 434.911915,109.957879 434.727086,108.249582" id="Fill-43" fill="#020302"></path>
                <path d="M414.49557,102.564819 C413.724349,101.257762 413.905877,99.4593227 414.922437,98.3314504 C412.801304,97.5839326 411.781444,101.527089 413.655038,102.769287 C415.529732,104.011486 418.034826,103.184819 420.083347,102.258117 C418.342874,101.694181 416.358162,101.938223 414.806919,102.906699 L414.49557,102.564819 Z M417.194294,95.5161667 C419.177905,96.5110248 421.220926,97.5509539 422.643449,99.2537553 C424.065972,100.956557 424.711774,103.513507 423.581896,105.421876 C422.063658,107.986521 418.458392,108.103046 415.482425,107.908472 C413.137957,107.75567 410.275307,107.223613 409.546993,104.992053 C408.049658,100.402514 401.786375,100.193649 396.955516,100.220032 C395.156734,100.229926 392.893679,99.7957057 392.472313,98.0478333 C391.922226,95.7613085 395.175437,94.4520532 397.481399,94.9203511 C399.787361,95.3875496 402.301256,96.5604929 404.336575,95.3787553 C407.161819,91.6598546 413.016938,93.423117 417.194294,95.5161667 L417.194294,95.5161667 Z" id="Fill-45" fill="#020302"></path>
                <path d="M86.1998522,15.1903298 C93.2673617,20.6120319 99.4558332,27.1758972 104.450617,34.5488404 C101.699085,36.2516418 98.4106691,33.5232021 96.2532304,31.1135567 C89.3474463,23.4064291 81.4768107,16.563344 72.8822615,10.7964645 C69.6004463,8.59458511 66.031486,6.34433688 64.4186328,2.73756383 C66.9116242,2.32972695 69.4046155,1.92079078 71.8976069,1.5129539 C72.8360542,1.35905319 74.1012528,1.39532979 74.3685948,2.30664184 C76.0408573,8.00426596 81.4856121,11.5747624 86.1998522,15.1903298" id="Fill-47" fill="#020302"></path>
                <path d="M516.269467,74.8741241 C514.341964,73.3153298 513.086667,70.7155071 513.729168,68.3212518 C514.370569,65.9280957 517.325633,64.2461809 519.511676,65.4158262 C521.697719,66.5854716 521.456781,70.6099752 519.0276,71.104656 C519.840628,72.7316064 522.433735,72.2710035 523.652726,70.9199752 C524.871717,69.5689468 525.392099,67.6935567 526.638595,66.3678121 C528.561697,64.3253298 531.762099,64.0713936 534.50373,64.6705071 C539.250975,65.706039 543.461336,68.9709326 545.642978,73.3098333 C543.648365,75.1511454 540.484268,73.4769255 538.347733,71.7994078 C536.212298,70.1229894 533.0394,68.4564645 531.053588,70.3087695 C530.444092,70.8771028 530.11404,71.6729894 529.695975,72.3930248 C527.106168,76.8638404 520.288398,78.1236277 516.269467,74.8741241" id="Fill-49" fill="#020302"></path>
                <path d="M461.757889,104.324564 C462.147351,103.628713 462.536812,102.932862 462.925173,102.237011 C461.399233,100.917862 459.135078,101.144316 457.140465,100.836514 C455.146952,100.528713 452.897098,98.8226135 453.599009,96.9329326 C457.17787,94.5859468 462.509307,95.4972589 465.103515,98.9006631 C468.031074,97.9574716 471.386601,97.8497411 474.05342,99.3821525 C476.721339,100.915663 478.370497,104.379528 477.196613,107.221195 C476.022729,110.062862 471.657244,111.173145 469.665931,108.828358 C469.380986,108.491975 469.143349,108.059954 469.230263,107.627933 C469.313876,107.204706 469.678033,106.904599 470.019086,106.64077 C471.117059,105.791018 472.213931,104.942365 473.310803,104.092613 C472.559385,102.525025 470.16761,102.608571 468.773691,103.647401 C467.379772,104.68623 466.556843,106.316479 465.311447,107.528996 C462.77995,109.992507 458.45187,110.324493 455.574919,108.274316 C455.166755,107.983004 454.767392,107.621337 454.637572,107.13655 C454.337225,106.014174 455.58482,105.10616 456.692694,104.752188 C458.31985,104.232223 460.065824,104.084918 461.757889,104.324564" id="Fill-51" fill="#020302"></path>
                <path d="M415.662083,32.6535532 C411.106268,34.7268156 405.214843,33.2735532 402.147561,29.3205035 C399.08028,25.3685532 399.140789,19.303766 402.285083,15.4122766 C403.747213,13.602844 405.750627,12.283695 407.889363,11.3646879 C409.84657,10.5237305 412.054617,9.99607092 414.105339,10.5731986 C416.157161,11.1503262 417.922938,13.1092624 417.691902,15.2253972 C414.472796,15.3584113 411.073263,15.5485887 408.387741,17.3294397 C405.70332,19.1091915 404.198283,23.0787305 406.143389,25.6455745 C408.626479,28.921461 415.218713,28.5674894 415.662083,32.6535532" id="Fill-53" fill="#020302"></path>
                <path d="M187.756905,60.4844078 C185.055981,57.1689468 182.845734,53.4544433 181.220779,49.499195 C182.917245,47.7952943 185.664377,49.8586631 187.111104,51.7780248 C190.853891,56.7446206 194.79471,62.9885922 192.43924,68.7422801 C189.070511,67.8474574 185.702883,66.9526348 182.335254,66.0589113 C181.272487,65.7763936 180.003988,65.5389468 179.18766,66.2743723 C177.545102,67.7529184 174.837577,67.8650461 173.078401,66.5283085 C171.319225,65.1904716 170.705328,62.553273 171.693283,60.5778475 C176.556047,63.1084149 182.440871,61.8244433 187.756905,60.4844078" id="Fill-55" fill="#020302"></path>
                <path d="M501.472694,83.2755638 C500.314212,84.2682234 498.397711,83.7075851 497.443862,82.5181525 C496.488912,81.3276206 496.240273,79.7380461 496.025739,78.2287199 C494.871658,70.112656 493.717577,61.9976915 492.562395,53.8816277 C492.347862,52.3679043 492.150931,50.7365567 492.864943,49.3844291 C493.578955,48.0323014 495.603273,47.2946773 496.674841,48.386273 C497.215026,48.9348191 497.352547,49.7515922 497.463665,50.5134007 C499.041312,61.4029752 500.378022,72.3266277 501.472694,83.2755638" id="Fill-57" fill="#020302"></path>
                <path d="M565.993313,25.4482518 C567.653474,23.4167624 571.527182,24.1510887 572.327007,26.6486773 C569.85712,26.6849539 568.763548,29.8443156 568.947277,32.3056277 C569.132106,34.7669397 569.828515,37.5008759 568.404892,39.5180745 C566.534598,40.0743156 564.925045,38.1307695 564.019603,36.4026844 C561.242767,31.1106986 559.355971,25.3537128 558.462631,19.4450248 C558.125978,17.2200603 557.982955,14.7532518 559.28556,12.9174362 C560.588164,11.0827199 563.877681,10.6660887 564.908543,12.6667979 C562.274729,16.4802376 562.754404,22.1327908 565.993313,25.4482518" id="Fill-59" fill="#020302"></path>
                <path d="M533.61666,96.1843156 C532.97746,93.1139965 532.627605,89.2620816 535.214111,87.486727 C538.100964,89.4588546 537.176819,94.5683582 540.096678,96.4932163 C541.585211,97.474883 543.542418,97.233039 545.26969,97.6815496 C546.995861,98.1300603 548.657121,100.152755 547.559149,101.557649 C546.884743,102.421691 545.608543,102.440379 544.513871,102.381018 C540.17699,102.14467 535.750995,101.890734 531.717762,100.282472 C527.684529,98.6731099 524.040757,95.4422943 523.114412,91.2023298 C527.039828,91.6321525 530.802418,93.4174007 533.61666,96.1843156" id="Fill-61" fill="#020302"></path>
                <path d="M534.942038,40.0678298 C532.307125,34.2481844 529.673311,28.4274397 527.038398,22.6077943 C526.069145,20.4652766 525.093292,18.3040709 524.583912,16.0087518 C524.245059,14.4774397 524.342974,12.482227 525.776499,11.8457376 C527.951541,10.8805603 529.492883,13.9948511 530.179391,16.2714823 C531.413784,20.3619433 533.880372,23.9555248 535.680254,27.8316241 C537.479037,31.7077234 538.596812,36.2598865 536.982859,40.2173333 C536.302952,40.1678652 535.621945,40.1172979 534.942038,40.0678298" id="Fill-63" fill="#020302"></path>
                <path d="M349.337731,100.850915 C350.872472,97.9575816 354.061873,96.0184326 357.339287,95.9854539 C360.616702,95.9524752 363.844608,97.8278652 365.436558,100.689319 C363.47055,102.055738 360.818033,101.227972 358.426258,101.116943 C356.033382,101.005915 352.984804,102.775773 353.798931,105.026021 C349.095693,105.367901 343.514517,105.326128 340.766285,101.496199 C340.297612,100.842121 339.936755,100.074816 339.940056,99.2701348 C339.948857,97.1023333 342.694888,95.7875816 344.765413,96.4361631 C346.837039,97.0836454 348.24526,98.9777234 349.337731,100.850915" id="Fill-65" fill="#020302"></path>
                <path d="M201.92757,11.2844397 C199.628209,13.077383 200.813095,16.9029149 199.37847,19.440078 C197.78872,22.2531631 193.820397,22.3619929 190.617794,21.9189787 C187.876164,21.5397234 185.071824,20.9889787 182.75376,19.4763546 C180.436796,17.9637305 178.695223,15.2781631 179.045078,12.5343333 C184.034361,12.3518511 188.432851,19.3136596 192.732326,16.778695 C194.251665,15.882773 194.933772,14.0876312 195.601577,12.4551844 C196.268281,10.8238369 197.196827,9.0682695 198.87349,8.5208227 C200.551254,7.97337589 202.769202,9.73553901 201.92757,11.2844397" id="Fill-67" fill="#020302"></path>
                <path d="M502.808744,49.9292376 C505.487664,48.8189539 507.615398,52.3553723 508.377818,55.1508688 C509.265658,58.4080674 510.154597,61.665266 511.042436,64.9224645 C511.546316,66.7681738 512.041393,68.7798759 511.304278,70.5464362 C510.566062,72.3118972 508.001559,73.3683156 506.679151,71.9832092 C507.239139,69.4339539 505.191718,66.6307624 502.59091,66.3878191 C501.045167,66.2438121 499.966998,64.3266489 500.646904,62.9316489 C501.327911,61.5377482 503.502953,61.2057624 504.56902,62.3336348 C503.982628,58.1992021 503.395136,54.0636702 502.808744,49.9292376" id="Fill-69" fill="#020302"></path>
                <path d="M392.20398,74.5622553 C390.826564,69.4472553 389.449148,64.3322553 388.071732,59.2172553 C387.661367,57.6947376 387.271906,55.9842411 388.048628,54.611227 C388.82535,53.2382128 391.316141,52.9776809 391.774913,54.4881064 C394.403226,63.1395248 396.921521,71.8250213 399.327599,80.5412979 C397.80386,81.5438511 395.63762,80.8567943 394.413127,79.5046667 C393.189735,78.1536383 392.678155,76.3222199 392.20398,74.5622553" id="Fill-71" fill="#020302"></path>
                <path d="M204.383925,45.1796418 C205.701932,44.0198901 207.895677,44.537656 209.108067,45.8084362 C210.319357,47.078117 210.799032,48.8578688 211.235801,50.5573723 C212.963072,57.2861312 214.691444,64.0148901 216.419815,70.7436489 C215.709103,72.0210248 213.71229,71.9825496 212.595615,71.0393582 C211.478939,70.0961667 211.020167,68.607727 210.616404,67.2028333 C208.509573,59.8705638 206.431347,52.5295 204.383925,45.1796418" id="Fill-73" fill="#020302"></path>
                <path d="M327.22404,12.1393582 C324.835565,12.9418404 322.216053,12.6274433 319.749466,13.1397128 C317.281779,13.6519823 314.700774,15.5625496 314.93181,18.0700319 C315.18925,20.8578333 318.75271,23.4444645 317.170661,25.7540745 C312.249589,25.9134716 308.458394,20.1630816 309.807205,15.431734 C311.156017,10.7003865 316.46435,7.77957092 321.36452,8.25446454 C323.843209,8.49410993 326.516628,9.75389716 327.22404,12.1393582" id="Fill-75" fill="#020302"></path>
                <path d="M252.795485,94.2505532 C249.271632,92.2707305 247.105392,88.1099149 247.503655,84.0909078 C255.122351,87.5668652 260.371275,95.6961206 260.400979,104.065021 C259.620957,105.179702 257.773767,104.51573 256.988244,103.405447 C256.20272,102.294064 255.863867,100.848496 254.816503,99.9800567 C253.343371,98.7576454 251.16613,99.1786738 249.284834,98.8225035 C247.404639,98.4663333 245.615758,96.0083191 247.118594,94.8232837 C249.021893,95.047539 250.974699,94.850766 252.795485,94.2505532" id="Fill-77" fill="#020302"></path>
                <path d="M546.211107,28.5507801 C546.181403,30.5657801 547.361888,32.395 547.708442,34.3792199 C548.056097,36.3634397 546.856909,38.9742553 544.858995,38.708227 C543.10422,38.474078 542.434215,36.3326596 542.14927,34.5869858 C541.801615,32.4587589 541.455061,30.2612766 541.971042,28.1671277 C542.485923,26.0729787 544.092175,24.0909574 546.235311,23.8304255 C547.900973,23.628156 549.497323,24.4680142 550.966054,25.2814894 C554.755049,27.3789362 559.123835,30.5778723 558.446128,34.8541135 C553.914517,36.5734043 551.008961,27.8615248 546.211107,28.5507801" id="Fill-79" fill="#020302"></path>
                <path d="M372.571178,71.9154929 C372.381949,73.0708475 373.758265,74.1558475 374.839735,73.7018404 C374.757222,72.3585071 373.187275,70.9635071 372.178417,71.8539326 L372.571178,71.9154929 Z M386.799712,77.9352092 C384.329824,78.9091809 381.252641,78.0154574 379.691496,75.8685426 C377.619871,78.422195 373.464519,78.9421596 370.827405,76.977727 C368.190291,75.0132943 367.501583,70.8865567 369.358674,68.1735071 C369.741534,67.6139681 370.22561,67.1060957 370.834006,66.8048901 C372.433657,66.0123014 374.388664,66.8554574 375.723173,68.0404929 C377.058783,69.2266277 378.094045,70.759039 379.596881,71.723117 C381.059011,72.6597128 382.83469,72.9741099 384.369431,73.7853865 C385.904172,74.5966631 387.268386,76.2642872 386.799712,77.9352092 L386.799712,77.9352092 Z" id="Fill-81" fill="#020302"></path>
                <path d="M298.56432,103.175585 C296.314467,103.969273 293.872084,104.769557 291.592526,104.064911 C289.312968,103.360266 287.636305,100.40867 289.077531,98.5090957 C291.717946,95.0287411 291.849966,89.8543794 289.39108,86.2443085 C290.02588,84.9592376 291.954483,84.8350177 293.133868,85.6506915 C294.313253,86.465266 294.908446,87.875656 295.393623,89.2244858 C297.010877,93.7227837 298.078044,98.4200532 298.56432,103.175585" id="Fill-83" fill="#020302"></path>
                <path d="M172.604446,13.3509965 C171.064205,15.2428759 167.981521,13.7445426 165.601847,14.2875922 C164.542381,15.3703936 165.687661,17.3051454 167.140989,17.7371667 C168.593217,18.1691879 170.155462,17.753656 171.665999,17.8712801 C173.177636,17.987805 174.887305,19.0772021 174.677172,20.577734 C171.366752,22.0496844 167.440236,22.7873085 164.166122,21.2362092 C160.892008,19.6862092 158.948003,15.1857128 161.041631,12.2308191 C162.027386,10.8402163 163.64464,10.0542234 165.228889,9.4232305 C167.008968,8.71528723 169.007982,8.13046454 170.807864,8.78344326 C172.608847,9.43642199 173.813536,11.8658546 172.604446,13.3509965" id="Fill-85" fill="#020302"></path>
                <path d="M263.913281,24.9884184 C260.074778,26.1481702 255.526664,25.7381348 252.604605,22.9954043 C249.682547,20.2515745 249.26118,14.9123191 252.370269,12.3828511 C255.480457,9.85338298 261.335576,12.3784539 260.910909,16.3622837 C260.680973,18.5091986 258.252892,20.1273546 256.180167,19.5128511 C256.538823,21.2464326 258.795277,21.6091986 260.553353,21.8345532 C262.310329,22.0599078 264.509574,23.3207943 263.913281,24.9884184" id="Fill-87" fill="#020302"></path>
                <path d="M366.032962,73.0966809 C364.593936,72.5107589 362.966781,72.8746241 361.441941,73.1747305 C359.917102,73.4748369 358.216235,73.6705106 356.91253,72.8229574 C355.609926,71.9765035 355.299677,69.664695 356.704598,69.0007234 C358.396663,68.2026383 358.539686,65.808383 357.945592,64.035227 C357.350399,62.2620709 356.267829,60.5636667 356.377846,58.6970709 C356.487864,56.8304752 358.76082,55.0430284 360.186644,56.2555461 C360.688323,56.6820709 360.912758,57.3416454 361.11629,57.9671418 C362.755547,63.0106879 364.393705,68.0531348 366.032962,73.0966809" id="Fill-89" fill="#020302"></path>
                <path d="M368.545316,96.861039 C367.345028,96.1410035 365.962111,95.0021383 366.344971,93.6555071 C366.479192,93.1817128 366.824646,92.7936631 367.211907,92.4891596 C369.391349,90.7764645 372.760078,91.5360745 374.790997,93.4224574 C376.821916,95.3088404 377.839575,98.014195 378.790125,100.616216 C379.875995,103.588699 375.972582,105.786181 372.9009,106.556784 C370.852379,107.071252 367.776296,106.87228 367.728988,104.761642 C367.667379,101.995826 372.733674,102.597138 374.060482,100.168805 L368.545316,96.861039" id="Fill-91" fill="#020302"></path>
                <path d="M582.550142,31.8144645 C580.995598,31.389039 579.970237,29.5851028 580.400405,28.0329043 C582.553443,26.4334362 586.056393,27.9955284 586.724197,30.5920532 C587.392002,33.188578 585.575617,36.0115567 583.070524,36.9712376 C580.56433,37.9320177 577.646672,37.2768404 575.413322,35.7905993 C573.669548,34.6297482 572.156811,32.5894645 572.7256,30.5744645 C573.295489,28.5594645 576.877652,28.0966631 577.272614,30.1534362 C577.69618,32.3663085 580.932888,33.3853511 582.550142,31.8144645" id="Fill-93" fill="#020302"></path>
                <path d="M271.256603,95.0427021 C274.253474,94.2424184 276.910391,98.2383404 275.641892,101.066816 C274.372293,103.895291 270.664711,104.962702 267.673341,104.142631 C263.938255,103.118092 260.964488,98.9451844 262.322101,95.3197234 C262.450821,94.9767447 262.620248,94.6348652 262.900792,94.3985177 C264.2287,93.2717447 265.915265,95.2823475 266.563267,96.8972057 C267.212369,98.5131631 269.270792,100.309404 270.318156,98.9177021 C270.630605,97.6260355 270.944154,96.3343688 271.256603,95.0427021" id="Fill-95" fill="#020302"></path>
                <path d="M484.320672,67.3936702 C480.377653,67.7927128 476.969317,71.2609752 476.641466,75.2074291 C472.223172,74.9545922 470.077836,68.3973227 473.173722,65.2368617 C476.269608,62.0764007 482.355763,63.430727 484.320672,67.3936702" id="Fill-97" fill="#020302"></path>
                <path d="M429.397079,30.9633936 C425.042596,31.0700248 419.549433,28.8747411 419.734262,24.5270461 C419.800273,22.9726489 421.891701,21.3907695 422.723432,22.7066206 C424.658635,25.7670461 429.436685,26.5046702 432.20692,24.1708759 C434.093717,22.5813014 436.903558,25.8516915 435.802285,28.0590674 C434.701012,30.265344 431.864767,30.9029326 429.397079,30.9633936" id="Fill-99" fill="#020302"></path>
                <path d="M307.787068,101.797844 C305.266573,102.801496 301.988058,102.90483 300.239883,100.832667 C298.406996,98.6604681 299.487365,94.9096879 302.036465,93.651 C304.584465,92.3923121 307.895985,93.4575248 309.64416,95.6967801 C310.501194,96.7938723 311.042479,98.2988014 310.504495,99.582773 C310.040222,100.689759 308.902643,101.35373 307.787068,101.797844 L307.787068,101.797844 Z" id="Fill-101" fill="#020302"></path>
                <path d="M324.570973,92.2445674 C325.969293,96.7043901 327.367612,101.165312 328.765932,105.625135 C327.627253,106.106624 326.327949,106.196766 325.134261,105.876872 C320.994312,101.347794 319.229635,94.7619433 320.548742,88.7708085 C322.377229,87.9078652 323.966978,90.3164113 324.570973,92.2445674" id="Fill-103" fill="#020302"></path>
                <path d="M338.733496,103.204716 C337.005125,104.538156 334.395515,104.170993 332.64294,102.869433 C330.890365,101.566773 329.8364,99.5407801 329.020072,97.5169858 C328.058521,95.1326241 327.343408,92.6504255 326.889037,90.1198582 C328.319261,88.6149291 330.679132,90.5430851 331.793607,92.2953546 C334.10727,95.9318085 336.419833,99.5682624 338.733496,103.204716" id="Fill-105" fill="#020302"></path>
                <path d="M168.011445,62.9783688 C169.44387,64.5272695 168.414109,67.383227 166.421696,68.0768794 C164.428183,68.7705319 162.126622,67.6272695 160.997844,65.8442199 C159.869067,64.0622695 159.723844,61.8164184 160.01539,59.727766 C162.909945,58.4317021 166.752848,60.208156 167.637387,63.2509929 L168.011445,62.9783688 Z" id="Fill-107" fill="#020302"></path>
                <path d="M462.252637,56.6185319 C464.401274,56.3338156 466.515806,58.4521489 466.224261,60.5979645 C464.772033,62.1248794 462.283442,62.5437092 460.409848,61.5774326 C458.536254,60.611156 457.437181,58.3400213 457.840945,56.2733546 C459.205159,55.6401631 460.849917,55.643461 462.211931,56.2810496 L462.252637,56.6185319 Z" id="Fill-109" fill="#020302"></path>
                <path d="M526.16497,104.685241 C526.316794,103.884957 526.468618,103.084674 526.620442,102.285489 C530.04528,102.569106 533.019046,105.626234 533.206076,109.054922 C531.994786,109.540809 530.645974,109.683716 529.359872,109.46056 C528.348813,107.875383 527.337755,106.289106 526.326696,104.703929 L526.16497,104.685241 Z" id="Fill-111" fill="#020302"></path>
                <path d="M385.555967,64.3772163 C382.977162,64.7971454 380.246533,62.8568972 379.795463,60.2845567 C381.743868,59.5568262 384.037728,59.0016844 385.811207,60.088883 C387.583585,61.1760816 387.604488,64.5553014 385.550466,64.8839894 L385.555967,64.3772163 Z" id="Fill-113" fill="#020302"></path>
                <path d="M464.728906,68.9658759 C467.550849,68.2293511 470.729248,70.6906631 470.719346,73.604883 C468.063529,75.1032163 464.232728,72.2230745 464.939039,69.2582872 L464.728906,68.9658759 Z" id="Fill-115" fill="#020302"></path>
                <path d="M561.823438,107.268135 C563.212956,107.923312 563.781746,109.885546 562.958817,111.18161 C562.134787,112.477674 560.11597,112.797567 558.931084,111.819199 C557.456853,109.942709 559.551582,106.656929 561.877347,107.199979 L561.823438,107.268135 Z" id="Fill-117" fill="#020302"></path>
                <path d="M304.148247,23.2337305 C302.473784,22.6994752 302.712522,20.2744397 303.296713,18.6178085 C305.923926,18.3330922 308.125371,21.704617 306.805164,23.9933404 C305.907423,23.7646879 305.009682,23.5371348 304.111941,23.3084823 L304.148247,23.2337305 Z" id="Fill-119" fill="#020302"></path>
                <path d="M303.372185,122.612475 C304.936631,122.023255 306.828928,122.436589 308.005012,123.623823 C306.827828,124.52634 305.446011,125.481624 303.991582,125.189213 C302.537154,124.897901 301.780235,122.528929 303.154351,121.971589 L303.372185,122.612475 Z" id="Fill-121" fill="#020302"></path>
                <path d="M477.717765,93.6160426 C478.736525,93.4863262 478.589102,95.2484894 477.772774,95.8706879 C476.423962,96.8963262 474.351236,97.0029574 473.078337,95.8849787 C471.805437,94.767 471.769131,92.4365035 473.16635,91.4768227 C474.56247,90.5171418 476.909138,91.6966809 476.756214,93.3829929 L477.717765,93.6160426 Z" id="Fill-123" fill="#020302"></path>
            </g>
        </g>
    </g>
</svg>