<?xml version="1.0" encoding="UTF-8" standalone="no"?>
<svg width="200px" height="100px" viewBox="0 0 200 100" version="1.1" xmlns="http://www.w3.org/2000/svg" xmlns:xlink="http://www.w3.org/1999/xlink">
    <!-- Generator: Sketch 3.8.3 (29802) - http://www.bohemiancoding.com/sketch -->
    <title>Group 11</title>
    <desc>Created with Sketch.</desc>
    <defs>
        <polygon id="path-1" points="31.4855137 30.9649057 0.0358013687 30.9649057 0.0358013687 0.135113208 15.7606575 0.135113208 31.4855137 0.135113208 31.4855137 30.9649057"></polygon>
    </defs>
    <g id="Home" stroke="none" stroke-width="1" fill="none" fill-rule="evenodd">
        <g id="Desktop-HD" transform="translate(-644.000000, -136.000000)">
            <g id="Group-11" transform="translate(644.000000, 136.000000)">
                <rect id="Rectangle-79" fill="#303030" x="0" y="0" width="200" height="100"></rect>
                <g id="Rogers_tm_rgb" transform="translate(10.000000, 35.000000)">
                    <g id="Group-3">
                        <mask id="mask-2" fill="white">
                            <use xlink:href="#path-1"></use>
                        </mask>
                        <g id="Clip-2"></g>
                        <path d="M25.9595724,27.3098302 C24.8103485,27.6777358 23.1748227,28.0509057 21.1293711,28.0509057 C15.658922,28.0509057 9.24630016,23.8220377 6.13814466,16.634717 C5.12317586,17.9337925 4.33315899,20.0833208 4.33315899,22.2930943 C4.33315899,26.7992075 8.63469344,31 15.7639393,31 C20.1382699,31 23.612196,29.2751132 25.9595724,27.3098302 M3.76451392,25.5826038 C3.38859955,24.4560755 3.00791166,22.8528491 3.00791166,20.8472075 C3.00791166,15.4859623 7.32316997,9.19881132 14.655887,6.15320755 C13.3294463,5.15769811 11.1360157,4.38328302 8.88172289,4.38328302 C4.28661721,4.38328302 0,8.60045283 0,15.5883208 C0,19.8768491 1.76023396,23.2827547 3.76451392,25.5826038 M5.52534457,3.82586792 C6.67516519,3.45737736 8.31128774,3.08479245 10.3567393,3.08479245 C15.8265917,3.08479245 22.2404069,7.31483019 25.3479657,14.501566 C26.3629345,13.2024906 27.1529514,11.0523774 27.1529514,8.84260377 C27.1529514,4.33707547 22.8508203,0.135113208 15.7227678,0.135113208 C11.3472438,0.135113208 7.87391436,1.86058491 5.52534457,3.82586792 M27.7215965,5.55250943 C29.7252797,7.85411321 31.4855137,11.259434 31.4855137,15.5485472 C31.4855137,22.5358302 27.2000899,26.7524151 22.6043875,26.7524151 C20.349498,26.7524151 18.1560674,25.9768302 16.8308201,24.9830755 C24.1635371,21.9374717 28.477602,15.6503208 28.477602,10.2879057 C28.477602,8.28226415 28.0969142,6.67845283 27.7215965,5.55250943" id="Fill-1" fill="#FFFFFF" mask="url(#mask-2)"></path>
                    </g>
                    <polyline id="Fill-4" fill="#FFFFFF" points="174.458876 7.39379245 173.968994 7.39379245 173.968994 4.37626415 172.844235 4.37626415 172.844235 3.95337736 175.583636 3.95337736 175.583636 4.37626415 174.458876 4.37626415 174.458876 7.39379245"></polyline>
                    <polyline id="Fill-5" fill="#FFFFFF" points="177.96383 6.59656604 177.973377 6.59656604 179.009827 3.95337736 179.773589 3.95337736 179.773589 7.39379245 179.281917 7.39379245 179.281917 4.51722642 179.271177 4.51722642 178.107036 7.39379245 177.795564 7.39379245 176.635003 4.51722642 176.624859 4.51722642 176.624859 7.39379245 176.148701 7.39379245 176.148701 3.95337736 176.912463 3.95337736 177.96383 6.59656604"></polyline>
                    <path d="M80.0005451,15.5859811 C80.0005451,10.4341321 77.8638001,7.223 73.4554582,7.223 C69.151537,7.223 66.909178,10.2925849 66.909178,15.5859811 C66.909178,20.8425283 69.151537,23.9126981 73.4554582,23.9126981 C77.7241748,23.9126981 80.0005451,20.8425283 80.0005451,15.5859811 M62.3946254,15.5859811 C62.3946254,8.52850943 66.5768219,3.66033962 73.4554582,3.66033962 C80.3340945,3.66033962 84.5168878,8.56477358 84.5168878,15.5859811 C84.5168878,22.7118868 80.2272871,27.4753585 73.4554582,27.4753585 C66.6126233,27.4753585 62.3946254,22.7118868 62.3946254,15.5859811" id="Fill-6" fill="#FFFFFF"></path>
                    <polygon id="Fill-7" fill="#FFFFFF" points="115.228495 27.1823208 129.851564 27.1823208 129.851564 23.7284528 119.541963 23.7284528 119.541963 17.0657925 128.627754 17.0657925 128.627754 13.6107547 119.541963 13.6107547 119.541963 7.40724528 128.665346 7.40724528 129.81636 3.95279245 115.228495 3.95279245"></polygon>
                    <path d="M101.637102,14.6460377 L100.519503,18.0022264 L104.131264,18.0022264 L104.131264,23.206717 C103.214153,23.6301887 102.243935,23.9126981 100.692543,23.9126981 C95.682738,23.9126981 93.1963329,20.6307925 93.1963329,15.6204906 C93.1963329,10.6803774 95.7179427,7.223 100.842312,7.223 C102.721884,7.223 104.627113,7.81609434 106.211324,8.79230189 L107.396349,5.2284717 C105.531695,4.27507547 103.05782,3.65975472 100.524873,3.65975472 C93.2858364,3.65975472 88.6811837,8.84669811 88.6811837,15.9035849 C88.6811837,22.5715094 92.7553794,27.4741887 100.373911,27.4741887 C103.618708,27.4741887 106.282927,26.6635094 108.399981,25.6054151 L108.399981,14.6460377 L101.637102,14.6460377" id="Fill-8" fill="#FFFFFF"></path>
                    <path d="M49.4834584,14.6793774 C53.1071536,14.6793774 53.8554022,12.4567358 53.8554022,11.0102642 C53.8554022,9.77435849 53.2062041,7.41075472 49.4834584,7.41075472 L46.6646973,7.41075472 L46.6646973,14.6793774 L49.4834584,14.6793774 L49.4834584,14.6793774 Z M42.4526663,3.95279245 L49.593846,3.95279245 C56.1353527,3.95279245 58.1760308,7.93190566 58.1760308,11.0348302 C58.1760308,15.3836038 54.8154756,17.0476604 53.8452585,17.4038679 L53.8452585,17.552434 C54.3094829,17.6834528 55.3017775,18.1420189 56.5882401,20.4061887 L60.5066999,27.1823208 L55.6562111,27.1823208 L52.2723851,21.3127925 C50.9095463,18.9135094 50.3570118,18.1361698 48.1779019,18.1361698 L46.6646973,18.1361698 L46.6646973,27.1823208 L42.4526663,27.1823208 L42.4526663,3.95279245 L42.4526663,3.95279245 Z" id="Fill-9" fill="#FFFFFF"></path>
                    <path d="M142.962622,14.6793774 C146.586914,14.6793774 147.335163,12.4567358 147.335163,11.0102642 C147.335163,9.77435849 146.684174,7.41075472 142.962622,7.41075472 L140.143861,7.41075472 L140.143861,14.6793774 L142.962622,14.6793774 L142.962622,14.6793774 Z M135.934217,3.95279245 L143.07301,3.95279245 C149.61392,3.95279245 151.655791,7.93190566 151.655791,11.0348302 C151.655791,15.3836038 148.294043,17.0476604 147.324422,17.4038679 L147.324422,17.552434 C147.78805,17.6834528 148.780941,18.1420189 150.068001,20.4061887 L153.985864,27.1823208 L149.135972,27.1823208 L145.751549,21.3127925 C144.38871,18.9135094 143.836176,18.1361698 141.656469,18.1361698 L140.143861,18.1361698 L140.143861,27.1823208 L135.934217,27.1823208 L135.934217,3.95279245 L135.934217,3.95279245 Z" id="Fill-10" fill="#FFFFFF"></path>
                    <path d="M161.605588,9.83811321 C161.605588,8.00150943 163.38432,7.21539623 165.369505,7.21539623 C168.030144,7.21539623 170.087529,8.08164151 170.502228,8.2354717 L170.502228,4.35286792 C170.169872,4.25343396 168.342809,3.65507547 164.96495,3.65507547 C159.786282,3.65507547 157.003322,6.65213208 157.003322,10.0703208 C157.003322,13.4791509 159.825664,15.2362075 162.17662,16.4627547 C162.713044,16.7429245 163.363435,17.0821698 163.874798,17.3494717 C165.822393,18.3654528 167.253254,19.164434 167.253254,20.9296792 C167.253254,22.9382453 165.274632,23.8898868 163.2978,23.8898868 C159.921134,23.8898868 157.873296,22.679717 157.524829,22.493717 L156.381572,25.9265283 C156.716911,26.1230566 159.407384,27.4700943 163.377159,27.4700943 C168.230632,27.4700943 171.856713,24.682434 171.856713,20.5588491 C171.856713,17.6313962 169.824986,15.7778302 166.484718,14.0342264 C165.899962,13.7294906 165.457816,13.4984528 164.907071,13.2106792 C163.048383,12.2409057 161.605588,11.4758491 161.605588,9.83811321" id="Fill-11" fill="#FFFFFF"></path>
                </g>
            </g>
        </g>
    </g>
</svg>