<?xml version="1.0" encoding="UTF-8" standalone="no"?>
<svg width="200px" height="100px" viewBox="0 0 200 100" version="1.1" xmlns="http://www.w3.org/2000/svg" xmlns:xlink="http://www.w3.org/1999/xlink">
    <!-- Generator: Sketch 3.8.3 (29802) - http://www.bohemiancoding.com/sketch -->
    <title>Group 8</title>
    <desc>Created with Sketch.</desc>
    <defs></defs>
    <g id="Home" stroke="none" stroke-width="1" fill="none" fill-rule="evenodd">
        <g id="Desktop-HD" transform="translate(-867.000000, -254.000000)">
            <g id="Group-8" transform="translate(867.000000, 254.000000)">
                <rect id="Rectangle-79" fill="#303030" x="0" y="0" width="200" height="100"></rect>
                <g id="tmo_kurzformpos_1_4c" transform="translate(75.000000, 33.000000)" fill="#FFFFFF">
                    <polygon id="Fill-5" points="0.610309829 23.190664 7.53739316 23.190664 7.53739316 16.2280572 0.610309829 16.2280572"></polygon>
                    <path d="M17.1113782,27.4015176 C17.1113782,29.6109741 17.431891,31.0432281 18.0769231,31.7036489 C18.6231303,32.2687651 19.5472756,32.6150833 20.8506944,32.7452882 C21.2366453,32.7775038 21.8936966,32.7936117 22.8285256,32.7936117 L22.8285256,34.7278928 L6.13514957,34.7278928 L6.13514957,32.7936117 C7.47596154,32.7936117 8.46554487,32.727838 9.10523504,32.5989755 C10.3979701,32.3251425 11.2126068,31.5694171 11.5478098,30.32643 C11.7227564,29.682117 11.8108974,28.7062514 11.8108974,27.4015176 L11.8108974,2.10149573 C8.97970085,2.18337716 6.76415598,3.12568486 5.16559829,4.93110344 C3.64449786,6.66000986 2.71901709,9.3043776 2.38247863,12.8695759 L0.576923077,12.5554734 L0.913461538,0.455813062 L28.0502137,0.455813062 L28.3867521,12.5554734 L26.5811966,12.8695759 C26.2446581,9.3043776 25.3138355,6.66000986 23.7873932,4.93110344 C22.1808226,3.12568486 19.954594,2.18337716 17.1113782,2.10149573 L17.1113782,27.4015176" id="Fill-6"></path>
                    <polygon id="Fill-7" points="21.5211004 23.190664 28.4481838 23.190664 28.4481838 16.2280572 21.5211004 16.2280572"></polygon>
                    <polygon id="Fill-8" points="42.3050214 23.190664 49.2321047 23.190664 49.2321047 16.2280572 42.3050214 16.2280572"></polygon>
                </g>
            </g>
        </g>
    </g>
</svg>