<?xml version="1.0" encoding="UTF-8" standalone="no"?>
<svg width="483px" height="280px" viewBox="0 0 483 280" version="1.1" xmlns="http://www.w3.org/2000/svg" xmlns:xlink="http://www.w3.org/1999/xlink">
    <!-- Generator: Sketch 3.8.3 (29802) - http://www.bohemiancoding.com/sketch -->
    <title>Group 8</title>
    <desc>Created with Sketch.</desc>
    <defs></defs>
    <g id="Concepts" stroke="none" stroke-width="1" fill="none" fill-rule="evenodd" opacity="0.0500000007">
        <g id="Group-8">
            <g id="Group-7" transform="translate(241.000000, 133.000000) rotate(-270.000000) translate(-241.000000, -133.000000) translate(108.000000, -108.000000)" stroke="#FFFFFF" stroke-linecap="round">
                <path d="M1.48867201,481.097828 C1.48867201,481.097828 19.6977669,481.097828 23.2197943,481.097828 C55.2567263,481.097828 106.76935,481.097828 106.76935,481.097828 C117.817802,481.097828 126.774342,472.141962 126.774342,461.091562 L126.774342,261.006266 C126.774342,249.95711 135.730582,241 146.774326,241 L265.720158,241" id="Path-164"></path>
                <path d="M1.86084002,414.693694 L37.45948,414.693694 C48.499858,414.693694 57.4498527,423.648287 57.4498527,434.701202 L57.4498527,448.366128 C57.4498527,459.415969 66.4097572,468.373636 77.4593618,468.373636 L85.5256081,468.373636 C96.5765548,468.373636 105.535117,459.417318 105.535117,448.382567 L105.535117,449.957471 C105.535117,438.916709 114.482618,429.966403 125.525413,429.966403 L127.07447,429.966403" id="Path-172"></path>
                <path d="M1.86084002,427.82561 L47.0268127,427.82561 C58.0683675,427.82561 67.0193162,418.87861 67.0193162,407.831014 L67.0193162,402.120722 C67.0193162,391.078012 75.9763791,382.126126 87.0137889,382.126126 L127.065389,382.126126" id="Path-173"></path>
                <path d="M1.86084002,460.763506 L53.9988628,460.763506 C59.5222348,460.763506 63.9998125,456.284041 63.9998125,450.755627 L63.9998125,450.755627 C63.9998125,445.228428 68.482352,440.747748 74.0114327,440.747748 L126.854491,440.747748" id="Path-174"></path>
                <path d="M1.11650401,372.355856 L58.8266444,372.355856 C69.8720939,372.355856 78.8261999,381.309459 78.8261999,392.346878 L78.8261999,395.640427 C78.8261999,406.681164 87.7764704,415.631449 98.8339151,415.631449 L126.410647,415.631449" id="Path-175"></path>
                <path d="M1.86084002,240.097828 L107.156089,240.097828 C118.196493,240.097828 127.14651,231.141962 127.14651,220.091562 L127.14651,20.0062661 C127.14651,8.95711041 136.105334,5.68434189e-14 147.148315,5.68434189e-14 L265.720158,5.68434189e-14" id="Path-164" style="mix-blend-mode: lighten;" transform="translate(133.790499, 120.048914) scale(1, -1) translate(-133.790499, -120.048914) "></path>
                <path d="M1.86084002,56.4504505 L79.2263133,56.4504505 C90.2700556,56.4504505 99.2227776,65.4091784 99.2227776,76.4516647 L99.2227776,127.078691 C99.2227776,138.125057 108.183279,147.079905 119.212864,147.079905 L126.880297,147.079905" id="Path-166"></path>
                <path d="M1.86084002,115.899 L68.6214412,115.899 C79.6670968,115.899 88.6213699,106.943476 88.6213699,95.9001564 L88.6213699,57.9943393 C88.6213699,46.9492828 97.5780068,37.9954955 108.613151,37.9954955 L127.029972,37.9954955" id="Path-167"></path>
                <path d="M1.11650401,137.869369 L49.4522814,137.869369 C60.4942539,137.869369 69.4455412,146.814451 69.4455412,157.873355 L69.4455412,168.387578 C69.4455412,179.435474 78.3919858,188.391564 89.441135,188.391564 L126.90466,188.391564" id="Path-168"></path>
                <path d="M3.72168003,231.683487 L45.3315153,231.683487 C56.3796212,231.683487 65.3358806,222.729421 65.3358806,211.679668 L65.3358806,186.923848 C65.3358806,175.876044 74.2906699,166.920029 85.3435287,166.920029 L67.7815184,166.920029 C78.8314374,166.920029 87.7891666,157.970689 87.7891666,146.928633 L87.7891666,144.833738 C87.7891666,133.792795 96.7386403,124.842342 107.786077,124.842342 L127.120452,124.842342" id="Path-169"></path>
                <path d="M1.11650401,170.436937 L73.0480906,170.436937 C84.0969302,170.436937 93.0537843,179.381461 93.0537843,190.432395 L93.0537843,193.864 C93.0537843,204.907186 102.007217,213.859457 113.048426,213.859457 L127.004424,213.859457" id="Path-170"></path>
                <path d="M0.372168003,307.220721 L43.9952401,307.220721 C52.9637976,307.220721 60.23425,314.489085 60.23425,323.459471 L60.23425,323.459471 C60.23425,332.427884 67.5092317,339.69822 76.4735437,339.69822 L126.879336,339.69822" id="Path-176"></path>
                <path d="M4.58663325e-15,265.968468 L54.4456385,265.968468 C65.4905884,265.968468 74.4442893,274.928024 74.4442893,285.965975 L74.4442893,288.58635 C74.4442893,299.630668 83.3999729,308.583857 94.4432533,308.583857 L126.800267,308.583857" id="Path-177"></path>
                <path d="M4.46601604,327.85449 C4.46601604,327.85449 14.3808043,327.85449 15.6165183,327.85449 L46.3106673,327.85449 C57.3603796,327.85449 66.3179413,318.908206 66.3179413,307.855097 L66.3179413,304.422816 C66.3179413,293.377457 75.274964,284.423423 86.3207108,284.423423 L127.021524,284.423423" id="Path-178"></path>
            </g>
            <circle id="Oval-14" stroke="#FFFFFF" cx="241.5" cy="272.5" r="6.5"></circle>
            <circle id="Oval-14" fill="#FFFFFF" cx="241.5" cy="272.5" r="1.5"></circle>
        </g>
    </g>
</svg>