<?xml version="1.0" encoding="UTF-8" standalone="no"?>
<svg width="650px" height="275px" viewBox="0 0 650 275" version="1.1" xmlns="http://www.w3.org/2000/svg" xmlns:xlink="http://www.w3.org/1999/xlink">
    <!-- Generator: Sketch 40.1 (33804) - http://www.bohemiancoding.com/sketch -->
    <title>codecamp-thumb</title>
    <desc>Created with Sketch.</desc>
    <defs>
        <polygon id="path-1" points="0 0.382198913 0 114.607441 206.009506 114.607441 206.009506 0.382198913 3.34499746e-20 0.382198913"></polygon>
        <polygon id="path-3" points="237.596284 0.074548913 0.110554209 0.074548913 0.110554209 58.2043342 237.596284 58.2043342 237.596284 0.074548913"></polygon>
    </defs>
    <g id="Page-1" stroke="none" stroke-width="1" fill="none" fill-rule="evenodd">
        <g id="codecamp-thumb">
            <g id="Page-1" transform="translate(25.000000, 25.000000)">
                <path d="M534.078712,102.632779 C537.033114,107.497241 539.987517,112.361703 542.940685,117.226165 C542.136061,124.912089 536.827022,131.958958 529.659449,134.853208 C522.491876,137.747458 513.776759,136.365719 507.856847,131.395159 C504.790143,128.820436 499.760007,131.164458 497.981689,134.753279 C496.203371,138.340866 496.563724,142.55517 496.44772,146.557279 C496.237925,153.785502 493.835159,161.628105 487.680771,165.426654 C479.174215,170.677262 468.284638,165.99292 459.236317,161.741605 C450.189231,157.49029 438.356812,154.100094 431.111492,160.985349 C424.81395,166.971241 414.473541,165.620344 406.654371,161.829197 C398.836434,158.038051 391.913211,152.227344 383.518956,149.982018 C381.864046,149.539121 379.785845,149.376273 378.746745,150.738273 C374.665621,156.090045 366.299751,155.902523 360.257664,152.934252 C354.215578,149.967214 349.42609,144.933735 343.578989,141.597822 C337.731888,138.263143 329.699221,136.997371 324.697469,141.502828 C320.984104,144.84861 315.104917,142.149284 311.152139,139.092186 C301.571927,131.683844 293.376361,122.492811 287.112139,112.129768 C283.190213,105.641762 280.859024,95.5834418 287.445342,91.8256049 C294.157537,87.9949799 304.295556,94.994969 309.762558,89.5333984 C314.285484,85.0131375 310.691825,76.1181918 315.248071,71.6300071 C319.272426,67.6661429 325.935258,70.3111864 331.061652,72.6823495 C336.18928,75.0547462 343.804827,76.1083223 346.124909,70.9588766 C348.058722,66.6668495 354.373541,67.1196158 358.631139,69.1305397 C362.887502,71.1414636 367.512857,74.0776592 371.92595,72.4356103 C385.901977,67.2368168 402.342474,69.2181321 414.682102,77.5887571 C408.009398,79.4923495 401.045449,76.6067353 394.429513,74.5119201 C387.813576,72.4171049 379.778441,71.3696973 374.634769,76.0256647 C370.673352,79.6095505 364.493048,76.8448386 359.701092,74.4823114 C354.909135,72.1185505 347.613217,71.1402299 345.560931,76.0725451 C344.007217,79.8094092 338.780862,80.3497679 334.967535,78.9902353 C331.155443,77.6307027 327.778983,75.002931 323.778075,74.3836158 C319.777168,73.7643005 314.772948,76.6252408 315.471441,80.6113114 C316.37726,85.7841973 314.020155,91.3864092 309.688513,94.3571484 C305.35687,97.3291212 299.281463,97.5104745 294.778283,94.8049799 C291.70911,92.9606049 287.567517,96.0436103 287.062775,99.5880179 C286.558034,103.132426 288.451122,106.543594 290.430597,109.52667 C297.415525,120.059964 306.374991,129.279371 316.704293,136.56311 C319.067568,138.229833 322.593352,139.696697 324.539506,137.559936 C329.001962,132.662165 337.0408,133.140839 342.9965,136.044958 C348.9522,138.950311 353.800925,143.741985 359.648026,146.860768 C365.493892,149.979551 373.341447,151.063969 378.309878,146.679415 C380.123985,145.078078 382.86489,145.180474 385.230634,145.693692 C393.685359,147.52573 400.709777,153.204431 408.514139,156.932659 C416.319734,160.660887 426.613248,162.04386 432.865129,156.066605 C437.890328,151.26136 446.001977,151.572252 452.538931,153.943415 C459.07712,156.314578 464.943966,160.37467 471.620373,162.322676 C478.295545,164.270681 486.603414,163.450273 490.619131,157.775273 C494.072104,152.896007 493.210712,146.338915 493.38225,140.36536 C493.552554,134.390572 496.094771,127.257344 501.994938,126.288893 C504.962915,125.801583 507.902508,127.090795 510.637244,128.340529 C517.9418,131.677676 527.373921,134.678023 533.266683,129.225089 C538.612745,124.276735 537.293506,115.439773 534.13548,108.875279 C530.307344,100.916708 524.131977,93.787181 515.978369,90.3871158 C507.825995,86.9870505 497.606527,87.9332951 491.183108,93.9969092 C490.116857,85.4091538 478.815096,82.9750723 470.181428,83.5956212 C461.547761,84.2161701 450.86551,84.7750342 446.445014,77.3346158 C442.862461,71.3067788 433.506853,72.9488277 427.757246,76.9645071 C422.007638,80.9801864 416.74426,86.7982951 409.739586,87.1486647 C415.307784,81.2318603 421.816354,76.2020832 428.946905,72.307306 C435.744252,68.5938821 446.168578,66.9654038 449.593168,73.9098766 C452.795621,80.4040505 461.883432,80.5249527 469.055942,79.5318277 C476.229685,78.5399364 485.157065,78.1476212 488.937071,84.3235016 C490.861011,87.4669582 495.280274,88.0282897 498.873933,87.2004799 C502.467593,86.3726701 505.803328,84.5221266 509.462393,84.0644255 C520.28533,82.7110614 528.419192,93.3134418 534.078712,102.632779" id="Fill-1" fill="#020302"></path>
                <g id="Group-5" transform="translate(0.000000, 21.365668)">
                    <mask id="mask-2" fill="white">
                        <use xlink:href="#path-1"></use>
                    </mask>
                    <g id="Clip-4"></g>
                    <path d="M52.3506789,72.4978783 C50.0157877,71.6601989 47.6216604,70.7892098 45.7532538,69.1594978 C43.8836131,67.5297859 42.6334838,64.9439598 43.2838472,62.5518239 C43.9342107,60.1584543 46.9799355,58.5127043 49.0828185,59.8290576 C48.5225433,61.8597207 47.3797795,63.7275359 45.8248308,65.1487533 C51.6410793,67.1695467 56.4219294,71.9624543 58.4273195,77.7817967 C57.4166029,63.3191826 56.4046522,48.8565685 55.3939355,34.3939543 C38.8349663,36.9859489 22.459876,40.7499543 6.43156386,45.6477261 C5.68247351,45.8771935 4.88648789,46.1412043 4.41506694,46.7654543 C3.71287187,47.6944272 4.00535031,49.0058457 4.32991499,50.1248076 C9.10829692,66.5884761 13.9582559,83.0311717 18.8797918,99.4541283 C19.9756604,103.109568 21.3134099,107.084536 24.5676953,109.080655 C26.9075228,110.515443 29.7952846,110.62771 32.5386583,110.700498 C42.6408883,110.966976 52.7431183,111.233454 62.8453483,111.499933 C64.8569088,111.554215 67.0289006,111.560384 68.6665331,110.39084 C71.3728842,108.458873 71.2630505,104.474036 70.8718452,101.172666 C70.2745474,96.1367207 69.6772497,91.1020087 69.079952,86.0672967 C68.8726255,84.3105141 68.5443585,82.3427696 67.1029458,81.3175685 C65.7651963,80.3663891 63.6919314,80.6908511 62.7095988,82.0059707 C61.7285002,83.3198565 62.0049355,85.3998674 63.2970238,86.4114978 C63.4883072,87.4181935 61.7926727,87.7586935 61.0892435,87.0135413 C60.3870485,86.2683891 60.3327487,85.142025 59.9674591,84.1846772 C58.7296706,80.9400576 53.1960279,80.8240902 51.823724,84.0131935 C50.5254653,82.3106935 51.8508739,79.9432315 52.9072517,78.0815848 C53.9648637,76.2187043 54.3671758,73.2208239 52.3506789,72.4978783 M146.21281,76.913275 C144.617137,79.4300141 141.345574,80.1961391 138.394874,80.6279326 C131.218662,81.680275 123.941256,82.0417478 116.694701,81.70865 C116.520695,87.7044109 116.346689,93.7014054 116.172683,99.6984 C116.134426,101.008585 116.199833,102.540835 117.263615,103.30696 C118.164498,103.955884 119.398584,103.762193 120.489517,103.549998 C145.336609,98.7102098 171.204291,99.1827152 195.857632,104.926802 C198.503513,105.54365 201.119775,103.265014 201.896016,100.661916 C202.672256,98.0600522 202.115683,95.2706663 201.594899,92.60465 C197.813658,73.2035522 196.273519,53.3669598 197.01397,33.6154924 C197.071972,32.0672043 195.045603,31.4639272 193.499293,31.3565957 C177.62771,30.2561391 161.756126,29.1544489 145.884543,28.0539924 C143.079465,27.8590685 139.046471,28.9817315 139.693133,31.7180685 C142.641365,44.1882641 145.050301,56.7867641 146.910069,69.4654543 C147.280295,71.988362 147.578944,74.7592424 146.21281,76.913275 M22.2574858,111.872509 C19.2463154,109.838145 17.9233749,106.135824 16.7991224,102.681476 C10.9717671,84.7805522 5.49982875,66.7624272 0.389477618,48.6431391 C0.0451675565,47.4242478 -0.276928953,46.0375739 0.382073101,44.9556228 C0.978136756,43.9785359 2.17890267,43.5862207 3.2797076,43.2716283 C18.1837671,39.0030413 33.2420875,35.2723457 48.4139437,32.0869435 C51.0018226,31.5428837 54.5350115,31.5206772 55.3470402,34.0374163 C55.9912333,25.8530793 56.6354263,17.6675087 57.2808534,9.48317174 C57.3980916,7.9891663 57.5856727,6.34465 58.6901799,5.33178587 C59.5577425,4.53605217 60.795531,4.32138913 61.9605084,4.15113913 C85.6845823,0.680753261 110.01089,1.36422065 133.502956,6.16206304 C111.052459,5.78948696 88.6019622,5.41814457 66.1514653,5.04556848 C64.7495433,5.02212826 63.2266809,5.03693261 62.1221737,5.90051957 C60.752338,6.97136739 60.5339047,8.92430761 60.4339437,10.6588837 C59.222071,31.6341772 59.4059499,52.6896609 60.9843462,73.6402804 C61.06703,74.7506065 61.2064817,75.9707315 62.0234468,76.7257533 C62.8293051,77.4709054 64.0350074,77.5239543 65.1321101,77.537525 C86.5472086,77.780563 107.963541,78.0248348 129.37864,78.2691065 C132.816804,78.3085848 136.393186,78.3184543 139.500615,76.8478891 C142.608044,75.3773239 145.079919,71.9525848 144.28887,68.6080359 C138.989703,46.2078239 133.655983,23.1932315 136.730092,0.382198913 C138.575051,8.44810109 139.332779,16.7619761 138.97366,25.0289707 C158.218001,26.2207207 177.462342,27.4124707 196.706683,28.6042207 C198.605942,28.7214217 201.119775,29.4937152 200.971685,31.3899054 C199.208176,53.8690739 200.86432,76.613487 205.864837,98.6004109 C206.791636,102.677775 203.117761,106.628068 199.063788,107.652036 C195.00858,108.676003 190.758387,107.622427 186.66986,106.741568 C164.425455,101.947427 141.086416,102.306433 119.001209,107.782808 C115.39274,108.677237 112.359356,104.496242 112.303823,100.780351 C112.247055,97.0644598 113.92788,93.5237533 114.1784,89.8164978 C114.428919,86.1080087 112.289014,81.6333946 108.571946,81.6185902 C97.5787055,81.5729435 86.5854653,81.5272967 75.5934591,81.4828837 C74.0434468,81.4767152 71.9232867,82.0553185 72.0948246,83.5949707 C72.8340423,90.2248511 73.5720259,96.8534978 74.3112435,103.483378 C74.5728698,105.831101 74.8061121,108.344139 73.7003708,110.431552 C71.6505536,114.304123 66.3538554,114.700139 61.9728493,114.592808 C51.7632538,114.343601 41.5548924,114.094395 31.3452969,113.845188 C28.2008452,113.767465 24.863876,113.631759 22.2574858,111.872509" id="Fill-3" fill="#020302" mask="url(#mask-2)"></path>
                </g>
                <g id="Group-8" transform="translate(147.856263, 0.159147)">
                    <mask id="mask-4" fill="white">
                        <use xlink:href="#path-3"></use>
                    </mask>
                    <g id="Clip-7"></g>
                    <path d="M232.147152,49.1713179 C232.298944,50.5616929 231.986721,52.0001821 231.270951,53.2018016 C232.100256,53.6977473 233.146762,53.812481 234.063688,53.5089918 C235.484121,51.9298614 234.289525,48.9060734 232.173068,48.7222527 L232.147152,49.1713179 Z M213.221205,47.1406549 C213.433468,45.7996277 213.645731,44.4586005 213.857994,43.1175734 C215.174764,42.888106 216.572983,43.1644538 217.703406,43.8762962 C217.563955,42.1552908 220.12962,41.2744321 221.504392,42.3193723 C222.879164,43.3643125 223.123513,45.3554973 222.845844,47.059231 C222.04122,47.4453777 221.237829,47.8302908 220.433205,48.2164375 C221.566096,50.5259158 224.527903,51.7497418 226.961521,50.9120625 C229.393905,50.0756168 230.97477,47.2886984 230.446581,44.7719592 C228.451063,45.0791495 226.546868,45.9550734 225.015367,47.2714266 C225.536152,44.2167962 226.032254,40.9499701 224.764848,38.1223397 C223.496207,35.2947092 219.702626,33.398519 217.183856,35.2034158 C216.917293,36.7689755 216.650731,38.335769 216.385402,39.9013288 C215.336429,39.3893451 214.287456,38.8773614 213.238482,38.3653777 C211.218283,40.6501821 210.111308,43.7208505 210.206332,46.7693125 C211.144238,47.1912364 212.209254,47.3232418 213.221205,47.1406549 L213.221205,47.1406549 Z M69.0848684,3.9230625 C47.6055973,4.96676902 24.0937862,9.01699185 10.3078088,25.5164375 C7.55209425,28.8153397 4.37679035,32.9469864 0.110554209,32.4164973 C7.85321129,19.2134864 21.54293,10.2667255 36.1174885,5.58114946 C50.692047,0.89557337 66.2131497,0.0776331522 81.5219895,0.0739320652 C123.339002,0.0665298913 166.380228,6.31766576 202.355076,27.6272908 C205.863583,29.7048342 209.573246,31.9970408 213.646965,31.8304918 C217.720684,31.6639429 221.85117,27.666769 220.445546,23.8398451 C226.685086,29.8886549 231.83863,37.0514918 235.592721,44.8866929 C236.947747,47.7180245 238.144811,50.9021929 237.331548,53.9333832 C236.518285,56.9645734 232.793813,59.3196984 230.135591,57.6505082 C222.51264,52.8625353 213.375466,50.5283832 204.38885,51.0712092 C204.10501,45.3777038 206.146189,39.6027745 209.944706,35.3514592 C168.444854,9.58202446 117.881872,1.55313315 69.0848684,3.9230625 L69.0848684,3.9230625 Z" id="Fill-6" fill="#020302" mask="url(#mask-4)"></path>
                </g>
                <path d="M570.701949,162.536845 C570.444025,161.62391 569.208704,161.15634 568.410251,161.669557 C568.257224,162.378932 568.386803,163.146291 568.766901,163.764372 C569.59991,163.743399 570.400832,163.219079 570.75378,162.464057 L570.701949,162.536845 Z M571.289374,168.095878 C573.809378,167.565389 576.330616,167.033666 578.851854,166.503177 C577.164858,163.623731 571.871862,164.481149 571.17954,167.745508 L571.289374,168.095878 Z M561.92883,164.931448 C560.202343,167.395139 560.749043,171.16778 563.104914,173.04053 C565.096729,168.875573 565.576789,164.00741 564.435259,159.53403 C562.632259,160.608579 561.598094,162.841568 561.946107,164.911709 L561.92883,164.931448 Z M578.395242,170.810008 C572.734489,172.006693 567.231698,173.946063 562.071984,176.562731 C561.735078,176.732981 561.384598,176.920503 561.179739,177.236329 C560.693509,177.988883 561.348809,179.052329 562.204031,179.31634 C563.060487,179.580351 563.978647,179.300302 564.830166,179.02272 C569.961497,177.344894 575.497608,175.363579 578.395242,170.810008 L578.395242,170.810008 Z M491.743877,76.0239375 C490.116117,76.6666929 489.837214,73.6885516 490.801035,72.227856 C496.001474,64.3507092 505.195417,59.702144 514.549791,58.425269 C523.90293,57.148394 533.433778,58.9150462 542.450012,61.716769 C556.567959,66.1037908 569.884984,73.0556658 581.553269,82.1331984 C590.457201,89.0591658 598.835413,98.0552745 600.33853,109.232557 C601.45291,117.516823 598.614511,125.803557 595.261499,133.461106 C591.297614,142.512731 586.54885,151.221389 581.086784,159.457541 C579.655244,161.615274 582.586199,163.906247 584.777936,165.286753 C586.969674,166.666024 588.290146,170.790269 585.722012,171.123367 C579.178887,174.560443 572.636996,177.996285 566.093871,181.433361 C564.068735,182.496807 561.868359,183.593563 559.603811,183.265399 C557.340497,182.937236 555.288211,180.450106 556.29646,178.397236 C557.915581,175.098334 557.716893,171.246736 557.731702,167.572791 C557.746511,163.898845 558.127844,159.925111 560.570101,157.178905 C563.012357,154.432698 568.190583,153.989802 570.007158,157.185073 C571.265926,159.399557 574.551064,159.673438 576.777355,158.434807 C579.003647,157.194943 580.416676,154.917541 581.730977,152.735133 C586.54268,144.753122 591.398809,136.671182 594.139715,127.763899 C596.88062,118.856617 597.332296,108.899459 593.419008,100.440008 C590.235066,93.5547527 584.459542,88.2153179 578.384136,83.6703832 C566.219747,74.570644 552.248657,67.8951168 537.524774,64.1483832 C529.300823,62.0560353 520.66839,60.8729212 512.329669,62.4434158 C503.990949,64.0139103 495.942238,68.6513723 491.743877,76.0239375 L491.743877,76.0239375 Z" id="Fill-9" fill="#020302"></path>
                <path d="M193.666758,203.187117 C189.184557,200.258323 184.460475,197.044546 182.377337,192.113465 C181.365387,189.717628 181.534456,186.204062 184.001395,185.377486 C187.407473,192.054247 192.971968,197.609579 199.655779,201.007177 C201.497036,197.309791 205.679354,194.915188 209.801202,195.201405 C211.77574,195.337111 211.860892,192.249171 210.9452,190.49609 C210.029508,188.741774 209.197734,186.033813 211.018011,185.260285 C212.456955,184.649606 213.836664,186.130041 214.899212,187.277378 C215.96176,188.423481 218.112773,189.245122 218.840884,187.862149 C218.095495,190.665106 221.242415,192.999258 224.093155,193.532215 C226.945128,194.066405 230.130305,193.823367 232.447918,195.566579 C234.009038,196.741057 235.900892,194.426644 236.177327,192.493443 C236.454997,190.560242 236.759816,188.024997 238.675118,187.643785 C242.226818,191.103068 239.867245,198.336226 234.95805,199.035731 C234.06704,199.162802 233.162454,199.108519 232.265274,199.05547 C227.557235,198.770486 222.849196,198.486736 218.142391,198.201753 C213.772491,197.937742 209.337185,198.871649 205.444877,200.873938 C206.271715,203.389443 203.588812,205.939492 200.941697,206.040655 C198.293348,206.140584 195.884411,204.636709 193.666758,203.187117" id="Fill-11" fill="#020302"></path>
                <path d="M375.627592,117.239982 C374.652663,114.752852 375.655976,111.98814 375.931177,109.330759 C376.206378,106.673379 375.061146,103.29552 372.396754,103.094428 C370.280296,102.936515 368.569852,105.094248 368.411889,107.21127 C368.253926,109.327058 369.199236,111.352786 370.121099,113.265015 C372.268409,117.71989 374.416953,122.174765 376.564263,126.62964 C377.665068,128.911977 378.096998,132.642672 375.596739,133.060895 C371.203392,126.468026 367.961448,119.111498 366.059721,111.421873 C364.855253,106.556178 364.991002,100.02746 369.64721,98.1658136 C373.364277,96.680444 377.63545,99.6104712 379.171887,103.30539 C381.145191,108.051417 379.628499,114.012634 375.627592,117.239982" id="Fill-13" fill="#020302"></path>
                <path d="M446.699235,116.731329 C446.047638,116.837427 445.394806,116.942291 444.743209,117.048389 C445.128244,117.775036 445.513278,118.501683 445.899547,119.229563 C446.660979,119.42202 447.507562,119.243134 448.125839,118.758291 C447.698845,118.085927 447.271851,117.414797 446.846092,116.742433 L446.699235,116.731329 Z M444.892533,112.118541 C448.178905,113.005568 451.153053,115.011558 453.205338,117.728155 C455.091022,116.071302 454.095114,113.008036 452.964691,110.766411 C451.244375,107.352775 449.524059,103.937905 447.803743,100.523036 C447.064525,99.0574054 446.657276,96.724487 448.230736,96.2556826 C452.081085,100.542775 456.083227,105.129655 457.169223,110.788617 C458.255219,116.446346 455.092256,123.339003 449.380905,124.111297 C444.670398,124.747884 439.970997,120.285607 440.364671,115.549449 C440.490547,114.028302 441.261851,112.361579 442.739053,111.974199 C443.443716,111.789145 444.190338,111.928552 444.892533,112.118541 L444.892533,112.118541 Z" id="Fill-15" fill="#020302"></path>
                <path d="M344.604021,179.300795 C346.510684,181.65592 347.459697,184.764833 347.190666,187.783686 C346.977169,190.183224 346.034327,192.486534 345.955345,194.894708 C345.876364,197.302882 347.064789,200.065127 349.42066,200.572176 C351.058292,200.925012 352.683584,200.093502 354.276789,199.576583 C355.871228,199.058431 357.938323,198.999214 358.884867,200.382186 C356.593169,204.323844 350.91884,204.222681 346.453916,203.290007 C344.675598,202.918665 342.833107,202.460964 341.450931,201.280317 C339.059271,199.238551 338.732239,195.634926 339.292514,192.540817 C339.851555,189.446708 341.110323,186.468567 341.228795,183.326344 C341.273222,182.174072 341.178198,180.949013 341.739707,179.941083 C342.301216,178.933154 343.874676,178.407599 344.604021,179.300795" id="Fill-17" fill="#020302"></path>
                <path d="M466.63849,203.531071 C465.680839,202.220886 463.368162,202.307245 462.510472,203.685283 C463.218837,204.986832 464.28262,206.221761 465.7265,206.557327 C467.169147,206.892892 468.944997,205.92074 468.979552,204.439071 C468.321784,204.022082 467.664016,203.603859 467.005014,203.185636 L466.63849,203.531071 Z M457.248328,198.207674 C460.980205,198.96393 464.712082,199.721419 468.443958,200.477674 C469.595361,200.710843 470.789956,200.963751 471.72416,201.675593 C473.886279,203.325044 473.591332,207.038468 471.497088,208.774278 C469.404077,210.511321 466.199155,210.410158 463.82971,209.075299 C461.45903,207.740441 459.815227,205.396419 458.647782,202.940131 C457.335948,200.181588 453.354786,200.517153 450.397915,201.288213 C449.965985,201.400479 449.516778,201.522615 449.188511,201.82487 C447.861868,203.047463 449.782106,205.02631 451.432079,205.755424 C454.783858,207.237093 458.13687,208.718761 461.488648,210.20043 C457.859201,213.086044 452.578546,210.616185 448.672663,208.116718 C447.202866,207.176642 445.638045,206.120598 445.049385,204.477316 C444.105309,201.838441 446.287174,198.910881 448.941693,198.006582 C451.596213,197.102283 454.500018,197.651278 457.248328,198.207674 L457.248328,198.207674 Z" id="Fill-19" fill="#020302"></path>
                <path d="M506.276476,209.775052 C507.330386,208.188519 508.384296,206.600753 509.438205,205.01422 C507.522903,203.366003 504.231595,204.723068 503.275179,207.062155 C502.318762,209.400008 503.127088,212.110437 504.44139,214.268171 C505.754458,216.425905 507.548819,218.266579 508.81129,220.453921 C509.687491,221.971367 509.872604,224.526351 508.158458,224.890291 C507.374813,225.05684 506.603509,224.601606 505.953146,224.135269 C502.365657,221.566715 499.413723,217.86316 498.568374,213.534122 C497.723025,209.205084 499.333507,204.280171 503.061682,201.920111 C505.396573,200.442144 508.5546,200.115215 510.932684,201.524095 C513.310768,202.934209 514.528811,206.228177 513.245361,208.675829 C511.961912,211.123481 508.10169,211.850128 506.276476,209.775052" id="Fill-21" fill="#020302"></path>
                <path d="M358.189459,109.489659 C358.994084,106.837214 355.494215,103.967637 356.87886,101.565632 C361.867036,102.046773 364.119244,109.262659 360.948876,113.141398 C357.777275,117.020137 351.373601,117.04111 347.37763,114.017322 C343.381659,110.994768 341.583595,105.752795 341.504613,100.743991 C341.483634,99.4091321 342.409199,97.5450179 343.57541,98.1964092 C344.249221,102.947371 346.970381,107.371404 350.907116,110.115143 C353.246944,111.746089 357.362622,112.218594 358.189459,109.489659" id="Fill-23" fill="#020302"></path>
                <path d="M79.9636053,77.0483984 C77.7027593,77.0891103 75.3814431,77.1211864 73.2563466,76.3488929 C71.1312501,75.5753658 69.2134801,73.8087136 68.9419811,71.5646212 C68.6951639,69.5364255 69.7922665,67.6118603 70.8708579,65.8760505 C74.7347819,59.6532897 78.8788435,53.6057136 83.2882337,47.7579962 C84.1915848,46.5600777 85.8662398,45.2720995 86.9732152,46.2824962 C87.9456752,47.1682897 87.2187984,48.7609908 86.454899,49.8306049 C81.9924431,56.0792734 77.5312214,62.3279418 73.0687655,68.5766103 C71.6372255,70.5813658 74.6520982,72.8735723 77.1042275,73.1227788 C79.5563569,73.3719853 82.7822583,73.6446321 83.3190858,76.0491049 C82.5132275,76.9423005 81.1656053,77.0261918 79.9636053,77.0483984" id="Fill-25" fill="#020302"></path>
                <path d="M100.931101,34.3673402 C102.479879,39.7807967 99.1996778,45.2263293 97.3213986,50.5349217 C94.3336758,58.9808022 94.8544602,68.2668293 92.6762979,76.9569815 C92.1838975,78.921025 91.0707517,81.235438 89.0456162,81.2551772 C90.3845998,66.265775 93.4142815,51.4281174 98.0618503,37.1135467 C98.5135259,35.7207043 99.5081994,34.0169707 100.931101,34.3673402" id="Fill-27" fill="#020302"></path>
                <path d="M421.250032,113.176805 C420.24672,112.418083 418.578236,112.856045 418.078431,114.00955 C418.637472,114.921251 419.798747,115.419664 420.844018,115.195132 C421.229053,114.611593 421.364802,113.871376 421.21301,113.190376 L421.250032,113.176805 Z M416.10019,118.46936 C414.194761,116.681735 412.969314,113.975007 413.55427,111.428659 C414.140461,108.882311 416.923326,106.861517 419.418648,107.638746 C424.014385,109.069833 428.117722,112.036871 430.91663,115.952621 C427.933843,117.312153 424.951057,118.671686 421.96827,120.029985 C420.013478,120.921947 417.668714,119.937458 416.10019,118.46936 L416.10019,118.46936 Z" id="Fill-29" fill="#020302"></path>
                <path d="M536.893539,201.715318 C541.064751,200.508764 545.645679,200.76784 549.655225,202.438264 C549.489857,204.303611 547.21667,205.222715 545.34703,205.106747 C543.477389,204.989546 541.616387,204.269068 539.77513,204.612035 C537.93264,204.955003 536.274028,207.168253 537.408153,208.658557 C540.378599,212.564438 544.770711,216.94159 549.397301,215.305709 C550.367293,216.697318 549.115929,218.768693 547.470892,219.184448 C545.825855,219.59897 544.116646,218.872323 542.649317,218.021073 C539.638147,216.27416 536.977457,213.92397 534.874574,211.150622 C533.224601,208.976851 531.942385,205.834628 533.582486,203.654688 C534.364896,202.613448 535.642176,202.076791 536.893539,201.715318" id="Fill-31" fill="#020302"></path>
                <path d="M559.888268,213.061493 C560.670679,213.079999 561.440748,212.587754 561.752972,211.870977 C560.455948,208.960689 556.715432,207.417336 553.742518,208.564673 C555.33449,210.566961 557.521291,212.090575 559.949972,212.892477 L559.888268,213.061493 Z M550.725178,209.51832 C550.241416,208.5437 549.902042,207.37539 550.351249,206.384733 C551.005315,204.946243 552.910744,204.645222 554.487907,204.753787 C561.606116,205.244798 568.177625,210.397945 570.348383,217.19314 C567.971533,215.942173 565.202243,215.451162 562.539085,215.805233 C557.818705,216.434417 552.839167,213.784439 550.725178,209.51832 L550.725178,209.51832 Z" id="Fill-33" fill="#020302"></path>
                <path d="M246.155038,187.806263 C250.352165,188.247926 251.420884,194.56198 255.411919,195.936317 C258.414451,196.968921 261.47375,194.745801 263.875282,192.668258 C265.747391,191.047182 267.6195,189.426105 269.491609,187.805029 C271.02311,188.039432 270.317212,190.411828 269.255898,191.539426 C265.277204,195.768535 260.44082,200.345546 254.655424,199.842198 C249.085993,199.357355 244.748179,193.214785 246.155038,187.806263" id="Fill-35" fill="#020302"></path>
                <path d="M315.095044,187.45503 C316.57348,186.427361 318.544315,188.122459 319.014502,189.859503 C320.036326,193.64078 317.452149,197.772427 313.849851,199.313312 C310.247554,200.854198 306.002297,200.189236 302.497492,198.438622 C299.75165,197.066753 297.183517,194.823894 296.552899,191.819845 C295.921046,188.815796 298.059718,185.206003 301.130124,185.217106 C302.861547,186.841883 299.760289,189.572052 300.251455,191.896334 C300.473591,192.948677 301.40656,193.682726 302.304975,194.277367 C305.56543,196.437568 309.964948,197.969818 313.268597,195.87747 C315.971246,194.166334 316.846213,190.130916 315.095044,187.45503" id="Fill-37" fill="#020302"></path>
                <path d="M106.981332,72.3250712 C106.184112,68.9940929 109.163197,66.0924408 111.678264,63.7656908 C114.192098,61.4401745 116.675079,57.7921364 114.873314,54.879381 C113.781147,53.1139625 111.56226,52.5020495 109.762962,51.4645114 C107.964899,50.4269734 106.393907,48.0829516 107.598375,46.3915549 C110.647802,47.6696636 113.774977,48.9983538 116.144422,51.3028973 C118.515102,53.6086745 119.987367,57.1469136 118.933457,60.2805005 C118.365778,61.9657288 117.150203,63.3462342 115.913648,64.6243429 C113.176445,67.4544408 110.182552,70.0340984 106.981332,72.3250712" id="Fill-39" fill="#020302"></path>
                <path d="M423.253818,200.061549 C425.865145,202.262462 424.274407,207.418076 420.876968,207.765978 C417.479529,208.11388 414.875607,203.388826 416.98466,200.704304 C418.53714,198.729158 418.04474,195.920033 417.859627,193.416864 C417.675748,190.912462 418.321175,187.794913 420.73258,187.094174 C422.857676,188.109505 422.855208,191.107386 422.382553,193.414397 C421.911132,195.721408 421.453286,198.544103 423.253818,200.061549" id="Fill-41" fill="#020302"></path>
                <path d="M436.91651,201.720253 C436.675863,200.933155 435.48497,200.660508 434.925929,201.266253 C434.902482,202.458003 437.176902,202.837981 437.123837,201.646231 L436.91651,201.720253 Z M439.0848,205.64834 C441.661572,205.584188 444.187746,207.291622 445.088629,209.704731 C440.305311,209.856476 435.487438,208.058981 431.973995,204.81066 C430.784336,203.710204 429.668722,202.219899 429.932816,200.619796 C430.38696,197.867421 434.095389,197.373943 436.880722,197.558997 C438.988541,197.699639 441.819535,198.700166 441.425861,200.775242 C441.067976,202.668965 437.990165,204.060573 439.0848,205.64834 L439.0848,205.64834 Z" id="Fill-43" fill="#020302"></path>
                <path d="M392.870245,205.25109 C391.800292,208.854715 386.635641,209.638111 383.409739,207.703677 C379.371809,205.283166 377.6083,199.683421 379.528538,195.386459 C381.45001,191.089497 386.799774,188.667753 391.296785,190.060595 C392.126091,190.31597 392.893692,191.613818 392.047109,191.802573 C389.269181,192.421889 386.364142,193.104122 384.22547,194.980573 C382.085565,196.857024 381.062507,200.334813 382.788994,202.59741 C384.960986,205.44478 389.361737,204.529378 392.870245,205.25109" id="Fill-45" fill="#020302"></path>
                <path d="M398.052049,198.493152 C398.137201,199.990858 399.908115,200.918597 401.390253,200.682961 C402.87239,200.447326 404.089199,199.423358 405.22209,198.438869 C403.459815,196.557483 400.031524,196.65988 398.382784,198.642429 L398.052049,198.493152 Z M408.452928,196.078809 C409.927661,198.23901 408.025934,201.238124 405.697214,202.429874 C401.023729,204.819543 394.591671,202.718559 392.232099,198.030516 C395.608559,195.745711 399.651425,194.456499 403.727612,194.365206 C405.476312,194.325728 407.466893,194.634152 408.452928,196.078809 L408.452928,196.078809 Z" id="Fill-47" fill="#020302"></path>
                <path d="M381.976965,98.1181929 C381.909091,96.8906658 383.670132,96.2861549 384.737616,96.8980679 C385.805101,97.509981 386.303672,98.7510788 386.794838,99.8786766 C388.273273,103.275041 390.329261,106.40616 391.678117,109.855573 C393.026974,113.30622 393.614399,117.289823 392.084132,120.663981 C388.808867,113.446861 385.532368,106.229742 382.255869,99.0126223 C382.12629,98.7264049 381.994243,98.4315516 381.976965,98.1181929" id="Fill-49" fill="#020302"></path>
                <path d="M396.108117,111.516374 C395.926706,109.931076 397.469314,108.660369 398.990942,108.175527 C401.597332,107.346483 404.761529,108.01638 406.426312,110.187684 C408.08986,112.358989 407.68508,115.977418 405.325507,117.361624 C402.520429,118.465782 399.647476,116.088451 397.565572,113.90851 C396.907805,113.220108 396.216716,112.461385 396.108117,111.516374 L396.108117,111.516374 Z" id="Fill-51" fill="#020302"></path>
                <path d="M494.449117,207.172817 C490.609875,206.496752 486.769399,205.820687 482.930156,205.144622 C482.779598,206.454807 482.630273,207.764991 482.480949,209.075176 C480.537263,210.342182 477.722312,208.162241 477.885212,205.847828 C478.048111,203.533415 480.284275,201.798839 482.572271,201.408991 C484.860267,201.019143 487.185286,201.65573 489.417748,202.286149 C490.405017,202.564964 491.392286,202.843779 492.378321,203.121361 C493.392739,203.407578 494.483672,203.745611 495.104417,204.596861 C495.725162,205.448111 495.480813,206.959388 494.449117,207.172817" id="Fill-53" fill="#020302"></path>
                <path d="M333.433689,188.727834 C332.578468,191.592475 327.1127,190.167557 326.047683,192.960643 C325.093734,195.463812 328.939147,198.64798 326.983121,200.477551 C323.328991,199.138991 321.500075,194.260959 323.372184,190.851024 C325.244293,187.441089 330.342303,186.365307 333.433689,188.727834" id="Fill-55" fill="#020302"></path>
                <path d="M278.643345,198.44109 C279.941604,196.174791 283.843785,196.250046 285.084041,198.548421 C286.323064,200.84803 284.299163,204.127193 281.686602,204.086481 C279.074041,204.044535 277.148867,200.760437 278.357037,198.444791 L278.643345,198.44109 Z" id="Fill-57" fill="#020302"></path>
                <path d="M369.435564,202.856733 C368.075601,203.991733 365.600024,202.997374 365.405038,201.236891 C366.557675,200.119163 368.335993,199.693538 369.869962,200.16851 C370.600541,200.933402 370.389513,202.373124 369.468884,202.894978 L369.435564,202.856733 Z" id="Fill-59" fill="#020302"></path>
                <path d="M525.358041,210.203761 C526.663705,209.40556 528.288996,211.475701 527.485606,212.77725 C526.682216,214.078799 524.633633,214.076332 523.443974,213.114049 C522.255548,212.150533 521.761914,210.57387 521.511394,209.06506 C522.745481,208.68138 524.152339,208.904679 525.206249,209.649832 L525.358041,210.203761 Z" id="Fill-61" fill="#020302"></path>
                <path d="M545.065535,113.218258 C545.36912,112.296687 546.622952,111.845154 547.444853,112.360839 C547.281954,113.085018 547.053648,113.89679 546.39588,114.239758 C545.738112,114.583959 544.702713,113.865948 545.092685,113.235529 L545.065535,113.218258 Z" id="Fill-63" fill="#020302"></path>
                <path d="M152.355104,90.538737 C153.914989,89.419775 155.869782,91.1173402 157.335876,92.3572043 C160.32977,94.8875141 164.616985,95.8004489 168.382182,94.7086283 C166.35211,87.8505141 163.097825,81.3551065 158.819248,75.6221228 C157.022418,73.2139489 155.002219,69.8743348 156.866924,67.5179761 C163.005269,74.5599109 167.791055,82.7775576 170.886143,91.5910793 C171.711747,93.9425033 172.169593,97.097063 170.076583,98.4504272 C169.133741,99.0598728 167.935443,99.0759109 166.813659,99.0364326 C160.772807,98.8217696 153.558338,96.4604761 152.355104,90.538737" id="Fill-65" fill="#020302"></path>
                <path d="M189.328205,95.6773261 C184.818854,95.742712 180.310737,95.8068641 175.801385,95.87225 C175.629847,95.1085924 175.457075,94.3449348 175.285537,93.5825109 C179.311127,91.6863207 183.936482,91.0904457 188.310084,91.9046848 C189.2665,92.082337 190.025463,90.906625 189.825541,89.9554457 C189.626854,89.0042663 188.837038,88.3035272 188.075607,87.6990163 C185.777739,85.871913 183.321907,84.2434348 180.743901,82.8394891 C178.573143,81.6576087 176.271572,80.6015652 174.526574,78.8509511 C172.780342,77.100337 171.691878,74.42075 172.590293,72.1186739 C173.489942,69.8153641 176.909595,68.6778967 178.586718,70.4938967 C177.461231,71.8583641 176.335745,73.2228315 175.211492,74.5885326 C179.193889,77.4087609 183.176285,80.2277554 187.158681,83.0479837 C189.491104,84.6999022 191.959277,86.5282391 192.877437,89.2349674 C193.794363,91.9416957 192.186348,95.6366141 189.328205,95.6773261" id="Fill-67" fill="#020302"></path>
                <path d="M26.9109782,89.8630418 C24.1120706,90.8438299 20.9083828,92.2588788 20.2629556,95.1518951 C19.3990953,99.0232321 23.9430008,102.055656 27.9056517,102.244411 C31.8695368,102.433167 35.9099351,101.100776 39.757816,102.07046 C39.2357975,103.955547 37.253855,105.016526 35.3891507,105.609933 C29.9739803,107.333406 23.4345573,106.649939 19.5126312,102.538031 C15.589471,98.4273571 15.8079043,90.6131288 20.7393129,87.7891995 C23.0162021,86.4851832 26.8776579,87.2402049 26.9109782,89.8630418" id="Fill-69" fill="#020302"></path>
                <path d="M44.6602236,97.3149337 C42.7116014,95.0856457 39.4807637,94.5144446 37.0903386,92.7662978 C34.7011476,91.0181511 33.8200101,86.5287326 36.6300244,85.5911239 C37.1051476,85.4319772 37.6629546,85.424575 38.0702031,85.7157272 C38.7551209,86.2042707 38.6995871,87.2072652 38.8513797,88.035075 C39.6214495,92.2555478 46.4422441,92.8156457 47.5973489,96.9485261 C48.1045583,98.7632924 47.1370347,100.876613 45.4302934,101.678515 C43.7247862,102.481651 41.4799834,101.879608 40.4038602,100.33132 C41.8230593,99.3258576 43.2410244,98.3203957 44.6602236,97.3149337" id="Fill-71" fill="#020302"></path>
            </g>
        </g>
    </g>
</svg>