<?xml version="1.0" encoding="UTF-8" standalone="no"?>
<svg width="348px" height="48px" viewBox="0 0 348 48" version="1.1" xmlns="http://www.w3.org/2000/svg" xmlns:xlink="http://www.w3.org/1999/xlink">
    <!-- Generator: Sketch 3.8.3 (29802) - http://www.bohemiancoding.com/sketch -->
    <title>JesseJohnston</title>
    <desc>Created with Sketch.</desc>
    <defs></defs>
    <g id="Logo" stroke="none" stroke-width="1" fill="none" fill-rule="evenodd">
        <path d="M20.336,31.896 C20.336,34.4346794 20.0213365,36.674657 19.392,38.616 C18.7626635,40.557343 17.8666725,42.1893267 16.704,43.512 C15.5413275,44.8346733 14.122675,45.8319966 12.448,46.504 C10.773325,47.1760034 8.89067712,47.512 6.8,47.512 C5.8399952,47.512 4.86933824,47.4373341 3.888,47.288 C2.90666176,47.1386659 1.89333856,46.9040016 0.848,46.584 C0.89066688,46.2853318 0.92799984,45.9866682 0.96,45.688 C0.99200016,45.3893318 1.01866656,45.0906682 1.04,44.792 C1.08266688,44.599999 1.16266608,44.4293341 1.28,44.28 C1.39733392,44.1306659 1.60533184,44.056 1.904,44.056 C2.09600096,44.056 2.325332,44.093333 2.592,44.168 C2.858668,44.242667 3.1786648,44.3226662 3.552,44.408 C3.9253352,44.4933338 4.3519976,44.573333 4.832,44.648 C5.3120024,44.722667 5.8719968,44.76 6.512,44.76 C8.13334144,44.76 9.59466016,44.5040026 10.896,43.992 C12.1973398,43.4799974 13.3066621,42.6960053 14.224,41.64 C15.1413379,40.5839947 15.8399976,39.2506747 16.32,37.64 C16.8000024,36.0293253 17.04,34.1360109 17.04,31.96 L17.04,1.72 L20.336,1.72 L20.336,31.896 Z M40.6844444,14.648 C42.4764534,14.648 44.1351035,14.9573302 45.6604444,15.576 C47.1857854,16.1946698 48.5084388,17.0959941 49.6284444,18.28 C50.74845,19.4640059 51.6231079,20.9199914 52.2524444,22.648 C52.8817809,24.3760086 53.1964444,26.3599888 53.1964444,28.6 C53.1964444,29.0693357 53.1271118,29.3893325 52.9884444,29.56 C52.8497771,29.7306675 52.6311126,29.816 52.3324444,29.816 L29.3244444,29.816 L29.3244444,30.424 C29.3244444,32.8133453 29.601775,34.9146576 30.1564444,36.728 C30.7111139,38.5413424 31.5004393,40.0613272 32.5244444,41.288 C33.5484495,42.5146728 34.7857705,43.4373302 36.2364444,44.056 C37.6871183,44.6746698 39.3084355,44.984 41.1004444,44.984 C42.7004524,44.984 44.0871052,44.8080018 45.2604444,44.456 C46.4337836,44.1039982 47.4204404,43.7093355 48.2204444,43.272 C49.0204484,42.8346645 49.6551087,42.4400018 50.1244444,42.088 C50.5937801,41.7359982 50.93511,41.56 51.1484444,41.56 C51.4257791,41.56 51.6391103,41.6666656 51.7884444,41.88 L52.6204444,42.904 C52.1084419,43.5440032 51.4311153,44.1413306 50.5884444,44.696 C49.7457735,45.2506694 48.8071163,45.7253314 47.7724444,46.12 C46.7377726,46.5146686 45.6284503,46.8293322 44.4444444,47.064 C43.2604385,47.2986678 42.0711171,47.416 40.8764444,47.416 C38.7004335,47.416 36.7164534,47.0373371 34.9244444,46.28 C33.1324355,45.5226629 31.5964508,44.4186739 30.3164444,42.968 C29.036438,41.5173261 28.0497812,39.7413438 27.3564444,37.64 C26.6631076,35.5386562 26.3164444,33.1333469 26.3164444,30.424 C26.3164444,28.1413219 26.6417745,26.0346763 27.2924444,24.104 C27.9431143,22.1733237 28.8817716,20.5093403 30.1084444,19.112 C31.3351172,17.7146597 32.8391022,16.6213373 34.6204444,15.832 C36.4017867,15.0426627 38.4230998,14.648 40.6844444,14.648 L40.6844444,14.648 Z M40.7164444,16.92 C39.0737695,16.92 37.6017843,17.1759974 36.3004444,17.688 C34.9991046,18.2000026 33.8737825,18.9359952 32.9244444,19.896 C31.9751063,20.8560048 31.207114,22.0079933 30.6204444,23.352 C30.0337748,24.6960067 29.6444454,26.1999917 29.4524444,27.864 L50.4444444,27.864 C50.4444444,26.1573248 50.2097801,24.6266734 49.7404444,23.272 C49.2711087,21.9173266 48.609782,20.7706714 47.7564444,19.832 C46.9031068,18.8933286 45.8791171,18.1733358 44.6844444,17.672 C43.4897718,17.1706642 42.1671183,16.92 40.7164444,16.92 L40.7164444,16.92 Z M75.3688888,19.096 C75.2195548,19.3946682 74.9848904,19.544 74.6648888,19.544 C74.430221,19.544 74.126224,19.410668 73.7528888,19.144 C73.3795536,18.877332 72.8888919,18.5786683 72.2808888,18.248 C71.6728858,17.9173317 70.9262266,17.618668 70.0408888,17.352 C69.1555511,17.085332 68.0728952,16.952 66.7928888,16.952 C65.6408831,16.952 64.5902269,17.1173317 63.6408888,17.448 C62.6915508,17.7786683 61.8808922,18.2213306 61.2088888,18.776 C60.5368855,19.3306694 60.014224,19.9759963 59.6408888,20.712 C59.2675536,21.4480037 59.0808888,22.2213293 59.0808888,23.032 C59.0808888,24.0346717 59.3368863,24.8666634 59.8488888,25.528 C60.3608914,26.1893366 61.0328847,26.7546643 61.8648888,27.224 C62.696893,27.6933357 63.6408836,28.098665 64.6968888,28.44 C65.7528941,28.781335 66.83555,29.122665 67.9448888,29.464 C69.0542277,29.805335 70.1368836,30.1839979 71.1928888,30.6 C72.2488941,31.0160021 73.1928847,31.5333302 74.0248888,32.152 C74.856893,32.7706698 75.5288863,33.5279955 76.0408888,34.424 C76.5528914,35.3200045 76.8088888,36.4079936 76.8088888,37.688 C76.8088888,39.0746736 76.5582247,40.3653274 76.0568888,41.56 C75.555553,42.7546726 74.8302269,43.789329 73.8808888,44.664 C72.9315508,45.538671 71.7635624,46.2319974 70.3768888,46.744 C68.9902152,47.2560026 67.4115644,47.512 65.6408888,47.512 C63.4008776,47.512 61.4702303,47.1546702 59.8488888,46.44 C58.2275474,45.7253298 56.7768952,44.7920058 55.4968888,43.64 L56.2328888,42.552 C56.339556,42.3813325 56.4568882,42.2533338 56.5848888,42.168 C56.7128895,42.0826662 56.894221,42.04 57.1288888,42.04 C57.4062236,42.04 57.7475535,42.210665 58.1528888,42.552 C58.5582242,42.893335 59.0862189,43.2613314 59.7368888,43.656 C60.3875588,44.0506686 61.1982173,44.418665 62.1688888,44.76 C63.1395604,45.101335 64.3395484,45.272 65.7688888,45.272 C67.1128956,45.272 68.2968837,45.0853352 69.3208888,44.712 C70.344894,44.3386648 71.1982188,43.8320032 71.8808888,43.192 C72.5635589,42.5519968 73.0808871,41.8000043 73.4328888,40.936 C73.7848906,40.0719957 73.9608888,39.1600048 73.9608888,38.2 C73.9608888,37.133328 73.7048914,36.2480035 73.1928888,35.544 C72.6808863,34.8399965 72.008893,34.2426691 71.1768888,33.752 C70.3448847,33.2613309 69.4008941,32.845335 68.3448888,32.504 C67.2888836,32.162665 66.2008944,31.821335 65.0808888,31.48 C63.9608832,31.138665 62.8728941,30.7653354 61.8168888,30.36 C60.7608836,29.9546646 59.816893,29.4426698 58.9848888,28.824 C58.1528847,28.2053302 57.4808914,27.4533378 56.9688888,26.568 C56.4568863,25.6826622 56.2008888,24.5786733 56.2008888,23.256 C56.2008888,22.1253277 56.4462197,21.0373386 56.9368888,19.992 C57.427558,18.9466614 58.1262176,18.0293373 59.0328888,17.24 C59.93956,16.4506627 61.043549,15.8213357 62.3448888,15.352 C63.6462287,14.8826643 65.1075474,14.648 66.7288888,14.648 C68.6702319,14.648 70.3928813,14.9253306 71.8968888,15.48 C73.4008964,16.0346694 74.7822159,16.8879942 76.0408888,18.04 L75.3688888,19.096 Z M99.3333333,19.096 C99.1839992,19.3946682 98.9493349,19.544 98.6293333,19.544 C98.3946654,19.544 98.0906685,19.410668 97.7173333,19.144 C97.3439981,18.877332 96.8533363,18.5786683 96.2453333,18.248 C95.6373302,17.9173317 94.890671,17.618668 94.0053333,17.352 C93.1199955,17.085332 92.0373397,16.952 90.7573333,16.952 C89.6053275,16.952 88.5546713,17.1173317 87.6053333,17.448 C86.6559952,17.7786683 85.8453366,18.2213306 85.1733333,18.776 C84.5013299,19.3306694 83.9786685,19.9759963 83.6053333,20.712 C83.2319981,21.4480037 83.0453333,22.2213293 83.0453333,23.032 C83.0453333,24.0346717 83.3013307,24.8666634 83.8133333,25.528 C84.3253358,26.1893366 84.9973291,26.7546643 85.8293333,27.224 C86.6613374,27.6933357 87.605328,28.098665 88.6613333,28.44 C89.7173385,28.781335 90.7999944,29.122665 91.9093333,29.464 C93.0186721,29.805335 94.101328,30.1839979 95.1573333,30.6 C96.2133385,31.0160021 97.1573291,31.5333302 97.9893333,32.152 C98.8213374,32.7706698 99.4933307,33.5279955 100.005333,34.424 C100.517336,35.3200045 100.773333,36.4079936 100.773333,37.688 C100.773333,39.0746736 100.522669,40.3653274 100.021333,41.56 C99.5199974,42.7546726 98.7946713,43.789329 97.8453333,44.664 C96.8959952,45.538671 95.7280069,46.2319974 94.3413333,46.744 C92.9546597,47.2560026 91.3760088,47.512 89.6053333,47.512 C87.3653221,47.512 85.4346747,47.1546702 83.8133333,46.44 C82.1919918,45.7253298 80.7413397,44.7920058 79.4613333,43.64 L80.1973333,42.552 C80.3040005,42.3813325 80.4213326,42.2533338 80.5493333,42.168 C80.6773339,42.0826662 80.8586654,42.04 81.0933333,42.04 C81.370668,42.04 81.7119979,42.210665 82.1173333,42.552 C82.5226686,42.893335 83.0506633,43.2613314 83.7013333,43.656 C84.3520032,44.0506686 85.1626617,44.418665 86.1333333,44.76 C87.1040048,45.101335 88.3039928,45.272 89.7333333,45.272 C91.07734,45.272 92.2613281,45.0853352 93.2853333,44.712 C94.3093384,44.3386648 95.1626632,43.8320032 95.8453333,43.192 C96.5280033,42.5519968 97.0453315,41.8000043 97.3973333,40.936 C97.749335,40.0719957 97.9253333,39.1600048 97.9253333,38.2 C97.9253333,37.133328 97.6693358,36.2480035 97.1573333,35.544 C96.6453307,34.8399965 95.9733374,34.2426691 95.1413333,33.752 C94.3093291,33.2613309 93.3653385,32.845335 92.3093333,32.504 C91.253328,32.162665 90.1653389,31.821335 89.0453333,31.48 C87.9253277,31.138665 86.8373385,30.7653354 85.7813333,30.36 C84.725328,29.9546646 83.7813374,29.4426698 82.9493333,28.824 C82.1173291,28.2053302 81.4453358,27.4533378 80.9333333,26.568 C80.4213307,25.6826622 80.1653333,24.5786733 80.1653333,23.256 C80.1653333,22.1253277 80.4106641,21.0373386 80.9013333,19.992 C81.3920024,18.9466614 82.0906621,18.0293373 82.9973333,17.24 C83.9040045,16.4506627 85.0079934,15.8213357 86.3093333,15.352 C87.6106731,14.8826643 89.0719918,14.648 90.6933333,14.648 C92.6346763,14.648 94.3573257,14.9253306 95.8613333,15.48 C97.3653408,16.0346694 98.7466603,16.8879942 100.005333,18.04 L99.3333333,19.096 Z M117.761778,14.648 C119.553787,14.648 121.212437,14.9573302 122.737778,15.576 C124.263119,16.1946698 125.585772,17.0959941 126.705778,18.28 C127.825783,19.4640059 128.700441,20.9199914 129.329778,22.648 C129.959114,24.3760086 130.273778,26.3599888 130.273778,28.6 C130.273778,29.0693357 130.204445,29.3893325 130.065778,29.56 C129.92711,29.7306675 129.708446,29.816 129.409778,29.816 L106.401778,29.816 L106.401778,30.424 C106.401778,32.8133453 106.679108,34.9146576 107.233778,36.728 C107.788447,38.5413424 108.577773,40.0613272 109.601778,41.288 C110.625783,42.5146728 111.863104,43.4373302 113.313778,44.056 C114.764452,44.6746698 116.385769,44.984 118.177778,44.984 C119.777786,44.984 121.164438,44.8080018 122.337778,44.456 C123.511117,44.1039982 124.497774,43.7093355 125.297778,43.272 C126.097782,42.8346645 126.732442,42.4400018 127.201778,42.088 C127.671113,41.7359982 128.012443,41.56 128.225778,41.56 C128.503112,41.56 128.716444,41.6666656 128.865778,41.88 L129.697778,42.904 C129.185775,43.5440032 128.508449,44.1413306 127.665778,44.696 C126.823107,45.2506694 125.88445,45.7253314 124.849778,46.12 C123.815106,46.5146686 122.705784,46.8293322 121.521778,47.064 C120.337772,47.2986678 119.14845,47.416 117.953778,47.416 C115.777767,47.416 113.793787,47.0373371 112.001778,46.28 C110.209769,45.5226629 108.673784,44.4186739 107.393778,42.968 C106.113771,41.5173261 105.127114,39.7413438 104.433778,37.64 C103.740441,35.5386562 103.393778,33.1333469 103.393778,30.424 C103.393778,28.1413219 103.719108,26.0346763 104.369778,24.104 C105.020448,22.1733237 105.959105,20.5093403 107.185778,19.112 C108.41245,17.7146597 109.916435,16.6213373 111.697778,15.832 C113.47912,15.0426627 115.500433,14.648 117.761778,14.648 L117.761778,14.648 Z M117.793778,16.92 C116.151103,16.92 114.679118,17.1759974 113.377778,17.688 C112.076438,18.2000026 110.951116,18.9359952 110.001778,19.896 C109.05244,20.8560048 108.284447,22.0079933 107.697778,23.352 C107.111108,24.6960067 106.721779,26.1999917 106.529778,27.864 L127.521778,27.864 C127.521778,26.1573248 127.287113,24.6266734 126.817778,23.272 C126.348442,21.9173266 125.687115,20.7706714 124.833778,19.832 C123.98044,18.8933286 122.95645,18.1733358 121.761778,17.672 C120.567105,17.1706642 119.244452,16.92 117.793778,16.92 L117.793778,16.92 Z M151.614222,32.536 C151.614222,35.0533459 151.304892,37.245324 150.686222,39.112 C150.067552,40.978676 149.198228,42.5359938 148.078222,43.784 C146.958216,45.0320062 145.61423,45.9653302 144.046222,46.584 C142.478214,47.2026698 140.755565,47.512 138.878222,47.512 C137.12888,47.512 135.294232,47.1920032 133.374222,46.552 L133.438222,46.36 C133.523556,46.1466656 133.651555,46.04 133.822222,46.04 C134.035556,46.04 134.280887,46.0826662 134.558222,46.168 C134.835557,46.2533338 135.171553,46.3493328 135.566222,46.456 C135.960891,46.5626672 136.424886,46.6586662 136.958222,46.744 C137.491558,46.8293338 138.131552,46.872 138.878222,46.872 C140.691564,46.872 142.339548,46.5733363 143.822222,45.976 C145.304896,45.3786637 146.56355,44.4826726 147.598222,43.288 C148.632894,42.0933274 149.432886,40.600009 149.998222,38.808 C150.563558,37.015991 150.846222,34.9253453 150.846222,32.536 L150.846222,2.2 L151.614222,2.2 L151.614222,32.536 Z M172.634667,15.128 C174.832011,15.128 176.783991,15.5173294 178.490667,16.296 C180.197342,17.0746706 181.631994,18.167993 182.794667,19.576 C183.957339,20.984007 184.83733,22.6853234 185.434667,24.68 C186.032003,26.6746766 186.330667,28.8879878 186.330667,31.32 C186.330667,33.7520122 186.032003,35.9546568 185.434667,37.928 C184.83733,39.9013432 183.957339,41.591993 182.794667,43 C181.631994,44.408007 180.197342,45.4906629 178.490667,46.248 C176.783991,47.0053371 174.832011,47.384 172.634667,47.384 C170.415989,47.384 168.458675,47.0053371 166.762667,46.248 C165.066658,45.4906629 163.637339,44.408007 162.474667,43 C161.311994,41.591993 160.432003,39.9013432 159.834667,37.928 C159.23733,35.9546568 158.938667,33.7520122 158.938667,31.32 C158.938667,28.8879878 159.23733,26.6746766 159.834667,24.68 C160.432003,22.6853234 161.311994,20.984007 162.474667,19.576 C163.637339,18.167993 165.066658,17.0746706 166.762667,16.296 C168.458675,15.5173294 170.415989,15.128 172.634667,15.128 L172.634667,15.128 Z M172.634667,46.744 C174.768011,46.744 176.645325,46.3706704 178.266667,45.624 C179.888008,44.8773296 181.237328,43.8320067 182.314667,42.488 C183.392005,41.1439933 184.202664,39.5226762 184.746667,37.624 C185.290669,35.7253238 185.562667,33.6240115 185.562667,31.32 C185.562667,29.0159885 185.290669,26.9093429 184.746667,25 C184.202664,23.0906571 183.392005,21.4533402 182.314667,20.088 C181.237328,18.7226598 179.888008,17.6613371 178.266667,16.904 C176.645325,16.1466629 174.768011,15.768 172.634667,15.768 C170.479989,15.768 168.597341,16.1466629 166.986667,16.904 C165.375992,17.6613371 164.032005,18.7226598 162.954667,20.088 C161.877328,21.4533402 161.066669,23.0906571 160.522667,25 C159.978664,26.9093429 159.706667,29.0159885 159.706667,31.32 C159.706667,33.6240115 159.978664,35.7253238 160.522667,37.624 C161.066669,39.5226762 161.877328,41.1439933 162.954667,42.488 C164.032005,43.8320067 165.375992,44.8773296 166.986667,45.624 C168.597341,46.3706704 170.479989,46.744 172.634667,46.744 L172.634667,46.744 Z M191.607111,47 L191.607111,0.92 L192.375111,0.92 L192.375111,22.168 C193.100448,21.101328 193.91644,20.1360043 194.823111,19.272 C195.729782,18.4079957 196.705772,17.6666698 197.751111,17.048 C198.796449,16.4293302 199.895105,15.9546683 201.047111,15.624 C202.199117,15.2933317 203.383105,15.128 204.599111,15.128 C208.076462,15.128 210.673769,16.1626563 212.391111,18.232 C214.108453,20.3013437 214.967111,23.1919814 214.967111,26.904 L214.967111,47 L214.199111,47 L214.199111,26.904 C214.199111,25.1546579 214.007113,23.5920069 213.623111,22.216 C213.239109,20.8399931 212.647115,19.6720048 211.847111,18.712 C211.047107,17.7519952 210.04445,17.0213358 208.839111,16.52 C207.633772,16.0186642 206.220452,15.768 204.599111,15.768 C202.145765,15.768 199.884455,16.4239934 197.815111,17.736 C195.745767,19.0480066 193.932452,20.8559885 192.375111,23.16 L192.375111,47 L191.607111,47 Z M221.843555,47 L221.843555,15.64 L222.035555,15.64 C222.334224,15.64 222.483555,15.810665 222.483555,16.152 L222.579555,22.2 C223.304892,21.133328 224.120884,20.162671 225.027555,19.288 C225.934227,18.413329 226.910217,17.6666698 227.955555,17.048 C229.000894,16.4293302 230.09955,15.9546683 231.251555,15.624 C232.403561,15.2933317 233.598216,15.128 234.835555,15.128 C238.312906,15.128 240.910213,16.1626563 242.627555,18.232 C244.344897,20.3013437 245.203555,23.1919814 245.203555,26.904 L245.203555,47 L244.435555,47 L244.435555,26.904 C244.435555,25.1546579 244.243557,23.5920069 243.859555,22.216 C243.475553,20.8399931 242.883559,19.6720048 242.083555,18.712 C241.283551,17.7519952 240.280895,17.0213358 239.075555,16.52 C237.870216,16.0186642 236.456897,15.768 234.835555,15.768 C232.38221,15.768 230.120899,16.4239934 228.051555,17.736 C225.982212,19.0480066 224.168896,20.8559885 222.611555,23.16 L222.611555,47 L221.843555,47 Z M268.72,18.392 C268.634666,18.5200006 268.528,18.584 268.4,18.584 C268.229332,18.584 267.978668,18.4400014 267.648,18.152 C267.317331,17.8639986 266.837336,17.5440018 266.208,17.192 C265.578663,16.8399982 264.784005,16.5146682 263.824,16.216 C262.863995,15.9173318 261.680007,15.768 260.272,15.768 C258.949326,15.768 257.738672,15.9706646 256.64,16.376 C255.541328,16.7813354 254.597337,17.3199966 253.808,17.992 C253.018662,18.6640034 252.405335,19.437329 251.968,20.312 C251.530664,21.186671 251.312,22.1039952 251.312,23.064 C251.312,24.1946723 251.578664,25.1386629 252.112,25.896 C252.645336,26.6533371 253.343995,27.2933307 254.208,27.816 C255.072004,28.3386693 256.058661,28.7813315 257.168,29.144 C258.277339,29.5066685 259.407994,29.8639982 260.56,30.216 C261.712006,30.5680018 262.842661,30.9413314 263.952,31.336 C265.061339,31.7306686 266.047995,32.2266637 266.912,32.824 C267.776004,33.4213363 268.474664,34.1519957 269.008,35.016 C269.541336,35.8800043 269.808,36.9519936 269.808,38.232 C269.808,39.5120064 269.578669,40.7173277 269.12,41.848 C268.661331,42.9786723 267.994671,43.9599958 267.12,44.792 C266.245329,45.6240042 265.173339,46.2853309 263.904,46.776 C262.63466,47.2666691 261.189341,47.512 259.568,47.512 C258.437327,47.512 257.429338,47.4213342 256.544,47.24 C255.658662,47.0586658 254.837337,46.8080016 254.08,46.488 C253.322663,46.1679984 252.61867,45.7733357 251.968,45.304 C251.31733,44.8346643 250.672003,44.3120029 250.032,43.736 L250.224,43.544 C250.288,43.4799997 250.341333,43.4320002 250.384,43.4 C250.426667,43.3679998 250.501333,43.352 250.608,43.352 C250.778667,43.352 251.055998,43.5333315 251.44,43.896 C251.824002,44.2586685 252.362663,44.6639978 253.056,45.112 C253.749337,45.5600022 254.623994,45.9653315 255.68,46.328 C256.736005,46.6906685 258.031992,46.872 259.568,46.872 C261.104007,46.872 262.463994,46.6480022 263.648,46.2 C264.832006,45.7519978 265.829329,45.1386706 266.64,44.36 C267.45067,43.5813294 268.063998,42.6746718 268.48,41.64 C268.896002,40.6053282 269.104,39.4906726 269.104,38.296 C269.104,37.0799939 268.837336,36.072004 268.304,35.272 C267.770664,34.471996 267.072004,33.7946694 266.208,33.24 C265.343995,32.6853306 264.357339,32.2213352 263.248,31.848 C262.138661,31.4746648 261.008006,31.117335 259.856,30.776 C258.703994,30.434665 257.573339,30.0720019 256.464,29.688 C255.354661,29.3039981 254.368004,28.8293362 253.504,28.264 C252.639995,27.6986638 251.941336,27.0000042 251.408,26.168 C250.874664,25.3359958 250.608,24.3013395 250.608,23.064 C250.608,22.0186614 250.842664,21.0213381 251.312,20.072 C251.781335,19.1226619 252.442662,18.2800037 253.296,17.544 C254.149337,16.8079963 255.167994,16.2213355 256.352,15.784 C257.536006,15.3466645 258.842659,15.128 260.272,15.128 C262.042675,15.128 263.599993,15.3679976 264.944,15.848 C266.288006,16.3280024 267.589327,17.1119946 268.848,18.2 L268.72,18.392 Z M283.596444,47.512 C281.761768,47.512 280.321783,47.0106717 279.276444,46.008 C278.231106,45.0053283 277.708444,43.3520115 277.708444,41.048 L277.708444,17.624 L272.524444,17.624 C272.225776,17.624 272.076444,17.5173344 272.076444,17.304 L272.076444,17.112 L277.708444,16.984 L277.964444,4.376 C277.964444,4.2693328 277.991111,4.16800048 278.044444,4.072 C278.097778,3.97599952 278.177777,3.928 278.284444,3.928 L278.476444,3.928 L278.476444,16.984 L289.164444,16.984 L289.164444,17.624 L278.476444,17.624 L278.476444,41.048 C278.476444,42.114672 278.609776,43.0159963 278.876444,43.752 C279.143112,44.4880037 279.511108,45.085331 279.980444,45.544 C280.44978,46.002669 280.993774,46.3386656 281.612444,46.552 C282.231114,46.7653344 282.892441,46.872 283.596444,46.872 C284.492449,46.872 285.276441,46.7333347 285.948444,46.456 C286.620448,46.1786653 287.191108,45.8800016 287.660444,45.56 C288.12978,45.2399984 288.508443,44.9413347 288.796444,44.664 C289.084446,44.3866653 289.292444,44.248 289.420444,44.248 C289.505778,44.248 289.59111,44.2906662 289.676444,44.376 L289.804444,44.504 C289.484443,44.9306688 289.095113,45.3306648 288.636444,45.704 C288.177775,46.0773352 287.676447,46.397332 287.132444,46.664 C286.588441,46.930668 286.012447,47.1386659 285.404444,47.288 C284.796441,47.4373341 284.19378,47.512 283.596444,47.512 L283.596444,47.512 Z M305.448889,15.128 C307.646233,15.128 309.598213,15.5173294 311.304889,16.296 C313.011564,17.0746706 314.446216,18.167993 315.608889,19.576 C316.771561,20.984007 317.651552,22.6853234 318.248889,24.68 C318.846225,26.6746766 319.144889,28.8879878 319.144889,31.32 C319.144889,33.7520122 318.846225,35.9546568 318.248889,37.928 C317.651552,39.9013432 316.771561,41.591993 315.608889,43 C314.446216,44.408007 313.011564,45.4906629 311.304889,46.248 C309.598213,47.0053371 307.646233,47.384 305.448889,47.384 C303.230211,47.384 301.272897,47.0053371 299.576889,46.248 C297.88088,45.4906629 296.451561,44.408007 295.288889,43 C294.126216,41.591993 293.246225,39.9013432 292.648889,37.928 C292.051552,35.9546568 291.752889,33.7520122 291.752889,31.32 C291.752889,28.8879878 292.051552,26.6746766 292.648889,24.68 C293.246225,22.6853234 294.126216,20.984007 295.288889,19.576 C296.451561,18.167993 297.88088,17.0746706 299.576889,16.296 C301.272897,15.5173294 303.230211,15.128 305.448889,15.128 L305.448889,15.128 Z M305.448889,46.744 C307.582233,46.744 309.459547,46.3706704 311.080889,45.624 C312.70223,44.8773296 314.05155,43.8320067 315.128889,42.488 C316.206227,41.1439933 317.016886,39.5226762 317.560889,37.624 C318.104891,35.7253238 318.376889,33.6240115 318.376889,31.32 C318.376889,29.0159885 318.104891,26.9093429 317.560889,25 C317.016886,23.0906571 316.206227,21.4533402 315.128889,20.088 C314.05155,18.7226598 312.70223,17.6613371 311.080889,16.904 C309.459547,16.1466629 307.582233,15.768 305.448889,15.768 C303.294211,15.768 301.411563,16.1466629 299.800889,16.904 C298.190214,17.6613371 296.846227,18.7226598 295.768889,20.088 C294.69155,21.4533402 293.880891,23.0906571 293.336889,25 C292.792886,26.9093429 292.520889,29.0159885 292.520889,31.32 C292.520889,33.6240115 292.792886,35.7253238 293.336889,37.624 C293.880891,39.5226762 294.69155,41.1439933 295.768889,42.488 C296.846227,43.8320067 298.190214,44.8773296 299.800889,45.624 C301.411563,46.3706704 303.294211,46.744 305.448889,46.744 L305.448889,46.744 Z M324.421333,47 L324.421333,15.64 L324.613333,15.64 C324.912001,15.64 325.061333,15.810665 325.061333,16.152 L325.157333,22.2 C325.88267,21.133328 326.698662,20.162671 327.605333,19.288 C328.512004,18.413329 329.487994,17.6666698 330.533333,17.048 C331.578672,16.4293302 332.677327,15.9546683 333.829333,15.624 C334.981339,15.2933317 336.175993,15.128 337.413333,15.128 C340.890684,15.128 343.487991,16.1626563 345.205333,18.232 C346.922675,20.3013437 347.781333,23.1919814 347.781333,26.904 L347.781333,47 L347.013333,47 L347.013333,26.904 C347.013333,25.1546579 346.821335,23.5920069 346.437333,22.216 C346.053331,20.8399931 345.461337,19.6720048 344.661333,18.712 C343.861329,17.7519952 342.858672,17.0213358 341.653333,16.52 C340.447994,16.0186642 339.034674,15.768 337.413333,15.768 C334.959987,15.768 332.698677,16.4239934 330.629333,17.736 C328.559989,19.0480066 326.746674,20.8559885 325.189333,23.16 L325.189333,47 L324.421333,47 Z" id="JesseJohnston" fill="#FFFFFF"></path>
    </g>
</svg>