<?xml version="1.0" encoding="UTF-8" standalone="no"?>
<svg width="179px" height="62px" viewBox="0 0 179 62" version="1.1" xmlns="http://www.w3.org/2000/svg" xmlns:xlink="http://www.w3.org/1999/xlink">
    <!-- Generator: Sketch 3.8.3 (29802) - http://www.bohemiancoding.com/sketch -->
    <title>Jesse Copy</title>
    <desc>Created with Sketch.</desc>
    <defs></defs>
    <g id="Logo" stroke="none" stroke-width="1" fill="none" fill-rule="evenodd">
        <g id="Group-2" transform="translate(-348.000000, -46.000000)" fill="#FFFFFF">
            <path d="M375.898122,86.1352657 C375.898122,89.5583332 375.478017,92.6247852 374.637794,95.3347136 C373.79757,98.044642 372.558616,100.333784 370.920892,102.202208 C369.283169,104.070633 367.268087,105.504021 364.875587,106.502415 C362.483087,107.50081 359.734601,108 356.630047,108 C353.867279,108 350.990625,107.600648 348,106.801932 C348.056964,105.974691 348.128169,105.154593 348.213615,104.341615 C348.299061,103.528636 348.384507,102.722801 348.469953,101.924086 C348.526917,101.439151 348.704928,101.04693 349.003991,100.747412 C349.303053,100.447894 349.75164,100.298137 350.349765,100.298137 C350.862444,100.298137 351.546005,100.4265 352.40047,100.68323 C353.254934,100.93996 354.394203,101.068323 355.81831,101.068323 C357.698132,101.068323 359.371432,100.783072 360.838263,100.21256 C362.305093,99.6420491 363.544048,98.75777 364.555164,97.5596963 C365.566281,96.3616227 366.335287,94.8283967 366.862207,92.9599724 C367.389126,91.0915481 367.652582,88.8737188 367.652582,86.3064182 L367.652582,46 L375.898122,46 L375.898122,86.1352657 Z M402.471831,63.2864044 C405.063706,63.2864044 407.456171,63.7214127 409.649296,64.5914424 C411.842421,65.461472 413.736455,66.716578 415.331456,68.3567978 C416.926456,69.9970176 418.172531,72.0223022 419.069718,74.4327122 C419.966906,76.8431222 420.415493,79.5886664 420.415493,82.6694272 C420.415493,83.8675008 420.287325,84.6662046 420.030986,85.0655625 C419.774647,85.4649203 419.290458,85.6645963 418.578404,85.6645963 L389.783099,85.6645963 C389.840063,88.4030503 390.210325,90.784899 390.893897,92.8102139 C391.577468,94.8355289 392.517365,96.5256431 393.713615,97.8806073 C394.909865,99.2355715 396.333951,100.248214 397.985916,100.918565 C399.63788,101.588915 401.489192,101.924086 403.539906,101.924086 C405.44821,101.924086 407.093029,101.703016 408.474413,101.26087 C409.855797,100.818723 411.044909,100.340927 412.041784,99.8274672 C413.038659,99.3140071 413.87175,98.8362111 414.54108,98.3940649 C415.21041,97.9519187 415.787165,97.7308489 416.271362,97.7308489 C416.897969,97.7308489 417.382158,97.9733125 417.723944,98.4582471 L419.860094,101.239476 C418.920183,102.380498 417.795155,103.371746 416.484977,104.213251 C415.174798,105.054755 413.772073,105.746489 412.276761,106.288475 C410.781448,106.83046 409.236315,107.236944 407.641315,107.507937 C406.046314,107.778929 404.465579,107.914424 402.899061,107.914424 C399.908436,107.914424 397.15283,107.408103 394.63216,106.395445 C392.11149,105.382788 389.932638,103.899481 388.09554,101.94548 C386.258441,99.9914786 384.827235,97.5739735 383.801878,94.6928916 C382.776521,91.8118098 382.26385,88.5028942 382.26385,84.7660455 C382.26385,81.7423359 382.726678,78.9183476 383.652347,76.2939959 C384.578017,73.6696441 385.909537,71.3947646 387.646948,69.4692892 C389.384359,67.5438137 391.506247,66.0319816 394.012676,64.9337474 C396.519105,63.8355133 399.338795,63.2864044 402.471831,63.2864044 L402.471831,63.2864044 Z M402.642723,68.8916494 C398.968526,68.8916494 396.077632,69.9542107 393.969953,72.0793651 C391.862274,74.2045195 390.552115,77.1497396 390.039437,80.9151139 L413.579812,80.9151139 C413.579812,79.146529 413.337718,77.5277276 412.853521,76.0586611 C412.369325,74.5895947 411.657282,73.3202262 410.717371,72.2505176 C409.77746,71.180809 408.631071,70.3535801 407.278169,69.7688061 C405.925267,69.184032 404.380134,68.8916494 402.642723,68.8916494 L402.642723,68.8916494 Z M450.620657,71.1166322 C450.278872,71.7441945 449.75196,72.057971 449.039906,72.057971 C448.612674,72.057971 448.128485,71.9010828 447.587324,71.5873016 C447.046163,71.2735204 446.383963,70.9240875 445.600704,70.5389924 C444.817445,70.1538973 443.884669,69.7973331 442.802347,69.4692892 C441.720026,69.1412452 440.438349,68.9772257 438.957277,68.9772257 C437.67558,68.9772257 436.522071,69.1412452 435.496714,69.4692892 C434.471356,69.7973331 433.595544,70.246604 432.869249,70.8171153 C432.142954,71.3876265 431.587561,72.0508359 431.203052,72.8067633 C430.818543,73.5626907 430.626291,74.3827883 430.626291,75.2670807 C430.626291,76.3795777 430.94671,77.3066446 431.587559,78.0483092 C432.228407,78.7899738 433.075738,79.4317893 434.129577,79.973775 C435.183417,80.5157607 436.379649,80.9935567 437.71831,81.4071774 C439.056971,81.820798 440.431214,82.2629376 441.84108,82.7336094 C443.250946,83.2042812 444.625189,83.7248649 445.96385,84.2953761 C447.302511,84.8658874 448.498743,85.5790157 449.552582,86.4347826 C450.606422,87.2905495 451.453753,88.3388482 452.094601,89.5797101 C452.735449,90.8205721 453.055869,92.3110104 453.055869,94.0510697 C453.055869,96.0478591 452.699847,97.8948615 451.987794,99.5921325 C451.27574,101.289403 450.221916,102.758448 448.826291,103.99931 C447.430666,105.240172 445.721763,106.217158 443.699531,106.930297 C441.677298,107.643436 439.341797,108 436.692958,108 C433.67385,108 430.939605,107.507941 428.490141,106.52381 C426.040676,105.539678 423.961511,104.27744 422.252582,102.73706 L424.046948,99.8274672 C424.274805,99.4566349 424.545382,99.1713836 424.858685,98.9717046 C425.171989,98.7720257 425.584974,98.6721877 426.097653,98.6721877 C426.610331,98.6721877 427.151484,98.8718637 427.721127,99.2712215 C428.29077,99.6705794 428.981451,100.112719 429.793192,100.597654 C430.604934,101.082588 431.587553,101.524728 432.74108,101.924086 C433.894607,102.323443 435.340054,102.523119 437.077465,102.523119 C438.558536,102.523119 439.854455,102.330575 440.965258,101.94548 C442.076062,101.560385 443.001718,101.039801 443.742254,100.383713 C444.482789,99.727625 445.031062,98.9717089 445.387089,98.115942 C445.743116,97.2601752 445.921127,96.3473708 445.921127,95.3775017 C445.921127,94.1794281 445.600707,93.1881797 444.959859,92.4037267 C444.319011,91.6192737 443.47168,90.9489331 442.41784,90.3926846 C441.364001,89.8364361 440.160648,89.3515089 438.807746,88.9378882 C437.454845,88.5242675 436.073481,88.0892592 434.663615,87.6328502 C433.253749,87.1764412 431.872385,86.6558575 430.519484,86.0710835 C429.166582,85.4863095 427.963229,84.7517873 426.90939,83.8674948 C425.85555,82.9832024 425.008219,81.892116 424.367371,80.5942029 C423.726523,79.2962898 423.406103,77.7202761 423.406103,75.8661146 C423.406103,74.2116319 423.747884,72.6213557 424.431455,71.0952381 C425.115027,69.5691205 426.111887,68.2284392 427.422066,67.0731539 C428.732244,65.9178686 430.341461,64.997933 432.249765,64.3133195 C434.158069,63.628706 436.33692,63.2864044 438.786385,63.2864044 C441.6346,63.2864044 444.190834,63.7356753 446.455164,64.6342305 C448.719495,65.5327857 450.677613,66.7664978 452.329578,68.3354037 L450.620657,71.1166322 Z M483.431925,71.1166322 C483.090139,71.7441945 482.563227,72.057971 481.851174,72.057971 C481.423942,72.057971 480.939752,71.9010828 480.398592,71.5873016 C479.857431,71.2735204 479.195231,70.9240875 478.411972,70.5389924 C477.628713,70.1538973 476.695937,69.7973331 475.613615,69.4692892 C474.531293,69.1412452 473.249616,68.9772257 471.768545,68.9772257 C470.486848,68.9772257 469.333338,69.1412452 468.307981,69.4692892 C467.282624,69.7973331 466.406811,70.246604 465.680516,70.8171153 C464.954222,71.3876265 464.398828,72.0508359 464.014319,72.8067633 C463.62981,73.5626907 463.437559,74.3827883 463.437559,75.2670807 C463.437559,76.3795777 463.757978,77.3066446 464.398826,78.0483092 C465.039674,78.7899738 465.887006,79.4317893 466.940845,79.973775 C467.994684,80.5157607 469.190917,80.9935567 470.529577,81.4071774 C471.868238,81.820798 473.242481,82.2629376 474.652347,82.7336094 C476.062214,83.2042812 477.436456,83.7248649 478.775117,84.2953761 C480.113778,84.8658874 481.31001,85.5790157 482.36385,86.4347826 C483.417689,87.2905495 484.26502,88.3388482 484.905869,89.5797101 C485.546717,90.8205721 485.867136,92.3110104 485.867136,94.0510697 C485.867136,96.0478591 485.511115,97.8948615 484.799061,99.5921325 C484.087007,101.289403 483.033184,102.758448 481.637559,103.99931 C480.241934,105.240172 478.53303,106.217158 476.510798,106.930297 C474.488566,107.643436 472.153065,108 469.504225,108 C466.485118,108 463.750873,107.507941 461.301408,106.52381 C458.851944,105.539678 456.772778,104.27744 455.06385,102.73706 L456.858216,99.8274672 C457.086073,99.4566349 457.356649,99.1713836 457.669953,98.9717046 C457.983257,98.7720257 458.396241,98.6721877 458.90892,98.6721877 C459.421599,98.6721877 459.962751,98.8718637 460.532394,99.2712215 C461.102037,99.6705794 461.792719,100.112719 462.60446,100.597654 C463.416201,101.082588 464.39882,101.524728 465.552347,101.924086 C466.705874,102.323443 468.151321,102.523119 469.888732,102.523119 C471.369804,102.523119 472.665722,102.330575 473.776526,101.94548 C474.887329,101.560385 475.812985,101.039801 476.553521,100.383713 C477.294057,99.727625 477.84233,98.9717089 478.198357,98.115942 C478.554384,97.2601752 478.732394,96.3473708 478.732394,95.3775017 C478.732394,94.1794281 478.411975,93.1881797 477.771127,92.4037267 C477.130278,91.6192737 476.282947,90.9489331 475.229108,90.3926846 C474.175269,89.8364361 472.971916,89.3515089 471.619014,88.9378882 C470.266112,88.5242675 468.884749,88.0892592 467.474883,87.6328502 C466.065016,87.1764412 464.683653,86.6558575 463.330751,86.0710835 C461.977849,85.4863095 460.774497,84.7517873 459.720657,83.8674948 C458.666818,82.9832024 457.819487,81.892116 457.178638,80.5942029 C456.53779,79.2962898 456.217371,77.7202761 456.217371,75.8661146 C456.217371,74.2116319 456.559151,72.6213557 457.242723,71.0952381 C457.926294,69.5691205 458.923154,68.2284392 460.233333,67.0731539 C461.543512,65.9178686 463.152729,64.997933 465.061033,64.3133195 C466.969337,63.628706 469.148188,63.2864044 471.597653,63.2864044 C474.445867,63.2864044 477.002101,63.7356753 479.266432,64.6342305 C481.530762,65.5327857 483.488881,66.7664978 485.140845,68.3354037 L483.431925,71.1166322 Z M508.595775,63.2864044 C511.18765,63.2864044 513.580114,63.7214127 515.773239,64.5914424 C517.966365,65.461472 519.860399,66.716578 521.455399,68.3567978 C523.050399,69.9970176 524.296474,72.0223022 525.193662,74.4327122 C526.09085,76.8431222 526.539437,79.5886664 526.539437,82.6694272 C526.539437,83.8675008 526.411269,84.6662046 526.15493,85.0655625 C525.89859,85.4649203 525.414401,85.6645963 524.702347,85.6645963 L495.907042,85.6645963 C495.964006,88.4030503 496.334269,90.784899 497.01784,92.8102139 C497.701412,94.8355289 498.641308,96.5256431 499.837559,97.8806073 C501.033809,99.2355715 502.457895,100.248214 504.109859,100.918565 C505.761823,101.588915 507.613135,101.924086 509.66385,101.924086 C511.572153,101.924086 513.216973,101.703016 514.598357,101.26087 C515.979741,100.818723 517.168853,100.340927 518.165728,99.8274672 C519.162603,99.3140071 519.995693,98.8362111 520.665023,98.3940649 C521.334354,97.9519187 521.911109,97.7308489 522.395305,97.7308489 C523.021912,97.7308489 523.506102,97.9733125 523.847887,98.4582471 L525.984038,101.239476 C525.044127,102.380498 523.919099,103.371746 522.60892,104.213251 C521.298741,105.054755 519.896017,105.746489 518.400704,106.288475 C516.905392,106.83046 515.360258,107.236944 513.765258,107.507937 C512.170258,107.778929 510.589523,107.914424 509.023005,107.914424 C506.032379,107.914424 503.276773,107.408103 500.756103,106.395445 C498.235433,105.382788 496.056582,103.899481 494.219483,101.94548 C492.382385,99.9914786 490.951179,97.5739735 489.925821,94.6928916 C488.900464,91.8118098 488.387793,88.5028942 488.387793,84.7660455 C488.387793,81.7423359 488.850621,78.9183476 489.776291,76.2939959 C490.701961,73.6696441 492.033481,71.3947646 493.770892,69.4692892 C495.508303,67.5438137 497.630191,66.0319816 500.13662,64.9337474 C502.643048,63.8355133 505.462738,63.2864044 508.595775,63.2864044 L508.595775,63.2864044 Z M508.766667,68.8916494 C505.09247,68.8916494 502.201575,69.9542107 500.093897,72.0793651 C497.986218,74.2045195 496.676059,77.1497396 496.16338,80.9151139 L519.703756,80.9151139 C519.703756,79.146529 519.461661,77.5277276 518.977465,76.0586611 C518.493268,74.5895947 517.781225,73.3202262 516.841314,72.2505176 C515.901404,71.180809 514.755015,70.3535801 513.402113,69.7688061 C512.049211,69.184032 510.504077,68.8916494 508.766667,68.8916494 L508.766667,68.8916494 Z" id="Jesse-Copy"></path>
        </g>
    </g>
</svg>