<?xml version="1.0" encoding="UTF-8" standalone="no"?>
<svg width="650px" height="275px" viewBox="0 0 650 275" version="1.1" xmlns="http://www.w3.org/2000/svg" xmlns:xlink="http://www.w3.org/1999/xlink">
    <!-- Generator: Sketch 40.1 (33804) - http://www.bohemiancoding.com/sketch -->
    <title>EnterpriseNPS-3 Copy</title>
    <desc>Created with Sketch.</desc>
    <defs></defs>
    <g id="Page-1" stroke="none" stroke-width="1" fill="none" fill-rule="evenodd">
        <g id="EnterpriseNPS-3-Copy" fill="#020302">
            <g id="Page-1" transform="translate(7.000000, 48.000000)">
                <g id="Group-3" transform="translate(0.000000, 0.120716)">
                    <path d="M628.911882,121.687911 C629.135792,104.390399 636.448022,87.8438134 637.356837,70.5703134 C638.265652,53.2946305 629.043594,32.8646183 611.736594,31.1357402 C418.527779,11.8233866 223.648412,-7.48896707 30.5844808,13.1855329 C22.7849158,14.0215939 14.1182445,15.390289 9.33708699,21.5745207 C6.34282671,25.44485 5.48889178,30.5026915 4.89179589,35.348789 C1.18409384,65.422972 3.77882671,96.2524476 12.4586692,125.296289 C15.6965973,136.127972 20.1089603,147.208509 28.8041692,154.486387 C40.3114363,164.11746 56.5976658,165.023374 71.6304329,165.479606 C119.180779,166.918155 166.731125,168.356704 214.281471,169.795252 C260.606892,171.196691 306.949875,172.600313 353.295053,171.973813 C441.059368,170.786301 529.363703,162.358021 616.265303,174.634801 C430.263347,165.704448 243.293306,182.445313 57.903813,164.979716 C45.2528438,163.787838 31.5767137,161.971643 22.5214911,153.106777 C16.2607651,146.977118 13.2116247,138.372021 10.7705562,129.98085 C2.96221027,103.133033 -0.651097945,75.0846061 0.0952719178,47.1496915 C0.389429452,36.2175939 1.99192945,24.0172159 10.555426,17.1584598 C16.5768747,12.3363744 24.7188918,11.2973012 32.4065014,10.5048988 C225.492385,-9.43832073 420.25321,9.73869146 613.418121,28.9135207 C631.662474,30.7231671 641.380649,52.2599232 640.438905,70.4698988 C639.499358,88.6776915 631.8337,106.143289 631.712964,124.377277 C631.651498,133.578313 633.482299,143.102423 630.413402,151.783923 C627.3467,160.465423 616.44531,167.352557 608.795018,162.176838 C617.349734,164.682838 625.886888,156.74135 628.211611,148.179911 C630.536334,139.618472 628.797731,130.55496 628.911882,121.687911" id="Fill-1"></path>
                </g>
                <path d="M514.856249,145.249768 C523.648047,141.185159 530.909787,133.737012 534.237718,124.680049 C537.56565,115.625268 536.770985,105.051171 531.689085,96.8411829 C526.894756,89.0961585 518.627612,83.8112927 509.756787,81.6043537 C500.883766,79.3974146 491.459749,80.0828537 482.630633,82.4535122 C476.499424,84.099439 470.164061,86.9001341 466.974427,92.3618171 C464.127246,97.2362927 464.353352,103.307012 465.492663,108.829817 C467.657136,119.310049 472.859773,129.150683 480.312496,136.865146 C486.494194,143.263305 494.796461,148.366988 503.713386,148.100671 C507.574752,147.987159 511.354896,146.8695 514.856249,145.249768 M532.319109,134.41372 C527.333797,141.717793 519.802047,147.308268 511.282454,149.78589 C507.458407,150.899183 503.419228,151.39689 499.465663,150.903549 C493.259817,150.12861 487.57204,146.961183 482.718441,143.034098 C471.915835,134.298024 464.575067,121.438402 462.56865,107.738354 C461.440314,100.043537 462.294249,91.3358415 467.913975,85.9309146 C470.892869,83.0669146 474.863996,81.475561 478.819756,80.2487561 C488.019862,77.3956707 497.863163,76.1623171 507.350841,77.8431707 C516.840715,79.5240244 525.944232,84.2959024 531.836163,91.8772073 C541.157006,103.868024 540.88041,121.877171 532.319109,134.41372" id="Fill-4"></path>
                <path d="M50.9985747,70.7648122 C57.1956397,81.8147878 63.3927048,92.8625805 69.5875747,103.912556 C72.7881842,109.616544 76.0239171,115.41658 77.5232425,121.777629 C77.8766705,123.275117 78.212537,124.931959 79.4286808,125.885898 C80.6448247,126.839837 82.9958897,126.248263 82.9300336,124.7093 C81.2024068,124.855556 80.467013,122.589678 80.3528623,120.869532 C79.4550233,107.344117 80.0587048,93.7684951 80.6601911,80.2234341 C80.7436089,78.3286537 80.8445884,76.3683854 81.6963281,74.6700683 C82.5458726,72.9717512 84.3656979,71.5986902 86.2535747,71.873739 C84.2515473,88.6298854 84.0100747,105.59341 85.5335473,122.39758 C85.8079479,125.431849 85.6103795,129.352385 82.7236842,130.365263 C79.6789342,131.434898 77.0117596,128.138678 75.4707253,125.32052 C66.3254993,108.581837 57.1802733,91.8453366 48.0328521,75.1088366 C47.3852664,73.9213244 46.7157288,72.6290317 46.900126,71.2908976 C47.0867185,69.9505805 48.577263,68.7368732 49.7890164,69.3502756 C50.350989,69.636239 50.6912459,70.2168976 50.9985747,70.7648122" id="Fill-6"></path>
                <path d="M212.804536,113.196544 C211.577416,112.661727 210.258098,114.167946 210.429324,115.488617 C210.60055,116.809288 211.652053,117.822166 212.642091,118.719349 C214.23581,119.186495 216.088564,117.87019 216.163201,116.219898 C216.235642,114.571788 214.508016,113.096129 212.881368,113.419202 L212.804536,113.196544 Z M222.017814,119.53358 C221.023386,118.791385 221.420718,117.276434 221.455841,116.040898 C221.490964,114.807544 220.053105,113.323154 219.260636,114.27491 C219.034529,116.881324 218.417677,119.452812 217.43642,121.880227 C219.407714,122.681361 221.379009,123.480312 223.348108,124.281446 C223.888129,123.857959 224.263509,123.233641 224.38205,122.5613 C223.352499,121.768898 222.522711,120.721093 221.989276,119.540129 L222.017814,119.53358 Z M200.590413,108.828507 C202.1073,107.555861 204.372752,107.959702 206.300142,108.43558 C209.832228,109.308751 213.364314,110.179739 216.896399,111.05291 C219.35942,111.661946 221.866345,110.511544 224.300827,109.788995 C230.309105,108.012093 237.068142,108.926739 242.38054,112.236056 C240.699012,113.683337 238.227211,113.742276 236.027615,113.406105 C233.830214,113.069934 231.624033,112.417239 229.422242,112.722849 C227.218255,113.028459 224.976951,114.702763 225.014269,116.914068 C225.045002,118.730263 226.51579,120.140434 227.505827,121.6663 C228.49806,123.192166 228.820755,125.637044 227.205084,126.486202 C226.643112,126.780898 225.977964,126.789629 225.341355,126.765617 C215.686841,126.39452 206.728208,119.064251 204.500074,109.714776 C202.792204,113.408288 200.93506,117.031946 198.930838,120.574837 C198.454478,121.415263 197.804697,122.358288 196.834416,122.393215 C195.910235,122.428141 195.203379,121.616093 194.683115,120.858617 C191.879838,116.776544 190.13904,111.982837 189.671461,107.06252 C193.306721,108.081946 195.688519,112.28408 194.68531,115.90119 C196.219759,116.678312 197.929824,115.05858 198.511553,113.445398 C199.091088,111.834398 199.27329,109.930885 200.590413,108.828507 L200.590413,108.828507 Z" id="Fill-8"></path>
                <path d="M66.6809031,47.6323366 C65.526225,47.3092634 64.3232524,46.9840073 63.1400366,47.1826537 C61.9568209,47.3813 60.7999476,48.2675683 60.7055538,49.4572634 C60.6111599,50.6469585 62.0468243,51.7842634 63.0653997,51.1533976 C63.8293312,50.6775195 64.7930264,50.7189951 65.6930606,50.662239 C66.5952901,50.6054829 67.6050846,50.3566293 68.0419305,49.5707756 C68.4787764,48.784922 67.6972832,47.5231902 66.8740812,47.8921049 L66.6809031,47.6323366 Z M57.8188586,48.6015561 C58.3742455,45.741922 60.8767798,43.323239 63.7854271,42.9958 C66.6962695,42.668361 69.7476051,44.5718732 70.5817832,47.3638366 C71.4159613,50.1536171 69.8024853,53.4891293 67.0409168,54.4539829 C64.8325401,55.226739 61.9809682,54.7159341 60.4816428,56.5015683 C58.314975,59.077422 54.1309134,57.8615317 50.879814,58.778361 C49.0160846,59.3044463 47.2643106,60.6054707 45.345701,60.3260561 C43.4995332,60.0575561 42.1450914,58.3133976 41.7762969,56.4950195 C41.4075024,54.6744585 41.8267866,52.7949585 42.3207079,51.0049585 C43.9166223,45.2158366 46.3335435,39.653739 49.4792729,34.5304098 C50.0939305,33.5262634 51.3012935,32.406422 52.2671839,33.0853122 C53.1057524,35.9689585 51.2244613,38.850422 49.6790366,41.4284585 C47.8504305,44.4780073 46.3774476,47.7393 45.3017969,51.1250195 C44.9242216,52.3147146 44.7551908,53.9300805 45.8659647,54.512922 C46.3993997,54.7923366 47.0447901,54.7006537 47.641886,54.602422 C49.6592798,54.2684341 51.6766736,53.9322634 53.6940675,53.5982756 C54.8048414,53.4149098 56.007814,53.1813366 56.7519887,52.3409098 C57.6256805,51.3542268 57.5686051,49.8938488 57.8188586,48.6015561 L57.8188586,48.6015561 Z" id="Fill-10"></path>
                <path d="M366.787883,56.5823366 C365.007572,55.4319341 362.246003,56.3836902 361.565489,58.3832512 C363.3919,59.2717024 365.84175,58.5688 366.910815,56.8486537 L366.787883,56.5823366 Z M358.865387,57.5843 C358.450493,55.7200805 360.900342,54.6417146 362.794804,54.3382878 C364.56414,54.0588732 366.469578,53.8143854 368.069883,54.6155195 C369.672383,55.4144707 370.620712,57.702178 369.435301,59.0403122 C368.820643,59.7344829 367.848167,59.970239 366.937157,60.1688854 C362.292102,61.1904951 357.572411,62.2164707 352.824181,61.9152268 C351.063626,61.8038976 349.296486,61.5113854 347.544712,61.7231293 C345.560246,61.9632512 343.718469,62.8386049 341.832787,63.5022146 C337.484085,65.0324463 332.744637,65.4472024 328.196171,64.6984585 C331.3419,60.3107756 339.821979,63.5349585 342.814044,59.0424951 C337.042849,55.9798488 331.313363,52.8386171 325.625585,49.6231659 C324.365537,48.9093488 322.986948,47.1979341 324.13065,46.3094829 C324.464322,46.0518976 324.912143,46.0038732 325.333623,45.9645805 C327.493705,45.7703 329.655983,45.5738366 331.816065,45.3795561 C333.589791,45.2202024 335.580842,45.1263366 336.919917,46.2920195 C338.258993,47.4577024 337.833123,50.3020561 336.052811,50.2911415 C335.23839,47.6825439 331.855578,46.2352634 329.392558,47.4380561 C328.604479,48.1846171 329.322311,49.5926049 330.327715,50.005178 C331.33312,50.4155683 332.479017,50.2605805 333.541496,50.4919707 C335.780606,50.9809463 337.257979,53.0372634 339.101952,54.3950439 C340.943729,55.7506415 344.175072,56.0497024 345.024616,53.9322634 C345.775376,52.0593122 347.966191,50.8761659 349.955048,51.2712756 C351.943904,51.6663854 353.509085,53.5939098 353.480548,55.6109341 C351.889024,55.1132268 350.194325,54.6111537 348.583044,55.0368244 C346.971763,55.4603122 345.597565,57.2110195 346.212222,58.7499829 C349.278924,59.0141171 352.345626,59.2782512 355.412328,59.5423854 C356.962143,59.6755439 359.201253,59.0948854 358.865387,57.5843 L358.865387,57.5843 Z" id="Fill-12"></path>
                <path d="M592.512082,119.853816 C599.22063,115.21073 605.929178,110.569828 612.637726,105.926743 C605.066462,102.036767 597.495198,98.1446085 589.923935,94.2546329 C588.047034,93.2897793 585.838657,91.4692183 586.718935,89.5591573 C596.110024,93.8027671 605.226712,98.6532305 613.987777,104.069072 C615.348804,104.909499 616.887643,106.151584 616.611048,107.721109 C616.384941,109.011218 615.03928,109.742499 613.856065,110.312243 C607.037757,113.59973 600.610195,117.683987 594.748996,122.458048 C592.883072,123.977365 590.949096,126.657999 592.514277,128.480743 C590.764698,130.139767 587.700191,127.631584 588.036058,125.250011 C588.369729,122.870621 590.527616,121.226877 592.512082,119.853816" id="Fill-14"></path>
                <path d="M138.71679,54.455511 C137.261369,53.5430476 135.478862,53.1544866 133.773188,53.3771451 C132.596558,54.7480232 133.421955,57.2518402 135.1869,57.6622305 C136.94965,58.0726207 138.808989,56.1931207 138.365558,54.4467793 L138.71679,54.455511 Z M151.769482,51.8098037 C154.493732,53.647828 157.220177,55.4858524 159.946623,57.3238768 C161.193499,58.1664866 162.48428,59.0549378 163.213088,60.3646939 C163.941897,61.6766329 163.904578,63.5408524 162.719167,64.4642305 C157.117003,62.9711085 153.117338,58.1512061 148.063975,55.3221329 C146.845636,54.6388768 145.495585,54.0604012 144.099434,54.1499012 C142.705479,54.2372183 141.28079,55.1824256 141.06566,56.5576695 C140.516859,60.0481695 135.834486,62.001889 132.791931,60.1725963 C129.751571,58.3454866 129.14789,53.6565598 131.404561,50.9235354 C133.498787,48.3891573 138.328239,52.3118768 140.753941,50.0874744 C143.715273,47.3697305 148.434965,49.561389 151.769482,51.8098037 L151.769482,51.8098037 Z" id="Fill-16"></path>
                <path d="M368.09864,90.524011 C367.587158,87.6272671 366.013195,84.259011 363.060644,84.0909256 C360.430788,83.9403037 357.504579,86.4463037 355.491575,84.7610841 C358.222411,80.2118646 366.017586,80.1507427 368.818668,84.6584866 C369.769192,86.1865354 370.155548,87.98745 370.44312,89.7621695 C372.063182,99.7512427 370.581418,111.034791 363.247236,118.050718 C362.634774,118.635743 362.871856,119.729389 363.504075,120.292584 C364.13849,120.853596 365.020962,121.023865 365.859531,121.167938 C371.196075,122.073852 376.580914,122.704718 381.983315,123.060535 C381.212798,126.15156 376.910195,126.348023 373.744709,125.848133 C371.213637,125.448657 368.682565,125.049182 366.151493,124.649706 C364.180199,124.33973 361.982798,123.890048 360.872024,122.239755 C359.071955,119.563487 361.372531,116.151572 363.183575,113.47967 C367.692527,106.830474 369.492596,98.4218402 368.09864,90.524011" id="Fill-18"></path>
                <path d="M385.287319,53.0315878 C385.048041,52.2697463 384.020685,51.8811854 383.331391,52.2915756 C382.980158,53.1931244 384.567291,53.4921854 385.434398,53.0534171 L385.287319,53.0315878 Z M398.322449,49.4428561 C396.902151,48.5849659 394.893538,48.8621976 393.763007,50.071539 C392.812483,51.0866 392.527107,52.5338805 392.283439,53.8982098 C394.968175,53.8982098 397.543151,51.9968805 398.322449,49.4428561 L398.322449,49.4428561 Z M387.726192,51.7458439 C386.968846,53.1712951 386.799815,54.8958073 387.269589,56.4391366 C385.649528,58.4910878 382.097685,53.2738927 380.326154,55.1948683 C379.26148,56.3496366 380.455672,59.0259049 378.916833,59.3598927 C375.964281,57.7532585 375.033514,53.3633927 377.081641,50.7089537 C379.131963,48.0523317 383.636524,47.8122098 385.961247,50.2330756 C387.098363,51.416222 388.968678,50.0497098 390.176041,48.9364171 C392.202216,47.0678317 395.104278,45.7689902 397.725353,46.639978 C400.346428,47.5109659 401.815021,51.2852463 399.810798,53.1778439 C398.631973,54.2911366 396.397254,55.0726244 396.858247,56.6246854 C402.592124,57.7139659 408.183312,59.5476244 413.443024,62.0623561 C411.495877,63.4725268 408.791384,62.8329293 406.486418,62.1343927 C401.042309,60.4862829 395.598199,58.8381732 390.154089,57.1900634 C391.583168,55.2516244 390.129942,51.9946976 387.726192,51.7458439 L387.726192,51.7458439 Z" id="Fill-20"></path>
                <path d="M410.07953,112.973449 C410.858828,105.156388 403.254637,97.631839 395.397996,98.4460707 C394.515524,98.5377537 393.582561,98.7473146 392.961318,99.3803634 C392.298366,100.057071 392.13153,101.072132 392.12714,102.017339 C392.098602,107.18651 395.75362,111.585107 399.402051,115.267705 C401.342613,117.22579 403.952712,119.286473 406.580373,118.430766 C408.764602,117.719132 409.853424,115.245876 410.07953,112.973449 M396.98952,94.9708512 C406.088647,95.5122171 413.569907,104.630302 412.722558,113.654522 C412.408643,116.996583 410.764435,120.58968 407.570411,121.672412 C404.376387,122.755144 400.921133,120.94768 398.370304,118.751656 C394.666993,115.560217 391.817616,111.399559 390.186578,106.804498 C388.86726,103.08479 388.722376,98.171022 392.032746,96.0033756 C393.468411,95.0647171 395.275065,94.8704366 396.98952,94.9708512" id="Fill-22"></path>
                <path d="M113.014886,123.077999 C112.345348,124.640974 109.770372,124.189109 108.874728,122.744011 C107.979084,121.298913 108.139334,119.47617 108.003232,117.784401 C107.623461,113.128218 104.556759,108.782011 100.284889,106.843572 C99.6087658,108.96756 99.2311904,111.185413 99.1653342,113.411999 C99.1126493,115.116865 99.3036322,116.978901 100.475872,118.225352 C101.648112,119.471804 104.08918,119.572218 104.864088,118.048535 C106.214139,119.609328 104.846526,122.344535 102.813766,122.733096 C100.781005,123.12384 98.7438548,121.720218 97.7406459,119.921487 C96.7352418,118.120572 96.5310877,116.00095 96.3488856,113.951182 C96.1403411,111.611084 95.9317966,109.27317 95.7254473,106.935255 C95.4817795,104.197865 99.1982623,102.586865 101.773238,103.577913 C104.35041,104.568962 105.992423,107.018206 107.750783,109.135645 C109.509142,111.253084 111.943625,113.302852 114.683242,112.962316 C115.730355,113.381438 114.448355,114.92695 113.322214,114.887657 C112.196074,114.848365 110.622112,114.691194 110.374053,115.78484 C111.631906,118.057267 112.52755,120.530523 113.014886,123.077999" id="Fill-24"></path>
                <path d="M334.427481,79.7296561 C334.605293,78.8259244 334.886279,77.8370585 335.676553,77.3546317 C336.464632,76.8722049 337.810293,77.4354 337.636872,78.3413146 C333.850142,97.9832902 345.109351,117.306559 346.498916,137.25851 C344.817389,136.979095 344.08419,135.025376 343.669296,133.379449 C341.539947,124.953351 339.412793,116.527254 337.285639,108.101156 C334.936769,98.8040707 332.574728,89.1380707 334.427481,79.7296561" id="Fill-26"></path>
                <path d="M118.970917,123.594479 C116.668147,123.402382 115.79665,120.413955 116.154468,118.143711 C116.510092,115.871284 117.473787,113.489711 116.582534,111.370089 C115.559568,108.940491 117.686722,106.059028 120.274869,105.500199 C122.863016,104.94137 125.532386,106.115784 127.646369,107.702772 C131.171869,110.348479 133.727088,114.242821 134.745664,118.516991 C133.615133,119.599723 131.626277,119.021248 130.592335,117.849016 C129.558393,116.674601 129.141304,115.100711 128.45201,113.699272 C127.12391,110.996809 124.669671,108.864089 121.800537,107.912333 C119.64704,109.763455 120.204623,113.146991 120.795133,115.914943 C121.387838,118.685077 121.477842,122.254162 118.970917,123.594479" id="Fill-28"></path>
                <path d="M160.725482,112.675261 C161.39941,112.821517 162.073338,112.969956 162.747266,113.116212 C162.163341,117.032383 162.115047,122.040017 165.693232,123.775444 C168.623831,121.612163 167.719406,116.167944 164.244396,115.056834 C165.03906,113.70342 167.240851,114.096346 168.285769,115.268578 C169.330687,116.438627 169.697286,118.05181 170.509512,119.39431 C172.24592,122.267041 176.212656,123.5637 179.323262,122.27359 C181.467978,121.385139 180.675509,118.126029 179.213502,116.331663 C177.751495,114.535115 175.839471,112.304163 176.879999,110.241298 C179.364971,112.297615 181.957509,114.502371 183.04194,117.532273 C184.126372,120.559993 183.006817,124.618054 179.924749,125.593822 C175.997526,126.840273 171.209783,122.703627 167.941122,125.205261 C165.282728,127.241932 161.035005,125.388627 159.704711,122.323798 C158.376612,119.256785 159.250303,115.674602 160.725482,112.675261" id="Fill-30"></path>
                <path d="M143.966185,124.305895 C139.571384,120.568724 139.356254,112.867359 143.740079,109.11709 C145.663079,107.475529 148.806613,106.744249 150.637415,108.488407 C148.503675,109.905127 146.545552,111.727871 145.533562,114.072334 C144.519377,116.414615 144.613771,119.344102 146.247004,121.31092 C147.880237,123.277737 151.184021,123.823468 153.082874,122.109871 C154.158524,121.138468 154.893918,119.512188 156.342754,119.416139 C156.915702,122.253944 154.86538,125.231456 152.106007,126.1592 C149.348829,127.089127 146.178952,126.187578 143.966185,124.305895" id="Fill-32"></path>
                <path d="M75.7591753,49.2171415 C79.1397918,51.2800073 83.2031171,52.2208488 87.1522918,51.8541171 C87.2532712,54.8359951 83.565326,56.5757878 80.5820418,56.2592634 C76.2069973,55.7964829 72.0075692,51.2298 73.8273945,47.2459585 C75.4189185,43.7598244 81.1088911,43.4760439 83.3655623,46.5779829 C80.8498568,47.5144585 78.3143945,48.394178 75.7591753,49.2171415" id="Fill-34"></path>
                <path d="M99.8598973,43.6085476 C99.1969452,42.5694744 98.5361884,41.1833159 99.2737774,40.19445 C100.391137,38.701328 102.709274,40.1704378 103.89249,41.6133524 C104.836428,42.7681207 105.782562,43.922889 106.7265,45.0776573 C108.985366,47.8368768 111.312284,50.7292549 112.113534,54.1979256 C112.282565,54.9357549 112.365983,55.7630841 111.95987,56.4026817 C111.36936,57.3347915 109.957842,57.4286573 108.985366,56.8982061 C108.015086,56.3677549 107.380671,55.3985354 106.785771,54.4664256 C104.47861,50.8471329 102.169253,47.2278402 99.8598973,43.6085476" id="Fill-36"></path>
                <path d="M558.945195,133.240396 C557.920034,134.360238 556.357048,132.509116 556.00362,131.037823 C555.415304,128.588579 554.826989,126.141518 554.238674,123.692274 C556.06728,123.262238 557.9354,124.637482 558.701527,126.342348 C559.469849,128.049396 559.408383,129.996567 559.331551,131.86297 C559.311794,132.349762 559.274476,132.880213 558.945195,133.240396" id="Fill-38"></path>
                <path d="M93.1625449,52.9778878 C93.1120551,54.1501195 94.9318805,54.1479366 96.0185072,53.689522 C95.7265449,52.7748756 95.3160414,51.7358024 94.3962503,51.449839 C93.474264,51.1616927 92.4205654,52.5434854 93.2371818,53.0564732 L93.1625449,52.9778878 Z M99.7196236,57.3677537 C98.4134764,57.4245098 97.1051339,57.4812659 95.7989866,57.538022 C93.8869627,57.6231561 91.6676099,57.5751317 90.4778086,56.0863756 C89.8192469,55.2634122 89.6370449,54.1588512 89.6611921,53.1088634 C89.7248531,50.5919488 90.910264,48.1252415 92.8398497,46.496778 C96.0646065,48.0990463 98.9183736,50.434778 101.11797,53.2747659 C101.921415,54.3116561 102.604124,55.9030098 101.6536,56.8089244 C101.157483,57.2804366 100.406723,57.3371927 99.7196236,57.3677537 L99.7196236,57.3677537 Z" id="Fill-40"></path>
                <path d="M116.473212,43.3596939 C115.441466,44.9248524 113.305531,45.6714134 111.516438,45.088572 C109.727346,44.5079134 108.447541,42.6502427 108.546325,40.7794744 C108.601205,39.7687793 109.685637,38.5856329 110.451764,39.2536085 C112.458182,40.6223037 114.466795,41.9909988 116.473212,43.3596939" id="Fill-42"></path>
                <path d="M557.666707,156.559949 C557.499872,154.475254 557.335231,152.377461 557.543776,150.297132 C558.944317,151.052424 560.395348,151.849193 561.312943,153.143668 C562.230539,154.435961 562.432498,156.378766 561.330505,157.52262 C560.230707,158.666473 557.791834,158.138205 557.666707,156.559949" id="Fill-44"></path>
                <path d="M443.616563,126.426172 C444.54733,124.406965 440.86158,122.492538 441.627707,120.407843 C442.119433,119.071891 444.196097,119.036965 445.221258,120.028013 C446.246419,121.019062 446.494477,122.540562 446.68985,123.94855 C446.861076,125.20155 446.968641,126.657562 446.064217,127.548196 C445.159792,128.436648 443.087518,127.576574 443.616563,126.426172" id="Fill-46"></path>
                <path d="M280.012728,118.578332 C278.75268,117.462856 280.258591,114.930661 281.84792,115.491673 C282.715026,117.393002 283.579937,119.294332 284.444848,121.195661 C285.063896,122.557807 282.728197,123.668917 281.553762,122.736807 C280.377132,121.804698 280.267372,120.099832 280.256396,118.604527 L280.012728,118.578332 Z" id="Fill-48"></path>
                <path d="M441.450773,87.5135366 C441.349793,87.8649878 441.187348,88.2404512 440.855872,88.3998049 C440.199506,88.7141463 439.536554,87.9959634 439.194102,87.3563659 C437.99552,85.1275976 437.207441,82.6827195 436.880355,80.1789024 C440.080965,80.7682927 442.344222,84.4006829 441.450773,87.5135366" id="Fill-50"></path>
                <path d="M279.602663,88.8962024 C279.451194,88.5731293 279.29753,88.2347756 279.308506,87.8789585 C279.341434,86.8704463 280.728804,86.3836537 281.644204,86.820239 C282.559605,87.2568244 283.073283,88.221678 283.525496,89.1254098 C284.047954,90.1666659 284.583585,91.354178 284.203814,92.4543732 C283.824043,93.5567512 282.012999,94.0500927 281.519078,92.9935561 C280.880273,91.6270439 280.241468,90.2627146 279.602663,88.8962024" id="Fill-52"></path>
                <path d="M285.6296,140.055057 C286.703055,141.441216 286.081812,143.776948 284.455165,144.451472 C283.379514,143.384021 282.246788,142.209606 282.020682,140.714301 C281.794576,139.221179 283.01511,137.450826 284.505655,137.736789 C284.843716,138.537923 285.179583,139.339057 285.515449,140.142374 L285.6296,140.055057 Z" id="Fill-54"></path>
                <path d="M280.179344,101.608695 C279.893967,100.106841 280.196905,97.882439 281.731354,97.9828537 C283.107748,99.5261829 283.794847,101.65672 283.577522,103.708671 C283.533618,104.14089 283.434834,104.597122 283.123114,104.902732 C282.49309,105.522683 281.329632,105.118841 280.8862,104.357 C280.440573,103.592976 280.502039,102.652134 280.576676,101.772415 L280.179344,101.608695 Z" id="Fill-56"></path>
                <path d="M560.307978,96.1825939 C559.814057,95.1849963 559.306965,94.1350085 559.353064,93.0238988 C559.399163,91.912789 560.202609,90.7471061 561.319968,90.7056305 C562.474646,90.6663378 563.37029,91.8451183 563.442732,92.9911549 C563.517369,94.1371915 563.001496,95.2286549 562.496598,96.2611793 C562.285859,96.6912159 561.996091,97.1801915 561.515341,97.2260329 C560.948978,97.2806061 560.560427,96.6912159 560.307978,96.1825939" id="Fill-58"></path>
                <path d="M559.885621,111.082161 C559.677076,112.623307 558.414833,113.96799 556.884775,114.282332 C556.379878,112.245661 556.388659,110.084563 556.908922,108.052259 C557.585046,108.056624 558.261169,108.06099 558.937292,108.065356 C559.622196,108.916698 560.006357,110.001612 560.012943,111.093076 L559.885621,111.082161 Z" id="Fill-60"></path>
                <path d="M442.035795,139.785902 C442.817288,138.783939 444.59321,139.303476 445.18811,140.4255 C445.785206,141.545341 445.556905,142.907488 445.271528,144.143024 C445.049812,145.101329 444.285881,146.31722 443.401213,145.878451 C442.975343,144.791354 442.549473,143.704256 442.123603,142.617159 C441.76359,141.695963 441.425528,140.569573 442.035795,139.785902" id="Fill-62"></path>
                <path d="M118.837229,50.8338171 C120.523147,50.4758171 122.301263,52.2025122 121.936859,53.8768171 C121.572455,55.5533049 119.168705,56.3740854 117.873534,55.2433293 C116.578363,54.1125732 117.144726,51.5891098 118.810887,51.1525244 L118.837229,50.8338171 Z" id="Fill-64"></path>
                <path d="M445.697178,156.452767 C446.489648,157.753791 444.237367,159.170511 442.979514,158.306072 C441.719466,157.441633 441.578973,155.64945 441.789713,154.141048 C443.396603,153.876913 445.122035,154.889791 445.66425,156.41784 L445.697178,156.452767 Z" id="Fill-66"></path>
                <path d="M563.45283,65.8403476 C563.349655,66.5607134 563.24648,67.2832622 563.143306,68.003628 C562.078631,68.6432256 560.550768,68.4991524 559.745128,67.556128 C558.941683,66.6131037 559.139251,64.9518963 560.219292,64.3428598 C561.301528,63.7316402 562.934761,64.5895305 562.912809,65.8250671 L563.45283,65.8403476 Z" id="Fill-68"></path>
                <path d="M281.802259,73.4707683 C283.275242,73.7589146 284.045759,75.7912195 283.134749,76.9743659 C282.45204,76.9787317 281.771526,76.9830976 281.088817,76.9852805 C280.375376,75.9221951 280.711242,74.3068293 281.789088,73.6126585 L281.802259,73.4707683 Z" id="Fill-70"></path>
                <path d="M442.054015,65.6401732 C442.820142,66.2928683 443.630173,67.0197829 443.829937,68.0021 C444.027505,68.9866 443.213084,70.1937585 442.229632,69.9732829 C441.775224,69.8706854 441.432772,69.5083195 441.121053,69.1634171 C440.392245,68.3601 439.610752,67.4017951 439.766611,66.329978 C439.920276,65.258161 441.674245,64.6578561 442.071577,65.6663683 L442.054015,65.6401732 Z" id="Fill-72"></path>
                <path d="M491.294011,118.165104 C495.225624,118.285165 499.157237,118.403043 503.08885,118.523104 C504.682569,118.571128 506.274093,118.619152 507.865617,118.667177 C502.959333,113.473994 498.053049,108.282994 493.146764,103.089811 C492.042576,108.040689 491.421333,113.096348 491.294011,118.165104 M514.877103,122.908604 C505.70334,121.271409 496.246395,121.201555 487.048484,122.703409 C488.967093,113.731579 490.892288,104.458506 489.101001,95.4582988 C489.89786,95.4997744 490.527884,96.108811 491.078881,96.6807378 C498.7621,104.65497 506.445319,112.629201 514.130734,120.603433 C514.741001,121.238665 515.388586,122.190421 514.877103,122.908604" id="Fill-74"></path>
            </g>
        </g>
    </g>
</svg>