<?xml version="1.0" encoding="UTF-8" standalone="no"?>
<svg width="284px" height="280px" viewBox="0 0 284 280" version="1.1" xmlns="http://www.w3.org/2000/svg" xmlns:xlink="http://www.w3.org/1999/xlink">
    <!-- Generator: Sketch 40.1 (33804) - http://www.bohemiancoding.com/sketch -->
    <title>nda</title>
    <desc>Created with Sketch.</desc>
    <defs>
        <polygon id="path-1" points="215.822527 0.6468 0.152309574 0.6468 0.152309574 256.79997 215.822527 256.79997 215.822527 0.6468"></polygon>
    </defs>
    <g id="Page-1" stroke="none" stroke-width="1" fill="none" fill-rule="evenodd">
        <g id="nda">
            <g id="Page-1" transform="translate(29.000000, 11.000000)">
                <path d="M151.323469,73.59252 C161.194139,76.25292 170.99749,79.63932 179.556639,85.22292 C135.499863,69.54972 88.1696926,63.10932 41.5175223,66.43932 C40.5017245,63.69132 44.7019585,62.19492 47.63515,62.28732 C82.4704053,63.37932 117.675916,64.52532 151.323469,73.59252" id="Fill-1" fill="#020302"></path>
                <path d="M183.358368,95.5152 C181.932645,97.6128 178.725368,96.9336 176.34756,96.0468 C136.329932,81.12 93.5738574,73.5432 50.8538468,73.8072 C51.0077191,72.3312 52.8457723,71.778 54.3219851,71.61 C67.6920489,70.0956 81.2207936,71.4156 94.5379638,73.3332 C124.796719,77.6892 154.609485,85.1352 183.358368,95.5152" id="Fill-3" fill="#020302"></path>
                <path d="M55.508966,100.95096 C92.639083,100.93536 129.30037,109.65696 164.436157,121.64136 C166.282626,122.27136 168.512572,123.48936 168.257721,125.42136 C126.792732,111.22776 83.0641362,100.34616 39.4509447,104.73576 C43.8747745,101.29776 49.9022426,100.95336 55.508966,100.95096" id="Fill-5" fill="#020302"></path>
                <path d="M55.8433979,126.86496 C61.1580043,124.73136 67.1470043,125.48256 72.7994085,126.41976 C99.1416319,130.78776 124.835909,138.45216 150.015674,147.32976 C157.114238,149.83296 164.353451,152.46576 171.882377,152.51376 C169.479323,156.15456 163.932706,154.97016 159.849079,153.42336 C126.32294,140.72136 91.3626638,131.79456 55.8433979,126.86496" id="Fill-7" fill="#020302"></path>
                <path d="M171.452616,101.77068 C136.908276,88.02588 99.7384883,80.89188 62.5518713,80.86908 C57.7782223,80.86668 52.9793287,80.98188 48.2886266,81.86148 C46.1512436,82.26228 43.932116,82.82028 41.8356053,82.23588 C43.8419564,78.87108 48.4304777,78.35268 52.3530202,78.27828 C80.3577862,77.74668 108.429871,80.88948 135.620797,87.60108 C148.156584,90.69468 160.700786,94.63428 171.452616,101.77068" id="Fill-9" fill="#020302"></path>
                <path d="M156.903024,131.37672 C129.495716,119.51712 98.9087798,116.18712 69.1176521,118.38792 C58.5954287,119.16552 48.1200883,120.61272 37.7950138,122.77872 C38.2746628,119.61672 42.241684,118.55952 45.4273223,118.21512 C64.37045,116.16912 83.4518223,114.44112 102.458663,115.77792 C121.465503,117.11472 140.530046,121.64712 156.903024,131.37672" id="Fill-11" fill="#020302"></path>
                <path d="M156.924663,229.27152 C131.699216,224.69232 106.474971,220.11312 81.2495245,215.53512 C71.1793011,213.70632 61.0477691,211.86192 51.4499819,208.31232 C53.1449819,205.92312 56.8006521,206.60712 59.6016096,207.47712 C91.3942798,217.34232 125.781141,217.52472 156.924663,229.27152" id="Fill-13" fill="#020302"></path>
                <path d="M142.172272,185.019 C111.698336,170.1342 77.3439319,164.3466 43.4186872,164.3958 C81.460017,161.2086 120.394528,169.5558 153.7704,188.0526 C149.766113,188.7738 145.827943,186.8046 142.172272,185.019" id="Fill-15" fill="#020302"></path>
                <path d="M47.673017,140.50044 C47.5491979,139.34964 49.0975383,138.86844 50.2551872,138.82404 C80.6894532,137.64444 110.348347,147.45564 139.21624,157.14684 C143.349155,158.53404 147.697251,160.06284 150.51023,163.38924 C145.462496,161.71044 140.414762,160.03284 135.36823,158.35404 C106.89824,148.88964 77.6564851,139.30884 47.673017,140.50044" id="Fill-17" fill="#020302"></path>
                <path d="M216.885588,54.18732 C211.960471,72.46812 204.170684,89.87412 199.103716,108.11652 C195.510556,121.05372 193.309461,134.32932 191.115578,147.57492 C188.46128,163.59372 185.808184,179.61132 183.155088,195.63012 C188.012886,147.17772 196.434993,98.39652 216.885588,54.18732" id="Fill-19" fill="#020302"></path>
                <g id="Group-23" transform="translate(9.617021, 0.553200)">
                    <mask id="mask-2" fill="white">
                        <use xlink:href="#path-1"></use>
                    </mask>
                    <g id="Clip-22"></g>
                    <path d="M12.9140968,3.50736 C13.4237989,3.36816 13.6113309,2.60376 13.2254479,2.24496 C12.7602245,2.22696 12.2204691,2.41656 12.0834266,2.86056 C11.946384,3.30576 12.5750968,3.81456 12.8852457,3.46776 L12.9140968,3.50736 Z M100.10081,9.39456 C97.006533,7.53336 93.249884,6.79656 89.6795649,7.35216 C92.9421394,8.79936 96.5328947,9.50376 100.10081,9.39456 L100.10081,9.39456 Z M27.3540543,4.97016 C33.2480862,5.09376 39.1421181,5.21856 45.03615,5.34216 C46.3404585,5.36976 47.7301181,5.37456 48.8336713,4.67976 C41.2542564,3.90936 33.62315,3.65256 26.0100755,3.91176 C25.7011287,4.52376 26.6676394,4.95456 27.3540543,4.97016 L27.3540543,4.97016 Z M165.280171,26.57976 C157.724799,23.65776 149.855671,21.54816 141.851905,20.29656 C141.111395,20.18136 140.304767,20.08296 139.653214,20.45256 C147.797629,23.83296 156.484203,25.90896 165.280171,26.57976 L165.280171,26.57976 Z M9.42311809,63.03216 C9.03843723,73.02816 8.65375638,83.02536 8.2678734,93.02136 C8.19213936,94.98576 8.13804362,97.05096 9.04204362,98.79816 C9.98691596,86.36136 10.5086394,73.89216 10.6024053,61.42056 C9.86069255,61.19016 9.45317128,62.25816 9.42311809,63.03216 L9.42311809,63.03216 Z M29.9530543,231.56376 C18.7396074,228.92136 6.22666064,225.79536 0.152309574,216.02136 C2.81983085,217.95336 5.83596915,219.40296 9.01319255,220.27776 C5.85400106,147.10056 6.47670319,73.76016 10.8764904,0.64656 C34.9058202,1.83216 58.87865,4.17096 82.6831819,7.65216 C74.2250117,5.81256 65.7680436,3.97176 57.3110755,2.13216 C71.6236074,3.05136 86.0250968,3.98256 99.9493415,7.40856 C136.334139,16.36056 172.525395,26.09136 208.49065,36.59256 C211.241118,37.39536 214.329384,38.49456 215.424522,41.13816 C216.369395,43.41936 215.452171,46.00176 214.538554,48.29496 C212.639193,53.06496 210.739831,57.83376 208.840469,62.60256 C206.807671,58.86216 209.548522,54.47256 211.446682,50.66256 C213.344841,46.85256 213.491501,40.81776 209.358586,39.77736 C180.750352,32.57736 152.140916,25.37616 123.532682,18.17616 C110.110927,14.79816 96.6458947,11.41176 82.9043734,9.75096 C61.2059691,7.12656 39.0219053,8.82696 17.6060011,4.46376 C14.5562032,3.84216 13.11365,8.06376 12.9874266,11.16696 C10.1636287,80.55456 9.17668191,150.01656 10.0289904,219.45696 C10.0410117,220.42656 10.0794798,221.47416 10.674533,222.24096 C11.2323202,222.95976 12.1555543,223.26936 13.0246926,223.54176 C54.1747245,236.43336 96.2708309,246.31416 138.864618,253.07856 C145.039948,254.06016 151.483352,254.95896 157.449512,253.08696 C163.415671,251.21616 168.723065,245.71896 168.236203,239.49456 C167.790214,233.79936 162.78215,228.36456 164.870246,223.04496 C166.686661,226.88376 168.503076,230.72256 170.31949,234.56136 C176.70399,182.52936 186.519363,130.91616 199.679054,80.16816 C189.686969,129.04656 179.685267,177.97776 173.320001,227.45616 C172.039735,237.40536 170.046607,248.76696 161.430959,253.92936 C155.909586,257.23896 149.02981,257.03736 142.615256,256.47216 C104.254161,253.08576 67.4317883,240.39936 29.9530543,231.56376 L29.9530543,231.56376 Z" id="Fill-21" fill="#020302" mask="url(#mask-2)"></path>
                </g>
                <path d="M137.827422,166.81068 C109.409124,157.16628 79.0986777,153.11268 49.1392521,154.94988 C47.7640181,155.03508 45.7372309,153.91428 46.7037415,152.93268 C71.1970926,151.22868 95.9609223,153.46308 119.752231,159.52548 C126.082635,161.13828 132.468337,163.07868 137.827422,166.81068" id="Fill-24" fill="#020302"></path>
                <path d="M41.0087819,203.46084 C40.6457394,201.46764 39.0240691,199.99164 37.7954947,198.37884 C36.5669202,196.76604 35.7098032,194.41044 36.9359734,192.79644 C38.6526117,192.66084 39.9989947,194.22684 40.8104309,195.74364 C41.6206649,197.25924 42.3311223,199.00644 43.8638351,199.79124 C44.3386755,197.91804 45.0659628,196.10964 46.01925,194.42844 C46.6659947,193.28844 48.4403351,192.21324 49.0293777,193.38444 C49.1519947,193.62804 49.164016,193.91004 49.1543989,194.18244 C49.0810691,196.30764 47.8753351,198.19884 47.0098032,200.14164 C46.1430691,202.08564 45.6465904,204.49764 46.8799734,206.23164 C49.145984,209.42124 50.5729096,213.19764 50.9828351,217.08564 C50.0884521,217.76244 48.7348564,217.45284 47.9077926,216.69684 C47.0807287,215.93964 46.6539734,214.85364 46.2536649,213.80844 C45.6165372,212.14524 44.9794096,210.48204 44.3422819,208.81884 C44.0381436,208.02444 43.5536862,207.09204 42.7013777,207.06324 C42.3960372,211.06284 38.8461543,214.55964 34.8358564,214.81044 C35.6244521,212.74044 37.3170479,211.17444 38.7391649,209.47524 C40.162484,207.77604 41.405484,205.64004 41.0087819,203.46084" id="Fill-26" fill="#020302"></path>
                <path d="M68.1597968,38.31624 C69.7886798,36.90384 69.1347223,34.23264 68.0227543,32.38704 C66.5585628,29.96064 64.5197543,27.88344 62.1215096,26.37144 C61.2992543,25.85424 60.016584,25.50024 59.5225096,26.33544 C59.3217543,26.67624 59.3506053,27.09864 59.3902755,27.49224 C59.8194351,31.78104 60.8316266,36.01104 62.3907862,40.02984 C64.0809777,38.90064 66.6234777,39.64824 68.1597968,38.31624 M66.1137755,24.45504 C68.7115734,26.70744 70.9319032,29.58624 71.6231266,32.95104 C72.31435,36.31704 71.1819457,40.19064 68.2992436,42.06624 C65.4165415,43.94304 60.8700947,43.03344 59.4948606,39.88464 C57.7084989,35.79384 56.8501798,31.30344 57.0004457,26.84304 C57.0413181,25.64304 57.181967,24.37104 57.9188713,23.42064 C58.86735,22.20024 60.6236585,21.82584 62.1323287,22.16664 C63.6422011,22.50744 64.9453074,23.44224 66.1137755,24.45504" id="Fill-28" fill="#020302"></path>
                <path d="M90.6098915,41.7354 C89.0651574,39.7686 87.5204234,37.803 85.9756894,35.8362 C85.0103809,34.6086 84.0462745,33.3798 83.080966,32.1522 C81.4184234,34.0722 82.3452638,37.5594 84.7423064,38.4042 C85.8711043,38.8026 86.5887745,39.8766 87.4230511,40.7334 C88.2573277,41.5914 89.5532213,42.2982 90.6098915,41.7354 M79.8400298,36.4266 C80.548083,34.6878 80.171817,32.727 80.2259128,30.8514 C80.2800085,28.9746 81.0806255,26.8038 82.9054553,26.3538 C86.6981681,31.6086 90.4908809,36.8622 94.2835936,42.117 C94.9351468,43.0194 95.6119447,43.9926 95.6600298,45.105 C95.7081149,46.2162 94.8173383,47.439 93.7113809,47.295 C90.6435511,44.973 87.1982532,43.1478 83.5522,41.9118 C83.0665404,41.7474 82.5291894,41.5938 82.0543489,41.7846 C80.3208809,42.4794 81.527817,46.3914 79.663317,46.3002 C78.5056681,43.137 78.570583,39.5466 79.8400298,36.4266" id="Fill-30" fill="#020302"></path>
                <path d="M51.3393862,37.88556 C49.3113968,39.23556 46.6691202,37.44516 45.0883223,35.59356 C43.1613117,33.33876 41.534833,30.82716 40.2653862,28.14756 C38.9394394,29.67996 39.473184,31.98876 39.717216,33.99876 C39.9612479,36.00876 39.331333,38.64636 37.3189713,38.89476 C37.2708862,34.25316 37.2240032,29.61276 37.1771202,24.97236 C37.1687053,24.17076 37.1807266,23.30316 37.6615777,22.66236 C38.1436309,22.02036 39.2856521,21.84276 39.6979819,22.53036 C42.1034394,26.54316 44.8827585,30.33156 47.9878543,33.83316 C48.4446628,34.34796 49.0300989,34.90356 49.7117053,34.80036 C50.5676202,34.67196 50.9114287,33.62076 50.9318649,32.75796 C50.9751415,30.84876 50.3271947,28.98276 50.2851202,27.07476 C50.2418436,25.16556 51.0845351,22.97916 52.9237904,22.45596 C52.938216,25.97796 52.9514394,29.49996 52.9658649,33.02076 C52.9730777,34.80636 52.8276202,36.89436 51.3393862,37.88556" id="Fill-32" fill="#020302"></path>
                <path d="M0,223.54476 C6.55880851,222.51036 13.456617,223.76436 19.229234,227.04156 C18.4153936,227.90556 17.6099681,228.96036 17.7205638,230.14116 C17.4657128,230.94516 16.2996489,229.89876 16.4415,229.06596 C16.5845532,228.23436 16.743234,226.98996 15.9017447,226.90476 C11.2687447,226.43916 6.6537766,225.80796 2.06645745,225.01116 C1.16245745,224.85396 0.0420744681,224.45916 0,223.54476" id="Fill-34" fill="#020302"></path>
            </g>
        </g>
    </g>
</svg>