<?xml version="1.0" encoding="UTF-8"?>
<svg width="650px" height="275px" viewBox="0 0 650 275" version="1.1" xmlns="http://www.w3.org/2000/svg" xmlns:xlink="http://www.w3.org/1999/xlink">
    <!-- Generator: Sketch 42 (36781) - http://www.bohemiancoding.com/sketch -->
    <title>fixingapp-thumb copy</title>
    <desc>Created with Sketch.</desc>
    <defs>
        <polygon id="path-1" points="0.153086242 0.116153527 259.332235 0.116153527 259.332235 89.0031006 0.153086242 89.0031006 0.153086242 0.116153527"></polygon>
        <polygon id="path-3" points="0.00576189362 54.0248963 273.844454 54.0248963 273.844454 0.409958921 0.00576189362 0.409958921 0.00576189362 54.0248963"></polygon>
    </defs>
    <g id="Page-1" stroke="none" stroke-width="1" fill="none" fill-rule="evenodd">
        <g id="fixingapp-thumb-copy">
            <g id="Page-1" transform="translate(22.000000, 29.000000)">
                <path d="M532.513805,90.5080888 C533.662962,91.6101967 534.183505,93.3281884 533.839479,94.883205 C532.684017,95.3532216 531.20074,94.6535992 530.828795,93.464151 C530.45775,92.2738025 531.280893,90.8547485 532.498495,90.5855245 L532.513805,90.5080888 Z" id="Fill-1" fill="#020302"></path>
                <path d="M255.627513,44.1070058 C254.794464,42.8113087 254.434227,41.2193751 254.628755,39.691371 C255.370844,39.2753793 256.112032,38.860288 256.854121,38.4442963 C258.85524,39.177234 260.641117,41.1635494 260.211534,43.2507112 C259.781951,45.337873 256.264233,46.1113295 255.54736,44.1043046 L255.627513,44.1070058 Z" id="Fill-3" fill="#020302"></path>
                <g id="Group-7" transform="translate(179.218101, 0.784261)">
                    <mask id="mask-2" fill="white">
                        <use xlink:href="#path-1"></use>
                    </mask>
                    <g id="Clip-6"></g>
                    <path d="M166.523605,16.5286469 C141.623097,6.59977137 114.291886,1.14775892 87.8603681,5.62552241 C61.4288503,10.1032859 36.090653,25.5598087 23.8443829,49.4027963 C22.0540031,45.8164436 16.6342316,49.0255224 14.5385506,52.4425971 C9.16290816,61.2090369 5.42274347,70.9749373 3.56842151,81.0901988 C88.0053636,73.2502859 173.233927,73.9607133 257.528576,83.2079747 C233.465619,53.7860162 201.831373,30.6084353 166.523605,16.5286469 M18.0985966,44.5477589 C29.4685892,32.2507921 41.1429823,19.7521324 55.8811945,11.7951656 C66.3154705,6.16126929 77.9556411,3.01341867 89.7056841,1.40977967 C119.545948,-2.66189668 150.2778,3.12146846 177.826954,15.2869747 C205.377009,27.4524809 229.888462,45.8038378 251.396435,66.8807506 C254.934867,70.349149 258.583171,74.2533481 259.257715,79.1606095 C259.93226,84.0687714 255.933625,89.8080162 251.060514,88.9094021 C174.610935,74.810705 96.101699,82.3831946 18.4111025,85.1537714 C14.3989586,85.2969373 10.2382168,85.4013855 6.53857878,83.8427672 C2.83804021,82.2832485 -0.273510237,78.5690369 0.201102522,74.5829 C1.60602834,62.806373 10.0454898,53.2556718 18.0985966,44.5477589" id="Fill-5" fill="#020302" mask="url(#mask-2)"></path>
                </g>
                <path d="M558.161627,126.350006 C558.137311,129.086367 558.112995,131.822728 558.088678,134.559089 C558.078772,135.622479 558.047251,136.758802 557.439351,137.631305 C556.830549,138.502906 555.413916,138.884682 554.703348,138.093217 L554.437673,126.51118 C554.402549,125.006587 554.895174,122.949139 556.398265,123.032877 C557.78698,123.111213 558.174235,124.959765 558.161627,126.350006" id="Fill-8" fill="#020302"></path>
                <path d="M464.624638,127.995604 C460.6215,121.422575 452.590908,118.679911 445.133093,116.775534 C407.189289,107.087969 367.573083,106.570231 328.411676,106.737708 C271.778756,106.97992 214.425362,108.645687 159.969176,124.193152 C157.024236,125.034139 153.922592,126.020094 151.923274,128.339563 C149.923056,130.659032 149.676293,134.748716 152.215967,136.460405 C164.446026,144.701002 179.965053,145.862538 194.696061,146.574766 C261.663291,149.810857 328.822347,149.069816 395.701319,144.357044 C419.484191,142.681372 444.155049,140.216936 464.624638,127.995604 Z M461.656282,117.659741 C466.840998,119.385837 467.695661,127.033961 464.465233,131.440592 C461.234804,135.846322 455.640317,137.716484 450.370044,139.159849 C411.701262,149.749629 371.151141,150.90216 331.062123,151.439708 C294.960032,151.924131 258.852538,151.962849 222.748647,151.654907 C200.982203,151.469422 178.773568,151.083144 158.216621,143.930247 C152.526672,141.950235 146.09013,138.12077 146.213512,132.098795 C146.338694,126.022795 152.995881,122.489567 158.741667,120.507754 C203.069779,105.212405 250.821946,103.910405 297.701439,102.759675 C352.854684,101.406351 409.311087,100.235812 461.656282,117.659741 L461.656282,117.659741 Z" id="Fill-10" fill="#020302"></path>
                <path d="M385.382049,68.1004527 C384.984887,67.9041622 384.582322,67.6646519 384.358974,67.2819755 C383.567353,65.9259506 385.530646,64.620349 387.086872,64.407851 C390.562262,63.9333324 394.169139,64.4600751 397.363544,65.9079423 C394.39789,69.0918095 389.283419,70.0273407 385.382049,68.1004527" id="Fill-12" fill="#020302"></path>
                <path d="M573.46352,164.16014 C591.995933,159.464476 604.896934,139.621132 603.022799,120.598966 C601.148664,101.575899 585.685474,85.0875008 567.108032,80.5701191 C558.960363,78.5892062 549.840953,78.829617 542.816324,83.4073266 C536.843588,87.2998203 529.588407,88.5198826 522.739394,90.4989946 C515.88948,92.4781066 508.797307,95.7060942 505.324618,101.931563 C502.59672,106.821717 502.58051,112.79597 503.606286,118.300206 C507.379772,138.545136 524.302824,154.649957 543.671888,161.654285 C553.184857,165.09387 563.657858,166.644385 573.46352,164.16014 Z M534.762317,81.8586129 C553.481152,71.5236502 578.979655,75.1937415 593.75209,90.6511647 C608.523624,106.107688 610.936314,132.037837 598.958421,149.748098 C586.980528,167.457459 561.694565,174.834559 542.21833,166.008692 C531.629152,161.20948 521.326363,155.323468 513.259747,146.95141 C505.193131,138.579351 499.513989,127.44392 499.550013,115.819563 C499.586036,104.195206 506.102731,92.3358411 516.781968,87.7401232 C522.588094,85.2414718 529.229071,84.9128203 534.762317,81.8586129 L534.762317,81.8586129 Z" id="Fill-14" fill="#020302"></path>
                <g id="Group-18" transform="translate(157.603858, 162.858950)">
                    <mask id="mask-4" fill="white">
                        <use xlink:href="#path-3"></use>
                    </mask>
                    <g id="Clip-17"></g>
                    <path d="M27.9747748,15.2154817 C22.6504662,15.8403697 17.1937703,16.5363905 12.4494439,19.0323407 C7.70511751,21.5291913 3.75241276,26.2446643 3.72089199,31.6048344 C3.68396766,37.7420627 8.80654332,42.9437598 14.5802481,45.0237183 C20.3548534,47.1045772 26.6815226,46.7471124 32.8091605,46.3977515 C108.635528,42.0730585 184.760893,43.0004859 260.458477,49.1710295 C265.142463,49.5528054 269.169917,45.2740336 270.201997,40.6900212 C271.234077,36.1060087 270.039891,31.3473158 268.851107,26.8011207 C267.696546,22.3827846 266.541985,17.9635481 265.387425,13.545212 C264.793033,11.2734651 264.04464,8.78291743 262.048024,7.54664772 C260.705239,6.71466432 259.048147,6.62372241 257.470307,6.55799212 C180.902751,3.38132822 104.08483,6.27886349 27.9747748,15.2154817 Z M272.672325,25.1380544 C274.346528,34.2142369 275.278643,45.3559714 267.904583,50.9088303 C263.008957,54.5960295 256.27522,54.2151539 250.167395,53.701017 C179.072745,47.7249631 107.567425,46.6381622 36.3232763,50.4514195 C28.9843401,50.8440004 21.4454721,51.2644942 14.4550656,48.9945481 C7.46465905,46.7255025 1.04432819,41.0988095 0.119418694,33.8081498 C-0.857725223,26.1041996 4.59716944,18.7343033 11.4263697,15.0335979 C18.2546694,11.3328925 26.2267228,10.5207183 33.9610196,9.80398797 C105.350164,3.18683859 177.132867,-1.35665519 248.726445,2.45390083 C254.501951,2.76094232 260.597168,3.05897967 265.737755,0.409958921 C266.771637,2.07752739 265.69903,4.62300041 263.783468,5.0497971 C269.592296,9.77427427 271.31423,17.7753614 272.672325,25.1380544 L272.672325,25.1380544 Z" id="Fill-16" fill="#020302" mask="url(#mask-4)"></path>
                </g>
                <path d="M325.823911,35.559727 C325.663605,37.2453037 323.18247,37.2011834 321.583016,36.6456274 C318.632672,35.6191544 315.032099,33.5067809 315.737264,30.4651793 C319.299111,29.2352124 323.630065,30.9045817 325.443861,34.2082041 C325.672611,34.6241959 325.868941,35.0870091 325.823911,35.559727" id="Fill-19" fill="#020302"></path>
                <path d="M297.093358,33.2434996 C297.405864,34.6373419 295.853241,35.8078813 294.428502,35.9078274 C291.515082,36.1104207 289.138416,33.7333253 287.20214,31.5471178 C287.508342,29.7570929 289.607625,28.7261178 291.40521,28.9908398 C293.202794,29.2555618 294.711288,30.4558149 296.027956,31.7073917 C296.487259,32.1431925 296.954667,32.6258149 297.093358,33.2434996" id="Fill-21" fill="#020302"></path>
                <path d="M554.587081,120.192968 C543.740333,121.982093 532.574775,121.817317 521.785666,119.708545 C521.679396,117.032512 525.342109,116.196927 528.019574,116.278865 C535.258544,116.500367 542.497514,116.721869 549.737385,116.943371 C552.458078,117.026209 554.421372,114.178197 554.811329,111.485056 C555.202186,108.791014 554.587081,106.034844 554.908593,103.331798 C555.230105,100.628753 557.008777,97.7123087 559.728569,97.5853502 L558.128215,111.187919 C557.835522,113.682068 556.984461,116.784898 554.497922,117.142363 C554.527642,118.158931 554.557361,119.1764 554.587081,120.192968" id="Fill-23" fill="#020302"></path>
                <path d="M296.89928,60.5967548 C293.207748,64.0021241 287.704221,65.314929 282.871636,63.9444975 C281.83055,63.6491614 280.825488,63.240373 279.822227,62.8315846 C279.539441,60.9236054 281.788222,59.6891365 283.677668,59.3028585 C288.08157,58.4015432 292.753849,58.8589539 296.89928,60.5967548" id="Fill-25" fill="#020302"></path>
                <path d="M228.824681,51.9883378 C236.622919,56.6632921 245.917044,58.7999768 254.974313,57.9995079 C256.155891,57.8950598 257.399611,57.7518938 258.483025,58.2327154 C259.566439,58.7144373 260.350856,60.0920722 259.75106,61.1149436 C257.169059,64.5788398 251.831241,62.5159892 247.588546,61.6948108 C243.471032,60.898844 239.198617,61.6533917 235.038776,61.1248481 C230.878034,60.5963046 226.394879,58.1201635 225.772569,53.9728523 C226.789339,53.3119477 227.80701,52.6501427 228.824681,51.9883378" id="Fill-27" fill="#020302"></path>
                <path d="M352.838113,33.7905917 C348.898016,34.7891519 344.44188,33.3394838 341.843668,30.2141436 C341.241171,29.4884091 340.916056,28.5384714 340.948478,27.5966373 C345.681997,26.0776373 351.371046,29.0418033 352.838113,33.7905917" id="Fill-29" fill="#020302"></path>
                <path d="M26.6884571,96.9532589 C31.4354853,94.9165203 36.7084601,94.1169519 41.8463458,94.6572008 C42.2660224,96.3859975 40.1685402,97.7240141 38.3898681,97.7465245 C36.6102954,97.7681344 34.8001025,97.1099311 33.084472,97.5808481 C29.4938058,98.5659021 29.0128889,103.978296 31.4390877,106.802898 C33.8643859,109.6284 37.8107865,110.4955 41.467196,111.200524 C40.5458889,114.039533 36.4013577,114.394296 33.8760936,112.802363 C31.3508295,111.210429 29.8306277,108.462363 27.7619645,106.310371 C25.6933013,104.157479 22.3557019,102.561944 19.7782034,104.067437 C13.8694096,107.517827 7.5427405,111.449939 5.16247196,117.863595 C3.11092003,123.390342 4.55367077,129.779686 7.80661439,134.696852 C11.0586574,139.614018 15.9173592,143.251695 20.9895016,146.25908 C38.3115165,156.532815 59.340374,160.400097 79.1858518,156.962313 C86.5265892,155.690927 93.9600877,153.308429 99.4221871,148.243595 C110.088816,138.352537 110.051892,120.731417 103.301944,107.846479 C92.6109987,87.4385743 66.5937539,76.4886282 44.5229096,83.1093793 C37.0750016,85.3433087 29.7405684,89.8030639 26.6884571,96.9532589 M48.4729126,160.374885 C36.8246366,158.060819 25.2772272,154.324097 15.4580565,147.64752 C10.0788117,143.990035 5.18228501,139.351998 2.35352092,133.496599 C-0.475243175,127.6403 -0.984078487,120.432479 2.09955356,114.70674 C7.40675089,104.8535 21.358745,101.824504 25.9004378,91.59579 C28.248285,86.3085535 33.5410728,82.9383004 38.9005046,80.7601967 C51.6646159,75.570205 66.4487583,75.5548979 79.2245773,80.7178772 C92.0003963,85.8808564 102.621996,96.1626946 108.194868,108.762201 C112.373622,118.207554 113.687588,129.293462 109.854662,138.883782 C105.480479,149.826524 94.8895001,157.460242 83.5132034,160.540562 C72.1369067,163.621782 60.0329304,162.670944 48.4729126,160.374885" id="Fill-31" fill="#020302"></path>
                <path d="M358.286613,60.4436842 C353.453128,62.6893191 347.88656,60.3482402 342.737867,58.9688046 C338.638365,57.8702983 334.370453,57.3993813 330.130459,57.5758627 C327.33952,57.6929166 324.191045,57.9747465 322.110674,56.1108876 C324.422497,51.9374643 330.46638,52.3714643 335.130554,53.3808295 L357.818305,58.2907921 C357.975008,59.0084228 358.130811,59.7260535 358.286613,60.4436842" id="Fill-33" fill="#020302"></path>
                <path d="M562.078488,121.078707 C561.282363,121.016578 560.440308,120.938242 559.795483,120.468225 C559.042587,119.919873 558.715672,118.854682 559.03178,117.979478 C565.271092,115.494333 572.527173,115.687022 578.625092,118.499918 C573.988836,121.825151 567.766636,121.521711 562.078488,121.078707" id="Fill-35" fill="#020302"></path>
                <path d="M51.3034779,126.627334 C49.3834126,127.217105 48.0811545,124.156595 49.2744408,122.541251 C50.4686277,120.925906 52.7120061,120.599056 54.7122242,120.415371 C61.8269126,119.76257 68.9560105,119.261039 76.0932138,118.912578 C78.7256485,118.783819 82.4919304,120.00118 81.7318295,122.524143 C79.0228444,124.730159 75.1286782,124.34028 71.6406797,124.14669 C64.7862628,123.767616 57.8652019,124.611305 51.3034779,126.627334" id="Fill-37" fill="#020302"></path>
            </g>
        </g>
    </g>
</svg>