<?xml version="1.0" encoding="UTF-8" standalone="no"?>
<svg width="284px" height="361px" viewBox="0 0 284 361" version="1.1" xmlns="http://www.w3.org/2000/svg" xmlns:xlink="http://www.w3.org/1999/xlink">
    <!-- Generator: Sketch 40.1 (33804) - http://www.bohemiancoding.com/sketch -->
    <title>data</title>
    <desc>Created with Sketch.</desc>
    <defs>
        <polygon id="path-1" points="83.315 180.327 83.315 0.76 0.3827 0.76 0.3827 180.327 83.315 180.327"></polygon>
        <polygon id="path-3" points="79.788 0.709 0.000135806547 0.709 0.000135806547 129.8869 79.788 129.8869 79.788 0.709"></polygon>
    </defs>
    <g id="Page-1" stroke="none" stroke-width="1" fill="none" fill-rule="evenodd">
        <g id="data">
            <g id="Page-1" transform="translate(50.000000, 44.000000)">
                <path d="M35.1719,263.7123 C37.6089,264.6793 40.2239,265.6633 42.7879,265.1163 C39.9339,263.6693 36.9609,262.4573 33.9089,261.4953 C33.0769,262.1253 34.2019,263.3273 35.1719,263.7123 M64.4079,155.9093 C71.8389,155.2883 79.2709,154.6663 86.7019,154.0453 C88.3529,153.9073 90.0169,153.7673 91.6089,153.3113 C85.1419,151.2573 78.1459,152.7623 71.5319,154.2773 C69.1569,154.8213 66.7829,155.3653 64.4079,155.9093 M144.0029,179.9413 C143.7569,173.9843 139.4849,169.0653 135.4439,164.6813 C134.0639,163.1843 132.1209,162.2183 130.0939,162.0223 C129.7879,163.1083 130.7719,164.0893 131.6339,164.8173 C136.6399,169.0413 140.8559,174.1973 144.0029,179.9413 M51.3719,158.5413 C38.5789,162.0673 26.5039,168.1793 16.0859,176.4003 C15.0699,177.2023 14.0219,178.7363 14.9839,179.6023 C26.9479,171.2883 39.8319,164.3003 53.3249,158.8043 C52.9139,158.2353 52.0489,158.3543 51.3719,158.5413 M121.7359,169.9413 C119.4749,169.1693 116.9219,170.1463 114.6279,169.4843 C111.9119,168.6993 109.8429,165.7193 107.0379,166.0663 C106.8589,166.6013 106.6799,167.1363 106.5009,167.6723 C105.1219,166.7783 103.5739,165.9293 101.9369,166.0763 C100.3009,166.2243 98.7179,167.8253 99.2019,169.3953 C101.4859,168.3393 104.3499,168.6753 106.3269,170.2313 C105.0819,171.0553 103.6279,171.9183 102.1859,171.5263 C101.5269,171.3473 100.9449,170.9153 100.2689,170.8163 C99.5929,170.7173 98.7459,171.2073 98.8809,171.8773 C105.0399,176.6353 112.1319,180.1813 119.6349,182.2543 C119.4459,180.4293 117.3759,179.5323 115.6419,178.9343 C113.9069,178.3363 111.8749,177.2193 111.9589,175.3863 C115.2399,175.8453 118.3459,177.4693 120.5929,179.9023 C122.7169,182.2013 126.3259,182.9783 129.2069,181.7563 C129.6129,181.5843 130.0619,181.2873 130.0569,180.8463 C130.0529,180.4823 129.7369,180.2083 129.4489,179.9853 C125.8429,177.2063 122.2379,174.4273 118.6319,171.6483 C122.9829,171.1903 126.0209,177.6173 130.2949,176.6833 C128.4519,175.1023 126.6099,173.5203 124.7679,171.9393 C123.8429,171.1463 122.8879,170.3343 121.7359,169.9413 M121.1339,183.7343 C118.2899,183.2323 115.4459,182.7303 112.6019,182.2283 C113.1849,183.1533 113.7679,184.0783 114.3509,185.0023 C109.1979,182.7393 104.4229,179.6183 100.2809,175.8073 C98.4359,174.1093 96.6039,172.0113 96.5919,169.5043 C96.5779,166.5533 99.2319,164.1273 102.0949,163.4133 C104.9579,162.6993 107.9679,163.3023 110.8429,163.9643 C115.2959,164.9883 119.8069,166.1893 123.6329,168.6873 C128.1949,171.6663 133.1269,176.6503 138.0799,174.3803 C132.6049,168.6913 125.3699,164.7223 117.6319,163.1603 C120.4019,162.9593 123.1709,162.7573 125.9409,162.5563 C90.8699,149.1703 49.4249,156.7133 19.2339,179.0223 C14.9669,182.1743 10.5829,186.1713 10.0999,191.4543 C12.5259,187.4843 16.7599,184.6683 21.3599,183.9663 C7.5959,192.4833 0.2789,210.2503 4.0539,225.9903 C6.6649,236.8783 13.9799,246.2523 22.9819,252.9103 C31.9839,259.5683 42.6039,263.7243 53.3849,266.7463 C66.4299,270.4033 80.3309,272.4933 93.4969,269.3023 C100.5219,267.5993 107.6869,263.9073 110.6579,257.3173 C113.6279,250.7283 110.0199,241.2093 102.8309,240.4613 C103.6769,242.9093 104.5219,245.3583 105.3679,247.8063 C104.3929,247.8253 103.7249,246.8653 103.2439,246.0183 C99.2609,239.0083 95.1569,230.7943 97.9859,223.2453 C100.0379,217.7683 105.3309,214.1533 110.7499,211.9523 C116.1689,209.7523 121.9919,208.5963 127.2699,206.0753 C130.4559,204.5533 133.3889,202.5583 136.3079,200.5713 C139.0599,198.6993 141.8979,196.7363 143.6079,193.8813 C145.6569,190.4593 145.7469,185.9493 143.8349,182.4483 C141.9229,178.9473 138.0809,176.5843 134.0929,176.4583 C133.4659,176.4383 132.7799,176.4923 132.3139,176.9143 C131.6219,177.5423 131.7399,178.6303 131.7229,179.5643 C131.6479,183.6793 127.1539,187.0873 123.1719,186.0493 C123.9989,185.0983 122.3749,183.9543 121.1339,183.7343 M43.4309,267.4823 C38.5749,266.0863 33.6259,264.5443 29.6259,261.4583 C18.2299,252.6663 6.2019,242.9873 2.0059,229.2193 C-2.4171,214.7083 2.9359,199.1533 8.9839,185.2413 C10.5369,181.6703 12.1749,178.0633 14.7319,175.1263 C17.1819,172.3123 20.3629,170.2433 23.5829,168.3583 C54.9649,149.9863 94.5769,146.3553 128.7759,158.7143 C131.5769,159.7263 134.3819,160.8623 136.7349,162.6863 C141.0909,166.0633 143.4039,171.3713 145.5449,176.4493 C146.9229,179.7193 148.3259,183.1093 148.2629,186.6573 C148.1199,194.6753 140.8049,200.5423 133.8339,204.5073 C126.1339,208.8853 117.9799,212.4643 109.5449,215.1663 C105.2449,216.5443 101.7719,220.2513 100.6779,224.6313 C99.5839,229.0123 100.9059,233.9173 104.0529,237.1543 C106.6839,239.8603 110.4159,241.4083 112.6849,244.4243 C115.5689,248.2583 115.3819,253.8123 113.1339,258.0503 C110.8849,262.2883 106.9009,265.3643 102.6589,267.6043 C84.7479,277.0633 62.8969,273.0793 43.4309,267.4823" id="Fill-1" fill="#020302"></path>
                <path d="M67.7161,74.0874 C68.0741,74.6694 69.1841,74.3414 69.1681,73.6584 C68.7571,73.0924 67.6601,73.4384 67.6481,74.1374 L67.7161,74.0874 Z M96.2321,71.8454 C95.7941,71.7254 95.3051,71.8064 94.9301,72.0614 C94.8951,72.7534 95.5381,73.4034 96.2301,73.3754 C96.5901,72.9404 96.6121,72.2594 96.2811,71.8024 L96.2321,71.8454 Z M72.6431,76.9774 C72.7161,76.1924 72.7881,75.4074 72.8601,74.6224 C72.2001,74.3304 71.3261,74.8124 71.2201,75.5254 C71.1141,76.2394 71.8101,76.9544 72.5271,76.8674 L72.6431,76.9774 Z M72.8231,67.3944 C71.7221,66.8644 70.2341,67.4194 69.7491,68.5404 C70.5791,69.6634 72.7791,68.8434 72.6711,67.4504 L72.8231,67.3944 Z M117.6781,114.8894 C117.0661,115.5554 116.8551,116.5624 117.1481,117.4184 C117.6871,117.7024 118.3271,117.7884 118.9211,117.6564 C119.1981,117.1104 119.2771,116.4684 119.1411,115.8724 C118.7081,115.6284 118.2751,115.3854 117.8421,115.1424 L117.6781,114.8894 Z M97.8441,93.2204 C97.7241,92.0574 96.6801,91.0604 95.5131,90.9954 C95.5311,91.8414 95.5771,92.7634 96.1331,93.4014 C96.6901,94.0394 97.9501,94.0644 98.2291,93.2654 L97.8441,93.2204 Z M72.1901,90.6454 C72.4451,91.5464 73.3811,92.2024 74.3161,92.1354 C74.5791,90.9034 74.1741,89.4264 73.0471,88.8644 C72.4681,89.2194 72.1551,89.9614 72.3051,90.6244 L72.1901,90.6454 Z M118.3881,105.8174 C118.1361,105.2264 117.8831,104.6344 117.6311,104.0424 C118.3481,103.6594 118.6441,102.6514 118.2501,101.9404 C117.8561,101.2304 116.8441,100.9484 116.1391,101.3534 L116.5051,104.9744 C116.5681,105.5994 116.6831,106.3124 117.2161,106.6454 C117.7491,106.9774 118.6601,106.3624 118.3011,105.8464 L118.3881,105.8174 Z M118.4451,109.2724 C118.3571,108.5084 117.5401,107.5094 117.0931,108.1354 L117.1001,113.8024 C117.6311,114.2054 118.4271,114.2144 118.9681,113.8234 C118.7931,112.3064 118.6191,110.7894 118.4451,109.2724 L118.4451,109.2724 Z M69.4151,104.6444 C70.1961,106.2644 71.9941,107.3364 73.7901,107.2544 C74.1601,106.5334 73.7741,105.6334 73.2001,105.0604 C72.2741,104.1384 70.8511,103.7484 69.5841,104.0714 L69.4151,104.6444 Z M94.1721,76.9904 C95.0281,77.3254 95.8841,77.6614 96.7401,77.9964 C97.5211,77.3204 96.8591,76.0344 96.0741,75.3624 C95.3761,74.7654 94.4631,74.2474 93.5761,74.4874 C92.6881,74.7284 92.2191,76.1064 93.0041,76.5834 C93.3701,76.7664 93.7361,76.9484 94.1011,77.1314 L94.1721,76.9904 Z M117.7291,94.6854 C117.6561,94.4294 117.5571,94.1414 117.3121,94.0364 C117.0791,93.9364 116.7741,94.0794 116.7021,94.3234 C115.1381,96.4224 116.7071,99.9864 119.3121,100.2504 C118.7851,98.3954 118.2571,96.5404 117.7291,94.6854 L117.7291,94.6854 Z M118.2511,124.4454 C119.5271,124.3684 120.0041,122.6494 119.6541,121.4194 C119.2361,119.9514 118.1211,118.6984 116.7111,118.1124 C117.0131,119.3054 116.5021,120.5374 116.4121,121.7644 C116.3221,122.9914 117.0231,124.5194 118.2511,124.4454 L118.2511,124.4454 Z M70.4561,84.3024 C70.9521,83.2084 68.9591,82.4244 68.1431,83.3064 C67.3281,84.1884 67.5171,85.5724 67.7871,86.7424 C68.0931,88.0724 68.4361,89.3924 68.8161,90.7034 C69.9221,90.5944 70.8801,89.6194 70.9691,88.5114 C71.0591,87.4024 70.2691,86.2874 69.1941,86.0024 C69.6151,85.4354 70.0361,84.8684 70.4561,84.3024 L70.4561,84.3024 Z M68.7801,81.2764 C69.6211,81.8074 70.7901,81.8324 71.4111,82.6094 C72.1401,83.5234 71.7431,85.0574 72.6111,85.8404 C74.3301,85.1554 73.7781,82.4574 72.4131,81.2074 C71.0491,79.9574 69.1251,79.1274 68.4891,77.3894 C67.3471,78.3764 67.5041,80.4704 68.7801,81.2764 L68.7801,81.2764 Z M99.1661,85.6954 C98.8641,83.8724 97.3561,82.3114 95.5451,81.9454 C95.7031,81.2364 95.8611,80.5274 96.0191,79.8194 C96.0471,78.4824 94.2721,77.6194 93.0901,78.2434 C91.9071,78.8674 91.4961,80.4744 91.9291,81.7394 C92.3611,83.0044 93.4491,83.9454 94.6291,84.5744 C96.0181,85.3144 97.5921,85.7034 99.1661,85.6954 L99.1661,85.6954 Z M50.5241,99.1534 C49.7271,100.2774 49.8341,101.9534 50.7681,102.9664 C51.4221,103.6744 52.3631,104.0274 53.1761,104.5444 C54.4831,105.3744 55.4851,106.6734 55.9571,108.1484 C57.9111,106.4744 54.5161,102.6364 56.4171,100.9014 C55.3141,99.4184 54.0441,98.0604 52.6391,96.8604 C51.7281,97.2544 52.4671,98.6244 53.2681,99.2094 C54.0691,99.7944 54.8671,101.1084 53.9881,101.5664 C52.8331,100.7624 51.6781,99.9574 50.5241,99.1534 L50.5241,99.1534 Z M74.0491,104.2324 C74.7811,103.5174 74.4711,102.2304 73.7851,101.4724 C73.0991,100.7134 72.1381,100.2584 71.3981,99.5524 C70.0931,98.3054 69.6171,96.2654 70.2361,94.5694 C71.3711,94.4104 71.8801,95.9154 72.0781,97.0444 C72.2761,98.1734 73.2441,99.5874 74.2261,98.9964 C74.1851,95.7284 71.9731,92.5954 68.9071,91.4614 C66.5441,96.0924 69.1361,102.5314 74.0491,104.2324 L74.0491,104.2324 Z M75.0851,110.4334 C73.3851,109.4104 71.6851,108.3874 69.9861,107.3644 C69.3311,111.8424 69.4491,116.4324 70.3341,120.8714 C70.5501,121.9524 71.5181,123.3304 72.4121,122.6864 C73.3521,121.5954 74.3251,120.4394 74.6141,119.0294 C75.2121,116.1124 72.8981,112.4524 75.0851,110.4334 L75.0851,110.4334 Z M100.6201,101.4474 C99.4651,100.3494 99.3461,98.5834 98.7451,97.1084 C98.1441,95.6324 96.3041,94.2994 95.0591,95.2924 C94.5111,98.5854 95.3251,102.0834 97.2691,104.7964 C96.4211,104.1304 95.0881,105.1154 95.0631,106.1934 C95.0371,107.2714 95.8191,108.1884 96.6161,108.9144 C97.4131,109.6404 98.3131,110.3504 98.6631,111.3694 C97.2231,111.0104 95.7831,110.6504 94.3431,110.2914 C94.1501,107.6814 93.9571,105.0714 93.7651,102.4614 C93.4171,97.7594 93.0761,92.9694 94.1601,88.3814 C96.0161,88.4284 97.8231,89.4184 98.8631,90.9564 C99.0051,89.3164 97.9921,87.7484 96.6631,86.7764 C95.3341,85.8044 93.7221,85.3184 92.1441,84.8484 C91.6981,92.7984 91.6681,100.7714 92.0561,108.7254 C92.2771,113.2484 92.6701,117.9054 94.7391,121.9334 C96.0441,122.6694 97.6021,122.9434 99.0791,122.6984 C98.4861,121.7004 97.7351,120.7974 96.8641,120.0304 C97.8011,119.8454 98.7381,119.6604 99.6751,119.4754 C99.4431,117.6214 98.6771,115.8374 97.4941,114.3924 C99.0961,113.4844 100.1521,111.6854 100.1641,109.8434 C100.1761,108.0284 99.4071,105.7964 100.8351,104.6764 C99.9831,104.4704 99.1791,104.0644 98.5081,103.4994 C99.3571,102.9894 100.0861,102.2814 100.6201,101.4474 L100.6201,101.4474 Z M50.0171,124.7954 C49.4441,115.8484 48.8721,106.9004 48.3001,97.9524 C48.1701,95.9254 50.1591,94.2664 52.1741,94.0064 C54.1881,93.7454 56.1801,94.5004 58.0711,95.2404 C57.8771,105.0874 57.6821,114.9344 57.4871,124.7814 C63.3161,124.2334 69.2231,124.5244 74.9701,125.6424 C72.1231,124.5674 68.9641,123.1894 67.9031,120.3374 C67.5241,119.3194 67.4651,118.2134 67.4091,117.1284 C66.7731,104.6794 66.1361,92.2304 65.4991,79.7814 C65.2501,74.9104 65.4491,69.1054 69.5361,66.4464 C70.7381,65.6644 72.6221,65.4134 73.3861,66.6264 C73.6591,67.0614 73.7201,67.5924 73.7721,68.1034 C75.5721,85.5294 76.8611,103.0074 77.6391,120.5084 C76.1631,120.4714 74.7961,121.8164 74.8101,123.2924 C79.2081,123.3444 83.6061,123.3954 88.0041,123.4464 C88.6611,123.4544 89.3691,123.4464 89.9021,123.0624 C90.7361,122.4624 90.7691,121.2564 90.7211,120.2294 C90.1661,108.4344 89.6111,96.6394 89.0561,84.8444 C88.8971,81.4764 88.7591,77.9844 90.0201,74.8574 C91.2821,71.7304 94.3611,69.0674 97.7151,69.4184 C101.9701,85.5784 103.2771,102.5104 101.5531,119.1324 C101.2691,121.8664 103.6151,124.3164 106.2451,125.1174 C108.8751,125.9194 111.7021,125.4774 114.4151,125.0304 C114.2971,115.5184 114.1791,106.0074 114.0611,96.4954 C114.0301,94.0274 114.7041,90.7424 117.1681,90.5914 C119.7621,90.4334 120.7271,93.9094 120.8041,96.5074 C121.0521,104.9814 121.3011,113.4554 121.5491,121.9294 C121.5861,123.1994 121.5521,124.6444 120.6041,125.4894 C119.7951,126.2114 118.5981,126.2334 117.5131,126.2154 C104.7801,126.0074 92.0471,125.8004 79.3131,125.5924 C92.7641,128.1044 106.5221,128.9694 120.1821,128.1614 C121.2701,128.0974 122.7491,127.5084 122.4371,126.4644 C131.8411,128.7124 141.2441,130.9594 150.6481,133.2074 C118.2831,130.6774 85.9181,128.1474 53.5541,125.6174 C56.3791,119.3434 56.0321,111.7344 52.6481,105.7434 C51.1651,109.1274 51.5321,113.2564 53.5891,116.3254 C55.4691,119.1314 52.6191,122.6424 50.0171,124.7954 L50.0171,124.7954 Z" id="Fill-3" fill="#020302"></path>
                <g id="Group-7" transform="translate(118.000000, 20.291000)">
                    <mask id="mask-2" fill="white">
                        <use xlink:href="#path-1"></use>
                    </mask>
                    <g id="Clip-6"></g>
                    <path d="M66.0097,130.107 C66.2847,130.706 66.5607,131.305 66.8357,131.904 C67.2997,131.143 66.9917,130.021 66.2057,129.603 L66.0097,130.107 Z M48.0717,85.794 C48.1887,86.699 48.6557,87.554 49.3527,88.141 C49.7517,87.057 49.1317,85.707 48.0487,85.303 L48.0717,85.794 Z M56.2157,103.653 C56.5037,103.584 56.1977,103.079 55.9317,103.211 C55.6657,103.343 55.6417,103.711 55.6847,104.005 C55.8307,105.019 56.3327,105.979 57.0837,106.678 C57.4517,105.687 57.0987,104.474 56.2557,103.836 L56.2157,103.653 Z M71.2937,142.32 C71.7127,145.321 72.4247,148.282 73.4177,151.145 C73.6897,151.473 74.1817,151.599 74.5777,151.44 C75.2097,148.11 73.9037,144.482 71.2937,142.32 L71.2937,142.32 Z M80.7507,171.822 C81.3167,166.747 80.1527,161.495 77.4967,157.133 C77.7267,162.168 78.8327,167.161 80.7507,171.822 L80.7507,171.822 Z M19.8547,39.292 C19.6287,36.739 19.7927,34.158 19.4827,31.614 C19.1487,28.872 18.2717,26.23 17.4007,23.609 C16.0927,19.673 14.7817,15.73 13.0817,11.947 C11.0417,7.406 7.2477,2.484 2.3177,3.178 C3.9937,5.854 5.6707,8.53 7.3467,11.207 C8.9787,13.813 10.6217,16.439 11.7237,19.31 C13.3497,23.545 13.7367,28.134 14.4167,32.62 C15.3717,38.926 16.9357,45.14 19.0797,51.147 C20.3837,54.803 22.2547,58.742 25.8747,60.141 C24.8307,57.034 23.7877,53.928 22.7437,50.821 C21.4787,47.056 20.2047,43.249 19.8547,39.292 L19.8547,39.292 Z M28.7257,62.179 C29.9527,63.93 31.8277,65.095 33.6507,66.212 C35.4277,67.301 37.2047,68.39 38.9817,69.479 C32.9877,53.183 26.9927,36.886 20.9977,20.59 C27.0627,35.191 33.1277,49.791 39.1917,64.392 C40.3687,64.48 40.4267,62.665 40.0067,61.563 C34.5677,47.29 29.1277,33.016 23.6887,18.743 C27.5567,27.116 31.4247,35.49 35.2927,43.863 C36.5757,39.107 31.4357,34.133 33.2417,29.55 C35.3727,37.01 37.5027,44.471 39.6337,51.931 C41.2277,57.513 42.8307,63.415 41.3937,69.039 C41.8117,68.574 42.2317,68.107 42.5887,67.593 C44.7867,64.428 44.2357,60.179 43.5427,56.388 C42.1457,48.744 40.5177,41.064 37.3017,33.989 C32.3237,23.037 23.5217,13.869 12.7817,8.449 C16.5307,17.47 20.2807,26.491 24.0297,35.512 C27.5737,44.039 31.1287,52.598 33.4857,61.527 C33.7857,62.663 33.5777,64.424 32.4087,64.301 C29.6187,53.405 25.9037,42.746 21.3167,32.476 C20.8447,38.295 22.5907,44.04 24.3157,49.617 C25.1517,52.319 25.9877,55.021 26.8227,57.723 C27.3027,59.272 27.7957,60.85 28.7257,62.179 L28.7257,62.179 Z M12.6017,38.071 C11.8587,31.364 12.8057,24.235 9.9037,18.142 C7.0217,12.09 0.5237,7.462 0.3827,0.76 C14.3757,4.609 26.9007,13.574 35.0557,25.579 C43.2097,37.584 46.9287,52.531 45.3507,66.957 C45.0227,69.955 46.1637,72.897 47.2827,75.696 C57.1527,100.373 67.0217,125.05 76.8907,149.728 C80.8047,159.514 84.7927,169.983 82.7727,180.327 C79.3277,177.14 77.9197,172.381 76.5797,167.883 C69.0837,142.718 59.2707,118.315 49.4737,93.954 C47.3007,88.553 45.1287,83.152 42.9567,77.75 C41.6997,74.626 40.1377,71.186 37.0037,69.953 C23.9147,64.808 14.1497,52.049 12.6017,38.071 L12.6017,38.071 Z" id="Fill-5" fill="#020302" mask="url(#mask-2)"></path>
                </g>
                <g id="Group-10" transform="translate(0.000000, 0.291000)">
                    <mask id="mask-4" fill="white">
                        <use xlink:href="#path-3"></use>
                    </mask>
                    <g id="Clip-9"></g>
                    <path d="M33.904,82.3319 C34.439,82.6299 34.761,81.6889 34.658,81.0849 C34.021,80.5539 33.193,80.2569 32.364,80.2619 C31.681,81.1689 32.828,82.6919 33.888,82.2879 L33.904,82.3319 Z M26.256,55.9439 C27.186,56.4219 28.239,56.6569 29.283,56.6199 C29.521,56.2349 29.61,55.7599 29.527,55.3139 C28.579,54.6279 27.346,54.3489 26.195,54.5599 C25.829,54.9839 25.814,55.6689 26.161,56.1089 L26.256,55.9439 Z M26.965,65.3049 C26.763,64.2079 26.561,63.1099 26.359,62.0119 C26.046,61.7389 25.588,61.6439 25.193,61.7699 C24.404,63.1399 25.101,65.1359 26.571,65.7179 L26.965,65.3049 Z M12.338,123.4579 C11.224,122.6139 9.345,123.2209 8.935,124.5569 C10.914,125.3049 13.138,125.3859 15.167,124.7859 C14.643,123.7979 13.368,123.2789 12.302,123.6199 L12.338,123.4579 Z M27.749,69.4749 C29.171,69.5869 30.593,69.6989 32.016,69.8109 C30.574,68.3799 28.798,67.2879 26.87,66.6469 C26.058,66.3769 25.384,67.5459 25.731,68.3279 C26.079,69.1099 26.945,69.4979 27.739,69.8179 L27.749,69.4749 Z M31.187,62.3879 C30.842,59.7969 28.548,57.5989 25.944,57.3669 C26.565,59.8419 28.687,61.8749 31.187,62.3879 L31.187,62.3879 Z M27.967,118.1459 C28.469,120.0819 27.246,122.7669 28.969,123.7839 C29.485,124.0889 30.118,124.0969 30.717,124.0959 C32.009,124.0949 33.3,124.0929 34.591,124.0919 C35.224,124.0909 36.091,123.4089 35.546,123.0879 C34.113,122.8539 32.636,122.6029 31.412,121.8219 C30.189,121.0409 29.276,119.5819 29.586,118.1639 C29.142,117.7809 28.42,117.7729 27.967,118.1459 L27.967,118.1459 Z M32.284,112.9559 C32.573,114.4289 33.908,115.6329 35.403,115.7689 C35.603,114.1329 35.799,112.4359 35.299,110.8649 C34.8,109.2929 33.401,107.8799 31.753,107.9209 C30.988,109.4769 31.23,111.4729 32.344,112.8009 L32.284,112.9559 Z M31.112,87.7619 C29.955,87.9739 28.859,88.5069 27.978,89.2859 C28.498,89.8069 29.017,90.3269 29.537,90.8469 C29.002,91.3989 28.468,91.9509 27.934,92.5029 C30.899,94.0489 33.329,96.6009 34.728,99.6379 C36.111,96.7169 32.691,93.3699 33.532,90.2489 C34.135,88.0159 33.402,85.4749 31.702,83.9059 C31.057,85.0669 30.844,86.4609 31.112,87.7619 L31.112,87.7619 Z M31.583,81.5949 C30.045,80.7929 28.757,79.5199 27.937,77.9909 C28.477,77.4399 29.382,77.8369 30.133,78.0139 C30.883,78.1909 31.986,77.5569 31.54,76.9269 C30.531,76.6329 29.711,75.7649 29.474,74.7399 C30.755,74.6929 32.041,74.7799 33.303,74.9989 C32.395,72.5999 29.535,71.1309 27.055,71.7899 C26.875,71.8379 26.694,71.8969 26.542,72.0059 C25.964,72.4199 26.063,73.2909 26.205,73.9889 C26.883,77.3239 27.113,80.7499 26.889,84.1459 C26.83,85.0309 26.754,85.9789 27.195,86.7479 C27.637,87.5179 28.834,87.9039 29.419,87.2369 C29.21,85.3769 28.738,83.5479 28.023,81.8189 C29.123,82.1869 30.224,82.5539 31.325,82.9209 C31.577,82.5339 31.672,82.0479 31.583,81.5949 L31.583,81.5949 Z M31.797,99.4149 C32.134,99.1439 32.21,98.6009 31.96,98.2479 C30.548,97.1019 29.136,95.9559 27.724,94.8099 C27.598,98.4799 27.471,102.1499 27.345,105.8199 C27.235,108.9959 27.145,112.2849 28.358,115.2219 C29.571,118.1589 32.469,120.6529 35.631,120.3399 C35.954,118.7029 34.064,117.6339 32.792,116.5529 C29.758,113.9729 29.622,109.4189 29.727,105.4379 C31.495,106.0519 33.203,106.8379 34.82,107.7809 C36.334,104.5159 33.13,100.1749 29.564,100.6589 C29.66,99.6629 30.899,98.9719 31.797,99.4149 L31.797,99.4149 Z M4.801,80.1059 C5.783,88.7969 6.765,97.4879 7.747,106.1789 C9.631,93.9679 6.444,81.6329 4.182,69.4869 C-0.034,46.8529 -1.071,23.6289 1.111,0.7089 C3.493,3.1989 3.481,7.0549 3.375,10.4989 C2.816,28.7169 3.772,46.9809 6.231,65.0399 C6.914,58.6399 7.597,52.2399 8.279,45.8389 C10.912,52.3719 8.831,59.7089 8.128,66.7169 C6.463,83.3179 12.804,99.9309 11.265,116.5439 C11.034,119.0439 12.817,121.3809 15.024,122.5769 C17.23,123.7729 19.798,124.0649 22.294,124.3349 C22.903,124.4009 23.549,124.4609 24.101,124.1959 C25.192,123.6719 25.369,122.2189 25.394,121.0079 C25.806,100.9149 24.93,80.7959 22.773,60.8139 C22.424,57.5779 22.072,54.1469 23.469,51.2069 C24.866,48.2679 28.739,46.2579 31.483,48.0089 C35.88,72.6259 38.089,97.6349 38.077,122.6419 C38.076,124.8549 41.068,125.6329 43.256,125.3009 C45.444,124.9679 48.058,124.3549 49.573,125.9669 C47.901,126.3859 46.272,126.9789 44.723,127.7339 C56.411,128.3609 68.099,128.9879 79.788,129.6149 C64.936,129.7049 50.085,129.7959 35.234,129.8869 C36.482,129.1159 37.73,128.3439 38.978,127.5729 C35.152,126.0729 30.953,125.5339 26.872,126.0189 C29.306,126.8819 31.74,127.7439 34.174,128.6059 C26.713,128.2709 19.257,127.8179 11.81,127.2459 C8.722,128.2869 5.37,128.5339 2.163,127.9579 C6.26,125.5679 7.995,120.4089 7.894,115.6659 C7.792,110.9239 6.219,106.3559 5.229,101.7159 C3.718,94.6269 3.572,87.2489 4.801,80.1059 L4.801,80.1059 Z" id="Fill-8" fill="#020302" mask="url(#mask-4)"></path>
                </g>
                <path d="M117.7275,30.8082 C119.0965,34.1302 119.8705,37.6952 120.0045,41.2852 C120.0605,42.8012 119.4205,44.8652 117.9165,44.6632 C117.0595,44.5482 116.5285,43.6892 116.1735,42.9002 C114.6615,39.5412 114.0865,35.7662 114.5295,32.1092 C114.6925,30.7642 115.7825,29.0322 116.9545,29.7142 C117.3475,29.9432 117.5545,30.3872 117.7275,30.8082" id="Fill-11" fill="#020302"></path>
                <path d="M121.9455,74.9767 C119.5575,74.3177 118.7715,71.3787 118.4655,68.9207 C118.0945,65.9327 117.8305,62.9327 117.6735,59.9267 C118.5385,59.6807 119.2695,60.5877 119.6745,61.3917 C121.7695,65.5547 122.5725,70.3577 121.9455,74.9767" id="Fill-13" fill="#020302"></path>
                <path d="M133.423,127.1972 C138.422,127.0082 143.451,127.6292 148.253,129.0292 C143.273,129.8802 138.047,129.2352 133.423,127.1972" id="Fill-15" fill="#020302"></path>
                <path d="M157.6186,193.6662 C157.8536,192.9052 158.1096,192.1072 158.6906,191.5622 C159.2706,191.0162 160.2846,190.8442 160.8416,191.4132 C160.4976,192.2382 160.1336,193.0942 159.4596,193.6822 C158.7866,194.2692 157.7076,194.4962 157.0016,193.9482 L157.6186,193.6662 Z" id="Fill-17" fill="#020302"></path>
                <path d="M72.9349,132.4771 C71.6929,133.5351 69.5089,133.1221 68.7389,131.6841 C70.0089,131.6021 71.2949,131.7991 72.4819,132.2561 L72.9349,132.4771 Z" id="Fill-19" fill="#020302"></path>
                <path d="M11.0019,128.5013 C12.1959,128.1313 12.8439,130.0293 12.2889,131.1503 C11.2099,130.9223 10.5779,129.5153 11.1239,128.5573 L11.0019,128.5013 Z" id="Fill-21" fill="#020302"></path>
                <path d="M85.8344,165.7644 C84.6164,165.1824 83.2114,165.0014 81.8854,165.2564 C84.0564,167.3164 86.8794,168.6794 89.8424,169.0994 C88.5714,167.8904 87.3004,166.6804 86.0294,165.4714 L85.8344,165.7644 Z M87.2674,178.1544 C88.0274,179.2454 89.5524,179.7314 90.8034,179.2804 C90.6794,176.6714 87.4134,174.7874 85.0924,175.9844 C85.8034,176.7184 86.5144,177.4524 87.2254,178.1864 L87.2674,178.1544 Z M89.9754,174.1134 C87.8154,170.1794 83.7644,167.3424 79.3294,166.6574 C78.1394,166.4744 77.2564,165.4964 76.2134,164.8954 C75.1704,164.2954 73.5034,164.2854 73.0974,165.4184 C72.6834,166.5744 71.0234,166.3704 69.8214,166.1204 C68.6184,165.8704 66.8234,166.4084 67.1434,167.5934 C65.4834,167.7614 63.4254,168.2724 63.1144,169.9114 C62.7904,171.6184 64.6634,172.8474 66.2464,173.5604 C71.8234,176.0744 77.4014,178.5884 82.9784,181.1024 C84.1034,181.6094 85.8424,181.8664 86.1964,180.6844 C84.8864,178.0354 81.2044,178.0874 78.3614,177.2814 C77.4354,177.0194 76.3694,176.0244 76.9984,175.2954 C78.1714,175.9154 79.4674,176.3014 80.7884,176.4234 C81.0314,176.0474 81.1164,175.5724 81.0194,175.1354 C79.3004,174.0954 77.5824,173.0564 75.8634,172.0174 C77.4414,171.1934 79.1984,172.5874 80.6394,173.6334 C82.0804,174.6794 84.6244,175.1324 85.2134,173.4514 C82.9374,172.2934 80.7374,170.9874 78.6304,169.5454 C80.5414,168.5904 82.8054,169.8074 84.4544,171.1644 C86.1034,172.5224 87.8404,174.1564 89.9754,174.1134 L89.9754,174.1134 Z M64.6444,175.3614 C65.6334,179.8184 73.6164,178.7754 75.2934,183.0214 C74.1114,182.2854 72.8044,181.7484 71.4454,181.4424 C71.4064,183.3944 74.2434,184.6384 75.6534,183.2874 C79.4764,185.5624 84.1554,186.9534 88.3924,185.5954 C92.6284,184.2384 95.8564,179.3744 94.2544,175.2234 C93.8894,174.2754 93.1264,173.3164 92.1104,173.3344 C91.3294,174.6224 92.4084,176.2034 92.6114,177.6964 C92.7804,178.9424 92.2934,180.2144 91.5054,181.1944 C89.4414,183.7594 85.6224,184.2814 82.4454,183.4174 C79.2694,182.5524 76.5364,180.5734 73.7604,178.8044 C70.9844,177.0354 67.9364,175.3984 64.6444,175.3614 L64.6444,175.3614 Z M89.0604,187.5164 C79.2324,189.3564 68.5124,184.9004 62.8834,176.6364 C61.7504,174.9744 60.7844,173.0564 60.9234,171.0484 C61.1464,167.8434 64.0764,165.4984 67.0264,164.2274 C74.3224,161.0844 83.2804,162.2084 89.5744,167.0544 C92.9904,169.6844 95.7034,173.5544 95.9234,177.8604 C96.1434,182.1654 93.2984,186.7234 89.0604,187.5164 L89.0604,187.5164 Z" id="Fill-23" fill="#020302"></path>
                <path d="M30.6705,186.4922 C30.1005,187.5792 31.3275,189.0792 32.5055,188.7362 C32.4665,186.6322 32.8105,184.5232 33.5175,182.5412 C32.0775,183.3612 31.0245,184.8292 30.7095,186.4552 L30.6705,186.4922 Z M61.3255,192.7302 C62.1565,192.4182 62.2325,191.1662 61.6735,190.4762 C61.1145,189.7862 60.1975,189.5222 59.3385,189.2942 C57.9885,188.9372 56.6395,188.5792 55.2895,188.2212 C55.4865,190.3832 57.7735,191.6282 59.7665,192.4892 C60.2615,192.7032 60.8205,192.9202 61.3255,192.7302 L61.3255,192.7302 Z M52.6625,178.8612 C52.2865,178.7332 51.8895,178.6042 51.4995,178.6802 C50.7265,178.8302 50.3285,179.9132 50.8205,180.5282 C52.4435,179.7882 54.3035,180.8942 55.5775,182.1422 C56.8515,183.3902 58.0785,184.9152 59.8335,185.2342 C59.7385,181.8182 55.8995,179.9562 52.6625,178.8612 L52.6625,178.8612 Z M41.2105,197.0372 C42.6915,197.7122 44.2995,198.4032 45.8935,198.0742 C41.3435,194.6402 36.1615,192.0462 30.6855,190.4602 C30.2605,191.6702 31.6525,192.6822 32.8195,193.2142 C35.6165,194.4892 38.4135,195.7632 41.2105,197.0372 L41.2105,197.0372 Z M48.5985,184.0932 C51.6285,185.3172 54.7885,186.2192 58.0085,186.7802 C55.8005,183.6012 52.0425,181.5542 48.1725,181.4242 C48.9335,179.4872 47.2845,177.0392 45.2035,177.0162 C45.3835,177.9572 45.5625,178.8972 45.7425,179.8372 C43.0555,176.8902 37.5785,177.3402 35.4095,180.6862 C37.8915,181.4332 40.7105,180.9602 42.8135,179.4442 C42.4715,180.2902 42.1285,181.1352 41.7865,181.9812 C43.6485,181.6992 45.5955,182.0052 47.2815,182.8442 C43.4195,183.8962 39.3245,184.0862 35.3815,183.3972 C34.5285,183.2482 34.2545,184.5602 34.5905,185.3572 C34.9255,186.1552 35.4685,187.1062 34.9415,187.7922 C34.1735,188.7922 35.4445,190.0732 36.5475,190.6842 C38.0825,191.5352 39.6175,192.3852 41.1525,193.2362 C45.6265,195.7152 50.7615,198.2732 55.6355,196.7222 C56.6645,196.3952 57.8115,195.2982 57.1685,194.4302 C52.3105,195.6372 46.9085,194.4052 43.0545,191.2112 C42.7365,189.9072 44.7615,189.2942 45.9755,189.8662 C47.1905,190.4382 48.2675,191.5592 49.6055,191.4502 C51.2345,192.9422 53.5975,193.5912 55.7595,193.1392 C56.2415,192.2852 55.0265,191.5092 54.0885,191.2252 C50.0795,190.0102 46.3815,187.7812 43.4345,184.8032 C46.7365,185.1012 49.5495,187.2232 52.1635,189.2622 C51.4715,187.2592 50.2245,185.4512 48.5985,184.0932 L48.5985,184.0932 Z M28.0795,189.2942 C27.9095,187.6642 28.4245,186.0402 29.0795,184.5392 C30.2785,181.7912 32.0185,179.2112 34.4575,177.4682 C40.2725,173.3112 48.3595,174.8512 54.9785,177.5522 C58.0095,178.7892 61.3935,180.8592 61.4975,184.1312 C61.5755,186.5502 63.6845,188.4852 64.0105,190.8832 C64.2865,192.9172 63.2145,194.9172 61.8165,196.4202 C58.5405,199.9422 53.4755,201.4182 48.6725,201.1612 C43.8685,200.9052 39.2755,199.0962 35.0065,196.8792 C31.8355,195.2322 28.4515,192.8482 28.0795,189.2942 L28.0795,189.2942 Z" id="Fill-25" fill="#020302"></path>
                <path d="M54.0685,232.5175 C54.2435,233.6485 55.0035,234.6735 56.0355,235.1685 C56.1105,232.7395 56.1855,230.3115 56.2605,227.8825 C54.7845,228.9385 53.8265,230.6865 53.7305,232.4985 L54.0685,232.5175 Z M86.1405,235.6615 C86.1025,234.6825 85.7705,233.7345 85.3195,232.8645 C83.3365,229.0475 79.1345,226.7705 74.8875,226.0855 C70.6405,225.4005 66.3015,226.0855 62.0735,226.8815 C59.2075,227.4215 57.0435,230.4285 57.4425,233.3185 C57.7425,235.4905 59.2525,237.3085 60.9325,238.7185 C65.9675,242.9405 73.1465,244.4565 79.4575,242.6295 C82.7945,241.6635 86.2735,239.1315 86.1405,235.6615 L86.1405,235.6615 Z M88.8875,241.6395 C88.1785,242.7685 87.0205,243.5365 85.8365,244.1475 C80.8265,246.7365 74.8125,247.0535 69.3665,245.5895 C63.9215,244.1245 59.0245,240.9765 54.9635,237.0655 C54.1145,236.2485 53.2825,235.3725 52.8045,234.2965 C51.7845,231.9985 52.6355,229.1875 54.3445,227.3415 C56.0525,225.4965 58.4625,224.4635 60.8755,223.7555 C66.2995,222.1665 72.2425,222.0045 77.5425,223.9685 C82.8425,225.9315 87.4035,230.1615 89.1415,235.5395 C89.7885,237.5405 90.0055,239.8595 88.8875,241.6395 L88.8875,241.6395 Z" id="Fill-27" fill="#020302"></path>
                <path d="M39.1257,210.4911 C39.7727,209.8391 38.6897,208.5961 37.8857,209.0391 C37.0807,209.4811 37.2727,210.8801 38.1157,211.2451 C38.5257,211.6581 39.4047,211.2171 39.2627,210.6531 L39.1257,210.4911 Z M31.8577,219.1381 C31.4477,219.4431 31.1667,219.9141 31.0927,220.4181 C32.5497,222.1651 35.7517,221.8931 36.8937,219.9261 C35.2227,219.6371 33.5517,219.3471 31.8797,219.0581 L31.8577,219.1381 Z M26.4167,210.9311 C26.9407,213.2721 28.5707,215.3411 30.7247,216.3981 C31.9017,216.9761 33.1977,217.2571 34.4787,217.5331 C35.1017,216.7031 34.0957,215.6381 33.2107,215.0961 C30.9467,213.7081 28.6817,212.3191 26.4167,210.9311 L26.4167,210.9311 Z M39.9467,207.3471 C37.1787,204.6991 33.7167,202.7841 30.0037,201.8441 C29.2337,201.6501 28.3147,201.5321 27.7387,202.0781 C31.3777,204.6661 35.5677,206.4741 39.9467,207.3471 L39.9467,207.3471 Z M24.6227,218.5751 C26.4627,219.6231 29.4437,219.8601 30.1057,217.8481 C28.4197,216.9651 26.9567,215.6611 25.8867,214.0871 C23.7517,210.9441 20.6457,208.4711 17.1047,207.0941 C16.2497,207.8491 16.0717,209.2581 16.7117,210.2021 C17.3527,211.1461 18.7277,211.5021 19.7457,210.9861 C21.4017,212.4281 23.0577,213.8691 24.7137,215.3111 C23.1737,215.3341 21.6297,215.1121 20.1577,214.6571 C21.3607,216.2471 22.8897,217.5891 24.6227,218.5751 L24.6227,218.5751 Z M21.8527,201.2741 C20.7787,201.1571 19.6387,201.0581 18.6657,201.5281 C17.6927,201.9981 17.0177,203.2561 17.5547,204.1941 C17.8357,204.6821 18.3617,204.9671 18.8607,205.2281 C24.6307,208.2361 30.4007,211.2451 36.1717,214.2531 C35.3387,215.5241 36.4187,217.5341 37.9377,217.5421 C39.4577,217.5501 40.5577,215.5511 39.7377,214.2711 C39.4727,213.8581 39.0757,213.5501 38.6857,213.2511 C37.3367,212.2161 35.9877,211.1821 34.6387,210.1471 C35.3057,209.8661 35.3517,208.8611 34.9107,208.2881 C34.4687,207.7141 33.7417,207.4581 33.0667,207.1991 C29.9807,206.0151 27.1477,204.1771 24.8087,201.8421 C24.3267,202.8241 23.7857,203.8681 22.8177,204.3781 C21.8497,204.8881 20.3557,204.4981 20.1747,203.4191 C20.9907,202.9671 21.6107,202.1751 21.8527,201.2741 L21.8527,201.2741 Z M40.9667,219.3961 C37.3467,223.6151 30.6867,224.1871 25.6207,221.8971 C20.5547,219.6071 16.8697,215.0421 14.0837,210.2311 C13.3327,208.9341 14.0867,207.3281 14.6987,205.9601 C15.3107,204.5921 15.6567,202.7101 14.4477,201.8241 C17.1837,199.1921 21.2507,198.3031 25.0257,198.7031 C28.8007,199.1021 32.3547,200.6461 35.7527,202.3381 C37.2517,203.0851 38.7517,203.8761 40.0027,204.9911 C43.9827,208.5381 44.4387,215.3501 40.9667,219.3961 L40.9667,219.3961 Z" id="Fill-29" fill="#020302"></path>
                <path d="M24.8818,242.6538 C25.4138,242.8098 25.9468,242.9658 26.4788,243.1228 C26.3258,242.5708 26.1038,241.9418 25.5628,241.7528 C25.0228,241.5638 24.3738,242.3728 24.8508,242.6898 L24.8818,242.6538 Z M24.3958,231.7518 C23.2568,230.5418 21.3768,230.0958 19.8168,230.6658 C20.9478,231.8858 22.8298,232.3428 24.3948,231.7788 L24.3958,231.7518 Z M33.6218,245.4828 C32.8378,244.1098 30.8238,243.6318 29.5058,244.5048 C30.1398,245.7748 31.8908,246.3338 33.1428,245.6668 L33.6218,245.4828 Z M13.6308,230.5308 C15.7998,232.7548 18.5138,234.4448 21.4668,235.4098 C19.9798,236.5098 17.6758,236.2908 16.4228,234.9308 C15.8488,235.9588 16.6508,237.2978 17.7168,237.7978 C18.7818,238.2988 20.0108,238.2398 21.1838,238.3438 C24.2728,238.6198 27.2308,240.1538 29.2368,242.5188 C29.5328,241.2278 28.5658,240.0208 27.6668,239.0488 C30.2458,240.5648 32.8248,242.0818 35.4038,243.5978 C36.2528,242.4548 34.9698,240.8968 33.6648,240.3268 C32.3588,239.7578 30.7318,239.3528 30.2218,238.0228 C29.4688,236.0598 27.3338,235.0098 25.3048,234.4568 C23.2748,233.9038 21.0988,233.6308 19.3628,232.4438 C18.4468,231.8178 17.6948,230.9598 16.7258,230.4198 C15.7568,229.8788 14.4138,229.7448 13.6308,230.5308 L13.6308,230.5308 Z M22.5368,244.1258 C20.5678,242.8958 18.6428,241.5658 16.9928,239.9318 C14.5688,237.5318 12.7828,234.4918 11.8658,231.2058 C11.7448,230.7728 11.6388,230.3158 11.7458,229.8788 C11.8678,229.3818 12.2468,228.9908 12.6428,228.6668 C16.3118,225.6628 21.8778,226.6668 26.0168,228.9818 C31.8318,232.2338 36.3198,237.7868 38.2788,244.1548 C36.7628,246.6678 33.5298,247.7388 30.6118,247.4318 C27.6928,247.1248 25.0248,245.6818 22.5368,244.1258 L22.5368,244.1258 Z" id="Fill-31" fill="#020302"></path>
                <path d="M138.8405,181.5529 C141.4645,184.1819 142.9405,187.9179 142.8215,191.6299 C140.7785,187.9799 138.7345,184.3299 136.6915,180.6789 C137.4635,180.4109 138.2635,180.9749 138.8405,181.5529" id="Fill-33" fill="#020302"></path>
                <path d="M117.6078,186.0282 C117.0958,185.9382 117.3748,185.0242 117.8948,185.0192 C118.4158,185.0152 118.7928,185.4942 119.0838,185.9252 C118.6698,186.2842 117.9908,186.2842 117.5768,185.9252 L117.6078,186.0282 Z" id="Fill-35" fill="#020302"></path>
                <path d="M126.5626,180.856 C122.4556,178.182 118.3496,175.509 114.2426,172.835 C119.3126,173.329 124.0596,176.42 126.5626,180.856" id="Fill-37" fill="#020302"></path>
                <path d="M111.3941,172.6228 C110.1541,173.2458 108.8761,173.7938 107.5691,174.2628 C106.8471,173.5578 107.3751,172.1998 108.3081,171.8148 C109.2411,171.4298 110.3131,171.7388 111.2261,172.1698 L111.3941,172.6228 Z" id="Fill-39" fill="#020302"></path>
                <path d="M94.2971,110.5048 C94.6091,111.3058 94.7791,112.1608 94.7981,113.0198 C93.8621,112.5598 93.6131,111.1218 94.3401,110.3738 L94.2971,110.5048 Z" id="Fill-41" fill="#020302"></path>
                <path d="M130.6085,36.2132 C132.6285,39.2912 134.0335,42.7722 134.7155,46.3912 C134.8365,47.0362 134.8675,47.8482 134.3075,48.1912 C132.7985,44.2912 131.5605,40.2852 130.6085,36.2132" id="Fill-43" fill="#020302"></path>
                <path d="M67.1361,167.7339 C68.5581,167.7739 69.9561,168.3919 70.9441,169.4159 C69.4891,169.9249 67.7031,169.0669 67.1921,167.6129 L67.1361,167.7339 Z" id="Fill-45" fill="#020302"></path>
                <path d="M58.3033,255.9791 C58.1103,255.3841 57.2863,255.1041 56.7713,255.4611 C56.9873,256.1941 57.4823,256.8411 58.1323,257.2431 C58.3743,256.8711 58.4593,256.4001 58.3643,255.9661 L58.3033,255.9791 Z M54.5253,256.7551 C53.9353,257.1361 53.6103,257.8891 53.7363,258.5801 C54.6973,259.2291 56.2003,258.0121 55.7633,256.9371 C55.3533,256.8441 54.9423,256.7501 54.5323,256.6561 L54.5253,256.7551 Z M48.6993,255.9681 C48.4643,254.9431 47.1963,254.3021 46.2313,254.7211 C45.4723,256.4011 47.0543,258.1931 48.6093,259.1851 C52.1103,261.4171 56.2973,262.5561 60.4463,262.4031 C60.8433,261.2591 59.4083,260.2521 58.1983,260.2951 C56.9883,260.3381 55.8313,260.9361 54.6223,260.8651 C51.9013,260.7051 50.2643,257.3611 47.5603,257.0151 C47.4003,256.4551 48.1303,256.0891 48.6993,255.9681 L48.6993,255.9681 Z M49.6493,251.8801 C48.6293,252.0251 47.6423,251.5371 46.6723,251.1881 C45.7023,250.8401 44.5223,250.6561 43.7203,251.3041 C42.9183,251.9511 43.2313,253.6401 44.2593,253.5661 L49.3643,253.1981 C50.7633,253.9401 51.5533,256.1711 53.0923,255.7951 C54.5173,255.4461 54.2953,253.1851 53.1693,252.2451 C52.0423,251.3051 50.4683,251.0121 49.3963,250.0101 C48.9223,250.5441 49.0503,251.4921 49.6493,251.8801 L49.6493,251.8801 Z M64.2553,262.0811 C64.1353,263.3861 62.9933,264.4191 61.7383,264.7951 C60.4843,265.1721 59.1363,265.0181 57.8453,264.7981 C51.3893,263.6991 44.8943,260.7511 41.2853,255.2861 C40.3933,253.9341 39.6793,252.3911 39.6873,250.7711 C39.6953,249.1511 40.5713,247.4601 42.0813,246.8721 C43.0703,246.4871 44.1783,246.6091 45.2233,246.7981 C52.6823,248.1511 59.4713,252.8441 63.3723,259.3441 C63.8743,260.1801 64.3443,261.1101 64.2553,262.0811 L64.2553,262.0811 Z" id="Fill-47" fill="#020302"></path>
            </g>
        </g>
    </g>
</svg>