<?xml version="1.0" encoding="UTF-8" standalone="no"?>
<svg width="450px" height="450px" viewBox="0 0 450 450" version="1.1" xmlns="http://www.w3.org/2000/svg" xmlns:xlink="http://www.w3.org/1999/xlink">
    <!-- Generator: Sketch 40.1 (33804) - http://www.bohemiancoding.com/sketch -->
    <title>journey-begins</title>
    <desc>Created with Sketch.</desc>
    <defs>
        <polygon id="path-1" points="152.260131 1.57019022 1.67917573 1.57019022 1.67917573 11.0700929 152.260131 11.0700929 152.260131 1.57019022"></polygon>
        <polygon id="path-3" points="389.307096 302.282609 0 302.282609 0 1.65298207 389.307096 1.65298207"></polygon>
    </defs>
    <g id="Page-1" stroke="none" stroke-width="1" fill="none" fill-rule="evenodd">
        <g id="journey-begins">
            <g id="Page-1" transform="translate(12.000000, 71.000000)">
                <path d="M387.754665,82.7285364 C399.82498,85.3264875 411.676752,88.9421234 423.140189,93.5250636 C420.331067,88.7154114 417.732083,83.7831668 415.353323,78.7468027 C415.787047,80.5453842 416.222453,82.3439658 416.656177,84.1425473 C413.763,82.2230527 411.565799,79.4521288 409.284543,76.8357049 C395.314583,60.816406 376.676201,49.349819 356.921567,41.4787158 C337.168614,33.6076125 316.228803,29.1523027 295.280587,25.4896451 C268.255185,20.7639603 241.01124,17.2961071 213.664748,15.0995201 C210.951449,14.8812049 207.38415,13.7594005 207.579157,11.0472538 C242.747819,13.5679549 277.746689,18.4682918 312.254677,25.7046016 C318.735327,27.063194 325.200846,28.5040745 331.599122,30.2018951 C346.557571,34.170194 361.144496,39.5407484 375.102689,46.2195147 C383.683035,50.3238408 392.101996,54.9739549 399.246681,61.2479984 C404.848114,66.1651288 409.66111,72.0697158 415.997185,75.9977103 C422.891386,80.2716505 425.091949,89.2309712 425.56602,97.3237484 C413.391476,93.3739223 401.215252,89.4257755 389.039028,85.4759495 C387.705913,85.0443571 386.376161,82.9770799 387.754665,82.7285364" id="Fill-1" fill="#020302"></path>
                <path d="M147.535729,48.3393554 C147.486977,45.9210946 149.593398,43.8874043 151.913319,43.1971924 C154.233241,42.5053011 156.719591,42.847888 159.115162,43.1988717 C195.66737,48.5526326 232.108626,54.6788935 268.403626,61.570937 C270.326807,61.9370348 272.843418,63.4484478 271.870059,65.1462685 C241.536248,59.6967848 211.204119,54.2473011 180.870307,48.7978174 C197.745213,52.9071815 214.620119,57.018225 231.496705,61.1275891 C239.063347,62.9698337 246.678741,64.820475 254.453839,65.2957304 C294.30437,67.7307848 333.751437,74.4800837 373.102681,81.2176272 C375.227595,81.5820457 377.631571,82.1345511 378.683941,84.0154207 C365.692382,85.5486652 352.689056,82.2235565 339.897548,79.4845402 C289.257701,68.64435 237.187237,66.7483663 185.432819,64.8910076 C184.74693,63.8145457 185.505107,62.2964152 186.641532,61.7187196 C187.779638,61.1410239 189.127882,61.2367467 190.398796,61.344225 C204.195603,62.5248065 217.990729,63.7037087 231.787536,64.8826109 C207.303961,57.1643283 181.978154,52.117888 156.403544,49.8642033 C157.741701,47.7666978 160.330599,46.5357359 162.805181,46.8245837 C157.714804,47.3300674 152.626107,47.8338717 147.535729,48.3393554" id="Fill-3" fill="#020302"></path>
                <g id="Group-7" transform="translate(57.157480, 0.109158)">
                    <mask id="mask-2" fill="white">
                        <use xlink:href="#path-1"></use>
                    </mask>
                    <g id="Clip-6"></g>
                    <path d="M3.83224094,2.63976685 C19.106737,2.33580489 34.3812331,2.03184293 49.6557291,1.72788098 C53.9005126,1.64223424 58.1452961,1.55826685 62.3917606,1.57002228 C78.6043118,1.61872337 94.7765165,3.08479402 110.923505,4.54750598 C122.985414,5.64076141 135.047324,6.73401685 147.109233,7.82895163 C149.328288,8.02879402 152.176076,8.84663641 152.260131,11.0700929 L92.9810992,6.45020707 C70.0794417,4.66506033 46.9373866,2.88831033 24.230737,6.3460875 C16.7733669,7.48132663 8.48385118,9.0112125 2.21502047,4.81956033 C0.819705512,4.71544076 2.43188268,2.66831576 3.83224094,2.63976685" id="Fill-5" fill="#020302" mask="url(#mask-2)"></path>
                </g>
                <path d="M39.8720496,201.99246 C37.8076559,198.084618 34.706022,194.727602 30.9722937,192.359721 C33.4922661,195.946808 36.494715,199.196346 39.8720496,201.99246 M54.2101717,216.67164 C54.2673291,218.476939 52.0634039,219.711259 50.3150575,219.247759 C48.566711,218.784259 47.3495929,217.190558 46.5964591,215.548156 C45.8450063,213.905754 45.4146441,212.115569 44.5068488,210.553776 C43.1737346,208.258107 40.9361874,206.657689 38.811274,205.062308 C27.9732071,196.915792 18.4396756,187.039547 10.6881126,175.920585 C9.15999055,173.730716 7.66549055,170.857352 9.00532913,168.546569 C10.1131756,168.999993 11.022652,169.822873 11.9069118,170.63064 C15.6288724,174.02964 19.3508331,177.42864 23.0727937,180.82764 C32.7324079,189.649254 42.4912071,198.585064 49.7602937,209.455482 C51.6801126,212.325487 55.4878094,213.047607 58.8163921,213.972928 C62.1466559,214.898248 65.8669354,216.933618 66.0871598,220.37964 C61.8776795,220.367884 57.6782858,219.056314 54.2101717,216.67164" id="Fill-8" fill="#020302"></path>
                <path d="M379.967127,169.343252 L377.743028,170.078806 C378.711343,160.326833 379.681339,150.57654 380.649654,140.824567 C381.073292,136.564061 381.49693,132.259893 380.967383,128.011143 C380.548788,124.660844 379.54517,121.402909 379.150111,118.049252 C378.756733,114.695594 379.045883,111.084996 380.975788,108.312393 C381.823064,114.703991 382.67202,121.095589 383.520977,127.488866 C384.411961,134.19954 383.559643,141.005936 382.707324,147.721648 C381.794485,154.929409 380.881646,162.135491 379.967127,169.343252" id="Fill-10" fill="#020302"></path>
                <path d="M380.460026,88.4436929 C381.312345,86.1816114 384.511483,86.2622201 386.868388,86.8029701 C393.323821,88.2807962 399.703605,90.0844158 405.975798,92.2037527 C406.811306,92.4858832 407.682117,92.7982418 408.275546,93.4515082 C408.867294,94.1047745 409.058939,95.208106 408.45038,95.8462582 C406.552416,95.3172636 404.65277,94.7899484 402.754806,94.2609538 C395.354593,92.2020734 387.951018,90.1415136 380.460026,88.4436929" id="Fill-12" fill="#020302"></path>
                <path d="M379.065552,106.318503 C378.194741,106.66277 377.223063,106.751775 376.3035,106.572085 C376.675024,100.486128 376.221126,94.3514707 374.958619,88.3881065 C374.763611,87.4695033 375.962237,86.7473837 376.854902,87.0395902 C377.747567,87.3317967 378.293926,88.2201717 378.668811,89.0799978 C379.722863,91.4949 380.017056,94.2339163 379.500957,96.8167533 C378.877268,99.9386609 378.731012,103.152933 379.065552,106.318503" id="Fill-14" fill="#020302"></path>
                <path d="M324.918085,70.3107668 C329.014931,69.7498647 333.22105,69.9900114 337.227117,71.0160929 C337.790286,71.1605168 338.385396,71.3418864 338.75692,71.7902723 C339.128443,72.2369788 339.128443,73.0329897 338.615707,73.3067234 C334.101947,73.0565005 329.608361,72.4200277 325.202191,71.4040223 C325.10805,71.0396038 325.012227,70.6751853 324.918085,70.3107668" id="Fill-16" fill="#020302"></path>
                <path d="M342.278829,71.7545022 C343.95825,71.8854913 345.637672,72.0181598 347.317093,72.1491489 C348.766203,72.2633446 350.707876,72.9821054 350.405278,74.4011543 C346.965743,74.1861978 343.527888,73.969562 340.088353,73.7546054 C339.515097,73.3817902 339.715148,72.4128065 340.286723,72.038312 C340.858298,71.662138 341.596302,71.700763 342.278829,71.7545022" id="Fill-18" fill="#020302"></path>
                <path d="M276.687594,239.622279 C275.966402,241.071556 274.150811,241.875964 272.590748,241.437654 C272.733642,240.164708 272.896709,238.834665 273.624626,237.780034 C274.350862,236.725404 275.836957,236.075496 276.95489,236.701893 C278.072823,237.32829 277.985406,239.417398 276.721217,239.632355 L276.687594,239.622279 Z" id="Fill-20" fill="#020302"></path>
                <path d="M373.683502,108.985308 C374.877085,108.698139 375.971483,110.211232 375.512542,111.349829 C375.05192,112.486748 373.522117,112.931775 372.394097,112.449802 C371.264396,111.967829 370.55329,110.783889 370.343152,109.574759 C371.382073,109.065916 372.528585,108.775389 373.686865,108.726688 L373.683502,108.985308 Z" id="Fill-22" fill="#020302"></path>
                <path d="M270.729095,236.677374 C272.015139,237.698418 270.745906,240.254385 269.153902,239.851342 C268.839536,239.046934 268.523489,238.160239 268.79919,237.340717 C269.074891,236.522874 270.255024,236.010673 270.829961,236.655543 L270.729095,236.677374 Z" id="Fill-24" fill="#020302"></path>
                <path d="M323.112245,71.2144239 L320.696501,70.9272554 C320.999099,70.2269674 321.303379,69.5266793 321.605977,68.8280707 C322.549076,69.336913 323.492174,69.8474348 324.435272,70.3579565 C324.719379,70.920538 323.74602,71.2211413 323.127375,71.103587 L323.112245,71.2144239 Z" id="Fill-26" fill="#020302"></path>
                <path d="M219.619717,126.44851 C219.431433,126.848195 219.540705,127.368792 219.875244,127.65764 C221.099087,128.211825 222.696134,127.738249 223.419008,126.604689 C222.49104,125.531586 220.628378,125.46945 219.631485,126.477059 L219.619717,126.44851 Z M231.483256,127.751684 C231.822839,126.198287 232.695331,124.767483 233.920855,123.751477 C236.696355,126.228515 242.512969,124.381233 243.785563,127.874276 C244.224331,129.080048 245.592748,129.624157 246.813229,130.0272 C248.738091,130.667032 250.664634,131.306863 252.591178,131.945015 C252.902181,128.126178 245.07665,128.416705 244.738748,124.601227 C244.508437,122.001597 247.968146,120.921776 250.575536,120.790787 C252.386083,120.700102 254.954807,121.45245 254.553024,123.219124 C254.418536,123.813613 253.932697,124.270396 253.737689,124.848091 C253.272024,126.218439 254.706004,127.634129 256.153433,127.728173 C257.599181,127.823896 258.942382,127.046358 260.181355,126.295689 C262.144882,125.106711 264.10841,123.919412 266.071937,122.730434 C270.491556,120.053553 276.089626,120.7572 281.198496,121.549852 C282.107973,121.690917 283.160343,121.936102 283.53691,122.775776 C284.095036,124.02689 282.632477,125.267928 281.296,125.575249 C279.961205,125.88257 278.392737,125.892646 277.510158,126.940559 C276.437615,128.215184 277.076433,130.119564 277.600937,131.69983 C278.125441,133.278417 278.256567,135.446455 276.760386,136.176972 C274.901087,137.087178 273.110713,134.586629 273.077091,132.517673 C273.051874,130.976032 273.435166,129.432711 273.256969,127.901146 C273.078772,126.367901 272.083559,124.742292 270.547032,124.591151 C268.371685,125.88257 266.97637,128.386477 267.023441,130.913896 C268.497768,130.571309 270.145248,131.130532 271.103477,132.299358 C270.473063,134.685711 267.44876,135.469966 264.984264,135.315466 C262.518087,135.160966 259.86867,134.542966 257.700048,135.723548 C255.015327,137.182901 251.676658,136.957868 248.812059,135.896521 C245.94578,134.833493 243.434213,133.021477 240.892386,131.327015 C240.374607,130.98107 239.821524,130.628407 239.201197,130.598178 C238.039556,130.54108 237.168744,131.577238 236.195386,132.210352 C234.37139,133.39933 231.99263,133.206205 229.85763,132.788048 C227.720949,132.368211 225.518705,131.765325 223.402197,132.275847 C221.285689,132.784689 219.364189,134.924178 220.00637,137.001532 C218.454713,138.282874 216.375189,136.089646 215.825469,134.155037 C215.082422,131.541972 214.941209,128.685401 215.907843,126.147907 C216.876158,123.608733 219.080083,121.460847 221.75976,121.002385 C225.616209,120.342401 229.618914,123.8472 229.470977,127.753363 C230.141737,127.753363 230.812496,127.753363 231.483256,127.751684 L231.483256,127.751684 Z" id="Fill-28" fill="#020302"></path>
                <path d="M204.700438,151.93614 C200.620402,152.837949 196.256261,152.39796 192.440158,150.69846 C191.608013,151.635536 192.44352,153.086493 193.326099,153.973189 C197.802875,158.468803 204.022954,161.187667 210.367434,161.419417 C210.930603,161.439569 211.534119,161.429493 212.003146,161.117134 C212.364583,160.876987 212.594894,160.490737 212.813438,160.116243 C214.260867,157.639205 215.763772,154.880036 215.237587,152.060411 C215.069477,151.160281 214.694591,150.288699 214.689548,149.373455 C214.684505,148.456531 215.219095,147.42877 216.130253,147.312895 C217.473454,148.30539 218.295513,149.966265 218.271977,151.635536 C219.448749,150.295417 220.623839,148.956977 221.79893,147.618536 C222.08808,147.289384 222.392359,146.948477 222.799186,146.78558 C224.026391,146.293531 225.273769,147.825096 225.083804,149.133308 C224.89552,150.44152 223.870048,151.442411 222.952166,152.396281 C222.035965,153.350151 221.119765,154.517297 221.237442,155.833906 C221.346713,157.049754 222.303261,157.996906 223.212737,158.81139 C224.123894,159.625873 225.105658,160.526004 225.297304,161.731776 C225.487269,162.937547 224.320583,164.351558 223.190883,163.884699 C220.876005,162.927471 218.909115,161.152401 217.722257,158.947417 C216.365607,160.598216 215.008957,162.249015 213.650627,163.899814 C213.193367,164.455678 212.720977,165.024977 212.095607,165.384357 C210.789391,166.136705 209.155359,165.812591 207.687757,165.466645 C205.011442,164.83689 202.335127,164.207134 199.658812,163.577379 C197.288457,163.019835 194.79202,162.395118 193.053761,160.69058 C191.011221,158.690477 190.426198,155.600477 188.573623,153.425721 C187.484269,152.149417 186.001536,151.242569 184.976064,149.915884 C183.94891,148.589199 183.516867,146.518564 184.688595,145.31783 C182.282938,144.122134 180.689253,141.45533 180.77667,138.773411 C188.099552,138.719672 195.422434,138.667612 202.746997,138.613873 C203.175678,138.612194 203.643024,138.62227 203.974202,138.894324 C204.350769,139.205004 204.421375,139.759189 204.360855,140.24452 C203.980926,143.351314 200.013524,144.49327 196.886674,144.290069 C193.758143,144.086868 190.236233,143.38658 187.790229,145.34302 C193.630379,147.863721 200.380005,148.218064 206.453828,146.325439 C207.978587,145.848504 209.254544,148.008145 208.597233,149.46246 C207.938241,150.916776 206.260501,151.591873 204.700438,151.93614" id="Fill-30" fill="#020302"></path>
                <path d="M202.829203,106.378624 C200.931238,106.281222 199.068577,105.567499 197.590888,104.373483 C196.479679,103.475032 195.50464,102.272618 194.112687,101.950184 C193.053593,101.704999 191.898675,102.019037 190.881608,101.634466 C189.43586,101.086999 188.561687,99.2397163 187.016754,99.238037 C185.033053,99.2346783 183.375486,102.334754 181.756585,101.189439 C181.131215,100.746091 181.020262,99.8778685 180.964785,99.1137652 C180.657144,94.8801293 180.467179,90.2266565 183.035904,86.84445 C181.731368,85.6504337 179.44675,86.5337707 178.606199,88.0888467 C177.767329,89.6439228 177.940482,91.5264717 178.137171,93.2830696 C178.360758,95.2781348 178.582663,97.2732 178.80625,99.2682652 C178.969317,100.72426 179.081951,102.358265 178.148939,103.488466 C177.215927,104.616988 174.860703,104.366765 174.790096,102.904053 C174.549699,97.8878413 174.295852,92.8733087 174.031919,87.8587761 C173.983167,86.9217 173.873896,85.8653902 173.135892,85.2860152 C172.633242,84.8913685 171.955758,84.8225152 171.320301,84.7670967 C169.464364,84.6075587 167.610108,84.4463413 165.755852,84.2868033 C165.362474,83.2069826 166.187896,81.9928141 167.245309,81.5410696 C168.304404,81.0910043 169.506392,81.200162 170.649541,81.3177163 C177.4496,82.0196837 184.251341,82.7199717 191.0514,83.4202598 C192.557667,83.5764391 194.420329,84.0365804 194.712841,85.5194446 C195.089407,87.4154283 192.458482,88.4700587 190.553793,88.1308304 C188.649104,87.7932815 186.588073,86.8813957 184.896884,87.8184717 C185.781144,89.6859065 186.040033,91.8438685 185.621439,93.8658033 C188.099384,93.7667217 190.584053,95.105162 191.863372,97.2261783 C192.298778,97.9466185 193.329293,98.0860043 194.119411,97.7971565 C194.90953,97.5083087 195.533219,96.9037435 196.188848,96.3781076 C198.14397,94.8079174 200.906022,93.8439717 203.167104,94.9254717 C205.429868,96.0069717 206.144337,99.7485587 203.960585,100.9812 C202.331596,101.901483 200.312593,101.00639 198.666793,100.114657 C198.117073,99.817412 197.565671,99.5201674 197.015951,99.2212435 C198.23475,101.629428 201.112797,103.077026 203.775663,102.620243 C204.340514,102.524521 204.9289,102.351548 205.471896,102.534597 C206.547801,102.895657 206.705825,104.517907 205.959415,105.372695 C205.213006,106.227483 203.962266,106.437401 202.829203,106.378624" id="Fill-32" fill="#020302"></path>
                <path d="M191.399556,121.572355 C190.007603,121.256638 188.471076,121.658002 187.413662,122.61691 C186.863942,123.113997 186.425174,123.911687 186.751308,124.576709 C188.699706,124.564953 190.590946,123.342388 191.399556,121.572355 M176.7353,116.369736 C176.526843,115.160605 175.464387,114.149638 174.245587,114.000176 C172.885576,115.363807 172.214816,117.380703 172.485473,119.286763 C174.208603,119.013029 175.773709,117.87779 176.565509,116.322714 M192.124111,129.085758 C190.97928,128.790192 189.915143,129.690323 188.817383,130.126953 C186.337757,131.116089 183.605965,129.710475 181.30958,128.350203 C178.949312,126.951307 176.590725,125.55241 174.230457,124.153513 C173.361328,124.544801 173.616855,125.832861 174.013595,126.699404 C174.985272,128.825459 175.95695,130.949834 176.926946,133.074209 C175.945182,133.977698 174.307788,133.798008 173.233564,133.005355 C172.159339,132.211024 171.532288,130.95991 171.019552,129.727268 C168.876146,124.583426 168.040639,118.900513 168.613894,113.358665 C168.671052,112.802801 168.746702,112.236861 168.995505,111.738095 C169.402331,110.92529 170.226072,110.392937 171.080072,110.07722 C173.378139,109.230828 176.133465,109.79173 177.913753,111.471078 C179.69404,113.150426 180.415233,115.865932 179.699083,118.205263 C179.230056,119.740187 178.50382,121.956926 180.015131,122.501035 C180.968316,122.845301 181.903009,122.019062 182.615796,121.298622 C184.233017,119.662937 186.09904,118.178393 188.306328,117.521768 C190.511934,116.863464 193.112599,117.170785 194.781934,118.75441 C196.451269,120.338035 196.782446,123.305442 195.153457,124.929372 C196.721926,124.744643 198.361001,125.275317 199.522643,126.343383 C199.082194,126.692687 198.814898,127.248551 198.81658,127.811133 C196.920296,129.191557 194.39528,129.67185 192.124111,129.085758" id="Fill-34" fill="#020302"></path>
                <path d="M303.464697,123.398814 C303.784107,122.779135 304.162355,122.105716 304.819666,121.873966 C305.915744,121.489396 307.045445,122.675015 307.072343,123.835445 C307.099241,124.994195 306.415032,126.03707 305.766126,126.997657 C305.117221,127.959923 304.449823,129.019591 304.517067,130.178341 C304.636426,132.175086 306.744528,133.327118 308.450847,134.373352 C311.1238,136.010716 313.408418,138.272798 315.071028,140.926167 C315.721615,141.967363 316.296552,143.201684 315.975461,144.387303 C315.65437,145.572923 313.996804,146.362216 313.141122,145.480559 C310.945603,143.216798 308.750083,140.954716 306.554563,138.690955 C305.080237,137.171146 302.639276,135.594238 301.102748,137.048553 C299.430052,138.630499 300.595056,142.575287 298.318843,142.92795 C296.671363,143.183211 295.921591,140.949678 295.862752,139.285445 C295.639166,132.851863 296.061122,126.398129 297.120217,120.048515 C297.20091,119.561504 297.300095,119.045945 297.634634,118.683205 C298.367595,117.885515 299.820067,118.359091 300.359701,119.299526 C300.899335,120.239961 300.80015,121.40039 300.684154,122.478532 C300.400048,125.140298 300.11426,127.800385 299.830154,130.460472 C301.042229,128.106026 302.252622,125.75326 303.464697,123.398814" id="Fill-36" fill="#020302"></path>
                <path d="M211.365168,121.85986 C210.36155,122.291452 209.374743,121.305675 208.399704,120.810267 C207.426345,120.316539 205.716664,121.231784 206.447944,122.044588 C209.608416,123.013572 213.360637,124.677805 213.60944,127.971007 C213.790999,130.362398 211.805617,132.491811 209.534448,133.269349 C207.264959,134.045208 204.781971,133.773153 202.406574,133.435604 C201.017983,133.237441 199.479774,132.930121 198.666121,131.788164 C197.852467,130.646208 198.63418,128.541985 200.014365,128.795566 C202.500715,129.252349 205.034137,129.452191 207.562515,129.388376 C208.118959,129.374941 208.720794,129.331278 209.139389,128.96518 C209.557983,128.600762 209.608416,127.796354 209.104085,127.562925 C206.03103,126.128762 203.238719,124.09843 200.928885,121.618034 C200.412786,121.063849 199.893326,120.413941 199.908456,119.658235 C199.923585,118.894132 200.486755,118.252621 201.086908,117.777365 C204.748349,114.878811 210.95666,116.291142 213.002562,120.486153 C212.28305,120.655767 211.65768,121.181403 211.365168,121.85986" id="Fill-38" fill="#020302"></path>
                <path d="M234.604391,153.804414 C233.160324,153.058784 231.127871,154.754925 231.773415,156.246186 C233.933631,157.013648 236.504037,156.464501 238.161604,154.882555 C237.068887,154.321653 235.876985,153.952197 234.658186,153.794338 L234.604391,153.804414 Z M235.488651,160.429441 C235.63995,161.509262 235.787887,162.642822 235.414682,163.668903 C235.041478,164.693305 233.965572,165.554811 232.904796,165.294512 C232.344989,165.156805 231.896135,164.743686 231.504438,164.32049 C229.039942,161.658724 227.797607,157.91042 228.185942,154.30486 C228.374226,152.565055 229.055072,150.702659 230.598324,149.87474 C231.580088,149.349104 232.746773,149.328952 233.863025,149.33567 C235.30373,149.344066 236.789824,149.381012 238.107808,149.960387 C240.452946,150.989827 241.839856,153.817849 241.219529,156.298246 C240.597521,158.780322 238.040564,160.622566 235.488651,160.429441 L235.488651,160.429441 Z" id="Fill-40" fill="#020302"></path>
                <path d="M293.093304,131.838209 C293.40767,132.817268 292.81256,133.876937 292.025804,134.5386 C289.776489,136.431225 285.852796,135.693991 284.447395,133.114513 C283.248769,133.626714 283.361403,135.552926 284.391919,136.348937 C285.422434,137.146627 286.871544,137.084491 288.149182,136.827551 C289.42682,136.570611 290.719588,136.154133 292.005631,136.369089 C292.688159,136.483285 293.399265,136.840986 293.6363,137.490893 C294.12382,138.825975 292.414139,139.845339 291.050765,140.246703 C287.434714,141.308051 282.86884,142.107421 280.45982,139.212225 C278.447541,136.793964 279.399044,132.78872 281.925741,130.912888 C284.454119,129.037057 287.99284,129.013546 290.95158,130.090008 C291.849289,130.415801 292.800793,130.928002 293.093304,131.838209" id="Fill-42" fill="#020302"></path>
                <path d="M245.579804,164.188158 C243.831457,161.961342 242.585761,159.215609 242.700076,156.389266 C242.816072,153.561245 244.515666,150.708033 247.188619,149.772636 C248.320001,149.37631 249.718678,149.391424 250.56091,150.242853 C251.401461,151.095962 251.122398,152.889505 249.942265,153.101103 C248.114906,153.428576 246.721272,155.329598 246.96167,157.168484 C247.181894,158.842793 248.508284,160.154364 249.059686,161.749745 C249.611087,163.346804 248.587296,165.729799 246.954946,165.28981 C246.376646,165.13363 245.949646,164.658375 245.579804,164.188158" id="Fill-44" fill="#020302"></path>
                <path d="M89.5607283,69.5211375 C89.1152362,71.9864201 89.1101929,74.5306321 89.5455984,76.9992734 C89.9910906,74.5339908 89.9961339,71.9880995 89.5607283,69.5211375 M116.655055,104.606072 C117.860406,105.071252 119.837382,105.039344 119.780224,103.749605 C119.647417,100.746931 119.51461,97.7442571 119.381803,94.7432625 C119.354906,94.1353386 119.307835,93.4770342 118.906051,93.0202516 C118.536209,92.5987353 117.952866,92.4526321 117.406508,92.326681 C114.689846,91.6986049 111.973185,91.0722082 109.256524,90.4458114 C108.861465,93.3930668 108.721933,96.3722299 108.836248,99.3429962 C108.859783,99.9559582 108.901811,100.597469 109.212815,101.126464 C109.653264,101.875453 110.524075,102.238192 111.336047,102.55223 C113.10961,103.235724 114.881492,103.920898 116.655055,104.606072 M119.013642,83.9568114 C119.069118,81.2513821 119.124594,78.5459527 119.180071,75.8405234 C119.19352,75.2107679 118.512673,74.8261973 117.931012,74.5843712 C115.345476,73.5062299 112.75826,72.4264092 110.172724,71.3482679 C109.002677,75.9681538 108.617705,80.7862027 109.039661,85.5320397 C110.830035,86.5077408 112.722957,87.5086321 114.760453,87.4817625 C116.79963,87.4565723 118.971614,85.992181 119.013642,83.9568114 M93.4911457,95.725681 C97.3122913,97.1077842 101.133437,98.4882082 104.954583,99.8686321 C105.121012,97.1044255 105.289122,94.340219 105.455551,91.5760125 C105.521114,90.4861158 105.558098,89.2954582 104.907512,88.4188386 C104.409906,87.7504582 103.606339,87.3994745 102.853205,87.0434527 C100.437461,85.8998168 98.1814213,84.4203114 96.1725039,82.6586755 C95.4580354,82.0322788 94.7250748,81.2614582 94.7183504,80.3126266 C94.7133071,79.3637951 95.943874,78.4955723 96.6348071,79.1471592 C98.8891654,81.2765723 101.861354,82.6351647 104.947858,82.945844 C105.168083,79.3705125 105.388307,75.7935016 105.610213,72.2181701 C105.662327,71.3499473 105.687543,70.3860016 105.129417,69.7176212 C104.712504,69.2171755 104.058555,68.9955016 103.436547,68.7990179 C100.012142,67.7191973 96.5557953,66.7418168 93.0708701,65.8719147 C93.7870197,75.8035777 93.9282323,85.7772245 93.4911457,95.725681 M110.016382,66.3992299 C111.739512,66.1674799 113.318067,65.0759038 115.054646,65.1632299 C116.789543,65.2522353 118.284043,67.7779745 116.774413,68.6394799 C118.252102,69.2373277 120.131575,67.8938495 120.040795,66.3035071 C122.347268,67.5563005 122.397701,70.778969 122.232953,73.3953929 C121.701724,81.8005288 122.116957,90.2661212 123.465201,98.5788929 C123.865303,101.040817 124.334331,103.63373 123.461839,105.969703 C122.589346,108.307355 119.786949,110.12273 117.56285,108.98917 C114.089693,107.220817 110.438339,105.830317 106.79539,104.444855 C101.091409,102.273458 95.3874291,100.103741 89.6817677,97.932344 C91.1863543,89.7589582 86.7381575,81.7417516 85.8488543,73.4793603 C85.3260315,68.6378005 86.0589921,63.666931 87.9569567,59.1813929 C93.6844724,61.2755397 99.4119882,63.3696864 105.139504,65.4638332 C106.709654,66.0381701 108.358815,66.6225832 110.016382,66.3992299" id="Fill-46" fill="#020302"></path>
                <path d="M91.1382748,42.5773451 C91.7417906,41.6503451 93.5271213,42.2414755 93.4598772,43.3448071 C92.9437787,44.3473777 91.7115307,44.923394 90.6120898,44.6748505 C90.0976724,44.035019 90.401952,42.9266495 91.1718969,42.6378016 L91.1382748,42.5773451 Z" id="Fill-48" fill="#020302"></path>
                <path d="M359.813063,223.592736 C357.330075,223.822807 354.818508,223.767388 352.348969,223.42648 C351.960634,223.372741 351.552126,223.302209 351.259614,223.04191 C350.65778,222.502839 350.884728,221.527138 351.167154,220.771432 C353.127319,220.858758 355.087484,220.946084 357.04765,221.03341 C357.834406,221.068676 358.66487,221.117377 359.313776,221.559046 C359.964362,222.000714 360.310669,222.984812 359.813063,223.592736" id="Fill-50" fill="#020302"></path>
                <path d="M168.898673,199.08786 C169.727457,198.617643 170.821854,199.68067 170.54111,200.589197 C170.258685,201.499404 169.04661,201.877257 168.17748,201.487648 C167.306669,201.09804 166.793933,200.154246 166.651039,199.212132 C167.432752,199.202056 168.216146,199.19198 168.997858,199.181904 L168.898673,199.08786 Z" id="Fill-52" fill="#020302"></path>
                <g id="Group-56" transform="translate(0.000000, 5.147201)">
                    <mask id="mask-4" fill="white">
                        <use xlink:href="#path-3"></use>
                    </mask>
                    <g id="Clip-55"></g>
                    <path d="M375.408145,180.560623 C375.714106,180.295286 375.103866,179.820031 374.797905,180.085368 C374.491944,180.352384 374.564232,180.844433 374.715531,181.218928 C374.868511,181.595102 375.078649,181.994786 374.966015,182.384395 C375.33922,181.865477 375.446811,181.165189 375.246759,180.557265 L375.408145,180.560623 Z M198.411602,221.286488 C198.245173,221.906167 198.337633,222.591341 198.663767,223.143846 C198.517511,222.576227 199.073956,222.060667 199.115984,221.476254 C199.15633,220.891841 197.910633,220.890161 198.295606,221.33183 L198.411602,221.286488 Z M156.57737,76.850819 C156.446244,77.2958462 156.53198,77.7996505 156.806,78.1758245 C157.207783,77.352944 157.209464,76.3453353 156.811043,75.5190962 C156.560559,75.9053462 156.47146,76.3906777 156.568964,76.8390636 L156.57737,76.850819 Z M294.777433,213.003944 C295.538972,213.062721 296.276976,212.380906 296.275295,211.616803 C295.601173,211.507645 294.913602,212.150835 294.980846,212.829292 L294.777433,213.003944 Z M32.9020311,23.6927429 C32.4851177,23.7531995 32.2632122,24.3426505 32.5372319,24.6617266 C32.8112516,24.9808027 33.4282161,24.8514929 33.5509366,24.4484495 C33.705598,24.1713571 33.8165508,23.8153353 33.6417161,23.5499984 C33.4668815,23.2846614 32.9238854,23.3787049 32.9709563,23.6927429 L32.9020311,23.6927429 Z M332.071007,238.410797 C332.671161,238.046379 332.331578,236.902743 331.628878,236.922895 C331.385118,237.307466 331.132952,237.744096 331.228775,238.187444 C331.324598,238.632471 331.988633,238.914602 332.24248,238.538428 L332.071007,238.410797 Z M348.337354,168.897553 C348.268429,167.747199 348.201185,166.596846 348.132259,165.446493 C347.574133,166.539748 347.530425,167.881547 348.019626,169.00671 L348.337354,168.897553 Z M108.077567,214.125748 C108.469263,213.694156 108.475988,212.966998 108.094378,212.527009 C107.374866,213.106384 107.062181,214.142542 107.341244,215.02252 C107.761519,215.010765 108.107826,214.555661 108.005279,214.149259 L108.077567,214.125748 Z M338.716405,194.287612 C338.857618,193.840906 338.763476,193.327026 338.472645,192.959248 C338.069181,194.158303 338.057413,195.484988 338.437342,196.692439 C338.776925,195.950167 338.886196,195.103776 338.744984,194.299368 L338.716405,194.287612 Z M198.549452,219.101656 C198.24013,218.324118 197.932488,217.548259 197.624846,216.772401 C197.034779,217.691004 197.320567,219.056314 198.226681,219.662558 L198.549452,219.101656 Z M305.644078,204.086607 C305.292728,203.738982 304.941378,203.391357 304.591708,203.043732 C304.127724,203.25533 303.81672,203.764172 303.841937,204.274694 C304.238677,204.602167 304.695937,204.949792 305.210354,204.904449 C305.724771,204.860786 306.140004,204.15546 305.751669,203.814553 L305.644078,204.086607 Z M141.639094,55.6893571 C141.750047,56.6616995 141.862681,57.6340418 141.973633,58.6063842 C142.400633,56.8682592 142.424169,55.0344114 142.045921,53.2878897 C141.689527,54.023444 141.575212,54.8748734 141.721468,55.679281 L141.639094,55.6893571 Z M302.91733,207.960863 C302.278511,208.308488 302.755944,209.420216 303.478819,209.505862 C304.201693,209.58983 304.842193,209.077629 305.38687,208.595656 C304.635417,208.288335 303.798228,208.190933 302.994661,208.318564 L302.91733,207.960863 Z M147.304409,264.92602 C147.405275,265.179602 147.847405,264.998232 147.850767,264.726178 C147.85413,264.454123 147.612051,264.247564 147.380059,264.104819 C146.320964,263.453232 144.994574,263.246672 143.785862,263.547276 C144.930693,264.056118 146.075523,264.563281 147.220354,265.072123 L147.304409,264.92602 Z M187.795441,203.829667 C188.420811,204.802009 189.0445,205.774352 189.66987,206.745015 C190.187649,205.371308 189.274811,203.646618 187.845874,203.302352 L187.795441,203.829667 Z M348.305413,288.195064 C347.120236,288.341167 346.046011,289.18252 345.622374,290.297607 C346.708366,289.966776 347.735519,289.444498 348.641633,288.762683 C348.917334,288.556123 349.211527,288.252161 349.125791,287.917971 C349.041736,287.583781 348.367614,287.671107 348.507145,287.986824 L348.305413,288.195064 Z M176.797669,264.239167 C176.379074,264.571678 175.96048,264.905868 175.541885,265.240058 C176.861551,265.695161 178.445149,265.224944 179.302511,264.123292 C178.569551,263.663151 177.528948,263.770629 176.905259,264.370156 L176.797669,264.239167 Z M373.500094,195.11721 C373.69174,192.964286 373.885067,190.813042 374.076712,188.661797 C372.962141,190.593047 372.745279,193.018026 373.500094,195.11721 L373.500094,195.11721 Z M285.748232,266.274536 C285.437228,265.708596 284.870696,265.288759 284.238602,265.156091 C284.680732,266.847194 285.122862,268.538297 285.564992,270.229401 C285.823881,268.922868 285.892807,267.581069 285.768405,266.256064 L285.748232,266.274536 Z M256.093586,153.069699 C257.189665,153.622205 258.694252,153.101607 259.213712,151.989879 C258.159661,151.227455 256.428126,151.783319 256.016256,153.01764 L256.093586,153.069699 Z M310.895842,212.056792 C311.79187,213.282716 312.687897,214.50864 313.585606,215.736243 C313.89661,213.952776 312.654275,212.03664 310.897523,211.591612 L310.895842,212.056792 Z M372.454448,199.90839 C373.379055,198.711015 373.510181,196.957776 372.772177,195.636129 C373.069732,197.407841 372.13672,199.320618 370.554803,200.177085 C370.990208,200.600281 371.425614,201.023477 371.861019,201.446672 C372.040897,200.917678 372.220775,200.390363 372.398972,199.861368 L372.454448,199.90839 Z M157.549047,69.4768027 C156.955618,71.0990527 156.933763,72.9245038 157.491889,74.5601886 C157.8735,72.6675636 158.25511,70.7766179 158.638401,68.8839929 C158.334122,68.4742321 157.723881,68.9965092 157.549047,69.4768027 L157.549047,69.4768027 Z M114.996984,198.789944 C114.805338,197.889814 114.186693,197.090444 113.362952,196.679004 C112.97798,198.035917 112.971256,199.500308 113.346141,200.86058 C114.235444,200.633868 114.896118,199.725341 114.83896,198.810096 L114.996984,198.789944 Z M137.498539,259.893015 C138.53746,261.129015 140.043728,261.961971 141.644137,262.187004 C139.825185,260.49758 137.772559,259.060058 135.56359,257.928178 C135.758598,258.87533 136.540311,259.67302 137.483409,259.887977 L137.498539,259.893015 Z M282.890358,258.601596 C283.317358,254.723982 283.302228,250.797667 282.84833,246.921732 C282.42133,250.801026 282.43646,254.727341 282.890358,258.601596 L282.890358,258.601596 Z M159.083893,124.361248 C159.112472,122.055504 159.141051,119.751439 159.16963,117.447373 C157.40111,119.205651 157.749098,122.255346 159.083893,124.361248 L159.083893,124.361248 Z M337.951504,291.384145 C339.276212,290.571341 340.600921,289.758536 341.92563,288.945732 C340.442897,288.698868 338.929905,288.633373 337.432043,288.754286 C336.836933,289.600678 337.028578,290.898814 337.843913,291.536966 L337.951504,291.384145 Z M118.623122,206.839058 C120.026842,203.665091 121.432244,200.489444 122.835964,197.315477 C122.17361,197.481732 121.512937,197.649667 120.850582,197.817602 C120.107535,200.825314 119.366169,203.831346 118.623122,206.839058 L118.623122,206.839058 Z M350.677448,223.101862 C349.968023,222.755917 349.258598,222.409971 348.549173,222.064026 C348.241531,222.844922 348.147389,223.708107 348.283559,224.536026 C349.381319,224.475569 350.495889,224.947466 351.217082,225.775384 C352.034098,225.311884 352.851114,224.846705 353.66813,224.383205 C352.888098,223.587194 351.776889,223.127053 350.662319,223.137129 L350.677448,223.101862 Z M330.07722,221.467857 C331.042173,221.894411 332.064283,222.331042 333.114972,222.223564 C334.165661,222.117765 335.218031,221.251221 335.128933,220.199949 C333.220881,219.956444 331.314511,219.712939 329.40646,219.469433 C329.287102,220.193232 329.545992,220.967411 330.07722,221.474574 L330.07722,221.467857 Z M158.567795,111.284167 C158.324035,107.584564 158.080275,103.88496 157.836515,100.183678 C156.372275,103.735498 156.649657,107.955699 158.567795,111.284167 L158.567795,111.284167 Z M128.373515,196.734422 C127.383346,195.602542 126.177996,194.657069 124.841519,193.963498 C124.784362,194.739357 124.727204,195.516895 124.668366,196.292754 C125.258433,195.42621 126.798322,196.017341 127.050488,197.035026 C127.304334,198.051031 126.710905,199.082151 126.043507,199.889917 C125.37611,200.697683 124.580948,201.468504 124.315334,202.48283 C125.643405,201.256906 126.971476,200.032661 128.299547,198.806737 C128.556756,198.56827 128.830775,198.306292 128.892976,197.960346 C128.977031,197.508602 128.676114,197.082047 128.373515,196.734422 L128.373515,196.734422 Z M348.426452,114.632786 C348.155795,120.646531 348.396193,126.685466 349.144283,132.658906 C349.668787,126.651879 349.426708,120.579357 348.426452,114.632786 L348.426452,114.632786 Z M169.094858,185.516379 C168.617425,185.252721 168.079472,184.992422 167.546563,185.116694 C167.027102,185.239286 166.632043,185.763243 166.658941,186.297276 C170.416204,187.538314 173.954925,189.434297 177.070007,191.87439 C174.790433,189.331857 172.082177,187.172216 169.094858,185.516379 L169.094858,185.516379 Z M348.48361,229.327205 C349.683917,228.895612 350.625334,227.810754 350.882543,226.562998 C349.18463,226.547884 347.485035,227.12558 346.146878,228.171814 C346.294815,229.478346 346.136791,230.820145 345.691299,232.057824 C346.965574,231.740428 348.033074,230.702591 348.384425,229.438042 L348.48361,229.327205 Z M140.265633,43.3360745 C140.30598,42.6307484 140.319429,41.8750418 139.9395,41.2805527 C139.751216,40.9866668 139.388098,40.7347647 139.065326,40.8691125 C138.445,44.9700799 138.313874,49.1432592 138.675311,53.2744549 C139.534354,50.0249168 140.068944,46.6897321 140.265633,43.3360745 L140.265633,43.3360745 Z M317.843838,220.97077 C318.859224,220.126058 320.355405,220.461928 321.671708,220.569406 C322.988011,220.676884 324.692649,220.137814 324.736358,218.819526 C321.653216,219.24608 318.475933,218.970667 315.512149,218.020156 C315.913933,219.234324 316.754484,220.297352 317.843838,220.97077 L317.843838,220.97077 Z M323.483937,213.78652 C321.039614,213.391873 318.51796,213.475841 316.102216,214.030026 C316.741035,215.469227 318.301098,216.448286 319.876291,216.396227 C321.451484,216.344167 322.942622,215.264346 323.483937,213.78652 L323.483937,213.78652 Z M330.776559,224.210232 C331.395204,226.930776 332.012169,229.64964 332.629133,232.370183 C333.506669,230.810069 334.412783,229.13408 334.288381,227.348933 C334.162299,225.565466 332.514819,223.77696 330.776559,224.210232 L330.776559,224.210232 Z M304.176476,211.190248 C303.169496,211.03071 302.118807,210.87621 301.148811,211.18521 C300.177133,211.49421 299.321452,212.42289 299.455941,213.432178 C302.518909,213.618585 305.580196,213.806672 308.641484,213.99308 C308.298539,212.144118 306.035775,211.482455 304.176476,211.190248 L304.176476,211.190248 Z M117.880074,251.702835 C120.408452,255.896167 123.844626,259.542031 127.884315,262.314634 C128.529858,262.757982 129.24937,263.194613 130.031082,263.155988 C126.330976,258.987846 122.259346,255.150536 117.880074,251.702835 L117.880074,251.702835 Z M196.3657,231.026705 C195.925252,225.639357 195.019137,220.290634 193.660807,215.057786 C193.127897,213.003944 192.4605,210.862776 190.903799,209.420216 C192.373082,216.705227 194.197078,223.918026 196.3657,231.026705 L196.3657,231.026705 Z M142.812504,202.202379 C142.032472,201.352629 140.685909,200.469292 139.877299,201.290493 C142.957078,205.149634 146.300791,208.797178 149.878177,212.201216 C150.663252,211.202004 149.768905,209.786314 148.909862,208.849237 C146.877409,206.632498 144.844956,204.417439 142.812504,202.202379 L142.812504,202.202379 Z M152.732689,212.379227 C152.001409,213.818428 152.630141,215.591819 153.581645,216.896672 C154.533149,218.199846 155.799019,219.279667 156.557196,220.703754 C157.204421,221.919602 157.441456,223.348727 157.219551,224.707319 C158.424901,223.066596 159.62857,221.425873 160.833921,219.78683 C157.044716,219.382107 154.612161,215.690901 152.732689,212.379227 L152.732689,212.379227 Z M313.984027,293.268373 C310.272153,291.343841 306.560279,289.419308 302.846724,287.494776 C300.417531,286.233585 297.988338,284.974074 295.559145,283.714564 C295.379267,285.482917 297.129295,286.854944 298.820484,287.409129 C300.511673,287.961634 302.402913,288.117814 303.806633,289.211069 C306.726708,291.483227 310.299051,292.908993 313.984027,293.268373 L313.984027,293.268373 Z M329.234988,233.38283 C328.655007,230.465803 327.829586,227.597477 326.768811,224.818156 C326.161933,223.226134 324.026933,222.440199 322.530752,223.259721 C322.292035,224.31939 322.996417,225.340433 323.663815,226.200259 C325.521433,228.59333 327.37737,230.98808 329.234988,233.38283 L329.234988,233.38283 Z M279.694582,155.377123 C279.398708,157.486384 278.9902,159.580531 278.469059,161.646129 C281.279862,162.059248 284.17472,161.896352 286.91996,161.170873 C284.832031,158.881922 282.384346,156.918765 279.694582,155.377123 L279.694582,155.377123 Z M109.59224,228.10464 C109.232484,226.379949 108.872728,224.656939 108.511291,222.932248 C108.128,221.093363 107.739665,219.241042 106.986531,217.51971 C106.319133,225.40089 108.101102,233.473515 112.026476,240.343727 C111.293515,236.249477 110.442878,232.177058 109.59224,228.10464 L109.59224,228.10464 Z M337.341263,295.476716 C329.976354,296.62371 322.500492,297.06202 315.051527,296.781569 C313.397322,296.719433 311.667468,296.600199 310.248618,295.745411 C309.137409,295.075352 307.617693,294.017362 306.797315,295.021612 C312.14322,298.072987 318.620507,298.140161 324.776704,298.126727 C329.130759,298.11833 333.802543,298.010852 337.341263,295.476716 L337.341263,295.476716 Z M283.509004,245.964504 C284.283992,239.525884 285.248944,233.112455 286.4005,226.730933 C286.650984,225.34883 286.91996,223.939857 287.604169,222.712254 C288.669988,220.801156 290.719252,219.353558 291.00672,217.18552 C288.39933,218.235112 286.879614,220.948939 285.924748,223.590553 C283.361067,230.687477 283.419905,238.420873 283.509004,245.964504 L283.509004,245.964504 Z M74.911098,134.47596 C75.370039,138.323346 75.8272988,142.170732 76.2862398,146.016439 C76.3669327,146.686498 76.4526689,147.375031 76.7737594,147.967841 C77.3503776,149.029189 78.5456413,149.568259 79.6585311,150.035118 C80.5394287,148.87133 80.1141098,147.22389 79.6518067,145.840107 C78.4313264,142.187526 77.2108461,138.534944 75.9903657,134.882362 C75.8088067,134.336574 74.8421728,133.904982 74.911098,134.47596 L74.911098,134.47596 Z M358.264263,225.654471 C360.179039,226.487428 362.314039,226.803145 364.386838,226.55964 C363.384901,226.737651 362.539307,225.461346 362.937728,224.52427 C363.334468,223.587194 364.590252,223.221096 365.535031,223.600629 C366.705078,224.069167 368.002889,225.405928 368.91909,224.541064 C369.273803,224.206873 369.332641,223.672841 369.367944,223.189189 C369.504114,221.399004 369.638602,219.610498 369.77309,217.821993 C365.936815,220.433379 362.100539,223.044765 358.264263,225.654471 L358.264263,225.654471 Z M337.179878,241.245536 C340.427767,233.135966 343.675657,225.028074 346.923547,216.918504 C347.229507,216.157759 347.493441,215.178699 346.901693,214.61108 C343.198224,222.247074 339.886452,230.071156 336.983189,238.044699 C336.591492,239.121161 336.287212,240.525096 337.179878,241.245536 L337.179878,241.245536 Z M157.759185,214.357498 C158.150881,210.582324 158.540897,206.80883 158.932594,203.033656 C157.957555,204.113477 156.079763,204.192406 155.017307,203.199911 C154.373444,202.598705 153.216846,203.132737 152.91761,203.960656 C152.616693,204.790254 152.900799,205.705498 153.221889,206.526699 C154.32133,209.348004 155.857858,211.999694 157.759185,214.357498 L157.759185,214.357498 Z M91.0614484,190.821439 C97.8581453,191.147232 104.656523,191.471346 111.454901,191.79714 C113.369677,191.889504 115.750118,191.709814 116.5167,189.954895 C115.094488,189.870928 113.672275,189.78864 112.248381,189.704672 C103.683165,189.205906 95.1162673,188.70546 86.5510508,188.205015 C86.6670469,190.114433 89.1483539,190.729074 91.0614484,190.821439 L91.0614484,190.821439 Z M310.746224,206.44777 C311.751523,208.046509 312.805574,209.693949 314.38413,210.733466 C315.962685,211.772982 318.223767,212.029922 319.672878,210.817433 C318.129626,207.398281 316.588055,203.980808 315.046484,200.561656 C312.704708,200.877373 309.698897,201.945439 309.848515,204.301564 C309.897267,205.08414 310.32763,205.784428 310.746224,206.44777 L310.746224,206.44777 Z M149.383933,204.521558 C148.978787,198.536362 143.484944,193.338781 137.480047,193.258172 C136.488196,193.244737 135.566952,192.776199 134.622173,192.470558 C133.677393,192.164917 132.554417,192.049042 131.76598,192.653607 C130.979224,193.258172 131.012846,194.791417 131.976118,195.036602 C134.11448,197.20464 137.076582,198.539721 140.117696,198.705977 C142.259421,198.823531 144.767626,198.519569 146.1932,200.119987 C147.437216,201.520564 147.553212,204.120194 149.383933,204.521558 L149.383933,204.521558 Z M370.311043,276.837634 C371.393673,273.400009 374.154043,270.810455 376.366374,267.96564 C379.172133,264.36008 381.214673,260.08446 381.74422,255.550221 C378.284511,263.297053 373.311811,270.365428 367.187555,276.241466 C368.130653,276.02483 368.930858,277.168466 368.76611,278.120656 C368.601362,279.074526 367.839822,279.798324 367.108543,280.431439 C359.407413,287.103487 350.307606,291.926574 341.296897,296.689205 C350.253811,294.30621 358.617295,289.733346 365.454338,283.481134 C367.503602,281.606982 369.477216,279.484286 370.311043,276.837634 L370.311043,276.837634 Z M379.083035,216.016694 C378.504736,214.779015 377.512885,213.316303 376.174728,213.600112 C374.254909,214.006515 372.9302,215.885705 372.56372,217.810237 C372.195559,219.736449 372.59398,221.714721 372.989039,223.634216 C373.268102,224.989449 373.688378,226.531091 374.940799,227.122221 C376.865661,228.029069 379.042689,225.985303 381.139023,226.343004 C381.940909,226.48071 382.655378,225.681341 382.742795,224.873574 C382.830212,224.065808 382.478862,223.283232 382.134236,222.545998 C381.117169,220.369564 380.100102,218.193129 379.083035,216.016694 L379.083035,216.016694 Z M372.679716,228.153341 C368.12561,230.484276 362.448527,230.485955 357.89274,228.156699 C357.248878,227.827547 356.502468,228.306161 355.94098,228.761265 C352.074444,231.88989 348.206228,235.018515 344.339693,238.14714 C342.288748,239.806335 340.11172,241.662015 339.528378,244.233096 C341.550744,241.478966 344.435515,239.368026 347.673319,238.27477 C354.59946,235.933759 361.512153,233.554123 368.409716,231.135863 C370.097543,230.543053 371.961885,229.792384 372.679716,228.153341 L372.679716,228.153341 Z M344.780141,111.942471 C344.00011,109.944047 341.66674,108.919645 339.518291,108.963308 C342.129043,124.757574 344.163177,140.647564 345.619011,156.589612 C346.370464,156.131151 346.375507,155.063085 346.293133,154.186466 C345.086102,141.19839 344.687681,128.134743 345.101232,115.096286 C345.134854,114.033259 345.168476,112.933286 344.780141,111.942471 L344.780141,111.942471 Z M176.222732,268.650814 C169.335256,270.837324 161.647574,270.397335 155.055972,267.438324 C154.001921,266.964748 152.76463,266.429036 151.749244,266.983221 C147.322901,269.393085 141.928244,266.674221 137.754067,263.847879 C131.87357,259.867824 126.151098,255.47633 121.825622,249.847156 C117.498464,244.217982 114.654039,237.189911 115.190311,230.114819 C115.304626,228.605085 114.578389,226.309417 113.220059,226.979477 C114.053885,234.074721 114.971767,241.421868 118.69709,247.51958 C120.248748,250.062112 122.245897,252.304042 124.328783,254.435134 C128.607189,258.813194 133.329405,262.808362 138.650094,265.839585 C149.972319,272.286602 164.320527,273.950835 176.222732,268.650814 L176.222732,268.650814 Z M121.615484,217.632227 C129.634342,219.467754 137.6532,221.30496 145.67374,223.140488 C138.406334,217.481085 130.491704,212.65464 122.131582,208.783743 C120.542941,210.856058 119.650275,213.45233 119.628421,216.062036 C119.621696,216.97896 120.721137,217.427346 121.615484,217.632227 L121.615484,217.632227 Z M151.930803,221.696248 C146.828657,214.347422 140.785094,207.673694 134.206941,201.60621 C133.457169,200.914319 132.512389,200.178765 131.523901,200.434026 C130.954007,200.581808 130.521964,201.033553 130.123543,201.466824 C128.845905,202.845569 127.569948,204.225993 126.292311,205.606417 C131.905511,208.457949 137.555696,211.331314 142.541846,215.171982 C146.796716,218.44671 150.52372,222.401574 153.541299,226.840091 C154.059078,225.053265 152.991578,223.224455 151.930803,221.696248 L151.930803,221.696248 Z M338.370098,224.26733 C339.876366,221.140384 341.557468,218.102444 343.127618,215.005727 C346.170413,209.008776 348.78957,202.796868 350.959874,196.433819 C351.033842,196.215504 351.107811,195.980395 351.033842,195.76208 C350.917846,195.411096 350.495889,195.285145 350.134452,195.209574 C348.497059,194.865308 346.857984,194.519362 345.22059,194.175096 C343.833681,193.884569 341.823082,194.015558 341.702043,195.42789 C340.873259,205.070705 339.762051,214.690009 338.370098,224.26733 L338.370098,224.26733 Z M166.226897,191.02464 C165.233366,194.379977 164.453334,197.797449 163.895208,201.253547 C166.127712,201.653232 168.361897,202.052917 170.594401,202.452602 C171.962819,202.697786 173.677543,203.334259 173.659051,204.72308 C170.490173,205.954042 166.805196,205.791145 163.757358,204.286449 C162.425925,208.941602 162.051039,213.806672 161.682878,218.631439 C166.852267,212.144118 172.394862,205.954042 178.27872,200.103194 C179.477346,201.003324 180.168279,202.538248 180.042196,204.031189 C181.202157,204.38889 182.531909,204.143705 183.486775,203.396395 C182.205775,200.192199 179.531141,197.574096 176.298381,196.361607 C174.457574,195.671395 173.089157,194.144868 171.58457,192.881998 C170.081665,191.617449 168.131586,190.540987 166.226897,191.02464 L166.226897,191.02464 Z M321.718779,238.808803 C321.448122,238.434308 321.105177,238.12027 320.765594,237.809591 C314.421114,232.010803 308.078315,226.212015 301.733834,220.413227 C300.577236,219.355237 299.284468,218.238471 297.717681,218.159542 C294.859807,218.016797 293.134996,221.189085 292.126334,223.862607 C291.806925,224.708998 291.499283,225.703172 291.978397,226.468955 C292.307893,226.992911 292.919815,227.25489 293.494752,227.48496 C302.9022,231.260134 312.309649,235.033629 321.718779,238.808803 L321.718779,238.808803 Z M328.821437,212.105493 C329.877169,212.597542 331.127909,212.34564 332.260972,212.614335 C333.395716,212.881352 334.461535,214.248341 333.710082,215.138395 C331.877681,215.546477 329.887256,215.192134 328.310381,214.176129 C327.57574,215.533042 329.172787,217.093156 330.704271,217.291319 C332.234074,217.489482 333.817673,216.985678 335.320578,217.34002 C336.258633,209.979439 336.110696,202.48283 334.885173,195.164232 C331.67763,195.06683 328.458319,195.327129 325.307933,195.94177 C324.058874,196.185276 322.58959,196.710911 322.344149,197.958667 C322.218067,198.601857 322.475275,199.250085 322.725759,199.854651 C324.000035,202.91946 325.274311,205.985949 326.548586,209.050759 C327.047874,210.251493 327.641303,211.556346 328.821437,212.105493 L328.821437,212.105493 Z M286.454295,242.39421 C294.908559,242.535276 303.364504,242.674661 311.818767,242.815727 C315.355807,242.874504 318.988669,242.916487 322.302122,241.685526 C311.538023,239.154748 301.374078,234.607074 291.285783,230.084591 C289.754299,229.399417 288.565759,231.543944 288.24635,233.189705 C287.649559,236.257873 287.051086,239.326042 286.454295,242.39421 L286.454295,242.39421 Z M311.132878,262.569895 C315.332271,258.270765 319.529984,253.969955 323.727696,249.670824 C312.745055,255.263053 301.760732,260.855281 290.77809,266.447509 C289.875338,266.905971 288.854909,267.534047 288.779259,268.543335 C288.732189,269.173091 289.083539,269.755824 289.429846,270.284819 C290.507433,271.93058 291.660669,273.529319 292.88283,275.07264 C294.039429,276.535352 296.382885,275.643618 297.905964,274.567156 C302.774437,271.126172 306.968787,266.835439 311.132878,262.569895 L311.132878,262.569895 Z M303.552787,284.194857 C304.218504,284.695303 304.939696,285.215901 305.771842,285.252846 C307.146984,285.313303 308.184224,284.072265 308.979385,282.947102 C316.709094,272.001112 323.801665,260.605058 330.206665,248.834509 C328.977779,248.303835 327.723677,249.467623 326.876401,250.50546 C318.143074,261.216341 308.259874,270.991824 297.450385,279.606879 C299.484519,281.136765 301.518653,282.666651 303.552787,284.194857 L303.552787,284.194857 Z M154.250724,230.793276 C145.761157,235.832998 136.286464,239.210167 126.520941,240.676238 C125.582885,240.817303 124.528834,241.010428 124.002649,241.798042 C123.362149,242.760308 123.859756,244.051727 124.444779,245.04758 C126.241878,248.107352 128.790429,250.723776 131.802964,252.601286 C133.939645,253.933009 137.236287,254.648411 138.58285,252.524036 C143.367267,244.977047 148.60222,237.717227 154.250724,230.793276 L154.250724,230.793276 Z M349.468736,283.296406 C350.495889,282.953819 351.664256,282.43658 351.908015,281.381949 C352.05259,280.763949 351.82396,280.125797 351.597011,279.532987 C347.617842,269.183167 342.545956,259.254863 336.492307,249.963031 C337.41187,258.052449 338.033878,266.177134 338.354968,274.313574 C338.516354,278.372558 338.15996,282.450015 337.300917,286.418314 C341.42298,285.665966 345.492929,284.621411 349.468736,283.296406 L349.468736,283.296406 Z M340.350437,247.051042 C339.79063,248.092237 340.387421,249.351748 340.974126,250.37783 C342.50561,253.05471 344.037094,255.729911 345.568578,258.405112 C349.473779,265.229982 353.4395,272.21439 354.908783,279.936031 C358.571905,277.411971 361.94924,274.478151 364.958413,271.203422 C365.301358,270.830607 365.659433,270.405732 365.6712,269.900248 C365.681287,269.428352 365.388775,269.010194 365.104669,268.63402 C358.482807,259.819123 349.989878,252.413199 340.350437,247.051042 L340.350437,247.051042 Z M366.963968,265.942026 C367.907067,267.226727 369.86387,265.85302 370.771665,264.543129 C372.899941,261.473281 375.028216,258.401754 377.154811,255.331906 C377.644011,254.62658 378.146661,253.884308 378.245846,253.032879 C378.345031,252.181449 377.891133,251.20071 377.052263,251.014303 C366.121736,248.587645 355.100429,246.558993 344.020283,244.935064 C352.941893,250.35264 360.785917,257.533531 366.963968,265.942026 L366.963968,265.942026 Z M370.783433,206.313422 C370.653988,205.843205 370.329535,205.453596 370.005082,205.089178 C366.684905,201.367743 362.253519,198.648879 357.430437,197.370895 C354.718819,203.529064 352.331653,209.829977 350.280708,216.236689 C349.941126,217.299716 349.626759,218.52564 350.211783,219.474471 C351.334759,221.294884 354.525492,220.401471 355.900633,222.037156 C361.357492,218.596172 366.816031,215.153509 372.272889,211.710846 C373.078137,211.202004 373.910283,210.667971 374.419657,209.865243 C374.929031,209.060835 375.014767,207.903765 374.354094,207.218591 C373.703507,209.250602 372.45613,211.709167 370.326173,211.539553 C368.945988,210.311949 371.275996,208.093531 370.783433,206.313422 L370.783433,206.313422 Z M147.082504,230.796634 C148.509759,230.314661 150.20263,229.469949 150.20263,227.965254 C140.184941,226.505901 130.254669,224.435265 120.487464,221.77014 C118.693728,221.27977 117.686748,223.802151 117.708602,225.659509 C117.759035,229.975433 118.811405,234.277922 120.758122,238.132026 C120.865712,238.345303 121.173354,238.321792 121.407027,238.264694 C130.066385,236.140319 138.634964,233.648167 147.082504,230.796634 L147.082504,230.796634 Z M382.968063,228.872102 C375.830102,231.710199 368.693822,234.548297 361.557543,237.386395 C357.216937,239.111085 352.812448,240.854248 348.169244,241.363091 C347.451413,241.440341 346.462925,241.965977 346.847897,242.573901 C352.975515,243.069308 359.077917,243.865319 365.126523,244.960254 C370.416952,245.917482 375.749409,247.135009 380.461539,249.721205 C383.121043,243.156634 383.995216,235.88002 382.968063,228.872102 L382.968063,228.872102 Z M178.386311,250.646526 C180.924775,254.347808 183.364055,258.536102 182.987488,263.006526 C184.201244,261.407786 185.939504,260.21377 187.869409,259.654547 C189.032732,259.316998 189.789228,258.228781 190.44822,257.214455 C193.064015,253.187379 195.674767,249.109922 197.429838,244.641178 C199.18659,240.170754 200.054039,235.231792 199.065551,230.532977 C197.365956,239.975949 195.345271,250.053716 188.525039,256.809732 C187.064161,258.255651 184.313878,259.360661 183.258145,257.597346 C182.494925,256.322721 183.468283,254.745814 184.399614,253.587064 C186.511078,250.962243 188.622543,248.337422 190.734007,245.712602 C191.831767,244.347292 190.115362,242.520161 188.597326,241.641862 C181.970421,237.807911 175.140102,234.324944 168.146716,231.209754 C166.016759,230.260922 163.4245,229.375906 161.479464,230.660607 C167.768468,236.731449 173.442189,243.438765 178.386311,250.646526 L178.386311,250.646526 Z M287.242732,264.138406 C297.484007,258.423585 307.990897,253.180661 318.71633,248.433145 C321.090047,247.381873 323.509153,246.33564 325.514708,244.688199 C312.583669,246.113966 299.528228,246.414569 286.546756,245.584971 C286.143291,251.786803 285.749913,258.106189 287.242732,264.138406 L287.242732,264.138406 Z M333.543653,253.031199 C331.807074,265.485243 327.720315,277.606776 321.560756,288.571237 C321.046338,289.488161 320.417606,290.477297 319.400539,290.75271 C318.383472,291.028123 317.094067,289.975172 317.58663,289.044814 C323.140992,278.543852 327.328618,267.32077 330.013338,255.750064 C324.006759,266.284613 317.969921,276.867863 310.406641,286.35114 C309.888862,286.999368 310.658807,287.884384 311.36487,288.324373 C318.040527,292.484118 326.37207,293.908205 334.054708,292.200308 C335.717319,279.205515 335.545846,265.978971 333.543653,253.031199 L333.543653,253.031199 Z M162.620933,225.510047 C170.251456,221.577015 179.107504,220.057205 187.613881,221.222672 C187.897988,221.261297 188.192181,221.30664 188.427535,221.471216 C189.120149,221.953189 188.792334,223.147205 188.052649,223.555286 C187.314645,223.965047 186.408531,223.845814 185.569661,223.748411 C179.455492,223.039727 173.136228,224.186721 167.662559,226.999629 C176.172299,231.223189 184.680358,235.446748 193.190098,239.668629 C194.229019,238.217672 193.832279,236.225966 193.393511,234.496237 L188.288004,214.417955 C187.476031,211.222156 186.265637,207.564536 183.162322,206.437694 C179.442043,205.08414 175.730169,208.242993 173.023594,211.131471 C168.951964,215.477623 164.789555,219.96652 162.620933,225.510047 L162.620933,225.510047 Z M294.397504,207.443623 C292.055728,207.225308 289.713952,207.008672 287.372177,206.790357 C284.445378,206.518303 281.516897,206.246248 278.586736,205.996026 C250.056748,203.554254 221.351925,203.134417 192.761417,204.739873 C209.249669,208.204368 226.119531,209.534411 242.962496,209.996232 C250.058429,210.191036 257.157724,210.231341 264.255338,210.120504 C269.648315,210.036536 274.82611,212.130683 280.175378,212.80914 C285.526326,213.485917 291.847271,212.18946 294.397504,207.443623 L294.397504,207.443623 Z M161.09113,264.984797 C166.438716,265.407993 171.550948,262.976297 176.362263,260.606737 C177.483559,260.055911 177.925689,258.61671 177.705464,257.389107 C177.483559,256.159824 176.745555,255.095118 176.017637,254.082471 C170.354004,246.20633 164.044826,238.792009 157.175842,231.938591 C158.43835,238.640868 159.700858,245.341466 160.965047,252.042064 C161.68624,255.869297 162.409114,259.792254 161.753484,263.631243 C160.4977,264.28283 158.878799,263.56239 158.060102,262.406998 C157.243086,261.253286 157.024543,259.792254 156.829535,258.391678 C155.854496,251.375362 154.879456,244.360727 153.904417,237.344411 C150.068141,244.735221 145.17109,251.575205 139.408271,257.588949 C143.898496,259.298526 148.390401,261.009781 152.880626,262.721036 C155.543492,263.735362 158.251748,264.759765 161.09113,264.984797 L161.09113,264.984797 Z M62.5734878,201.403009 C62.7466413,200.677531 62.9197949,199.950373 63.0912673,199.224895 C75.6356531,199.703509 88.1783579,200.183803 100.721063,200.662417 C104.22448,200.796765 108.627287,200.368531 109.839362,197.082047 C100.33609,195.22133 90.4663382,195.253237 80.9748343,197.176091 C80.5360665,195.443004 82.4525232,194.104564 83.2258303,192.49239 C84.6547673,189.516585 82.0137555,186.263689 79.5374917,184.080536 C66.5963657,172.672727 51.9724563,163.174335 36.2860902,155.985047 C36.0456925,159.35046 37.925165,162.579846 40.4451374,164.825134 C42.9651098,167.068743 46.0818736,168.507944 49.1213067,169.975694 C57.7386374,174.142156 66.1155705,178.807384 74.1949484,183.937792 C77.8093185,186.23346 81.6254209,188.970797 82.7551217,193.096955 C78.1774799,191.221123 73.8049327,188.841487 69.7467516,186.013466 C66.7459839,183.924357 62.7668146,184.134276 59.1205035,184.428161 C54.6891177,184.785862 50.259413,185.143564 45.8280272,185.501265 C51.409287,190.802966 56.992228,196.102987 62.5734878,201.403009 L62.5734878,201.403009 Z M61.033598,32.3447429 C59.3104681,31.9551342 58.406035,29.5990092 59.4281453,28.1598082 C82.825728,30.8114984 106.223311,33.4631886 129.620893,36.1165582 C104.199263,18.2718082 72.0750783,6.35179728 42.0539524,14.3454929 C43.5383657,16.0365962 46.2499839,15.1532592 48.4001138,14.4882375 C50.5502437,13.8215364 53.757787,14.201069 53.8973185,16.4446777 C50.8461177,18.2852429 46.9980744,17.8553299 43.492976,18.5018788 C39.9861965,19.1484277 36.1700941,22.0553788 37.0661217,25.5030799 C42.0724445,26.0371125 47.0787673,26.5728245 52.0850902,27.1068571 C52.673476,27.1706723 53.3190193,27.2193734 53.806539,26.8851832 C55.2590114,25.8910092 53.6014445,23.1671071 54.89085,21.9714114 C56.3012949,20.6648788 58.1017555,23.123444 58.4463815,25.0127103 C63.8460823,54.6179332 68.6254563,84.3356723 72.7811413,114.140737 C93.1712319,119.549917 113.083889,126.75264 132.214834,135.638069 C133.996803,136.464308 136.178874,135.157776 137.016063,133.382705 C137.85157,131.605955 137.710358,129.547074 137.567464,127.590634 C136.002358,106.341846 136.029256,84.9755038 137.648157,63.7300745 C137.095074,64.099531 136.605874,63.172531 136.575614,62.5091886 C136.247799,55.413944 135.919984,48.3186995 135.59385,41.2234549 C110.740433,38.264444 85.8870154,35.3037538 61.033598,32.3447429 L61.033598,32.3447429 Z M287.205748,149.917564 C285.289291,152.216591 287.641153,155.492998 289.616448,157.743324 C291.591744,159.991971 292.892917,164.208814 290.130866,165.367564 C308.236338,167.443238 326.057704,171.979156 342.949421,178.809064 C344.844023,176.452939 344.556555,173.084167 344.173263,170.086531 C341.444834,148.790721 338.718086,127.494911 335.991338,106.199102 C279.731567,85.8218951 220.486157,73.6953245 160.739779,70.3299114 C161.03061,98.862031 161.323122,127.39583 161.615633,155.927949 C161.654299,159.679612 166.539582,161.031487 170.288441,161.254841 C205.02674,163.325477 239.837326,164.133243 274.634464,163.674781 C272.583519,163.459824 270.428346,163.204564 268.760693,161.993754 C267.093039,160.784623 266.178519,158.275678 267.385551,156.606406 C269.411279,158.257205 272.27924,158.813069 274.777358,158.03889 C271.722795,154.831335 267.146834,153.136873 262.737303,153.58358 C261.163791,153.502971 261.595834,156.186569 262.925586,157.029602 C264.255338,157.874314 266.175157,158.754292 265.875921,160.299292 C262.791098,161.278352 259.289362,161.357281 256.43485,159.830754 C253.580338,158.304227 251.613448,154.943852 252.322874,151.788357 C253.032299,148.634542 256.851763,146.380857 259.763433,147.78983 C262.429661,149.081248 265.55483,147.888911 268.505165,147.628612 C271.4555,147.368314 275.264878,149.195444 274.701708,152.100716 C277.188059,148.009824 283.478744,146.911531 287.205748,149.917564 L287.205748,149.917564 Z M116.847878,195.741928 C118.565964,197.874699 116.610842,200.880732 115.121385,203.181439 C111.8197,208.27658 110.807677,214.794129 112.409767,220.648335 C112.485417,208.169102 118.219657,195.830933 127.714523,187.719683 C128.555074,188.149596 129.393944,188.581189 130.232815,189.012781 C131.922322,188.31921 133.61183,187.62564 135.301338,186.932069 C136.415909,186.473607 137.646476,186.008428 138.798031,186.369487 C139.947905,186.730547 140.704401,188.352797 139.826866,189.179036 C138.939244,188.587906 137.522074,189.24789 137.406078,190.309237 C139.061964,190.062373 140.71785,189.817189 142.373736,189.570324 C141.010362,187.383814 140.484177,184.69014 140.924626,182.150966 C143.535378,184.181297 147.262381,183.114911 150.572472,183.088042 C153.916185,183.062852 157.145582,184.209846 160.290925,185.341727 C161.020523,185.603705 161.80896,185.916064 162.187208,186.591161 C162.565456,187.266259 162.163673,188.364553 161.390366,188.315852 C158.043291,188.102574 154.696216,187.890977 151.349141,187.679379 C149.911799,187.588694 148.276086,187.568542 147.27583,188.60302 C146.273893,189.635819 147.021984,191.95164 148.415618,191.59058 C152.653677,190.490607 157.362444,191.370585 160.916295,193.924873 C157.110279,195.545444 152.534319,195.229727 148.987193,193.098634 C148.486224,196.390156 151.051586,199.834498 154.35159,200.299678 C156.05959,200.541504 158.332441,200.390363 158.917464,202.010933 C160.652362,195.854444 162.385578,189.697955 164.118795,183.541466 C161.242429,182.789118 158.366063,182.038449 155.488015,181.286102 C153.758161,180.834357 152.019901,180.380933 150.241295,180.181091 C143.834614,179.467368 137.577551,182.08883 131.665114,184.654873 C127.749826,186.354373 123.59246,188.260433 121.378448,191.904618 C120.263878,193.740145 118.912271,196.336417 116.847878,195.741928 L116.847878,195.741928 Z M67.7025311,204.341868 C69.9737004,206.671123 73.0131335,208.241314 76.2290823,208.743439 C78.5523657,209.106178 80.921039,208.924808 83.269539,208.834123 C89.9300665,208.577183 96.6174917,209.057477 103.173791,210.263248 C104.530441,210.513471 105.900539,209.673797 106.687295,208.540237 C107.474051,207.408357 107.796822,206.027933 108.104464,204.684455 C102.575319,204.751629 97.0528972,204.355303 91.5372004,203.960656 L62.9315626,201.910172 C66.026472,206.714786 69.4138933,211.776341 74.6538894,214.066971 C72.5407437,212.018167 70.4259169,209.967683 68.3110902,207.918879 C67.2755311,206.914629 66.3761413,204.907808 67.7025311,204.341868 L67.7025311,204.341868 Z M311.60863,217.617112 C308.769248,217.051172 305.899606,216.638053 303.016515,216.379433 C305.553299,218.634797 308.022838,220.964053 310.492378,223.293308 C314.560645,227.132297 318.628913,230.969607 322.697181,234.806917 C324.211854,236.236042 325.724846,237.668526 327.232795,239.104368 C327.284909,236.694504 325.064173,234.951341 323.179657,233.444966 C318.986988,230.098026 315.434819,225.955074 312.763547,221.30664 C312.242405,220.398112 310.921059,220.576123 309.8855,220.416585 C308.849941,220.257047 307.957275,218.668384 308.954169,218.34427 C309.853559,218.787618 311.062271,218.456786 311.60863,217.617112 L311.60863,217.617112 Z M319.66111,196.358248 C319.807366,196.092911 319.985563,195.827574 320.010779,195.525292 C320.071299,194.788058 319.262689,194.317841 318.576799,194.039069 C317.722799,199.896634 319.556881,206.091748 323.460401,210.543699 C323.295653,208.012922 321.730547,205.828091 320.521834,203.597917 C319.313122,201.366064 318.44063,198.583384 319.66111,196.358248 L319.66111,196.358248 Z M378.997299,206.06152 C390.551515,222.149672 392.363744,244.406069 384.586964,262.618596 C376.810185,280.831123 360.044551,294.687422 340.960677,300.039504 C333.863063,302.029531 326.367027,302.917906 319.082811,301.782667 C301.765775,299.085634 287.634429,284.822933 282.046444,268.229297 C276.456779,251.635661 278.457291,233.224971 284.329381,216.728737 C255.742236,216.003259 227.183669,214.112314 198.751185,211.060939 C203.950834,221.289846 205.334381,233.517178 201.968815,244.484998 C194.612311,268.452651 164.492,281.12333 140.828803,272.778651 C117.165606,264.433971 101.95163,238.958265 101.976846,213.88896 C94.3799445,213.450651 86.7830429,213.012341 79.1861413,212.572352 C78.9894524,215.971352 74.6875114,217.843824 71.4144051,216.894993 C68.1429799,215.944482 65.7675823,213.198748 63.5485272,210.617591 C47.5192161,191.975151 29.4524091,175.082591 9.7700626,160.339596 C8.62523189,162.578167 6.82813346,164.477509 4.65446811,165.743737 C3.10281063,163.204564 1.55115315,160.66371 -0.000504330709,158.122857 C9.16150354,157.318449 17.9049169,161.634373 26.085161,165.832743 C32.1690705,168.954651 38.2529799,172.076558 44.3368894,175.198466 C41.8471768,175.57464 39.3591453,175.952493 36.8694327,176.328667 C43.3181413,181.660596 52.6095941,183.329868 60.5141374,180.579096 C50.2207476,174.902901 39.9256768,169.226705 29.632287,163.550509 C31.4663697,155.546737 39.2179327,149.983058 47.2468776,148.22646 C55.2741413,146.469862 63.6208146,147.781433 71.7321335,149.098042 C67.3848028,110.34877 61.9128146,71.7271288 55.3262555,33.2935745 C46.0297594,30.2925799 36.4138539,28.2756832 26.6937201,27.2932647 C30.4543461,18.8562212 37.9806413,12.1808136 46.8097909,9.45019402 C43.9956256,10.5149005 40.472035,9.03371576 39.2650035,6.27958533 C69.8745154,3.28866685 100.62524,1.74366685 131.379326,1.65298207 C113.536106,3.55232446 95.6945665,5.45166685 77.8513461,7.35100924 C97.3235547,10.2378082 115.899736,18.9099603 130.6077,31.9803245 C134.127929,35.1089495 140.684228,37.9588027 142.451067,33.5958571 C146.810165,45.7157103 145.23161,59.0430147 143.953972,71.8581179 C142.010618,91.3452701 140.896047,110.91471 140.611941,130.495906 C140.539653,135.508759 142.604047,142.444466 147.54985,141.591357 C138.026405,147.181906 152.107319,166.096401 142.716681,171.910303 C142.572106,166.239145 142.427531,160.567987 142.282956,154.89683 C141.736598,161.82246 141.188559,168.74977 140.6422,175.675401 C137.717082,164.460716 137.360689,152.586047 139.606641,141.215183 C138.5072,142.751786 137.409441,144.290069 136.311681,145.826672 C136.098181,141.255487 131.070004,138.701199 126.776468,137.107498 C110.807677,131.177721 94.7934957,125.363819 78.7389681,119.665792 C77.8395783,119.346716 76.8510902,119.02764 75.9550626,119.356792 C74.236976,119.989906 74.1377909,122.361145 74.450476,124.163085 C77.0410547,139.072335 87.12935,152.486966 100.742917,159.122069 C111.624693,164.428808 121.455779,171.875036 129.503216,180.913286 C122.329952,176.607439 115.155007,172.301591 107.981744,167.995743 C101.34307,164.01233 94.6724563,160.012123 87.4924681,157.115248 C72.7407949,151.16364 56.0440862,150.145955 40.6771295,154.263716 C52.3490232,159.147259 63.2324799,165.903276 72.7861846,174.192536 C89.4744878,188.670194 115.995559,190.339466 134.370007,178.066792 C144.421319,171.352759 158.13407,175.524259 168.474531,181.786547 C178.813311,188.048835 188.54185,196.415346 200.511299,198.126602 C197.139007,198.44064 193.766716,198.752998 190.392744,199.065357 C223.818102,200.051134 257.24346,201.035232 290.668819,202.021009 C293.108098,202.091542 295.601173,202.157036 297.934543,201.436596 C300.195626,200.736308 302.164196,199.342449 304.157984,198.067824 C313.219126,192.275754 323.636917,188.619814 334.33209,187.477857 C308.506996,181.60014 282.68022,175.724102 256.855126,169.848064 C285.751594,171.152917 313.942,178.777156 341.855023,186.356053 C340.09659,186.957259 338.339838,187.558466 336.581405,188.161352 C338.672696,189.53002 341.367504,189.939781 343.77148,189.252928 C344.010196,187.31496 344.248913,185.378672 344.48763,183.440705 C329.715783,185.313178 317.036909,171.880074 302.186051,170.818727 C253.763578,167.355911 205.203256,165.832743 156.661425,166.254259 C156.792551,164.314612 155.168606,162.423667 153.228614,162.257411 C157.138858,157.585466 157.071614,150.874792 156.802637,144.790515 C155.699834,119.801819 154.59535,94.8131234 153.492547,69.8244277 C151.927441,68.6925473 150.732177,67.0585418 150.12698,65.224694 C153.073952,65.1306505 156.020925,65.0366071 158.967897,64.9425636 C159.208295,62.9391016 160.413645,61.0733462 162.140137,60.0287918 C163.572437,61.6107375 163.819559,64.1448734 162.720118,65.9736832 C216.76924,69.082156 270.394724,79.4689223 321.688519,96.7678842 C327.409311,98.6974549 335.085224,100.092993 338.317984,94.999531 C336.189708,98.9711886 340.466433,103.320699 344.430472,105.465227 C348.396193,107.611433 353.271389,110.461286 352.901547,114.951862 C351.011988,137.95389 350.474035,161.066754 351.294413,184.132596 C349.529256,185.840493 347.765779,187.54839 346.002303,189.256286 C354.680153,189.914591 363.105838,193.535265 369.551185,199.379395 C372.637689,174.511612 375.724193,149.64383 378.812378,124.777727 C378.047476,147.438846 377.282574,170.099966 376.517673,192.761085 C376.36133,197.355781 376.314259,202.326651 378.997299,206.06152 L378.997299,206.06152 Z" id="Fill-54" fill="#020302" mask="url(#mask-4)"></path>
                </g>
            </g>
        </g>
    </g>
</svg>